#VRML V2.0 utf8
# 3D model generated by kicad-lcsc-manager
# Based on easyeda2kicad.py v1.0.1

Shape{
    appearance Appearance {
        material  Material {
            diffuseColor 0.5098039215686274 0.5098039215686274 0.6274509803921569
            specularColor 0.2549019607843137 0.2549019607843137 0.3137254901960784
            ambientIntensity 0.5232
            transparency 0.0
            shininess 0.5
        }
    }
    geometry IndexedFaceSet {
        ccw TRUE
        solid FALSE
        coord DEF co Coordinate {
            point [
                -221.0802 328.8858 0.4016, -221.0703 328.8645 0.4016, -221.0802 329.9156 0.4016, -221.0442 328.8753 0.4016, -221.0822 328.8705 0.4016, -221.0881 328.8562 0.4016, -221.0927 328.8473 0.4016, -221.0975 328.844 0.4016, -221.11 328.8249 0.4016, -221.1097 328.8346 0.4016, -221.1208 328.7988 0.4016, -221.124 328.8287 0.4016, -222.9847 329.9201 0.4016, -222.9847 328.879 0.4016, -222.9663 329.9217 0.4016, -222.9567 328.8753 0.4016, -222.9405 329.9296 0.4016, -222.9306 328.8645 0.4016, -222.9187 328.8705 0.4016, -221.1393 328.8267 0.4016, -222.8801 328.7988 0.4016, -221.1245 328.7707 0.4016, -222.8764 328.7707 0.4016, -222.9207 328.8858 0.4016, -222.9207 329.9156 0.4016, -222.9198 329.9255 0.4016, -222.9174 329.9436 0.4016, -222.9157 329.9394 0.4016, -222.9085 329.9515 0.4016, -222.8616 328.8267 0.4016, -222.8769 328.8287 0.4016, -222.8909 328.8249 0.4016, -222.8911 328.8346 0.4016, -222.9081 328.8473 0.4016, -222.9034 328.844 0.4016, -222.9128 328.8562 0.4016, -221.0162 328.879 0.4016, -221.0162 329.9202 0.4016, -221.0409 329.9225 0.4016, -221.0645 329.9304 0.4016, -221.0822 329.9308 0.4016, -221.0856 329.9436 0.4016, -221.0881 329.9451 0.4016, -221.0887 329.9461 0.4016, -221.0162 329.9202 0.0079, -221.0162 329.3219 0.0079, -221.0162 328.879 0.0079, -222.8765 330.0306 0.0079, -222.8765 330.0306 0.4016, -221.923 330.0306 0.0079, -221.1266 330.0306 0.4016, -221.1266 330.0306 0.0079, -222.9847 329.9201 0.0079, -222.9847 329.3219 0.0079, -222.9847 328.879 0.0079, -222.8764 328.7707 0.0079, -221.923 328.7707 0.0079, -221.1245 328.7707 0.0079
            ]
        }
        coordIndex [
            0,1,2,-1,2,1,3,-1,0,4,1,-1,1,4,5,-1,1,5,6,-1,6,5,7,-1,6,7,8,-1,8,7,9,-1,8,9,10,-1,10,9,11,-1,12,13,14,-1,14,13,15,-1,14,15,16,-1,15,17,18,-1,11,19,10,-1,10,19,20,-1,10,20,21,-1,21,20,22,-1,18,23,15,-1,15,23,24,-1,15,24,16,-1,16,24,25,-1,16,25,26,-1,26,25,27,-1,26,27,28,-1,19,29,20,-1,20,29,30,-1,20,30,31,-1,31,30,32,-1,31,32,33,-1,33,32,34,-1,33,34,17,-1,17,34,35,-1,17,35,18,-1,36,37,3,-1,3,37,38,-1,3,38,2,-1,2,38,39,-1,2,39,40,-1,40,39,41,-1,40,41,42,-1,42,41,43,-1,44,37,45,-1,45,37,36,-1,45,36,46,-1,47,48,49,-1,49,48,50,-1,49,50,51,-1,12,52,13,-1,13,52,53,-1,13,53,54,-1,22,55,21,-1,21,55,56,-1,21,56,57,-1,
        ]
    }
}
Shape{
    appearance Appearance {
        material  Material {
            diffuseColor 0.9019607843137255 0.7843137254901961 0.6862745098039216
            specularColor 0.45098039215686275 0.39215686274509803 0.3411764705882353
            ambientIntensity 0.8083
            transparency 0.0
            shininess 0.5
        }
    }
    geometry IndexedFaceSet {
        ccw TRUE
        solid FALSE
        coord DEF co Coordinate {
            point [
                -221.1053 329.9639 0.4028, -221.1053 329.9639 0.4016, -221.1097 329.9667 0.4016, -221.0881 329.9451 0.4016, -221.0887 329.9461 0.4016, -221.0887 329.9461 0.4028, -221.1097 329.9667 0.4409, -221.0975 329.9573 0.4028, -221.0975 329.9573 0.4409, -221.0881 329.9451 0.4409, -221.0822 329.9308 0.4409, -221.0822 329.9308 0.4016, -221.0802 329.9156 0.4409, -221.0802 329.9156 0.4016, -221.124 329.9726 0.4016, -221.124 329.9726 0.4409, -221.1393 329.9746 0.4016, -221.1393 329.9746 0.4409, -222.9207 329.9156 0.4016, -222.9207 329.9156 0.4409, -222.9198 329.9255 0.4409, -222.8979 329.9621 0.4016, -222.9015 329.9591 0.4016, -222.9015 329.9591 0.4028, -222.9085 329.9515 0.4028, -222.9157 329.9394 0.4409, -222.9082 329.9518 0.4028, -222.9082 329.9519 0.4409, -222.8979 329.9621 0.4409, -222.8854 329.9696 0.4409, -222.8854 329.9696 0.4016, -222.8715 329.9738 0.4409, -222.8715 329.9738 0.4016, -222.8616 329.9746 0.4409, -222.8616 329.9746 0.4016, -222.9198 329.9255 0.4016, -222.9157 329.9394 0.4016, -222.9085 329.9515 0.4016
            ]
        }
        coordIndex [
            0,1,2,-1,3,4,5,-1,0,6,7,-1,7,6,8,-1,7,8,5,-1,5,8,9,-1,5,9,3,-1,3,9,10,-1,3,10,11,-1,11,10,12,-1,11,12,13,-1,0,2,6,-1,6,2,14,-1,6,14,15,-1,15,14,16,-1,15,16,17,-1,18,19,20,-1,21,22,23,-1,24,25,26,-1,26,25,27,-1,26,27,23,-1,23,27,28,-1,23,28,21,-1,21,28,29,-1,21,29,30,-1,30,29,31,-1,30,31,32,-1,32,31,33,-1,32,33,34,-1,18,20,35,-1,35,20,25,-1,35,25,36,-1,36,25,24,-1,36,24,37,-1,
        ]
    }
}
Shape{
    appearance Appearance {
        material  Material {
            diffuseColor 0.5098039215686274 0.5098039215686274 0.6274509803921569
            specularColor 0.2549019607843137 0.2549019607843137 0.3137254901960784
            ambientIntensity 0.5232
            transparency 0.0
            shininess 0.5
        }
    }
    geometry IndexedFaceSet {
        ccw TRUE
        solid FALSE
        coord DEF co Coordinate {
            point [
                -221.8773 329.4471 0.0079, -221.8638 329.4456 0.0079, -221.9071 329.3436 0.0079, -221.7247 329.3227 0.0079, -221.8636 329.3219 0.0079, -221.7953 329.3227 0.0079, -221.8547 329.3228 0.0079, -221.8413 329.3274 0.0079, -221.8941 329.4449 0.0079, -221.9096 329.345 0.0079, -221.9096 329.4383 0.0079, -221.923 330.0306 0.0079, -221.9096 329.4568 0.0079, -221.8534 329.4419 0.0079, -221.8439 329.4355 0.0079, -221.8356 329.4263 0.0079, -221.8256 329.3902 0.0079, -221.827 329.3753 0.0079, -221.8307 329.3634 0.0079, -221.8614 329.3376 0.0079, -221.8742 329.3362 0.0079, -221.8513 329.3413 0.0079, -221.8429 329.347 0.0079, -221.8364 329.3539 0.0079, -221.8925 329.3382 0.0079, -221.1163 329.9823 0.0079, -221.1032 329.9611 0.0079, -221.8144 329.4242 0.0079, -221.8224 329.4371 0.0079, -221.7432 329.4605 0.0079, -221.7247 329.4605 0.0079, -221.1266 330.0306 0.0079, -221.1243 330.0058 0.0079, -221.8299 329.4156 0.0079, -221.8262 329.4009 0.0079, -221.8303 329.3345 0.0079, -221.8199 329.3454 0.0079, -221.7953 329.3379 0.0079, -221.8126 329.3585 0.0079, -221.7432 329.3379 0.0079, -221.8349 329.4491 0.0079, -221.848 329.4566 0.0079, -221.8633 329.4611 0.0079, -221.0856 329.9436 0.0079, -221.0645 329.9304 0.0079, -221.0409 329.9225 0.0079, -221.8084 329.3731 0.0079, -221.8071 329.389 0.0079, -221.8091 329.4086 0.0079, -221.8772 329.4622 0.0079, -221.8937 329.4611 0.0079, -221.0703 328.8645 0.0079, -221.0927 328.8473 0.0079, -221.0162 329.3219 0.0079, -221.0162 328.879 0.0079, -221.0442 328.8753 0.0079, -221.923 329.3219 0.0079, -221.11 328.8249 0.0079, -221.923 328.7707 0.0079, -221.1208 328.7988 0.0079, -221.1245 328.7707 0.0079, -221.0162 329.9202 0.0079, -221.9096 329.3299 0.0079, -221.8949 329.3239 0.0079, -221.881 329.3219 0.0079, -221.8754 329.3211 0.0079, -221.8717 329.3211 0.0079, -222.2625 329.3227 0.0079, -222.2485 329.3614 0.0079, -222.1916 329.3614 0.0079, -222.0104 329.3227 0.0079, -221.9365 329.3227 0.0079, -221.9365 329.4605 0.0079, -222.1413 329.3605 0.0079, -222.1334 329.3482 0.0079, -222.1583 329.3227 0.0079, -222.1221 329.3373 0.0079, -222.0071 329.4605 0.0079, -222.8765 330.0306 0.0079, -222.1077 329.329 0.0079, -222.0918 329.3242 0.0079, -222.0748 329.3227 0.0079, -221.955 329.4454 0.0079, -221.955 329.4 0.0079, -222.0071 329.4454 0.0079, -222.0037 329.4 0.0079, -222.0373 329.4605 0.0079, -222.0037 329.3849 0.0079, -221.955 329.3849 0.0079, -221.955 329.3379 0.0079, -222.0104 329.3379 0.0079, -222.0373 329.3227 0.0079, -222.0961 329.4584 0.0079, -222.1122 329.4528 0.0079, -222.2104 329.4605 0.0079, -222.1272 329.4427 0.0079, -222.885 329.9862 0.0079, -222.8776 330.0122 0.0079, -222.2289 329.4605 0.0079, -222.1274 329.4426 0.0079, -222.1371 329.4318 0.0079, -222.1435 329.4199 0.0079, -222.0762 329.4605 0.0079, -222.1472 329.4063 0.0079, -222.1482 329.3934 0.0079, -222.1463 329.3749 0.0079, -222.9663 329.9217 0.0079, -222.9405 329.9296 0.0079, -222.2827 329.3227 0.0079, -222.9174 329.9436 0.0079, -222.8985 329.9628 0.0079, -222.1785 329.3227 0.0079, -222.9847 329.9201 0.0079, -222.9847 329.3219 0.0079, -222.8764 328.7707 0.0079, -222.8801 328.7988 0.0079, -222.8909 328.8249 0.0079, -222.9081 328.8473 0.0079, -222.9306 328.8645 0.0079, -222.9567 328.8753 0.0079, -222.9847 328.879 0.0079, -221.5729 329.3624 0.4409, -221.6017 329.3624 0.4409, -221.6017 329.3504 0.4409, -222.0554 329.3168 0.4409, -222.0794 329.3168 0.4409, -222.8616 328.8267 0.4409, -222.2571 329.3168 0.4409, -222.2571 329.3504 0.4409, -222.2983 329.3504 0.4409, -222.1635 329.3168 0.4409, -222.1491 329.3168 0.4409, -222.1345 329.3504 0.4409, -222.3007 329.3437 0.4409, -222.3071 329.3345 0.4409, -222.3153 329.3273 0.4409, -222.3264 329.3212 0.4409, -222.3456 329.3159 0.4409, -222.366 329.3144 0.4409, -222.9207 328.8858 0.4409, -222.9187 328.8705 0.4409, -222.4155 329.3246 0.4409, -222.9128 328.8562 0.4409, -222.3913 329.317 0.4409, -222.4092 329.3216 0.4409, -222.8769 328.8287 0.4409, -222.9034 328.844 0.4409, -222.8911 328.8346 0.4409, -222.029 328.8267 0.4409, -222.029 329.3504 0.4409, -222.0554 329.3504 0.4409, -222.0554 329.5137 0.4409, -222.9207 329.3504 0.4409, -222.4155 329.3504 0.4409, -222.9207 329.9156 0.4409, -222.4155 329.3534 0.4409, -222.9198 329.9255 0.4409, -222.0866 329.5137 0.4409, -222.029 329.9746 0.4409, -222.3027 329.4818 0.4409, -222.3027 329.5107 0.4409, -222.2571 329.5137 0.4409, -222.2956 329.3707 0.4409, -222.2955 329.3676 0.4409, -222.297 329.3537 0.4409, -222.8616 329.9746 0.4409, -222.8715 329.9738 0.4409, -222.8854 329.9696 0.4409, -222.8979 329.9621 0.4409, -222.4155 329.4632 0.4409, -222.4138 329.4768 0.4409, -222.4099 329.4863 0.4409, -222.9082 329.9519 0.4409, -222.9157 329.9394 0.4409, -222.3222 329.4118 0.4409, -222.3091 329.4008 0.4409, -222.3018 329.3911 0.4409, -222.2975 329.3812 0.4409, -222.1564 329.3552 0.4409, -222.1555 329.3552 0.4409, -222.1604 329.3674 0.4409, -222.151 329.3675 0.4409, -222.1652 329.3793 0.4409, -222.4027 329.4305 0.4409, -222.4092 329.4391 0.4409, -222.4136 329.4495 0.4409, -222.4154 329.4604 0.4409, -222.3473 329.4259 0.4409, -222.3176 329.4896 0.4409, -222.3656 329.4356 0.4409, -222.3344 329.4936 0.4409, -222.348 329.4944 0.4409, -222.4106 329.3504 0.4409, -222.3674 329.4074 0.4409, -222.3918 329.4215 0.4409, -222.4037 329.4948 0.4409, -222.3953 329.5021 0.4409, -222.3842 329.5085 0.4409, -222.3677 329.5139 0.4409, -222.3459 329.5161 0.4409, -222.3241 329.5151 0.4409, -222.1462 329.3798 0.4409, -222.2235 329.5137 0.4409, -222.3298 329.3846 0.4409, -222.3379 329.3914 0.4409, -222.3406 329.3932 0.4409, -222.3862 329.4529 0.4409, -222.3883 329.4583 0.4409, -222.3891 329.4658 0.4409, -222.3829 329.448 0.4409, -222.3768 329.4427 0.4409, -222.3219 329.3654 0.4409, -222.3227 329.3576 0.4409, -222.325 329.3515 0.4409, -222.3839 329.4813 0.4409, -222.3868 329.4769 0.4409, -222.3885 329.4718 0.4409, -222.3228 329.3724 0.4409, -222.325 329.378 0.4409, -222.3618 329.4932 0.4409, -222.3722 329.4899 0.4409, -222.3794 329.4856 0.4409, -222.3257 329.3504 0.4409, -222.4011 329.3446 0.4409, -222.3778 329.3374 0.4409, -222.363 329.336 0.4409, -222.3488 329.3371 0.4409, -222.3276 329.3476 0.4409, -222.3388 329.3398 0.4409, -222.3317 329.3437 0.4409, -222.2331 329.3168 0.4409, -222.2331 329.3504 0.4409, -222.1778 329.3504 0.4409, -222.2331 329.447 0.4409, -222.2332 329.4671 0.4409, -222.2331 329.4872 0.4409, -222.2338 329.4872 0.4409, -222.2306 329.4766 0.4409, -222.2273 329.4661 0.4409, -222.0789 329.4677 0.4409, -222.0775 329.4872 0.4409, -222.0782 329.4872 0.4409, -222.0807 329.4771 0.4409, -222.084 329.4673 0.4409, -222.0794 329.4482 0.4409, -222.0794 329.3504 0.4409, -221.8469 329.3917 0.4409, -221.8539 329.3711 0.4409, -221.813 329.384 0.4409, -221.7386 329.384 0.4409, -221.7169 329.3829 0.4409, -221.7386 329.4032 0.4409, -221.6733 329.4386 0.4409, -221.6346 329.5 0.4409, -221.8651 329.3534 0.4409, -221.8682 329.3504 0.4409, -221.7169 329.3624 0.4409, -221.6017 329.5137 0.4409, -221.1393 329.9746 0.4409, -221.6274 329.5137 0.4409, -221.6017 329.384 0.4409, -221.5729 329.384 0.4409, -221.8442 329.4177 0.4409, -221.813 329.4032 0.4409, -221.8444 329.4243 0.4409, -222.0026 329.5137 0.4409, -221.9471 329.5137 0.4409, -221.8663 329.4804 0.4409, -221.855 329.4645 0.4409, -221.0975 329.9573 0.4409, -221.1097 329.9667 0.4409, -221.124 329.9726 0.4409, -221.9198 329.5109 0.4409, -221.8967 329.5031 0.4409, -221.8769 329.4905 0.4409, -221.8475 329.4452 0.4409, -221.0802 329.3504 0.4409, -221.0802 329.9156 0.4409, -221.0822 329.9308 0.4409, -221.0881 329.9451 0.4409, -221.0802 328.8858 0.4409, -221.6017 329.3168 0.4409, -221.0822 328.8705 0.4409, -221.6257 329.3168 0.4409, -221.1393 328.8267 0.4409, -221.124 328.8287 0.4409, -221.1097 328.8346 0.4409, -221.0975 328.844 0.4409, -221.0881 328.8562 0.4409, -221.6257 329.3624 0.4409, -221.6257 329.3504 0.4409, -221.8812 329.3379 0.4409, -221.9016 329.3259 0.4409, -221.9243 329.319 0.4409, -221.9491 329.3168 0.4409, -222.0026 329.3168 0.4409, -222.0026 329.3504 0.4409
            ]
        }
        coordIndex [
            0,1,2,-1,3,4,5,-1,5,4,6,-1,5,6,7,-1,0,2,8,-1,8,2,9,-1,8,9,10,-1,10,9,11,-1,10,11,12,-1,1,13,2,-1,2,13,14,-1,2,14,15,-1,16,17,2,-1,2,17,18,-1,19,20,21,-1,21,20,22,-1,18,23,2,-1,2,23,22,-1,2,22,24,-1,24,22,20,-1,3,25,26,-1,27,28,29,-1,29,28,11,-1,29,11,30,-1,30,11,31,-1,30,31,3,-1,3,31,32,-1,3,32,25,-1,15,33,2,-1,2,33,34,-1,2,34,16,-1,7,35,5,-1,5,35,36,-1,5,36,37,-1,37,36,38,-1,37,38,39,-1,28,40,11,-1,11,40,41,-1,11,41,42,-1,26,43,3,-1,3,43,44,-1,3,44,45,-1,38,46,39,-1,39,46,47,-1,39,47,29,-1,29,47,48,-1,29,48,27,-1,42,49,11,-1,11,49,50,-1,11,50,12,-1,51,52,4,-1,53,54,55,-1,56,57,58,-1,58,57,59,-1,58,59,60,-1,45,61,3,-1,3,61,53,-1,3,53,4,-1,4,53,55,-1,4,55,51,-1,62,63,56,-1,56,63,64,-1,56,64,57,-1,57,64,65,-1,57,65,52,-1,52,65,66,-1,52,66,4,-1,67,68,69,-1,70,71,56,-1,56,71,72,-1,73,74,75,-1,75,74,76,-1,77,78,72,-1,72,78,11,-1,72,11,56,-1,56,11,9,-1,56,9,62,-1,76,79,75,-1,75,79,80,-1,75,80,81,-1,82,83,84,-1,84,83,85,-1,84,85,86,-1,86,85,87,-1,88,89,87,-1,87,89,90,-1,87,90,86,-1,86,90,70,-1,86,70,91,-1,91,70,56,-1,92,93,94,-1,94,93,95,-1,96,97,98,-1,98,97,78,-1,98,78,94,-1,95,99,94,-1,94,99,100,-1,94,100,101,-1,92,94,102,-1,102,94,78,-1,102,78,86,-1,86,78,77,-1,86,77,84,-1,101,103,94,-1,94,103,104,-1,94,104,75,-1,75,104,105,-1,75,105,73,-1,106,107,108,-1,108,107,109,-1,108,109,98,-1,98,109,110,-1,98,110,96,-1,111,75,56,-1,56,75,81,-1,56,81,91,-1,112,106,113,-1,113,106,108,-1,113,108,56,-1,56,108,67,-1,56,67,111,-1,111,67,69,-1,58,114,56,-1,56,114,115,-1,56,115,116,-1,116,117,56,-1,56,117,118,-1,56,118,113,-1,113,118,119,-1,113,119,120,-1,121,122,123,-1,124,125,126,-1,127,128,129,-1,130,126,131,-1,131,126,125,-1,131,125,132,-1,129,133,127,-1,127,133,134,-1,127,134,135,-1,136,137,126,-1,126,137,138,-1,139,140,141,-1,141,140,142,-1,138,143,126,-1,126,143,144,-1,126,144,145,-1,145,144,141,-1,142,146,141,-1,141,146,147,-1,141,147,145,-1,126,148,124,-1,124,148,149,-1,124,149,150,-1,150,149,151,-1,139,141,152,-1,152,141,153,-1,152,153,154,-1,154,153,155,-1,154,155,156,-1,157,151,158,-1,159,128,160,-1,160,128,161,-1,162,163,128,-1,128,163,164,-1,128,164,129,-1,165,166,155,-1,155,166,167,-1,155,167,168,-1,169,170,165,-1,165,170,171,-1,168,172,155,-1,155,172,173,-1,155,173,156,-1,174,175,159,-1,159,175,176,-1,159,176,128,-1,128,176,177,-1,128,177,162,-1,178,179,180,-1,180,179,181,-1,180,181,182,-1,183,184,155,-1,155,184,185,-1,155,185,165,-1,165,185,186,-1,165,186,169,-1,174,159,187,-1,187,159,188,-1,187,188,189,-1,189,188,190,-1,189,190,191,-1,192,193,155,-1,155,193,194,-1,155,194,183,-1,171,195,165,-1,165,195,196,-1,165,196,197,-1,197,198,165,-1,165,198,199,-1,165,199,200,-1,181,201,182,-1,182,201,157,-1,182,157,202,-1,202,157,158,-1,202,158,161,-1,161,158,165,-1,161,165,160,-1,160,165,200,-1,203,204,192,-1,192,204,205,-1,192,205,193,-1,206,191,207,-1,207,191,208,-1,206,209,191,-1,191,209,210,-1,191,210,189,-1,211,192,212,-1,212,192,213,-1,214,215,216,-1,211,217,192,-1,192,217,218,-1,192,218,203,-1,191,219,208,-1,208,219,220,-1,208,220,216,-1,216,220,221,-1,216,221,214,-1,213,192,222,-1,222,192,223,-1,222,223,224,-1,224,225,222,-1,222,225,226,-1,222,226,227,-1,227,226,228,-1,227,228,229,-1,135,136,127,-1,127,136,126,-1,127,126,230,-1,230,126,130,-1,230,130,231,-1,231,130,232,-1,231,232,233,-1,233,232,234,-1,235,236,237,-1,237,236,234,-1,237,234,238,-1,238,234,232,-1,239,240,241,-1,241,242,239,-1,239,242,243,-1,239,243,244,-1,244,243,132,-1,244,132,245,-1,245,132,125,-1,246,247,248,-1,249,250,251,-1,251,250,252,-1,251,252,253,-1,247,254,248,-1,248,254,255,-1,248,255,249,-1,249,255,256,-1,249,256,250,-1,257,258,259,-1,259,258,158,-1,257,260,261,-1,246,248,262,-1,262,248,263,-1,262,263,264,-1,151,149,158,-1,158,149,265,-1,158,265,266,-1,259,267,268,-1,269,270,257,-1,257,270,271,-1,257,271,258,-1,266,272,158,-1,158,272,273,-1,158,273,259,-1,259,273,274,-1,259,274,267,-1,253,259,251,-1,251,259,268,-1,251,268,263,-1,263,268,275,-1,263,275,264,-1,276,277,261,-1,261,277,278,-1,261,278,257,-1,257,278,279,-1,257,279,269,-1,261,121,276,-1,276,121,123,-1,276,123,280,-1,280,123,281,-1,280,281,282,-1,281,283,148,-1,148,284,281,-1,281,284,285,-1,281,285,286,-1,286,287,281,-1,281,287,288,-1,281,288,282,-1,289,256,290,-1,290,256,255,-1,290,255,283,-1,283,255,291,-1,283,291,148,-1,148,291,292,-1,148,292,293,-1,293,294,148,-1,148,294,295,-1,148,295,149,-1,149,295,296,-1,149,296,265,-1,
        ]
    }
}
Shape{
    appearance Appearance {
        material  Material {
            diffuseColor 0.9019607843137255 0.7843137254901961 0.6862745098039216
            specularColor 0.45098039215686275 0.39215686274509803 0.3411764705882353
            ambientIntensity 0.8083
            transparency 0.0
            shininess 0.5
        }
    }
    geometry IndexedFaceSet {
        ccw TRUE
        solid FALSE
        coord DEF co Coordinate {
            point [
                -222.8616 329.9746 0.4016, -221.1393 329.9746 0.4016, -221.1243 330.0058 0.4016, -221.124 329.9726 0.4016, -221.1163 329.9823 0.4016, -221.1097 329.9667 0.4016, -221.1053 329.9639 0.4016, -222.8854 329.9696 0.4016, -222.885 329.9862 0.4016, -222.8979 329.9621 0.4016, -222.8985 329.9628 0.4016, -222.9015 329.9591 0.4016, -222.8715 329.9738 0.4016, -222.8776 330.0122 0.4016, -222.8765 330.0306 0.4016, -221.1266 330.0306 0.4016, -221.0802 328.8858 0.4409, -221.0802 328.8858 0.4016, -221.0802 329.3504 0.4409, -221.0802 329.9156 0.4016, -221.0802 329.9156 0.4409, -221.1393 329.9746 0.4409, -222.029 329.9746 0.4409, -222.8616 329.9746 0.4409, -222.9207 329.9156 0.4409, -222.9207 329.9156 0.4016, -222.9207 329.3504 0.4409, -222.9207 328.8858 0.4016, -222.9207 328.8858 0.4409, -222.8616 328.8267 0.4409, -222.8616 328.8267 0.4016, -222.029 328.8267 0.4409, -221.1393 328.8267 0.4016, -221.1393 328.8267 0.4409, -221.124 328.8287 0.4016, -221.124 328.8287 0.4409, -221.1097 328.8346 0.4016, -221.1097 328.8346 0.4409, -221.0975 328.844 0.4016, -221.0975 328.844 0.4409, -221.0881 328.8562 0.4016, -221.0881 328.8562 0.4409, -221.0822 328.8705 0.4016, -221.0822 328.8705 0.4409, -222.9187 328.8705 0.4016, -222.9187 328.8705 0.4409, -222.9128 328.8562 0.4016, -222.9128 328.8562 0.4409, -222.9034 328.844 0.4016, -222.9034 328.844 0.4409, -222.8911 328.8346 0.4016, -222.8911 328.8346 0.4409, -222.8769 328.8287 0.4016, -222.8769 328.8287 0.4409
            ]
        }
        coordIndex [
            0,1,2,-1,2,1,3,-1,2,3,4,-1,4,3,5,-1,4,5,6,-1,7,8,9,-1,9,8,10,-1,9,10,11,-1,7,12,8,-1,8,12,0,-1,8,0,13,-1,13,0,2,-1,13,2,14,-1,14,2,15,-1,16,17,18,-1,18,17,19,-1,18,19,20,-1,21,1,22,-1,22,1,0,-1,22,0,23,-1,24,25,26,-1,26,25,27,-1,26,27,28,-1,29,30,31,-1,31,30,32,-1,31,32,33,-1,33,32,34,-1,33,34,35,-1,35,34,36,-1,35,36,37,-1,37,36,38,-1,37,38,39,-1,39,38,40,-1,39,40,41,-1,41,40,42,-1,41,42,43,-1,43,42,17,-1,43,17,16,-1,28,27,44,-1,28,44,45,-1,45,44,46,-1,45,46,47,-1,47,46,48,-1,47,48,49,-1,49,48,50,-1,49,50,51,-1,51,50,52,-1,51,52,53,-1,53,52,30,-1,53,30,29,-1,
        ]
    }
}
Shape{
    appearance Appearance {
        material  Material {
            diffuseColor 0.8509803921568627 0.8509803921568627 0.8509803921568627
            specularColor 0.4235294117647059 0.4235294117647059 0.4235294117647059
            ambientIntensity 0.851
            transparency 0.0
            shininess 0.5
        }
    }
    geometry IndexedFaceSet {
        ccw TRUE
        solid FALSE
        coord DEF co Coordinate {
            point [
                -221.6274 329.5137 0.437, -221.6017 329.5137 0.437, -221.6274 329.5137 0.4409, -221.6017 329.5137 0.4409, -221.6017 329.384 0.437, -221.6017 329.384 0.4409, -221.5729 329.384 0.437, -221.5729 329.384 0.4409, -221.5729 329.3624 0.437, -221.5729 329.3624 0.4409, -221.6017 329.3624 0.437, -221.6017 329.3624 0.4409, -221.6017 329.3168 0.437, -221.6017 329.3168 0.4409, -221.6017 329.3504 0.4409, -221.6257 329.3168 0.437, -221.6257 329.3168 0.4409, -221.6257 329.3504 0.4409, -221.6257 329.3624 0.437, -221.6257 329.3624 0.4409, -221.7169 329.3624 0.437, -221.7169 329.3624 0.4409, -221.7169 329.3829 0.437, -221.7169 329.3829 0.4409, -221.6346 329.5 0.4409, -221.6346 329.5 0.437, -221.6733 329.4386 0.4409, -221.6733 329.4386 0.437, -221.6891 329.384 0.437, -221.6553 329.4294 0.437, -221.6257 329.4775 0.437, -221.6257 329.384 0.437, -221.6891 329.384 0.4409, -221.6553 329.4294 0.4409, -221.6257 329.4775 0.4409, -221.6257 329.384 0.4409, -221.7386 329.4032 0.437, -221.7386 329.384 0.437, -221.7386 329.4032 0.4409, -221.7386 329.384 0.4409, -221.813 329.384 0.437, -221.813 329.384 0.4409, -221.813 329.4032 0.437, -221.813 329.4032 0.4409, -221.9491 329.3168 0.437, -222.0026 329.3168 0.437, -221.9491 329.3168 0.4409, -222.0026 329.3168 0.4409, -222.0026 329.3504 0.4409, -222.0026 329.5137 0.437, -222.0026 329.5137 0.4409, -221.9471 329.5137 0.437, -221.9471 329.5137 0.4409, -221.8442 329.4177 0.437, -221.8442 329.4177 0.4409, -221.8444 329.4243 0.4409, -221.8444 329.4243 0.437, -221.8475 329.4452 0.4409, -221.8475 329.4452 0.437, -221.855 329.4645 0.4409, -221.855 329.4645 0.437, -221.8663 329.4804 0.4409, -221.8663 329.4804 0.437, -221.8769 329.4905 0.4409, -221.8769 329.4905 0.437, -221.8967 329.5031 0.4409, -221.8967 329.5031 0.437, -221.9198 329.5109 0.4409, -221.9198 329.5109 0.437, -221.8812 329.3379 0.4409, -221.9016 329.3259 0.437, -221.9016 329.3259 0.4409, -221.9243 329.319 0.437, -221.9243 329.319 0.4409, -221.8682 329.3504 0.4409, -221.8651 329.3534 0.437, -221.8812 329.3379 0.437, -221.8651 329.3534 0.4409, -221.8539 329.3711 0.4409, -221.8539 329.3711 0.437, -221.8469 329.3917 0.4409, -221.8469 329.3917 0.437, -221.8706 329.4171 0.437, -221.8723 329.4367 0.437, -221.8769 329.4524 0.437, -221.8837 329.4645 0.437, -221.8933 329.4746 0.437, -221.9077 329.4839 0.437, -221.924 329.4896 0.437, -221.9472 329.492 0.437, -221.9762 329.492 0.437, -221.9762 329.3384 0.437, -221.9483 329.3384 0.437, -221.9275 329.3403 0.437, -221.9109 329.3455 0.437, -221.8975 329.3535 0.437, -221.8864 329.3644 0.437, -221.8781 329.378 0.437, -221.8724 329.3965 0.437, -221.9472 329.492 0.4409, -221.9762 329.492 0.4409, -221.924 329.4896 0.4409, -221.9077 329.4839 0.4409, -221.8933 329.4746 0.4409, -221.8837 329.4645 0.4409, -221.8769 329.4524 0.4409, -221.8723 329.4367 0.4409, -221.8706 329.4171 0.4409, -221.8724 329.3965 0.4409, -221.8781 329.378 0.4409, -221.8864 329.3644 0.4409, -221.8975 329.3535 0.4409, -221.9109 329.3455 0.4409, -221.9275 329.3403 0.4409, -221.9483 329.3384 0.4409, -221.9762 329.3384 0.4409, -222.0554 329.3168 0.437, -222.0794 329.3168 0.437, -222.0554 329.3168 0.4409, -222.0794 329.3168 0.4409, -222.0794 329.3504 0.4409, -222.0794 329.4482 0.437, -222.0794 329.4482 0.4409, -222.0775 329.4872 0.437, -222.0775 329.4872 0.4409, -222.0789 329.4677 0.4409, -222.0789 329.4677 0.437, -222.0782 329.4872 0.437, -222.0782 329.4872 0.4409, -222.084 329.4673 0.437, -222.084 329.4673 0.4409, -222.0807 329.4771 0.4409, -222.0807 329.4771 0.437, -222.1345 329.3504 0.4409, -222.1491 329.3168 0.437, -222.1491 329.3168 0.4409, -222.1635 329.3168 0.437, -222.1635 329.3168 0.4409, -222.1778 329.3504 0.4409, -222.2273 329.4661 0.437, -222.2273 329.4661 0.4409, -222.2331 329.4872 0.437, -222.2331 329.4872 0.4409, -222.2306 329.4766 0.4409, -222.2306 329.4766 0.437, -222.2338 329.4872 0.437, -222.2338 329.4872 0.4409, -222.2331 329.447 0.437, -222.2331 329.447 0.4409, -222.2332 329.4671 0.4409, -222.2332 329.4671 0.437, -222.2331 329.3504 0.4409, -222.2331 329.3168 0.437, -222.2331 329.3168 0.4409, -222.2571 329.3168 0.437, -222.2571 329.3168 0.4409, -222.2571 329.3504 0.4409, -222.2571 329.5137 0.437, -222.2571 329.5137 0.4409, -222.2235 329.5137 0.437, -222.2235 329.5137 0.4409, -222.1652 329.3793 0.437, -222.1652 329.3793 0.4409, -222.1564 329.3552 0.437, -222.1564 329.3552 0.4409, -222.1604 329.3674 0.4409, -222.1604 329.3674 0.437, -222.1555 329.3552 0.437, -222.1555 329.3552 0.4409, -222.1462 329.3798 0.437, -222.1462 329.3798 0.4409, -222.151 329.3675 0.4409, -222.151 329.3675 0.437, -222.0866 329.5137 0.437, -222.0866 329.5137 0.4409, -222.0554 329.5137 0.437, -222.0554 329.5137 0.4409, -222.0554 329.3504 0.4409, -222.4155 329.3246 0.4409, -222.4155 329.3246 0.437, -222.4155 329.3504 0.4409, -222.4155 329.3534 0.437, -222.4155 329.3534 0.4409, -222.363 329.336 0.437, -222.363 329.336 0.4409, -222.3778 329.3374 0.4409, -222.3778 329.3374 0.437, -222.4011 329.3446 0.4409, -222.4011 329.3446 0.437, -222.4106 329.3504 0.4409, -222.3219 329.3654 0.437, -222.3219 329.3654 0.4409, -222.3227 329.3576 0.4409, -222.3227 329.3576 0.437, -222.325 329.3515 0.4409, -222.325 329.3515 0.437, -222.3257 329.3504 0.4409, -222.3276 329.3476 0.437, -222.3276 329.3476 0.4409, -222.3317 329.3437 0.4409, -222.3317 329.3437 0.437, -222.3388 329.3398 0.4409, -222.3388 329.3398 0.437, -222.3488 329.3371 0.4409, -222.3488 329.3371 0.437, -222.3674 329.4074 0.437, -222.3674 329.4074 0.4409, -222.3406 329.3932 0.4409, -222.3406 329.3932 0.437, -222.3379 329.3914 0.4409, -222.3379 329.3914 0.437, -222.3298 329.3846 0.4409, -222.3298 329.3846 0.437, -222.325 329.378 0.4409, -222.325 329.378 0.437, -222.3228 329.3724 0.4409, -222.3228 329.3724 0.437, -222.4155 329.4632 0.437, -222.4155 329.4632 0.4409, -222.4154 329.4604 0.4409, -222.4154 329.4604 0.437, -222.4136 329.4495 0.4409, -222.4136 329.4495 0.437, -222.4092 329.4391 0.4409, -222.4092 329.4391 0.437, -222.4027 329.4305 0.4409, -222.4027 329.4305 0.437, -222.3918 329.4215 0.4409, -222.3918 329.4215 0.437, -222.3459 329.5161 0.437, -222.3459 329.5161 0.4409, -222.3677 329.5139 0.4409, -222.3677 329.5139 0.437, -222.3842 329.5085 0.4409, -222.3842 329.5085 0.437, -222.3953 329.5021 0.4409, -222.3953 329.5021 0.437, -222.4037 329.4948 0.4409, -222.4037 329.4948 0.437, -222.4099 329.4863 0.4409, -222.4099 329.4863 0.437, -222.4138 329.4768 0.4409, -222.4138 329.4768 0.437, -222.3027 329.5107 0.437, -222.3027 329.5107 0.4409, -222.3241 329.5151 0.4409, -222.3241 329.5151 0.437, -222.3027 329.4818 0.437, -222.3027 329.4818 0.4409, -222.348 329.4944 0.437, -222.348 329.4944 0.4409, -222.3344 329.4936 0.4409, -222.3344 329.4936 0.437, -222.3176 329.4896 0.4409, -222.3176 329.4896 0.437, -222.3891 329.4658 0.437, -222.3891 329.4658 0.4409, -222.3885 329.4718 0.4409, -222.3885 329.4718 0.437, -222.3868 329.4769 0.4409, -222.3868 329.4769 0.437, -222.3839 329.4813 0.4409, -222.3839 329.4813 0.437, -222.3794 329.4856 0.4409, -222.3794 329.4856 0.437, -222.3722 329.4899 0.4409, -222.3722 329.4899 0.437, -222.3618 329.4932 0.4409, -222.3618 329.4932 0.437, -222.3473 329.4259 0.437, -222.3473 329.4259 0.4409, -222.3656 329.4356 0.4409, -222.3656 329.4356 0.437, -222.3768 329.4427 0.4409, -222.3768 329.4427 0.437, -222.3829 329.448 0.4409, -222.3829 329.448 0.437, -222.3862 329.4529 0.4409, -222.3862 329.4529 0.437, -222.3883 329.4583 0.4409, -222.3883 329.4583 0.437, -222.2955 329.3676 0.437, -222.2955 329.3676 0.4409, -222.2956 329.3707 0.4409, -222.2956 329.3707 0.437, -222.2975 329.3812 0.4409, -222.2975 329.3812 0.437, -222.3018 329.3911 0.4409, -222.3018 329.3911 0.437, -222.3091 329.4008 0.4409, -222.3091 329.4008 0.437, -222.3222 329.4118 0.4409, -222.3222 329.4118 0.437, -222.3007 329.3437 0.4409, -222.3071 329.3345 0.437, -222.3071 329.3345 0.4409, -222.3153 329.3273 0.437, -222.3153 329.3273 0.4409, -222.3264 329.3212 0.437, -222.3264 329.3212 0.4409, -222.3456 329.3159 0.437, -222.3456 329.3159 0.4409, -222.366 329.3144 0.437, -222.366 329.3144 0.4409, -222.2983 329.3504 0.4409, -222.297 329.3537 0.437, -222.3007 329.3437 0.437, -222.297 329.3537 0.4409, -222.4092 329.3216 0.4409, -222.4092 329.3216 0.437, -222.3913 329.317 0.4409, -222.3913 329.317 0.437
            ]
        }
        coordIndex [
            0,1,2,-1,2,1,3,-1,1,4,3,-1,3,4,5,-1,4,6,5,-1,5,6,7,-1,6,8,7,-1,7,8,9,-1,8,10,9,-1,9,10,11,-1,12,13,10,-1,10,13,14,-1,10,14,11,-1,12,15,13,-1,13,15,16,-1,16,15,17,-1,17,15,18,-1,17,18,19,-1,18,20,19,-1,19,20,21,-1,20,22,21,-1,21,22,23,-1,0,2,24,-1,0,24,25,-1,25,24,26,-1,25,26,27,-1,27,26,23,-1,27,23,22,-1,28,29,27,-1,15,12,18,-1,18,12,10,-1,27,29,25,-1,25,29,30,-1,25,30,0,-1,31,4,30,-1,30,4,1,-1,30,1,0,-1,8,6,10,-1,10,6,4,-1,10,4,18,-1,18,4,31,-1,18,31,20,-1,20,31,28,-1,20,28,22,-1,22,28,27,-1,28,32,33,-1,28,33,29,-1,29,33,34,-1,29,34,30,-1,31,30,35,-1,35,30,34,-1,28,31,32,-1,32,31,35,-1,36,37,38,-1,38,37,39,-1,37,40,39,-1,39,40,41,-1,40,42,41,-1,41,42,43,-1,42,36,43,-1,43,36,38,-1,42,40,36,-1,36,40,37,-1,44,45,46,-1,46,45,47,-1,47,45,48,-1,48,45,49,-1,48,49,50,-1,49,51,50,-1,50,51,52,-1,53,54,55,-1,53,55,56,-1,56,55,57,-1,56,57,58,-1,58,57,59,-1,58,59,60,-1,60,59,61,-1,60,61,62,-1,62,61,63,-1,62,63,64,-1,64,63,65,-1,64,65,66,-1,66,65,67,-1,66,67,68,-1,68,67,52,-1,68,52,51,-1,69,70,71,-1,71,70,72,-1,71,72,73,-1,73,72,44,-1,73,44,46,-1,74,75,69,-1,69,75,76,-1,69,76,70,-1,74,77,75,-1,75,77,78,-1,75,78,79,-1,79,78,80,-1,79,80,81,-1,81,80,54,-1,81,54,53,-1,81,53,82,-1,82,53,56,-1,82,56,83,-1,83,56,58,-1,83,58,84,-1,84,58,60,-1,84,60,85,-1,85,60,62,-1,85,62,86,-1,86,62,64,-1,86,64,87,-1,87,64,66,-1,87,66,88,-1,88,66,68,-1,88,68,89,-1,89,68,51,-1,89,51,90,-1,90,51,49,-1,90,49,91,-1,91,49,45,-1,91,45,92,-1,92,45,44,-1,92,44,93,-1,93,44,72,-1,93,72,94,-1,94,72,70,-1,94,70,95,-1,95,70,76,-1,95,76,96,-1,96,76,75,-1,96,75,97,-1,97,75,79,-1,97,79,98,-1,98,79,81,-1,98,81,82,-1,89,90,99,-1,99,90,100,-1,89,99,101,-1,89,101,88,-1,88,101,102,-1,88,102,87,-1,87,102,103,-1,87,103,86,-1,86,103,104,-1,86,104,85,-1,85,104,105,-1,85,105,84,-1,84,105,106,-1,84,106,83,-1,83,106,107,-1,83,107,82,-1,82,107,108,-1,82,108,98,-1,98,108,109,-1,98,109,97,-1,97,109,110,-1,97,110,96,-1,96,110,111,-1,96,111,95,-1,95,111,112,-1,95,112,94,-1,94,112,113,-1,94,113,93,-1,93,113,114,-1,93,114,92,-1,91,92,115,-1,115,92,114,-1,90,91,100,-1,100,91,115,-1,116,117,118,-1,118,117,119,-1,119,117,120,-1,120,117,121,-1,120,121,122,-1,123,124,125,-1,123,125,126,-1,126,125,122,-1,126,122,121,-1,123,127,124,-1,124,127,128,-1,129,130,131,-1,129,131,132,-1,132,131,128,-1,132,128,127,-1,130,129,133,-1,133,129,134,-1,133,134,135,-1,134,136,135,-1,135,136,137,-1,137,136,138,-1,138,136,139,-1,138,139,140,-1,141,142,143,-1,141,143,144,-1,144,143,140,-1,144,140,139,-1,141,145,142,-1,142,145,146,-1,147,148,149,-1,147,149,150,-1,150,149,146,-1,150,146,145,-1,148,147,151,-1,151,147,152,-1,151,152,153,-1,152,154,153,-1,153,154,155,-1,155,154,156,-1,156,154,157,-1,156,157,158,-1,157,159,158,-1,158,159,160,-1,159,161,160,-1,160,161,162,-1,163,164,165,-1,163,165,166,-1,166,165,162,-1,166,162,161,-1,163,167,164,-1,164,167,168,-1,169,170,171,-1,169,171,172,-1,172,171,168,-1,172,168,167,-1,169,173,170,-1,170,173,174,-1,173,175,174,-1,174,175,176,-1,176,175,177,-1,177,175,116,-1,177,116,118,-1,117,116,121,-1,121,116,175,-1,121,175,126,-1,126,175,123,-1,154,152,157,-1,157,152,147,-1,147,150,157,-1,157,150,145,-1,157,145,159,-1,159,145,141,-1,163,136,167,-1,167,136,134,-1,167,134,172,-1,172,134,169,-1,123,175,127,-1,127,175,173,-1,127,173,132,-1,163,166,136,-1,136,166,161,-1,136,161,139,-1,139,161,159,-1,139,159,144,-1,144,159,141,-1,169,134,173,-1,173,134,129,-1,173,129,132,-1,178,179,180,-1,180,179,181,-1,180,181,182,-1,183,184,185,-1,183,185,186,-1,186,185,187,-1,186,187,188,-1,188,187,181,-1,181,187,189,-1,181,189,182,-1,190,191,192,-1,190,192,193,-1,193,192,194,-1,193,194,195,-1,195,194,196,-1,195,196,197,-1,196,198,197,-1,197,198,199,-1,197,199,200,-1,200,199,201,-1,200,201,202,-1,202,201,203,-1,202,203,204,-1,204,203,184,-1,204,184,183,-1,205,206,207,-1,205,207,208,-1,208,207,209,-1,208,209,210,-1,210,209,211,-1,210,211,212,-1,212,211,213,-1,212,213,214,-1,214,213,215,-1,214,215,216,-1,216,215,191,-1,216,191,190,-1,217,218,219,-1,217,219,220,-1,220,219,221,-1,220,221,222,-1,222,221,223,-1,222,223,224,-1,224,223,225,-1,224,225,226,-1,226,225,227,-1,226,227,228,-1,228,227,206,-1,228,206,205,-1,229,230,231,-1,229,231,232,-1,232,231,233,-1,232,233,234,-1,234,233,235,-1,234,235,236,-1,236,235,237,-1,236,237,238,-1,238,237,239,-1,238,239,240,-1,240,239,241,-1,240,241,242,-1,242,241,218,-1,242,218,217,-1,243,244,245,-1,243,245,246,-1,246,245,230,-1,246,230,229,-1,243,247,244,-1,244,247,248,-1,249,250,251,-1,249,251,252,-1,252,251,253,-1,252,253,254,-1,254,253,248,-1,254,248,247,-1,255,256,257,-1,255,257,258,-1,258,257,259,-1,258,259,260,-1,260,259,261,-1,260,261,262,-1,262,261,263,-1,262,263,264,-1,264,263,265,-1,264,265,266,-1,266,265,267,-1,266,267,268,-1,268,267,250,-1,268,250,249,-1,269,270,271,-1,269,271,272,-1,272,271,273,-1,272,273,274,-1,274,273,275,-1,274,275,276,-1,276,275,277,-1,276,277,278,-1,278,277,279,-1,278,279,280,-1,280,279,256,-1,280,256,255,-1,281,282,283,-1,281,283,284,-1,284,283,285,-1,284,285,286,-1,286,285,287,-1,286,287,288,-1,288,287,289,-1,288,289,290,-1,290,289,291,-1,290,291,292,-1,292,291,270,-1,292,270,269,-1,293,294,295,-1,295,294,296,-1,295,296,297,-1,297,296,298,-1,297,298,299,-1,299,298,300,-1,299,300,301,-1,301,300,302,-1,301,302,303,-1,304,305,293,-1,293,305,306,-1,293,306,294,-1,304,307,305,-1,305,307,282,-1,305,282,281,-1,179,178,308,-1,179,308,309,-1,309,308,310,-1,309,310,311,-1,311,310,303,-1,311,303,302,-1,254,247,243,-1,181,179,188,-1,188,179,309,-1,188,309,186,-1,186,309,311,-1,186,311,183,-1,183,311,302,-1,183,302,204,-1,204,302,300,-1,204,300,202,-1,202,300,298,-1,202,298,200,-1,200,298,296,-1,200,296,197,-1,197,296,294,-1,197,294,195,-1,195,294,306,-1,195,306,193,-1,193,306,305,-1,193,305,190,-1,305,281,190,-1,190,281,284,-1,190,284,216,-1,216,284,286,-1,216,286,214,-1,214,286,288,-1,214,288,212,-1,212,288,290,-1,212,290,210,-1,210,290,292,-1,210,292,208,-1,208,292,269,-1,208,269,205,-1,205,269,272,-1,205,272,228,-1,228,272,274,-1,228,274,226,-1,226,274,276,-1,226,276,224,-1,224,276,278,-1,224,278,222,-1,222,278,280,-1,222,280,220,-1,220,280,255,-1,254,243,252,-1,252,243,246,-1,252,246,249,-1,249,246,229,-1,249,229,268,-1,268,229,232,-1,268,232,266,-1,266,232,234,-1,266,234,264,-1,264,234,236,-1,264,236,262,-1,262,236,238,-1,262,238,260,-1,260,238,240,-1,260,240,258,-1,258,240,242,-1,258,242,255,-1,255,242,217,-1,255,217,220,-1,
        ]
    }
}
Shape{
    appearance Appearance {
        material  Material {
            diffuseColor 0.9019607843137255 0.7843137254901961 0.6862745098039216
            specularColor 0.45098039215686275 0.39215686274509803 0.3411764705882353
            ambientIntensity 0.8083
            transparency 0.0
            shininess 0.5
        }
    }
    geometry IndexedFaceSet {
        ccw TRUE
        solid FALSE
        coord DEF co Coordinate {
            point [
                -221.6891 329.384 0.4409, -221.6257 329.384 0.4409, -221.6553 329.4294 0.4409, -221.6257 329.4775 0.4409
            ]
        }
        coordIndex [
            0,1,2,-1,2,1,3,-1,
        ]
    }
}
Shape{
    appearance Appearance {
        material  Material {
            diffuseColor 0.5098039215686274 0.5098039215686274 0.6274509803921569
            specularColor 0.2549019607843137 0.2549019607843137 0.3137254901960784
            ambientIntensity 0.5232
            transparency 0.0
            shininess 0.5
        }
    }
    geometry IndexedFaceSet {
        ccw TRUE
        solid FALSE
        coord DEF co Coordinate {
            point [
                -221.9762 329.492 0.4409, -221.9762 329.3384 0.4409, -221.9472 329.492 0.4409, -221.9483 329.3384 0.4409, -221.9275 329.3403 0.4409, -221.8706 329.4171 0.4409, -221.8723 329.4367 0.4409, -221.8769 329.4524 0.4409, -221.924 329.4896 0.4409, -221.9109 329.3455 0.4409, -221.8975 329.3535 0.4409, -221.8864 329.3644 0.4409, -221.8781 329.378 0.4409, -221.8724 329.3965 0.4409, -221.8837 329.4645 0.4409, -221.8933 329.4746 0.4409, -221.9077 329.4839 0.4409
            ]
        }
        coordIndex [
            0,1,2,-1,2,1,3,-1,2,3,4,-1,5,6,2,-1,2,6,7,-1,2,7,8,-1,4,9,2,-1,2,9,10,-1,2,10,11,-1,11,12,2,-1,2,12,13,-1,2,13,5,-1,14,15,7,-1,7,15,16,-1,7,16,8,-1,
        ]
    }
}
Shape{
    appearance Appearance {
        material  Material {
            diffuseColor 1.0 1.0 1.0
            specularColor 0.8784313725490196 0.8784313725490196 0.8784313725490196
            ambientIntensity 1.0
            transparency 0.0
            shininess 0.5
        }
    }
    geometry IndexedFaceSet {
        ccw TRUE
        solid FALSE
        coord DEF co Coordinate {
            point [
                -222.2289 329.4605 0.0118, -222.2827 329.3227 0.0118, -222.2289 329.4605 0.0079, -222.2827 329.3227 0.0079, -222.2625 329.3227 0.0118, -222.2625 329.3227 0.0079, -222.2485 329.3614 0.0118, -222.2485 329.3614 0.0079, -222.1916 329.3614 0.0118, -222.1916 329.3614 0.0079, -222.1785 329.3227 0.0118, -222.1785 329.3227 0.0079, -222.1583 329.3227 0.0118, -222.1583 329.3227 0.0079, -222.2104 329.4605 0.0118, -222.2104 329.4605 0.0079, -222.1963 329.3765 0.0118, -222.2423 329.3765 0.0118, -222.2168 329.4341 0.0118, -222.2182 329.4389 0.0118, -222.219 329.4437 0.0118, -222.2195 329.4437 0.0118, -222.2204 329.4389 0.0118, -222.2216 329.4341 0.0118, -222.1963 329.3765 0.0079, -222.2423 329.3765 0.0079, -222.2168 329.4341 0.0079, -222.2182 329.4389 0.0079, -222.219 329.4437 0.0079, -222.2195 329.4437 0.0079, -222.2204 329.4389 0.0079, -222.2216 329.4341 0.0079, -222.0748 329.3227 0.0118, -222.0373 329.3227 0.0118, -222.0748 329.3227 0.0079, -222.0373 329.3227 0.0079, -222.0373 329.4605 0.0118, -222.0373 329.4605 0.0079, -222.0762 329.4605 0.0118, -222.0762 329.4605 0.0079, -222.1482 329.3934 0.0118, -222.1482 329.3934 0.0079, -222.1472 329.4063 0.0079, -222.1472 329.4063 0.0118, -222.1435 329.4199 0.0079, -222.1435 329.4199 0.0118, -222.1371 329.4318 0.0079, -222.1371 329.4318 0.0118, -222.1274 329.4426 0.0079, -222.1274 329.4426 0.0118, -222.1272 329.4427 0.0079, -222.1272 329.4427 0.0118, -222.1122 329.4528 0.0079, -222.1122 329.4528 0.0118, -222.0961 329.4584 0.0079, -222.0961 329.4584 0.0118, -222.0918 329.3242 0.0079, -222.0918 329.3242 0.0118, -222.1077 329.329 0.0079, -222.1077 329.329 0.0118, -222.1221 329.3373 0.0079, -222.1221 329.3373 0.0118, -222.1334 329.3482 0.0079, -222.1334 329.3482 0.0118, -222.1413 329.3605 0.0079, -222.1413 329.3605 0.0118, -222.1463 329.3749 0.0079, -222.1463 329.3749 0.0118, -222.1206 329.4261 0.0118, -222.1139 329.4332 0.0118, -222.1038 329.4397 0.0118, -222.0924 329.4437 0.0118, -222.0761 329.4454 0.0118, -222.0558 329.4454 0.0118, -222.0558 329.3379 0.0118, -222.0754 329.3379 0.0118, -222.0899 329.3392 0.0118, -222.1015 329.3428 0.0118, -222.1109 329.3484 0.0118, -222.1186 329.3561 0.0118, -222.1244 329.3656 0.0118, -222.1285 329.3785 0.0118, -222.1297 329.393 0.0118, -222.1286 329.4067 0.0118, -222.1253 329.4176 0.0118, -222.0761 329.4454 0.0079, -222.0558 329.4454 0.0079, -222.0924 329.4437 0.0079, -222.1038 329.4397 0.0079, -222.1139 329.4332 0.0079, -222.1206 329.4261 0.0079, -222.1253 329.4176 0.0079, -222.1286 329.4067 0.0079, -222.1297 329.393 0.0079, -222.1285 329.3785 0.0079, -222.1244 329.3656 0.0079, -222.1186 329.3561 0.0079, -222.1109 329.3484 0.0079, -222.1015 329.3428 0.0079, -222.0899 329.3392 0.0079, -222.0754 329.3379 0.0079, -222.0558 329.3379 0.0079, -222.0104 329.3379 0.0118, -222.0104 329.3227 0.0118, -222.0104 329.3379 0.0079, -222.0104 329.3227 0.0079, -221.9365 329.3227 0.0118, -221.9365 329.3227 0.0079, -221.9365 329.4605 0.0118, -221.9365 329.4605 0.0079, -222.0071 329.4605 0.0118, -222.0071 329.4605 0.0079, -222.0071 329.4454 0.0118, -222.0071 329.4454 0.0079, -221.955 329.4454 0.0118, -221.955 329.4454 0.0079, -221.955 329.4 0.0118, -221.955 329.4 0.0079, -222.0037 329.4 0.0118, -222.0037 329.4 0.0079, -222.0037 329.3849 0.0118, -222.0037 329.3849 0.0079, -221.955 329.3849 0.0118, -221.955 329.3849 0.0079, -221.955 329.3379 0.0118, -221.955 329.3379 0.0079, -221.9096 329.345 0.0118, -221.9096 329.3299 0.0118, -221.9096 329.345 0.0079, -221.9096 329.3299 0.0079, -221.8949 329.3239 0.0118, -221.8717 329.3211 0.0118, -221.8717 329.3211 0.0079, -221.8754 329.3211 0.0079, -221.8754 329.3211 0.0118, -221.881 329.3219 0.0079, -221.8949 329.3239 0.0079, -221.8071 329.389 0.0118, -221.8071 329.389 0.0079, -221.8084 329.3731 0.0079, -221.8084 329.3731 0.0118, -221.8126 329.3585 0.0079, -221.8126 329.3585 0.0118, -221.8199 329.3454 0.0079, -221.8199 329.3454 0.0118, -221.8303 329.3345 0.0079, -221.8303 329.3345 0.0118, -221.8413 329.3274 0.0079, -221.8413 329.3274 0.0118, -221.8547 329.3228 0.0079, -221.8547 329.3228 0.0118, -221.8636 329.3219 0.0079, -221.8772 329.4622 0.0118, -221.8772 329.4622 0.0079, -221.8633 329.4611 0.0079, -221.8633 329.4611 0.0118, -221.848 329.4566 0.0079, -221.848 329.4566 0.0118, -221.8349 329.4491 0.0079, -221.8349 329.4491 0.0118, -221.8224 329.4371 0.0079, -221.8224 329.4371 0.0118, -221.8144 329.4242 0.0079, -221.8144 329.4242 0.0118, -221.8091 329.4086 0.0079, -221.8091 329.4086 0.0118, -221.9096 329.4568 0.0118, -221.9096 329.4568 0.0079, -221.8937 329.4611 0.0079, -221.8937 329.4611 0.0118, -221.9096 329.4383 0.0118, -221.9096 329.4383 0.0079, -221.8773 329.4471 0.0118, -221.8773 329.4471 0.0079, -221.8941 329.4449 0.0079, -221.8941 329.4449 0.0118, -221.8256 329.3902 0.0118, -221.8256 329.3902 0.0079, -221.8262 329.4009 0.0079, -221.8262 329.4009 0.0118, -221.8299 329.4156 0.0079, -221.8299 329.4156 0.0118, -221.8356 329.4263 0.0079, -221.8356 329.4263 0.0118, -221.8439 329.4355 0.0079, -221.8439 329.4355 0.0118, -221.8534 329.4419 0.0079, -221.8534 329.4419 0.0118, -221.8638 329.4456 0.0079, -221.8638 329.4456 0.0118, -221.8742 329.3362 0.0118, -221.8742 329.3362 0.0079, -221.8614 329.3376 0.0079, -221.8614 329.3376 0.0118, -221.8513 329.3413 0.0079, -221.8513 329.3413 0.0118, -221.8429 329.347 0.0079, -221.8429 329.347 0.0118, -221.8364 329.3539 0.0079, -221.8364 329.3539 0.0118, -221.8307 329.3634 0.0079, -221.8307 329.3634 0.0118, -221.827 329.3753 0.0079, -221.827 329.3753 0.0118, -221.9071 329.3436 0.0079, -221.9071 329.3436 0.0118, -221.8925 329.3382 0.0079, -221.8925 329.3382 0.0118, -221.7953 329.3379 0.0118, -221.7953 329.3227 0.0118, -221.7953 329.3379 0.0079, -221.7953 329.3227 0.0079, -221.7247 329.3227 0.0118, -221.7247 329.3227 0.0079, -221.7247 329.4605 0.0118, -221.7247 329.4605 0.0079, -221.7432 329.4605 0.0118, -221.7432 329.4605 0.0079, -221.7432 329.3379 0.0118, -221.7432 329.3379 0.0079
            ]
        }
        coordIndex [
            0,1,2,-1,2,1,3,-1,1,4,3,-1,3,4,5,-1,4,6,5,-1,5,6,7,-1,6,8,7,-1,7,8,9,-1,8,10,9,-1,9,10,11,-1,10,12,11,-1,11,12,13,-1,12,14,13,-1,13,14,15,-1,14,0,15,-1,15,0,2,-1,16,8,17,-1,17,8,6,-1,18,14,16,-1,16,14,12,-1,16,12,8,-1,8,12,10,-1,18,19,14,-1,14,19,20,-1,14,20,0,-1,0,20,21,-1,0,21,22,-1,22,23,0,-1,0,23,17,-1,0,17,1,-1,1,17,6,-1,1,6,4,-1,16,17,24,-1,24,17,25,-1,18,16,26,-1,26,16,24,-1,18,26,27,-1,18,27,19,-1,19,27,28,-1,19,28,20,-1,21,20,29,-1,29,20,28,-1,21,29,30,-1,21,30,22,-1,22,30,31,-1,22,31,23,-1,17,23,25,-1,25,23,31,-1,32,33,34,-1,34,33,35,-1,33,36,35,-1,35,36,37,-1,36,38,37,-1,37,38,39,-1,40,41,42,-1,40,42,43,-1,43,42,44,-1,43,44,45,-1,45,44,46,-1,45,46,47,-1,47,46,48,-1,47,48,49,-1,49,48,50,-1,49,50,51,-1,51,50,52,-1,51,52,53,-1,53,52,54,-1,53,54,55,-1,55,54,39,-1,55,39,38,-1,32,34,56,-1,32,56,57,-1,57,56,58,-1,57,58,59,-1,59,58,60,-1,59,60,61,-1,61,60,62,-1,61,62,63,-1,63,62,64,-1,63,64,65,-1,65,64,66,-1,65,66,67,-1,67,66,41,-1,67,41,40,-1,45,47,68,-1,68,47,49,-1,68,49,69,-1,69,49,51,-1,69,51,70,-1,70,51,53,-1,70,53,71,-1,71,53,55,-1,71,55,72,-1,72,55,38,-1,72,38,73,-1,73,38,36,-1,73,36,74,-1,74,36,33,-1,74,33,75,-1,75,33,32,-1,75,32,76,-1,76,32,57,-1,76,57,77,-1,77,57,59,-1,77,59,78,-1,78,59,61,-1,78,61,79,-1,79,61,63,-1,79,63,80,-1,80,63,65,-1,80,65,81,-1,81,65,67,-1,81,67,82,-1,82,67,40,-1,82,40,83,-1,83,40,43,-1,83,43,84,-1,84,43,45,-1,84,45,68,-1,72,73,85,-1,85,73,86,-1,72,85,87,-1,72,87,71,-1,71,87,88,-1,71,88,70,-1,70,88,89,-1,70,89,69,-1,69,89,90,-1,69,90,68,-1,68,90,91,-1,68,91,84,-1,84,91,92,-1,84,92,83,-1,83,92,93,-1,83,93,82,-1,82,93,94,-1,82,94,81,-1,81,94,95,-1,81,95,80,-1,80,95,96,-1,80,96,79,-1,79,96,97,-1,79,97,78,-1,78,97,98,-1,78,98,77,-1,77,98,99,-1,77,99,76,-1,76,99,100,-1,76,100,75,-1,74,75,101,-1,101,75,100,-1,73,74,86,-1,86,74,101,-1,102,103,104,-1,104,103,105,-1,103,106,105,-1,105,106,107,-1,106,108,107,-1,107,108,109,-1,108,110,109,-1,109,110,111,-1,110,112,111,-1,111,112,113,-1,112,114,113,-1,113,114,115,-1,114,116,115,-1,115,116,117,-1,116,118,117,-1,117,118,119,-1,118,120,119,-1,119,120,121,-1,120,122,121,-1,121,122,123,-1,122,124,123,-1,123,124,125,-1,124,102,125,-1,125,102,104,-1,106,103,102,-1,102,124,106,-1,106,124,122,-1,106,122,108,-1,112,110,114,-1,114,110,108,-1,114,108,116,-1,116,108,122,-1,116,122,118,-1,118,122,120,-1,126,127,128,-1,128,127,129,-1,129,127,130,-1,131,132,133,-1,131,133,134,-1,134,133,135,-1,134,135,130,-1,130,135,136,-1,130,136,129,-1,137,138,139,-1,137,139,140,-1,140,139,141,-1,140,141,142,-1,142,141,143,-1,142,143,144,-1,144,143,145,-1,144,145,146,-1,146,145,147,-1,146,147,148,-1,148,147,149,-1,148,149,150,-1,150,149,131,-1,131,149,151,-1,131,151,132,-1,152,153,154,-1,152,154,155,-1,155,154,156,-1,155,156,157,-1,157,156,158,-1,157,158,159,-1,159,158,160,-1,159,160,161,-1,161,160,162,-1,161,162,163,-1,163,162,164,-1,163,164,165,-1,165,164,138,-1,165,138,137,-1,166,167,168,-1,166,168,169,-1,169,168,153,-1,169,153,152,-1,166,170,167,-1,167,170,171,-1,172,173,174,-1,172,174,175,-1,175,174,171,-1,175,171,170,-1,176,177,178,-1,176,178,179,-1,179,178,180,-1,179,180,181,-1,181,180,182,-1,181,182,183,-1,183,182,184,-1,183,184,185,-1,185,184,186,-1,185,186,187,-1,187,186,188,-1,187,188,189,-1,189,188,173,-1,189,173,172,-1,190,191,192,-1,190,192,193,-1,193,192,194,-1,193,194,195,-1,195,194,196,-1,195,196,197,-1,197,196,198,-1,197,198,199,-1,199,198,200,-1,199,200,201,-1,201,200,202,-1,201,202,203,-1,203,202,177,-1,203,177,176,-1,126,128,204,-1,126,204,205,-1,205,204,206,-1,205,206,207,-1,207,206,191,-1,207,191,190,-1,193,131,190,-1,190,131,134,-1,190,134,207,-1,207,134,130,-1,207,130,205,-1,205,130,127,-1,205,127,126,-1,170,166,175,-1,175,166,169,-1,175,169,172,-1,172,169,152,-1,172,152,189,-1,189,152,155,-1,189,155,187,-1,187,155,157,-1,187,157,185,-1,185,157,159,-1,185,159,183,-1,183,159,161,-1,183,161,181,-1,181,161,163,-1,181,163,179,-1,179,163,165,-1,179,165,176,-1,176,165,137,-1,176,137,203,-1,203,137,140,-1,203,140,201,-1,201,140,142,-1,201,142,199,-1,199,142,144,-1,199,144,197,-1,197,144,146,-1,197,146,195,-1,195,146,148,-1,195,148,193,-1,193,148,150,-1,193,150,131,-1,208,209,210,-1,210,209,211,-1,209,212,211,-1,211,212,213,-1,212,214,213,-1,213,214,215,-1,214,216,215,-1,215,216,217,-1,216,218,217,-1,217,218,219,-1,218,208,219,-1,219,208,210,-1,216,214,218,-1,218,214,212,-1,218,212,208,-1,208,212,209,-1,
        ]
    }
}
Shape{
    appearance Appearance {
        material  Material {
            diffuseColor 0.5098039215686274 0.5098039215686274 0.6274509803921569
            specularColor 0.2549019607843137 0.2549019607843137 0.3137254901960784
            ambientIntensity 0.5232
            transparency 0.0
            shininess 0.5
        }
    }
    geometry IndexedFaceSet {
        ccw TRUE
        solid FALSE
        coord DEF co Coordinate {
            point [
                -222.1963 329.3765 0.0079, -222.2423 329.3765 0.0079, -222.2168 329.4341 0.0079, -222.2216 329.4341 0.0079, -222.2182 329.4389 0.0079, -222.2204 329.4389 0.0079, -222.219 329.4437 0.0079, -222.2195 329.4437 0.0079, -222.0558 329.4454 0.0079, -222.0558 329.3379 0.0079, -222.0761 329.4454 0.0079, -222.0754 329.3379 0.0079, -222.0899 329.3392 0.0079, -222.1297 329.393 0.0079, -222.1286 329.4067 0.0079, -222.1253 329.4176 0.0079, -222.0924 329.4437 0.0079, -222.1015 329.3428 0.0079, -222.1109 329.3484 0.0079, -222.1186 329.3561 0.0079, -222.1244 329.3656 0.0079, -222.1285 329.3785 0.0079, -222.1206 329.4261 0.0079, -222.1139 329.4332 0.0079, -222.1038 329.4397 0.0079
            ]
        }
        coordIndex [
            0,1,2,-1,2,1,3,-1,2,3,4,-1,4,3,5,-1,4,5,6,-1,6,5,7,-1,8,9,10,-1,10,9,11,-1,10,11,12,-1,13,14,10,-1,10,14,15,-1,10,15,16,-1,12,17,10,-1,10,17,18,-1,10,18,19,-1,19,20,10,-1,10,20,21,-1,10,21,13,-1,22,23,15,-1,15,23,24,-1,15,24,16,-1,
        ]
    }
}
Shape{
    appearance Appearance {
        material  Material {
            diffuseColor 0.9019607843137255 0.7843137254901961 0.6862745098039216
            specularColor 0.45098039215686275 0.39215686274509803 0.3411764705882353
            ambientIntensity 0.8083
            transparency 0.0
            shininess 0.5
        }
    }
    geometry IndexedFaceSet {
        ccw TRUE
        solid FALSE
        coord DEF co Coordinate {
            point [
                -222.9082 329.9518 0.4028, -222.9015 329.9591 0.4028, -222.9015 329.9591 0.4016, -222.9085 329.9515 0.4016, -222.8985 329.9628 0.0079, -222.9174 329.9436 0.4016, -222.9174 329.9436 0.0079, -222.9405 329.9296 0.4016, -222.9405 329.9296 0.0079, -222.9663 329.9217 0.4016, -222.9663 329.9217 0.0079, -222.9847 329.9201 0.4016, -222.9847 329.9201 0.0079, -222.8765 330.0306 0.4016, -222.8765 330.0306 0.0079, -222.8776 330.0122 0.4016, -222.8776 330.0122 0.0079, -222.885 329.9862 0.4016, -222.885 329.9862 0.0079, -222.8985 329.9628 0.4016, -222.9085 329.9515 0.4028, -221.1032 329.9611 0.4028, -221.0887 329.9461 0.4028, -221.0887 329.9461 0.4016, -221.1053 329.9639 0.4016, -221.1032 329.9611 0.0079, -221.1163 329.9823 0.4016, -221.1163 329.9823 0.0079, -221.1243 330.0058 0.4016, -221.1243 330.0058 0.0079, -221.1266 330.0306 0.4016, -221.1266 330.0306 0.0079, -221.0162 329.9202 0.4016, -221.0162 329.9202 0.0079, -221.0409 329.9225 0.4016, -221.0409 329.9225 0.0079, -221.0645 329.9304 0.4016, -221.0645 329.9304 0.0079, -221.0856 329.9436 0.4016, -221.0856 329.9436 0.0079, -221.1053 329.9639 0.4028, -221.0975 329.9573 0.4028, -221.1245 328.7707 0.4016, -221.1245 328.7707 0.0079, -221.1208 328.7988 0.4016, -221.1208 328.7988 0.0079, -221.11 328.8249 0.4016, -221.11 328.8249 0.0079, -221.0927 328.8473 0.4016, -221.0927 328.8473 0.0079, -221.0703 328.8645 0.4016, -221.0703 328.8645 0.0079, -221.0442 328.8753 0.4016, -221.0442 328.8753 0.0079, -221.0162 328.879 0.4016, -221.0162 328.879 0.0079, -222.9847 328.879 0.4016, -222.9847 328.879 0.0079, -222.9567 328.8753 0.4016, -222.9567 328.8753 0.0079, -222.9306 328.8645 0.4016, -222.9306 328.8645 0.0079, -222.9081 328.8473 0.4016, -222.9081 328.8473 0.0079, -222.8909 328.8249 0.4016, -222.8909 328.8249 0.0079, -222.8801 328.7988 0.4016, -222.8801 328.7988 0.0079, -222.8764 328.7707 0.4016, -222.8764 328.7707 0.0079, -222.4532 329.9912 0.0079, -222.4532 329.9912 0.0, -222.883 329.9912 0.0079, -222.883 329.9912 0.0, -222.9256 329.6369 0.0, -222.9256 329.6369 0.0079, -222.9256 329.9377 0.0, -222.9256 329.9377 0.0079, -222.4532 329.6369 0.0079, -222.4532 329.6369 0.0, -222.8903 329.9754 0.0079, -222.9119 329.9483 0.0079, -222.9 329.961 0.0079, -222.9119 329.9483 0.0, -222.8903 329.9754 0.0, -222.9 329.961 0.0, -221.0752 329.6369 0.0079, -221.0752 329.6369 0.0, -221.0752 329.9363 0.0079, -221.0752 329.9363 0.0, -221.5477 329.9912 0.0, -221.5477 329.9912 0.0079, -221.1201 329.9912 0.0, -221.1201 329.9912 0.0079, -221.5477 329.6369 0.0079, -221.5477 329.6369 0.0, -221.087 329.9447 0.0079, -221.0975 329.9545 0.0079, -221.1142 329.978 0.0079, -221.1067 329.9657 0.0079, -221.087 329.9447 0.0, -221.0975 329.9545 0.0, -221.1067 329.9657 0.0, -221.1142 329.978 0.0, -222.9256 329.1644 0.0079, -222.9256 329.1644 0.0, -222.9256 328.8615 0.0079, -222.9256 328.8615 0.0, -222.4532 328.8101 0.0, -222.4532 328.8101 0.0079, -222.8838 328.8101 0.0, -222.8838 328.8101 0.0079, -222.5857 329.1644 0.0079, -222.4532 329.0319 0.0079, -222.5857 329.1644 0.0, -222.4532 329.0319 0.0, -222.8912 328.8252 0.0079, -222.9007 328.8391 0.0079, -222.9123 328.8512 0.0079, -222.9123 328.8512 0.0, -222.8912 328.8252 0.0, -222.9007 328.8391 0.0, -221.0752 329.1644 0.0, -221.0752 329.1644 0.0079, -221.0752 328.8615 0.0, -221.0752 328.8615 0.0079, -221.5477 328.8101 0.0079, -221.5477 328.8101 0.0, -221.117 328.8101 0.0079, -221.117 328.8101 0.0, -221.5477 329.1644 0.0079, -221.5477 329.1644 0.0, -221.1097 328.8252 0.0079, -221.0886 328.8512 0.0079, -221.1002 328.8391 0.0079, -221.1097 328.8252 0.0, -221.1002 328.8391 0.0, -221.0886 328.8512 0.0
            ]
        }
        coordIndex [
            0,1,2,-1,3,4,5,-1,5,4,6,-1,5,6,7,-1,7,6,8,-1,7,8,9,-1,9,8,10,-1,9,10,11,-1,11,10,12,-1,13,14,15,-1,15,14,16,-1,15,16,17,-1,17,16,18,-1,17,18,19,-1,19,18,4,-1,19,4,2,-1,2,4,3,-1,2,3,0,-1,0,3,20,-1,21,22,23,-1,24,25,26,-1,26,25,27,-1,26,27,28,-1,28,27,29,-1,28,29,30,-1,30,29,31,-1,32,33,34,-1,34,33,35,-1,34,35,36,-1,36,35,37,-1,36,37,38,-1,38,37,39,-1,38,39,23,-1,23,39,25,-1,23,25,21,-1,21,25,24,-1,21,24,40,-1,40,41,21,-1,21,41,22,-1,42,43,44,-1,44,43,45,-1,44,45,46,-1,46,45,47,-1,46,47,48,-1,48,47,49,-1,48,49,50,-1,50,49,51,-1,50,51,52,-1,52,51,53,-1,52,53,54,-1,54,53,55,-1,56,57,58,-1,58,57,59,-1,58,59,60,-1,60,59,61,-1,60,61,62,-1,62,61,63,-1,62,63,64,-1,64,63,65,-1,64,65,66,-1,66,65,67,-1,66,67,68,-1,68,67,69,-1,70,71,72,-1,72,71,73,-1,74,75,76,-1,76,75,77,-1,70,78,71,-1,71,78,79,-1,78,75,79,-1,79,75,74,-1,70,72,78,-1,78,72,80,-1,77,75,81,-1,81,75,78,-1,81,78,82,-1,82,78,80,-1,74,76,79,-1,79,76,83,-1,73,71,84,-1,84,71,79,-1,84,79,85,-1,85,79,83,-1,72,73,80,-1,80,73,84,-1,80,84,82,-1,82,84,85,-1,82,85,81,-1,81,85,83,-1,81,83,77,-1,77,83,76,-1,86,87,88,-1,88,87,89,-1,90,91,92,-1,92,91,93,-1,94,91,95,-1,95,91,90,-1,86,94,87,-1,87,94,95,-1,86,88,94,-1,94,88,96,-1,94,96,97,-1,93,91,98,-1,98,91,94,-1,98,94,99,-1,99,94,97,-1,89,87,100,-1,100,87,95,-1,100,95,101,-1,101,95,102,-1,90,92,95,-1,95,92,103,-1,95,103,102,-1,88,89,96,-1,96,89,100,-1,96,100,97,-1,97,100,101,-1,97,101,99,-1,99,101,102,-1,99,102,98,-1,98,102,103,-1,98,103,93,-1,93,103,92,-1,104,105,106,-1,106,105,107,-1,108,109,110,-1,110,109,111,-1,112,113,114,-1,114,113,115,-1,104,112,105,-1,105,112,114,-1,113,109,115,-1,115,109,108,-1,112,104,106,-1,111,109,116,-1,116,109,113,-1,116,113,117,-1,117,113,112,-1,117,112,118,-1,118,112,106,-1,107,105,119,-1,119,105,114,-1,108,110,115,-1,115,110,120,-1,115,120,114,-1,114,120,121,-1,114,121,119,-1,106,107,118,-1,118,107,119,-1,118,119,117,-1,117,119,121,-1,117,121,116,-1,116,121,120,-1,116,120,111,-1,111,120,110,-1,122,123,124,-1,124,123,125,-1,126,127,128,-1,128,127,129,-1,130,123,131,-1,131,123,122,-1,126,130,127,-1,127,130,131,-1,126,128,130,-1,130,128,132,-1,125,123,133,-1,133,123,130,-1,133,130,134,-1,134,130,132,-1,129,127,135,-1,135,127,131,-1,135,131,136,-1,122,124,131,-1,131,124,137,-1,131,137,136,-1,128,129,132,-1,132,129,135,-1,132,135,134,-1,134,135,136,-1,134,136,133,-1,133,136,137,-1,133,137,125,-1,125,137,124,-1,
        ]
    }
}