#VRML V2.0 utf8
# 3D model generated by kicad-lcsc-manager
# Based on easyeda2kicad.py v1.0.1

Shape{
    appearance Appearance {
        material  Material {
            diffuseColor 1.0 0.9411764705882353 0.8117647058823529
            specularColor 0.30196078431372547 0.2823529411764706 0.24313725490196078
            ambientIntensity 0.944
            transparency 0.0
            shininess 0.5
        }
    }
    geometry IndexedFaceSet {
        ccw TRUE
        solid FALSE
        coord DEF co Coordinate {
            point [
                1.5748 -0.6693 0.0472, 0.9055 -0.6693 0.0472, 0.9055 -0.5118 0.0472, 1.9685 -0.273 0.0472, 1.9685 -1.2992 0.0472, 1.5748 -1.2992 0.0472, 0.169 -0.273 0.0472, 0.1181 -0.6693 0.0472, 0.1181 -0.5118 0.0472, 0.6693 -0.6693 0.0472, 0.6693 -0.5118 0.0472, 0.1574 -0.2742 0.0472, 0.152 -0.2741 0.0472, -0.036 -0.0749 0.0472, -0.036 -0.0965 0.0472, -0.0408 -0.2502 0.0472, 0.1032 -0.2616 0.0472, 0.0648 -0.2718 0.0472, 0.1032 -0.24 0.0472, 0.0648 -0.0749 0.0472, 0.1242 -0.2702 0.0472, 0.1441 -0.273 0.0472, -0.06 -0.273 0.0472, -0.06 1.6929 0.0472, 1.6732 1.6929 0.0472, 1.6732 1.6785 0.0472, -0.0408 -0.2718 0.0472, 0.3673 -0.2718 0.0472, 1.6732 0.5118 0.0472, 1.9685 0.5118 0.0472, 0.0384 -0.183 0.0472, 0.0384 -0.2502 0.0472, -0.0312 -0.183 0.0472, -0.0312 -0.1613 0.0472, 0.0384 -0.1613 0.0472, 0.0384 -0.0965 0.0472, 0.2393 -0.1268 0.0472, 0.2277 -0.1084 0.0472, 0.3409 -0.0749 0.0472, 0.2665 -0.2718 0.0472, 0.1816 -0.2717 0.0472, 0.2007 -0.2651 0.0472, 0.1687 -0.0963 0.0472, 0.1834 -0.1016 0.0472, 0.1067 -0.2419 0.0472, 0.1971 -0.1107 0.0472, 0.2089 -0.1239 0.0472, 0.2232 -0.1755 0.0472, 0.2213 -0.1968 0.0472, 0.2159 -0.2137 0.0472, 0.1721 -0.2505 0.0472, 0.1537 -0.2526 0.0472, 0.1864 -0.2452 0.0472, 0.1985 -0.2371 0.0472, 0.2078 -0.2273 0.0472, 0.1276 -0.2497 0.0472, 1.6732 0.5499 0.0472, 0.3673 -0.0749 0.0472, 0.21 -0.0913 0.0472, 0.2171 -0.1391 0.0472, 0.2223 -0.1601 0.0472, 0.2166 -0.255 0.0472, 0.2313 -0.2394 0.0472, 0.2665 -0.2502 0.0472, 0.2418 -0.2207 0.0472, 0.3409 -0.2502 0.0472, 0.2478 -0.1999 0.0472, 0.2497 -0.1771 0.0472, 0.2468 -0.1491 0.0472, 0.1913 -0.0805 0.0472, 0.1693 -0.0741 0.0472, 0.1495 -0.0725 0.0472, 0.126 -0.0742 0.0472, 0.1032 -0.0803 0.0472, 0.1032 -0.1067 0.0472, 0.1254 -0.0972 0.0472, 0.1493 -0.0941 0.0472, -0.2521 -0.2718 0.0472, -0.2278 -0.2178 0.0472, -0.2166 -0.2354 0.0472, -0.4009 -0.2718 0.0472, -0.4297 -0.2718 0.0472, -1.9685 -0.273 0.0472, -0.2003 -0.2509 0.0472, -0.1798 -0.2629 0.0472, -0.1571 -0.2697 0.0472, -0.3265 -0.0749 0.0472, -1.6732 1.6929 0.0472, -0.3529 -0.0749 0.0472, -1.6732 1.6785 0.0472, -0.1328 -0.2718 0.0472, -0.0792 -0.2718 0.0472, -0.0792 -0.0749 0.0472, -0.1348 -0.0749 0.0472, -0.2079 -0.1006 0.0472, -0.2218 -0.116 0.0472, -0.231 -0.133 0.0472, -1.9685 0.5118 0.0472, -1.6732 0.5118 0.0472, -1.6732 0.5499 0.0472, -0.2809 -0.2718 0.0472, -0.2997 -0.2166 0.0472, -0.381 -0.2166 0.0472, -0.1632 -0.078 0.0472, -0.1863 -0.0861 0.0472, -0.2077 -0.1004 0.0472, -0.2362 -0.1524 0.0472, -0.2377 -0.1709 0.0472, -0.2349 -0.1972 0.0472, -0.1181 -0.6693 0.0472, -0.6693 -0.6693 0.0472, -0.1181 -0.5118 0.0472, -0.6693 -0.5118 0.0472, -0.06 -0.5118 0.0472, -0.9055 -0.5118 0.0472, -1.5748 -1.2992 0.0472, -1.9685 -1.2992 0.0472, -1.5748 -0.6693 0.0472, -0.9055 -0.6693 0.0472, 0.9055 -0.6693 0.4409, 1.5748 -0.6693 0.4409, -1.5748 -0.6693 0.4409, -0.9055 -0.6693 0.4409, -1.5748 -0.6693 1.6125, -0.9449 -0.6693 1.8976, -1.2599 -0.6693 1.8976, 1.2598 -0.6693 2.2126, 1.2598 -0.6693 1.8976, 1.9685 -0.6693 2.2126, 1.5748 -0.6693 1.6125, 1.9685 -0.6693 1.6125, -1.2599 -0.6693 2.2126, -1.9685 -0.6693 2.2126, -1.9685 -0.6693 1.6125, -0.6693 -0.6693 1.0709, -0.1181 -0.6693 1.0709, -0.6693 -0.6693 1.4252, -0.1181 -0.6693 1.4252, -0.9055 -0.6693 1.4252, -0.748 -0.6693 1.6614, 0.748 -0.6693 1.6614, 0.1181 -0.6693 1.4252, -1.5748 -0.6693 1.0709, -0.9055 -0.6693 1.0709, -0.9449 -0.6693 2.2126, -0.748 -0.6693 2.0551, 0.9449 -0.6693 2.2126, 0.748 -0.6693 2.0551, 0.9449 -0.6693 1.8976, 1.5748 -0.6693 1.0709, 0.9055 -0.6693 1.0709, 0.9055 -0.6693 1.4252, 0.6693 -0.6693 1.4252, 0.6693 -0.6693 1.0709, 0.1181 -0.6693 1.0709, 0.1181 -0.6693 0.4409, 0.6693 -0.6693 0.4409, -0.1181 -0.5118 1.0709, -0.1181 -0.5118 1.4252, 0.1181 -0.5118 0.4409, -0.9055 -0.5118 0.4409, -0.6693 -0.5118 1.0709, -0.6693 -0.5118 1.4252, 0.6693 -0.5118 0.4409, 0.9055 -0.5118 0.4409, -1.6732 0.546 0.0584, -1.6732 0.5118 0.3622, -1.6732 0.5433 0.3622, -1.6732 0.5433 0.0787, 1.6732 1.6824 0.0584, 1.6732 1.6267 0.9824, 1.6732 1.6457 0.9745, 1.6732 1.6929 1.1102, 1.6732 1.662 0.962, 1.6732 1.6745 0.9457, 1.6732 1.4961 1.1102, 1.6732 1.4961 0.9851, 1.6732 1.6063 0.9851, 1.6732 1.6824 0.9267, 1.6732 1.685 0.9064, 1.6732 1.685 0.0787, 1.6732 0.5118 0.3622, 1.6732 0.5433 0.3622, 1.7913 0.5433 0.3622, 1.7913 1.4961 0.3622, 1.9685 1.4961 0.3622, 1.9685 0.5118 0.3622, 1.7913 1.4961 0.9851, 1.9685 1.4961 1.1102, -0.7284 0.3071 1.8189, -0.7284 0.3071 1.9567, -0.6398 0.3071 1.9567, 1.3189 0.3071 0.9331, 1.3189 0.3071 0.2835, 0.935 0.3071 0.9331, -1.3189 0.3071 0.2835, 0.0984 0.3071 1.1693, 0.0984 0.3071 1.3661, 0.1476 0.3071 0.9331, -0.0984 0.3071 1.1693, -0.1476 0.3071 0.9331, -0.0984 0.3071 1.3661, -0.1476 0.3071 1.9567, 0.1476 0.3071 1.9567, -0.6398 0.3071 0.9331, -0.689 0.3071 1.3661, -1.3189 0.3071 1.8189, -0.8858 0.3071 1.3661, -0.8858 0.3071 1.1693, -0.689 0.3071 1.1693, 0.689 0.3071 1.3661, 0.7283 0.3071 1.8189, 0.8858 0.3071 1.3661, 0.935 0.3071 1.8189, 0.6398 0.3071 0.9331, 0.7283 0.3071 1.9567, 0.6398 0.3071 1.9567, 0.689 0.3071 1.1693, 0.8858 0.3071 1.1693, 1.3189 1.6142 1.1102, 1.3189 1.6142 0.2835, 1.3189 1.1024 1.1102, 1.3189 1.6142 1.8189, 1.3189 1.6142 1.4252, 1.3189 0.3858 1.8189, 1.3189 1.1024 1.4252, 1.3189 0.3858 1.0118, 0.935 0.3858 1.8189, 0.7283 1.6142 1.8189, 0.6398 0.3858 1.9567, 0.1476 0.3858 1.9567, -0.7284 1.6142 1.9567, 0.7283 1.6142 1.9567, -0.6398 0.3858 1.9567, -0.1476 0.3858 1.9567, -1.5748 -1.2992 1.2283, -1.9685 -1.2992 1.2283, -1.3189 1.6142 1.4252, -1.3189 1.1024 1.4252, -1.3976 1.6929 1.4252, -1.6732 1.1024 1.4252, -1.6732 1.6929 1.4252, -1.3189 1.1024 1.1102, -1.6732 1.1024 1.1102, -1.9685 -0.5102 1.1102, -1.6732 -0.5102 1.1102, -1.9685 1.4961 1.1102, -1.6732 1.4961 1.1102, -1.3976 1.6929 1.1102, -1.6732 1.6929 1.1102, -1.3189 1.6142 1.1102, 1.3976 1.6929 1.4252, 1.6732 1.6929 1.4252, 1.6732 1.1024 1.4252, 1.6732 1.1024 1.1102, -0.8071 1.6929 2.0354, -0.8071 1.6929 1.8976, -1.3976 1.6929 1.8976, 1.2598 1.6929 2.0551, 1.3976 1.6929 1.8976, 0.9449 1.6929 2.0551, 0.8071 1.6929 1.8976, 0.9449 1.6929 2.2126, 0.8071 1.6929 2.0354, -1.6732 1.6929 2.2126, 1.2598 1.6929 2.2126, 1.6732 1.6929 2.2126, 1.9685 -0.5102 1.4707, 1.9685 0.4597 1.4707, 1.9685 0.4597 1.937, 1.9685 -0.5102 1.1102, 1.9685 1.4528 1.937, 1.9685 1.4528 2.2126, 1.9685 -1.2992 1.2283, 1.3976 1.6929 0.2047, 1.3976 1.6929 1.1102, -1.3976 1.6929 0.2047, -1.6732 1.4528 2.2126, -1.9685 1.4528 2.2126, -1.2599 1.2205 2.2126, -0.9449 1.2205 2.2126, 0.9449 1.2205 2.2126, 1.2598 1.2205 2.2126, 1.2598 1.4173 2.2126, 0.9449 1.4173 2.2126, 1.6732 1.4528 2.2126, 1.6732 -0.5102 1.1102, 1.6732 0.4597 1.937, 1.6732 1.4528 1.937, -1.9685 1.4528 1.937, -1.6732 1.4528 1.937, -1.9685 0.4597 1.937, -1.6732 0.4597 1.937, -1.6732 -0.5102 1.4707, -1.9685 -0.5102 1.4707, -1.9685 0.4597 1.4707, -1.9685 1.4961 0.3622, -1.9685 0.5118 0.3622, 1.5748 -1.2992 1.2283, -0.6693 -0.6693 0.4409, -0.1181 -0.6693 0.4409, -1.6732 0.4597 1.4707, -1.6732 1.6824 0.0584, -1.6732 1.6745 0.9457, -1.6732 1.662 0.962, -1.6732 1.6457 0.9745, -1.6732 1.685 0.0787, -1.6732 1.685 0.9064, -1.6732 1.6824 0.9267, -1.6732 1.4961 0.9851, -1.6732 1.6063 0.9851, -1.6732 1.6267 0.9824, -1.7913 1.4961 0.3622, -1.7913 1.4961 0.9851, -1.7913 0.5433 0.3622, 1.6732 -0.5102 1.4707, 1.6732 0.4597 1.4707, 1.6732 0.5433 0.0787, 1.6732 0.546 0.0584, 1.2598 1.2205 1.8976, 0.9449 1.2205 1.8976, -1.2599 1.2205 1.8976, -0.9449 1.2205 1.8976, 0.9449 1.4173 2.0551, 1.2598 1.4173 2.0551, -1.3189 1.6142 1.8189, -1.3189 1.6142 0.2835, -0.7284 1.6142 1.8189, -1.5748 -0.5118 1.0709, -1.5748 -0.5118 0.4409, 1.5748 -0.5118 0.4409, 1.5748 -0.5118 1.0709, -0.1181 -0.5118 0.4409, 0.1181 -0.5118 1.0709, 0.1181 -0.5118 1.4252, 0.689 -0.5118 1.1693, 0.689 -0.5118 1.3661, 0.6693 -0.5118 1.4252, 0.9055 -0.5118 1.4252, 0.6693 -0.5118 1.0709, 0.9055 -0.5118 1.0709, 0.8858 -0.5118 1.1693, 0.8858 -0.5118 1.3661, -0.9055 -0.5118 1.0709, -0.689 -0.5118 1.1693, -0.8858 -0.5118 1.1693, -0.6693 -0.5118 0.4409, -0.9055 -0.5118 1.4252, -0.8858 -0.5118 1.3661, -0.689 -0.5118 1.3661, 0.0984 -0.5118 1.1693, -0.0984 -0.5118 1.1693, -0.0984 -0.5118 1.3661, 0.0984 -0.5118 1.3661
            ]
        }
        coordIndex [
            0,1,2,-1,3,4,5,-1,5,0,3,-1,3,0,2,-1,3,2,6,-1,7,8,9,-1,9,8,10,-1,2,10,6,-1,6,10,8,-1,6,8,11,-1,11,8,12,-1,13,14,15,-1,16,17,18,-1,18,17,19,-1,16,20,17,-1,17,20,21,-1,17,21,22,-1,23,24,25,-1,19,13,23,-1,23,13,15,-1,23,15,22,-1,22,15,26,-1,22,26,17,-1,27,28,29,-1,30,31,32,-1,32,31,15,-1,32,15,33,-1,33,15,14,-1,33,14,34,-1,34,14,35,-1,36,37,38,-1,29,3,27,-1,27,3,6,-1,27,6,39,-1,39,6,40,-1,39,40,41,-1,42,43,44,-1,44,43,45,-1,44,45,46,-1,47,48,44,-1,44,48,49,-1,50,51,52,-1,52,51,53,-1,49,54,44,-1,44,54,53,-1,44,53,55,-1,55,53,51,-1,28,27,56,-1,56,27,57,-1,56,57,25,-1,25,57,38,-1,25,38,23,-1,23,38,37,-1,23,37,58,-1,46,59,44,-1,44,59,60,-1,44,60,47,-1,41,61,39,-1,39,61,62,-1,39,62,63,-1,63,62,64,-1,63,64,65,-1,64,66,65,-1,65,66,67,-1,65,67,38,-1,38,67,68,-1,38,68,36,-1,58,69,23,-1,23,69,70,-1,23,70,71,-1,71,72,23,-1,23,72,73,-1,23,73,19,-1,19,73,74,-1,19,74,18,-1,18,74,75,-1,18,75,44,-1,44,75,76,-1,44,76,42,-1,77,78,79,-1,80,22,81,-1,81,22,82,-1,79,83,77,-1,77,83,84,-1,77,84,85,-1,23,86,87,-1,87,86,88,-1,87,88,89,-1,90,91,22,-1,22,91,92,-1,22,92,23,-1,23,92,93,-1,94,95,86,-1,86,95,96,-1,82,97,81,-1,81,97,98,-1,81,98,88,-1,88,98,99,-1,88,99,89,-1,85,90,77,-1,77,90,22,-1,77,22,100,-1,100,22,80,-1,100,80,101,-1,101,80,102,-1,93,103,23,-1,23,103,104,-1,23,104,86,-1,86,104,105,-1,86,105,94,-1,96,106,86,-1,86,106,107,-1,86,107,77,-1,77,107,108,-1,77,108,78,-1,109,110,111,-1,111,110,112,-1,12,8,21,-1,21,8,113,-1,21,113,22,-1,22,113,111,-1,22,111,82,-1,82,111,112,-1,82,112,114,-1,115,116,117,-1,117,116,82,-1,117,82,118,-1,118,82,114,-1,119,1,120,-1,120,1,0,-1,121,117,122,-1,122,117,118,-1,123,124,125,-1,126,127,128,-1,128,127,129,-1,128,129,130,-1,125,131,123,-1,123,131,132,-1,123,132,133,-1,134,135,136,-1,136,135,137,-1,138,136,139,-1,139,136,137,-1,139,137,140,-1,140,137,141,-1,142,143,123,-1,123,143,138,-1,123,138,124,-1,124,138,139,-1,124,139,144,-1,144,139,145,-1,144,145,146,-1,146,145,147,-1,146,147,148,-1,148,147,140,-1,148,140,127,-1,127,140,149,-1,127,149,129,-1,150,149,151,-1,151,149,140,-1,151,140,152,-1,152,140,141,-1,152,141,153,-1,153,141,154,-1,155,7,156,-1,156,7,9,-1,157,158,135,-1,135,158,137,-1,159,8,155,-1,155,8,7,-1,122,118,160,-1,160,118,114,-1,134,136,161,-1,161,136,162,-1,156,9,163,-1,163,9,10,-1,164,2,119,-1,119,2,1,-1,165,99,98,-1,166,167,98,-1,98,167,168,-1,98,168,165,-1,169,25,24,-1,170,171,172,-1,172,171,173,-1,172,173,174,-1,175,176,172,-1,172,176,177,-1,172,177,170,-1,174,178,172,-1,172,178,179,-1,172,179,24,-1,24,179,180,-1,24,180,169,-1,181,182,183,-1,184,185,183,-1,183,185,186,-1,183,186,181,-1,176,175,187,-1,187,175,188,-1,187,188,184,-1,184,188,185,-1,189,190,191,-1,192,193,194,-1,194,193,195,-1,196,197,198,-1,199,200,201,-1,201,200,202,-1,201,202,197,-1,197,202,203,-1,197,203,198,-1,191,204,189,-1,189,204,205,-1,189,205,206,-1,206,205,207,-1,206,207,195,-1,195,207,208,-1,195,208,209,-1,210,211,212,-1,212,211,213,-1,212,213,194,-1,200,195,204,-1,204,195,209,-1,204,209,205,-1,199,196,200,-1,200,196,198,-1,200,198,195,-1,195,198,214,-1,195,214,194,-1,215,211,216,-1,216,211,210,-1,216,210,214,-1,214,210,217,-1,214,217,194,-1,194,217,218,-1,194,218,212,-1,219,220,221,-1,221,220,193,-1,222,223,224,-1,224,223,225,-1,224,225,226,-1,226,225,221,-1,226,221,192,-1,192,221,193,-1,213,211,227,-1,227,211,228,-1,227,228,224,-1,224,228,222,-1,215,216,229,-1,230,231,229,-1,229,231,232,-1,229,232,215,-1,191,190,233,-1,233,190,231,-1,233,231,234,-1,234,231,230,-1,234,230,202,-1,202,230,203,-1,235,236,115,-1,115,236,116,-1,123,133,235,-1,235,133,236,-1,237,238,239,-1,239,238,240,-1,239,240,241,-1,242,243,238,-1,238,243,240,-1,244,245,246,-1,246,245,243,-1,246,243,247,-1,248,249,250,-1,250,249,247,-1,250,247,242,-1,242,247,243,-1,251,252,223,-1,223,252,253,-1,223,253,225,-1,225,253,221,-1,221,253,254,-1,255,256,257,-1,258,259,260,-1,260,259,261,-1,260,261,262,-1,261,263,262,-1,262,263,255,-1,262,255,264,-1,264,255,257,-1,264,257,241,-1,241,257,239,-1,258,265,259,-1,259,265,266,-1,259,266,251,-1,251,266,252,-1,186,185,188,-1,267,268,269,-1,188,270,186,-1,186,270,4,-1,186,4,29,-1,271,272,269,-1,269,272,128,-1,269,128,267,-1,267,128,130,-1,267,130,270,-1,270,130,273,-1,270,273,4,-1,274,275,172,-1,172,24,274,-1,274,24,23,-1,274,23,276,-1,276,23,87,-1,276,87,248,-1,248,87,249,-1,277,278,132,-1,132,131,277,-1,277,131,279,-1,277,279,264,-1,264,279,280,-1,146,281,144,-1,144,281,280,-1,282,283,281,-1,281,283,284,-1,281,284,280,-1,280,284,262,-1,280,262,264,-1,128,272,285,-1,265,283,266,-1,266,283,282,-1,266,282,285,-1,285,282,126,-1,285,126,128,-1,175,172,275,-1,286,270,254,-1,254,270,188,-1,254,188,221,-1,221,188,175,-1,221,175,219,-1,219,175,275,-1,287,288,269,-1,269,288,271,-1,289,290,291,-1,291,290,292,-1,293,245,294,-1,294,245,244,-1,278,289,291,-1,291,295,294,-1,278,291,132,-1,132,291,294,-1,132,294,133,-1,246,296,244,-1,244,296,297,-1,133,294,236,-1,236,294,244,-1,236,244,116,-1,116,244,297,-1,116,297,97,-1,5,4,298,-1,298,4,273,-1,298,273,129,-1,129,273,130,-1,299,110,300,-1,300,110,109,-1,277,290,278,-1,278,290,289,-1,295,301,294,-1,294,301,293,-1,291,292,295,-1,295,292,301,-1,277,264,290,-1,290,264,241,-1,290,241,292,-1,292,241,240,-1,292,240,301,-1,301,240,243,-1,301,243,293,-1,293,243,245,-1,87,89,302,-1,303,304,249,-1,249,304,305,-1,302,306,87,-1,87,306,307,-1,87,307,249,-1,249,307,308,-1,249,308,303,-1,309,247,310,-1,310,247,249,-1,310,249,311,-1,311,249,305,-1,312,296,313,-1,313,296,246,-1,313,246,309,-1,309,246,247,-1,167,166,314,-1,314,166,297,-1,314,297,312,-1,312,297,296,-1,166,98,297,-1,297,98,97,-1,270,286,267,-1,267,286,315,-1,288,285,271,-1,271,285,272,-1,287,269,316,-1,316,269,268,-1,316,268,315,-1,315,268,267,-1,266,285,252,-1,252,285,288,-1,252,288,253,-1,253,288,287,-1,253,287,254,-1,254,287,316,-1,254,316,286,-1,286,316,315,-1,182,181,317,-1,317,181,28,-1,317,28,318,-1,318,28,56,-1,28,181,29,-1,29,181,186,-1,319,127,282,-1,282,127,126,-1,148,320,146,-1,146,320,281,-1,320,319,281,-1,281,319,282,-1,125,321,131,-1,131,321,279,-1,321,322,279,-1,279,322,280,-1,322,124,280,-1,280,124,144,-1,323,260,284,-1,284,260,262,-1,258,324,265,-1,265,324,283,-1,324,323,283,-1,283,323,284,-1,324,258,323,-1,323,258,260,-1,237,325,238,-1,238,325,206,-1,238,206,242,-1,242,206,195,-1,242,195,250,-1,250,195,326,-1,326,195,220,-1,220,195,193,-1,228,211,232,-1,232,211,215,-1,231,190,327,-1,327,190,189,-1,327,189,325,-1,325,189,206,-1,115,117,235,-1,235,117,121,-1,123,235,142,-1,142,235,121,-1,142,121,328,-1,328,121,329,-1,298,129,5,-1,5,129,149,-1,0,5,120,-1,120,5,149,-1,120,149,330,-1,330,149,331,-1,300,109,332,-1,332,109,111,-1,154,141,333,-1,333,141,334,-1,335,336,337,-1,337,336,338,-1,337,339,335,-1,335,339,340,-1,335,340,341,-1,341,340,338,-1,341,338,342,-1,342,338,336,-1,343,328,329,-1,160,114,112,-1,162,344,161,-1,161,344,345,-1,112,346,160,-1,160,346,157,-1,160,157,329,-1,329,157,161,-1,329,161,343,-1,343,161,345,-1,343,345,347,-1,347,345,348,-1,347,348,162,-1,162,348,349,-1,162,349,344,-1,332,111,8,-1,334,350,333,-1,333,350,351,-1,159,163,339,-1,8,159,332,-1,332,159,339,-1,332,339,346,-1,346,339,333,-1,346,333,157,-1,157,333,351,-1,157,351,158,-1,158,351,352,-1,158,352,334,-1,334,352,353,-1,334,353,350,-1,10,2,163,-1,163,2,164,-1,163,164,339,-1,339,164,330,-1,339,330,340,-1,340,330,331,-1,334,141,158,-1,158,141,137,-1,
        ]
    }
}
Shape{
    appearance Appearance {
        material  Material {
            diffuseColor 0.6666666666666666 0.6980392156862745 0.7686274509803922
            specularColor 0.3333333333333333 0.34901960784313724 0.3843137254901961
            ambientIntensity 0.6967
            transparency 0.0
            shininess 0.5
        }
    }
    geometry IndexedFaceSet {
        ccw TRUE
        solid FALSE
        coord DEF co Coordinate {
            point [
                0.0984 -0.5512 1.3661, -0.0984 -0.5512 1.3661, -0.0984 -0.6276 1.3561, 0.0984 -0.6276 1.3561, -0.0984 -0.6988 1.3266, 0.0984 -0.6988 1.3266, -0.0984 -0.76 1.2797, 0.0984 -0.76 1.2797, -0.0984 -0.8069 1.2185, 0.0984 -0.8069 1.2185, -0.0984 -0.8364 1.1473, 0.0984 -0.8364 1.1473, -0.0984 -0.8465 1.0709, 0.0984 -0.8465 1.0709, 0.0984 -0.8465 0.2244, -0.0984 -0.8465 0.2244, 0.0984 -0.8471 0.2193, -0.0984 -0.8471 0.2193, 0.0984 -0.8491 0.2146, -0.0984 -0.8491 0.2146, 0.0984 -0.8522 0.2105, -0.0984 -0.8522 0.2105, 0.0984 -0.8563 0.2074, -0.0984 -0.8563 0.2074, 0.0984 -0.861 0.2054, -0.0984 -0.861 0.2054, 0.0984 -0.8661 0.2047, -0.0984 -0.8661 0.2047, 0.0984 -1.6142 0.2047, -0.0984 -1.6142 0.2047, -0.053 -1.6929 0.1593, -0.053 -1.6929 0.0533, 0.053 -1.6929 0.1593, 0.053 -1.6929 0.0533, -0.0984 -1.6142 0.0079, -0.0984 -0.8661 0.0079, 0.0984 -1.6142 0.0079, 0.0984 -0.8661 0.0079, -0.0984 -0.8101 0.0153, 0.0984 -0.8101 0.0153, -0.0984 -0.7579 0.0369, 0.0984 -0.7579 0.0369, -0.0984 -0.713 0.0713, 0.0984 -0.713 0.0713, -0.0984 -0.6786 0.1161, 0.0984 -0.6786 0.1161, -0.0984 -0.657 0.1684, 0.0984 -0.657 0.1684, -0.0984 -0.6496 0.2244, 0.0984 -0.6496 0.2244, 0.0984 -0.6496 1.0709, -0.0984 -0.6496 1.0709, 0.0984 -0.6463 1.0963, -0.0984 -0.6463 1.0963, 0.0984 -0.6364 1.1201, -0.0984 -0.6364 1.1201, 0.0984 -0.6208 1.1405, -0.0984 -0.6208 1.1405, 0.0984 -0.6004 1.1561, -0.0984 -0.6004 1.1561, 0.0984 -0.5767 1.1659, -0.0984 -0.5767 1.1659, 0.0984 -0.5512 1.1693, -0.0984 -0.5512 1.1693, -0.0984 -0.5118 1.1693, -0.0984 -0.5118 1.3661, 0.0984 -0.5118 1.1693, 0.0984 -0.5118 1.3661, 0.0984 1.1811 1.1693, 0.0984 0.3071 1.1693, -0.0984 1.1811 1.1693, -0.0984 0.3071 1.1693, -0.053 1.2598 1.2148, -0.053 1.2598 1.3207, 0.053 1.2598 1.2148, 0.053 1.2598 1.3207, -0.0984 1.1811 1.3661, -0.0984 0.3071 1.3661, 0.0984 1.1811 1.3661, 0.0984 0.3071 1.3661
            ]
        }
        coordIndex [
            0,1,2,-1,0,2,3,-1,3,2,4,-1,3,4,5,-1,5,4,6,-1,5,6,7,-1,7,6,8,-1,7,8,9,-1,9,8,10,-1,9,10,11,-1,11,10,12,-1,11,12,13,-1,14,13,15,-1,15,13,12,-1,14,15,16,-1,16,15,17,-1,16,17,18,-1,18,17,19,-1,18,19,20,-1,20,19,21,-1,20,21,22,-1,22,21,23,-1,22,23,24,-1,24,23,25,-1,24,25,26,-1,26,25,27,-1,28,26,29,-1,29,26,27,-1,30,31,32,-1,32,31,33,-1,34,35,36,-1,36,35,37,-1,37,35,38,-1,37,38,39,-1,39,38,40,-1,39,40,41,-1,41,40,42,-1,41,42,43,-1,43,42,44,-1,43,44,45,-1,45,44,46,-1,45,46,47,-1,47,46,48,-1,47,48,49,-1,50,49,51,-1,51,49,48,-1,50,51,52,-1,52,51,53,-1,52,53,54,-1,54,53,55,-1,54,55,56,-1,56,55,57,-1,56,57,58,-1,58,57,59,-1,58,59,60,-1,60,59,61,-1,60,61,62,-1,62,61,63,-1,34,29,35,-1,35,29,27,-1,35,27,38,-1,38,27,25,-1,38,25,40,-1,40,25,23,-1,40,23,42,-1,42,23,21,-1,42,21,44,-1,44,21,19,-1,44,19,46,-1,46,19,17,-1,46,17,48,-1,48,17,15,-1,48,15,51,-1,51,15,12,-1,51,12,53,-1,53,12,10,-1,53,10,55,-1,55,10,8,-1,55,8,57,-1,57,8,6,-1,57,6,59,-1,59,6,4,-1,59,4,61,-1,61,4,2,-1,61,2,63,-1,63,2,1,-1,63,1,64,-1,64,1,65,-1,66,67,62,-1,62,67,0,-1,62,0,60,-1,60,0,3,-1,60,3,58,-1,58,3,5,-1,58,5,56,-1,56,5,7,-1,56,7,54,-1,54,7,9,-1,54,9,52,-1,52,9,11,-1,52,11,50,-1,50,11,13,-1,50,13,49,-1,49,13,14,-1,49,14,47,-1,47,14,16,-1,47,16,45,-1,45,16,18,-1,45,18,43,-1,43,18,20,-1,43,20,41,-1,41,20,22,-1,41,22,39,-1,39,22,24,-1,39,24,37,-1,37,24,26,-1,37,26,36,-1,36,26,28,-1,65,1,67,-1,67,1,0,-1,62,63,66,-1,66,63,64,-1,68,69,70,-1,70,69,71,-1,72,73,74,-1,74,73,75,-1,76,77,78,-1,78,77,79,-1,78,79,68,-1,68,79,69,-1,70,71,76,-1,76,71,77,-1,36,33,34,-1,34,33,31,-1,28,32,36,-1,36,32,33,-1,30,29,31,-1,31,29,34,-1,29,30,28,-1,28,30,32,-1,78,75,76,-1,76,75,73,-1,68,74,78,-1,78,74,75,-1,72,70,73,-1,73,70,76,-1,70,72,68,-1,68,72,74,-1,
        ]
    }
}
Shape{
    appearance Appearance {
        material  Material {
            diffuseColor 1.0 0.9411764705882353 0.8117647058823529
            specularColor 0.30196078431372547 0.2823529411764706 0.24313725490196078
            ambientIntensity 0.944
            transparency 0.0
            shininess 0.5
        }
    }
    geometry IndexedFaceSet {
        ccw TRUE
        solid FALSE
        coord DEF co Coordinate {
            point [
                0.1476 0.3071 0.9331, 0.1476 0.3071 1.9567, 0.1476 0.3858 1.0118, 0.1476 0.3858 1.9567, 0.6398 0.3858 1.0118, 0.6398 0.3858 1.9567, 0.6398 0.3071 0.9331, 0.6398 0.3071 1.9567, -0.9055 -0.5118 1.0709, -0.9055 -0.5118 1.4252, -0.9055 -0.6693 1.0709, -0.9055 -0.6693 1.4252, -0.6693 -0.5118 0.4409, -0.6693 -0.5118 0.0472, -0.6693 -0.6693 0.4409, -0.6693 -0.6693 0.0472, -0.6693 -0.5118 1.4252, -0.6693 -0.6693 1.4252, 0.6693 -0.5118 1.0709, 0.6693 -0.5118 1.4252, 0.6693 -0.6693 1.0709, 0.6693 -0.6693 1.4252, 0.9055 -0.6693 1.0709, 0.9055 -0.6693 1.4252, 0.9055 -0.5118 1.0709, 0.9055 -0.5118 1.4252
            ]
        }
        coordIndex [
            0,1,2,-1,2,1,3,-1,4,5,6,-1,6,5,7,-1,2,3,4,-1,4,3,5,-1,0,2,6,-1,6,2,4,-1,8,9,10,-1,10,9,11,-1,12,13,14,-1,14,13,15,-1,16,17,9,-1,9,17,11,-1,18,19,20,-1,20,19,21,-1,22,23,24,-1,24,23,25,-1,25,23,19,-1,19,23,21,-1,
        ]
    }
}
Shape{
    appearance Appearance {
        material  Material {
            diffuseColor 0.6666666666666666 0.6980392156862745 0.7686274509803922
            specularColor 0.3333333333333333 0.34901960784313724 0.3843137254901961
            ambientIntensity 0.6967
            transparency 0.0
            shininess 0.5
        }
    }
    geometry IndexedFaceSet {
        ccw TRUE
        solid FALSE
        coord DEF co Coordinate {
            point [
                0.8858 -0.5512 1.3661, 0.689 -0.5512 1.3661, 0.689 -0.6276 1.3561, 0.8858 -0.6276 1.3561, 0.689 -0.6988 1.3266, 0.8858 -0.6988 1.3266, 0.689 -0.76 1.2797, 0.8858 -0.76 1.2797, 0.689 -0.8069 1.2185, 0.8858 -0.8069 1.2185, 0.689 -0.8364 1.1473, 0.8858 -0.8364 1.1473, 0.689 -0.8465 1.0709, 0.8858 -0.8465 1.0709, 0.8858 -0.8465 0.2244, 0.689 -0.8465 0.2244, 0.8858 -0.8471 0.2193, 0.689 -0.8471 0.2193, 0.8858 -0.8491 0.2146, 0.689 -0.8491 0.2146, 0.8858 -0.8522 0.2105, 0.689 -0.8522 0.2105, 0.8858 -0.8563 0.2074, 0.689 -0.8563 0.2074, 0.8858 -0.861 0.2054, 0.689 -0.861 0.2054, 0.8858 -0.8661 0.2047, 0.689 -0.8661 0.2047, 0.8858 -1.6142 0.2047, 0.689 -1.6142 0.2047, 0.7344 -1.6929 0.1593, 0.7344 -1.6929 0.0533, 0.8404 -1.6929 0.1593, 0.8404 -1.6929 0.0533, 0.689 -1.6142 0.0079, 0.689 -0.8661 0.0079, 0.8858 -1.6142 0.0079, 0.8858 -0.8661 0.0079, 0.689 -0.8101 0.0153, 0.8858 -0.8101 0.0153, 0.689 -0.7579 0.0369, 0.8858 -0.7579 0.0369, 0.689 -0.713 0.0713, 0.8858 -0.713 0.0713, 0.689 -0.6786 0.1161, 0.8858 -0.6786 0.1161, 0.689 -0.657 0.1684, 0.8858 -0.657 0.1684, 0.689 -0.6496 0.2244, 0.8858 -0.6496 0.2244, 0.8858 -0.6496 1.0709, 0.689 -0.6496 1.0709, 0.8858 -0.6463 1.0963, 0.689 -0.6463 1.0963, 0.8858 -0.6364 1.1201, 0.689 -0.6364 1.1201, 0.8858 -0.6208 1.1405, 0.689 -0.6208 1.1405, 0.8858 -0.6004 1.1561, 0.689 -0.6004 1.1561, 0.8858 -0.5767 1.1659, 0.689 -0.5767 1.1659, 0.8858 -0.5512 1.1693, 0.689 -0.5512 1.1693, 0.689 -0.5118 1.1693, 0.689 -0.5118 1.3661, 0.8858 -0.5118 1.1693, 0.8858 -0.5118 1.3661, 0.8858 1.1811 1.1693, 0.8858 0.3071 1.1693, 0.689 1.1811 1.1693, 0.689 0.3071 1.1693, 0.7344 1.2598 1.2148, 0.7344 1.2598 1.3207, 0.8404 1.2598 1.2148, 0.8404 1.2598 1.3207, 0.689 1.1811 1.3661, 0.689 0.3071 1.3661, 0.8858 1.1811 1.3661, 0.8858 0.3071 1.3661, -0.689 -0.5512 1.3661, -0.8858 -0.5512 1.3661, -0.8858 -0.6276 1.3561, -0.689 -0.6276 1.3561, -0.8858 -0.6988 1.3266, -0.689 -0.6988 1.3266, -0.8858 -0.76 1.2797, -0.689 -0.76 1.2797, -0.8858 -0.8069 1.2185, -0.689 -0.8069 1.2185, -0.8858 -0.8364 1.1473, -0.689 -0.8364 1.1473, -0.8858 -0.8465 1.0709, -0.689 -0.8465 1.0709, -0.689 -0.8465 0.2244, -0.8858 -0.8465 0.2244, -0.689 -0.8471 0.2193, -0.8858 -0.8471 0.2193, -0.689 -0.8491 0.2146, -0.8858 -0.8491 0.2146, -0.689 -0.8522 0.2105, -0.8858 -0.8522 0.2105, -0.689 -0.8563 0.2074, -0.8858 -0.8563 0.2074, -0.689 -0.861 0.2054, -0.8858 -0.861 0.2054, -0.689 -0.8661 0.2047, -0.8858 -0.8661 0.2047, -0.689 -1.6142 0.2047, -0.8858 -1.6142 0.2047, -0.8404 -1.6929 0.1593, -0.8404 -1.6929 0.0533, -0.7344 -1.6929 0.1593, -0.7344 -1.6929 0.0533, -0.8858 -1.6142 0.0079, -0.8858 -0.8661 0.0079, -0.689 -1.6142 0.0079, -0.689 -0.8661 0.0079, -0.8858 -0.8101 0.0153, -0.689 -0.8101 0.0153, -0.8858 -0.7579 0.0369, -0.689 -0.7579 0.0369, -0.8858 -0.713 0.0713, -0.689 -0.713 0.0713, -0.8858 -0.6786 0.1161, -0.689 -0.6786 0.1161, -0.8858 -0.657 0.1684, -0.689 -0.657 0.1684, -0.8858 -0.6496 0.2244, -0.689 -0.6496 0.2244, -0.689 -0.6496 1.0709, -0.8858 -0.6496 1.0709, -0.689 -0.6463 1.0963, -0.8858 -0.6463 1.0963, -0.689 -0.6364 1.1201, -0.8858 -0.6364 1.1201, -0.689 -0.6208 1.1405, -0.8858 -0.6208 1.1405, -0.689 -0.6004 1.1561, -0.8858 -0.6004 1.1561, -0.689 -0.5767 1.1659, -0.8858 -0.5767 1.1659, -0.689 -0.5512 1.1693, -0.8858 -0.5512 1.1693, -0.8858 -0.5118 1.1693, -0.8858 -0.5118 1.3661, -0.689 -0.5118 1.1693, -0.689 -0.5118 1.3661, -0.689 1.1811 1.1693, -0.689 0.3071 1.1693, -0.8858 1.1811 1.1693, -0.8858 0.3071 1.1693, -0.8404 1.2598 1.2148, -0.8404 1.2598 1.3207, -0.7344 1.2598 1.2148, -0.7344 1.2598 1.3207, -0.8858 1.1811 1.3661, -0.8858 0.3071 1.3661, -0.689 1.1811 1.3661, -0.689 0.3071 1.3661
            ]
        }
        coordIndex [
            0,1,2,-1,0,2,3,-1,3,2,4,-1,3,4,5,-1,5,4,6,-1,5,6,7,-1,7,6,8,-1,7,8,9,-1,9,8,10,-1,9,10,11,-1,11,10,12,-1,11,12,13,-1,14,13,15,-1,15,13,12,-1,14,15,16,-1,16,15,17,-1,16,17,18,-1,18,17,19,-1,18,19,20,-1,20,19,21,-1,20,21,22,-1,22,21,23,-1,22,23,24,-1,24,23,25,-1,24,25,26,-1,26,25,27,-1,28,26,29,-1,29,26,27,-1,30,31,32,-1,32,31,33,-1,34,35,36,-1,36,35,37,-1,37,35,38,-1,37,38,39,-1,39,38,40,-1,39,40,41,-1,41,40,42,-1,41,42,43,-1,43,42,44,-1,43,44,45,-1,45,44,46,-1,45,46,47,-1,47,46,48,-1,47,48,49,-1,50,49,51,-1,51,49,48,-1,50,51,52,-1,52,51,53,-1,52,53,54,-1,54,53,55,-1,54,55,56,-1,56,55,57,-1,56,57,58,-1,58,57,59,-1,58,59,60,-1,60,59,61,-1,60,61,62,-1,62,61,63,-1,34,29,35,-1,35,29,27,-1,35,27,38,-1,38,27,25,-1,38,25,40,-1,40,25,23,-1,40,23,42,-1,42,23,21,-1,42,21,44,-1,44,21,19,-1,44,19,46,-1,46,19,17,-1,46,17,48,-1,48,17,15,-1,48,15,51,-1,51,15,12,-1,51,12,53,-1,53,12,10,-1,53,10,55,-1,55,10,8,-1,55,8,57,-1,57,8,6,-1,57,6,59,-1,59,6,4,-1,59,4,61,-1,61,4,2,-1,61,2,63,-1,63,2,1,-1,63,1,64,-1,64,1,65,-1,66,67,62,-1,62,67,0,-1,62,0,60,-1,60,0,3,-1,60,3,58,-1,58,3,5,-1,58,5,56,-1,56,5,7,-1,56,7,54,-1,54,7,9,-1,54,9,52,-1,52,9,11,-1,52,11,50,-1,50,11,13,-1,50,13,49,-1,49,13,14,-1,49,14,47,-1,47,14,16,-1,47,16,45,-1,45,16,18,-1,45,18,43,-1,43,18,20,-1,43,20,41,-1,41,20,22,-1,41,22,39,-1,39,22,24,-1,39,24,37,-1,37,24,26,-1,37,26,36,-1,36,26,28,-1,65,1,67,-1,67,1,0,-1,62,63,66,-1,66,63,64,-1,68,69,70,-1,70,69,71,-1,72,73,74,-1,74,73,75,-1,76,77,78,-1,78,77,79,-1,78,79,68,-1,68,79,69,-1,70,71,76,-1,76,71,77,-1,80,81,82,-1,80,82,83,-1,83,82,84,-1,83,84,85,-1,85,84,86,-1,85,86,87,-1,87,86,88,-1,87,88,89,-1,89,88,90,-1,89,90,91,-1,91,90,92,-1,91,92,93,-1,94,93,95,-1,95,93,92,-1,94,95,96,-1,96,95,97,-1,96,97,98,-1,98,97,99,-1,98,99,100,-1,100,99,101,-1,100,101,102,-1,102,101,103,-1,102,103,104,-1,104,103,105,-1,104,105,106,-1,106,105,107,-1,108,106,109,-1,109,106,107,-1,110,111,112,-1,112,111,113,-1,114,115,116,-1,116,115,117,-1,117,115,118,-1,117,118,119,-1,119,118,120,-1,119,120,121,-1,121,120,122,-1,121,122,123,-1,123,122,124,-1,123,124,125,-1,125,124,126,-1,125,126,127,-1,127,126,128,-1,127,128,129,-1,130,129,131,-1,131,129,128,-1,130,131,132,-1,132,131,133,-1,132,133,134,-1,134,133,135,-1,134,135,136,-1,136,135,137,-1,136,137,138,-1,138,137,139,-1,138,139,140,-1,140,139,141,-1,140,141,142,-1,142,141,143,-1,114,109,115,-1,115,109,107,-1,115,107,118,-1,118,107,105,-1,118,105,120,-1,120,105,103,-1,120,103,122,-1,122,103,101,-1,122,101,124,-1,124,101,99,-1,124,99,126,-1,126,99,97,-1,126,97,128,-1,128,97,95,-1,128,95,131,-1,131,95,92,-1,131,92,133,-1,133,92,90,-1,133,90,135,-1,135,90,88,-1,135,88,137,-1,137,88,86,-1,137,86,139,-1,139,86,84,-1,139,84,141,-1,141,84,82,-1,141,82,143,-1,143,82,81,-1,143,81,144,-1,144,81,145,-1,146,147,142,-1,142,147,80,-1,142,80,140,-1,140,80,83,-1,140,83,138,-1,138,83,85,-1,138,85,136,-1,136,85,87,-1,136,87,134,-1,134,87,89,-1,134,89,132,-1,132,89,91,-1,132,91,130,-1,130,91,93,-1,130,93,129,-1,129,93,94,-1,129,94,127,-1,127,94,96,-1,127,96,125,-1,125,96,98,-1,125,98,123,-1,123,98,100,-1,123,100,121,-1,121,100,102,-1,121,102,119,-1,119,102,104,-1,119,104,117,-1,117,104,106,-1,117,106,116,-1,116,106,108,-1,145,81,147,-1,147,81,80,-1,142,143,146,-1,146,143,144,-1,148,149,150,-1,150,149,151,-1,152,153,154,-1,154,153,155,-1,156,157,158,-1,158,157,159,-1,158,159,148,-1,148,159,149,-1,150,151,156,-1,156,151,157,-1,36,33,34,-1,34,33,31,-1,28,32,36,-1,36,32,33,-1,30,29,31,-1,31,29,34,-1,29,30,28,-1,28,30,32,-1,78,75,76,-1,76,75,73,-1,68,74,78,-1,78,74,75,-1,72,70,73,-1,73,70,76,-1,70,72,68,-1,68,72,74,-1,116,113,114,-1,114,113,111,-1,108,112,116,-1,116,112,113,-1,110,109,111,-1,111,109,114,-1,109,110,108,-1,108,110,112,-1,158,155,156,-1,156,155,153,-1,148,154,158,-1,158,154,155,-1,152,150,153,-1,153,150,156,-1,150,152,148,-1,148,152,154,-1,
        ]
    }
}
Shape{
    appearance Appearance {
        material  Material {
            diffuseColor 1.0 0.9411764705882353 0.8117647058823529
            specularColor 0.30196078431372547 0.2823529411764706 0.24313725490196078
            ambientIntensity 0.944
            transparency 0.0
            shininess 0.5
        }
    }
    geometry IndexedFaceSet {
        ccw TRUE
        solid FALSE
        coord DEF co Coordinate {
            point [
                -0.6398 0.3071 0.9331, -0.6398 0.3071 1.9567, -0.6398 0.3858 1.0118, -0.6398 0.3858 1.9567, -0.1476 0.3858 1.0118, -0.1476 0.3858 1.9567, -0.1476 0.3071 0.9331, -0.1476 0.3071 1.9567, 0.935 0.3071 0.9331, 0.935 0.3858 1.0118, 1.3189 0.3071 0.9331, 1.3189 0.3858 1.0118, 0.935 0.3858 1.8189, 0.935 0.3071 1.8189, 1.3189 0.3858 1.8189
            ]
        }
        coordIndex [
            0,1,2,-1,2,1,3,-1,4,5,6,-1,6,5,7,-1,2,3,4,-1,4,3,5,-1,0,2,6,-1,6,2,4,-1,8,9,10,-1,10,9,11,-1,12,9,13,-1,13,9,8,-1,11,9,14,-1,14,9,12,-1,
        ]
    }
}
Shape{
    appearance Appearance {
        material  Material {
            diffuseColor 0.6666666666666666 0.6980392156862745 0.7686274509803922
            specularColor 0.3333333333333333 0.34901960784313724 0.3843137254901961
            ambientIntensity 0.6967
            transparency 0.0
            shininess 0.5
        }
    }
    geometry IndexedFaceSet {
        ccw TRUE
        solid FALSE
        coord DEF co Coordinate {
            point [
                1.6732 1.6063 0.0, 1.6732 1.4606 0.0, 1.6732 1.4138 0.0178, 1.6732 1.6745 0.0394, 1.6732 1.662 0.0231, 1.6732 1.6457 0.0105, 1.6732 1.3144 0.0178, 1.6732 0.5499 0.0472, 1.6732 1.3641 0.0239, 1.6732 1.6785 0.0472, 1.6732 1.6267 0.0027, 1.6732 1.2676 0.0, 1.6732 0.622 0.0, 1.6732 0.5539 0.0394, 1.6732 0.6017 0.0027, 1.6732 0.5664 0.0231, 1.6732 0.5827 0.0105, 1.7913 1.2676 0.0, 1.7913 1.3144 0.0178, 1.7913 1.3641 0.0239, 1.7913 1.4138 0.0178, 1.7913 1.4606 0.0, 1.7913 1.6063 0.0, 1.7913 1.6267 0.0027, 1.7913 1.6457 0.0105, 1.7913 1.662 0.0231, 1.7913 1.6745 0.0394, 1.7913 1.6824 0.0584, 1.6732 1.6824 0.0584, 1.6732 1.685 0.0787, 1.7913 1.685 0.0787, 1.7913 1.685 0.9064, 1.6732 1.685 0.9064, 1.6732 1.6824 0.9267, 1.7913 1.6824 0.9267, 1.6732 1.6745 0.9457, 1.7913 1.6745 0.9457, 1.6732 1.662 0.962, 1.7913 1.662 0.962, 1.6732 1.6457 0.9745, 1.7913 1.6457 0.9745, 1.6732 1.6267 0.9824, 1.7913 1.6267 0.9824, 1.6732 1.6063 0.9851, 1.7913 1.6063 0.9851, 1.7913 1.4961 0.9851, 1.6732 1.4961 0.9851, 1.6732 0.5433 0.0787, 1.7913 0.5433 0.0787, 1.6732 0.5433 0.3622, 1.7913 0.5433 0.3622, 1.6732 0.546 0.0584, 1.7913 0.546 0.0584, 1.7913 0.5539 0.0394, 1.7913 0.5664 0.0231, 1.7913 0.5827 0.0105, 1.7913 0.6017 0.0027, 1.7913 0.622 0.0, 1.7913 1.4961 0.3622, -1.6732 1.6063 0.9851, -1.7913 1.6063 0.9851, -1.6732 1.4961 0.9851, -1.7913 1.4961 0.9851, -1.7913 0.5433 0.0787, -1.6732 0.5433 0.0787, -1.7913 0.5433 0.3622, -1.6732 0.5433 0.3622, -1.7913 1.4961 0.3622, -1.7913 0.546 0.0584, -1.7913 0.622 0.0, -1.7913 1.685 0.9064, -1.7913 1.6267 0.9824, -1.7913 1.4138 0.0178, -1.7913 1.3641 0.0239, -1.7913 1.3144 0.0178, -1.7913 1.2676 0.0, -1.7913 0.5827 0.0105, -1.7913 0.5664 0.0231, -1.7913 0.5539 0.0394, -1.7913 1.685 0.0787, -1.7913 1.6824 0.0584, -1.7913 0.6017 0.0027, -1.7913 1.6457 0.9745, -1.7913 1.662 0.962, -1.7913 1.6824 0.9267, -1.7913 1.6745 0.9457, -1.7913 1.6745 0.0394, -1.7913 1.662 0.0231, -1.7913 1.6457 0.0105, -1.7913 1.4606 0.0, -1.7913 1.6063 0.0, -1.7913 1.6267 0.0027, -1.6732 0.622 0.0, -1.6732 0.5499 0.0472, -1.6732 0.5539 0.0394, -1.6732 1.4138 0.0178, -1.6732 1.6785 0.0472, -1.6732 1.3641 0.0239, -1.6732 1.3144 0.0178, -1.6732 1.2676 0.0, -1.6732 0.5664 0.0231, -1.6732 0.5827 0.0105, -1.6732 0.6017 0.0027, -1.6732 1.6457 0.0105, -1.6732 1.662 0.0231, -1.6732 1.6745 0.0394, -1.6732 1.4606 0.0, -1.6732 1.6063 0.0, -1.6732 1.6267 0.0027, -1.6732 0.546 0.0584, -1.6732 1.6267 0.9824, -1.6732 1.6457 0.9745, -1.6732 1.662 0.962, -1.6732 1.6745 0.9457, -1.6732 1.6824 0.9267, -1.6732 1.685 0.9064, -1.6732 1.685 0.0787, -1.6732 1.6824 0.0584
            ]
        }
        coordIndex [
            0,1,2,-1,3,4,5,-1,6,7,8,-1,8,7,9,-1,5,10,3,-1,3,10,0,-1,3,0,9,-1,9,0,2,-1,9,2,8,-1,6,11,7,-1,7,11,12,-1,7,12,13,-1,13,12,14,-1,13,14,15,-1,15,14,16,-1,17,11,18,-1,18,11,6,-1,18,6,19,-1,19,6,8,-1,19,8,20,-1,20,8,2,-1,20,2,21,-1,21,2,1,-1,22,21,0,-1,0,21,1,-1,22,0,10,-1,22,10,23,-1,23,10,5,-1,23,5,24,-1,24,5,4,-1,24,4,25,-1,25,4,3,-1,25,3,26,-1,26,3,9,-1,26,9,27,-1,9,28,27,-1,27,28,29,-1,27,29,30,-1,31,30,32,-1,32,30,29,-1,31,32,33,-1,31,33,34,-1,34,33,35,-1,34,35,36,-1,36,35,37,-1,36,37,38,-1,38,37,39,-1,38,39,40,-1,40,39,41,-1,40,41,42,-1,42,41,43,-1,42,43,44,-1,44,43,45,-1,45,43,46,-1,47,48,49,-1,49,48,50,-1,48,47,51,-1,48,51,52,-1,52,51,7,-1,52,7,53,-1,7,13,53,-1,53,13,15,-1,53,15,54,-1,54,15,16,-1,54,16,55,-1,55,16,14,-1,55,14,56,-1,56,14,12,-1,56,12,57,-1,17,57,11,-1,11,57,12,-1,27,30,58,-1,58,30,45,-1,45,30,31,-1,45,31,44,-1,19,20,58,-1,58,20,21,-1,21,22,58,-1,58,22,23,-1,58,23,24,-1,36,38,34,-1,34,38,40,-1,34,40,31,-1,31,40,42,-1,31,42,44,-1,57,17,58,-1,58,17,18,-1,58,18,19,-1,24,25,58,-1,58,25,26,-1,58,26,27,-1,58,50,57,-1,57,50,48,-1,57,48,56,-1,56,48,52,-1,52,53,56,-1,56,53,54,-1,56,54,55,-1,59,60,61,-1,61,60,62,-1,63,64,65,-1,65,64,66,-1,63,65,67,-1,68,63,69,-1,62,60,70,-1,70,60,71,-1,72,73,67,-1,67,73,74,-1,67,74,63,-1,63,74,75,-1,63,75,69,-1,76,77,78,-1,62,70,67,-1,67,70,79,-1,67,79,80,-1,68,69,78,-1,78,69,81,-1,78,81,76,-1,71,82,70,-1,70,82,83,-1,70,83,84,-1,84,83,85,-1,80,86,67,-1,67,86,87,-1,67,87,88,-1,89,72,90,-1,90,72,67,-1,90,67,91,-1,91,67,88,-1,92,93,94,-1,95,96,97,-1,97,96,93,-1,97,93,98,-1,98,93,92,-1,98,92,99,-1,100,101,94,-1,94,101,102,-1,94,102,92,-1,103,104,105,-1,95,106,96,-1,96,106,107,-1,96,107,105,-1,105,107,108,-1,105,108,103,-1,89,106,72,-1,72,106,95,-1,72,95,73,-1,73,95,97,-1,73,97,74,-1,74,97,98,-1,74,98,75,-1,75,98,99,-1,69,75,92,-1,92,75,99,-1,69,92,102,-1,69,102,81,-1,81,102,101,-1,81,101,76,-1,76,101,100,-1,76,100,77,-1,77,100,94,-1,77,94,78,-1,78,94,93,-1,78,93,68,-1,93,109,68,-1,68,109,64,-1,68,64,63,-1,60,59,110,-1,60,110,71,-1,71,110,111,-1,71,111,82,-1,82,111,112,-1,82,112,83,-1,83,112,113,-1,83,113,85,-1,85,113,114,-1,85,114,84,-1,84,114,115,-1,84,115,70,-1,79,70,116,-1,116,70,115,-1,79,116,117,-1,79,117,80,-1,80,117,96,-1,80,96,86,-1,96,105,86,-1,86,105,104,-1,86,104,87,-1,87,104,103,-1,87,103,88,-1,88,103,108,-1,88,108,91,-1,91,108,107,-1,91,107,90,-1,89,90,106,-1,106,90,107,-1,
        ]
    }
}
Shape{
    appearance Appearance {
        material  Material {
            diffuseColor 1.0 0.9411764705882353 0.8117647058823529
            specularColor 0.30196078431372547 0.2823529411764706 0.24313725490196078
            ambientIntensity 0.944
            transparency 0.0
            shininess 0.5
        }
    }
    geometry IndexedFaceSet {
        ccw TRUE
        solid FALSE
        coord DEF co Coordinate {
            point [
                -1.2599 -0.6693 1.8976, -0.9449 -0.6693 1.8976, -1.2599 1.2205 1.8976, -0.9449 1.2205 1.8976, 1.2598 1.2205 1.8976, 0.9449 1.2205 1.8976, 1.2598 -0.6693 1.8976, 0.9449 -0.6693 1.8976, 0.6693 -0.5118 0.4409, 0.1181 -0.5118 0.4409, 0.6693 -0.6693 0.4409, 0.1181 -0.6693 0.4409, 0.1181 -0.5118 1.0709, 0.6693 -0.5118 1.0709, 0.1181 -0.6693 1.0709, 0.6693 -0.6693 1.0709, 1.5748 -0.5118 0.4409, 0.9055 -0.5118 0.4409, 1.5748 -0.6693 0.4409, 0.9055 -0.6693 0.4409, 0.9055 -0.5118 1.0709, 1.5748 -0.5118 1.0709, 0.9055 -0.6693 1.0709, 1.5748 -0.6693 1.0709, -0.6693 -0.5118 1.0709, -0.1181 -0.5118 1.0709, -0.6693 -0.6693 1.0709, -0.1181 -0.6693 1.0709, -0.1181 -0.5118 0.4409, -0.6693 -0.5118 0.4409, -0.1181 -0.6693 0.4409, -0.6693 -0.6693 0.4409, -0.9055 -0.5118 0.4409, -1.5748 -0.5118 0.4409, -0.9055 -0.6693 0.4409, -1.5748 -0.6693 0.4409, -1.5748 -0.5118 1.0709, -0.9055 -0.5118 1.0709, -1.5748 -0.6693 1.0709, -0.9055 -0.6693 1.0709, 0.748 -0.2756 2.0551, 0.748 -0.2756 1.6614, 0.748 -0.6693 2.0551, 0.748 -0.6693 1.6614, -0.748 -0.2756 1.6614, -0.748 -0.6693 1.6614, -0.748 -0.2756 2.0551, -0.748 -0.6693 2.0551
            ]
        }
        coordIndex [
            0,1,2,-1,2,1,3,-1,4,5,6,-1,6,5,7,-1,8,9,10,-1,10,9,11,-1,12,13,14,-1,14,13,15,-1,16,17,18,-1,18,17,19,-1,20,21,22,-1,22,21,23,-1,24,25,26,-1,26,25,27,-1,28,29,30,-1,30,29,31,-1,32,33,34,-1,34,33,35,-1,36,37,38,-1,38,37,39,-1,40,41,42,-1,42,41,43,-1,41,44,43,-1,43,44,45,-1,44,46,45,-1,45,46,47,-1,46,40,47,-1,47,40,42,-1,46,44,40,-1,40,44,41,-1,
        ]
    }
}
Shape{
    appearance Appearance {
        material  Material {
            diffuseColor 0.25098039215686274 0.25098039215686274 0.25098039215686274
            specularColor 0.12549019607843137 0.12549019607843137 0.12549019607843137
            ambientIntensity 0.251
            transparency 0.0
            shininess 0.5
        }
    }
    geometry IndexedFaceSet {
        ccw TRUE
        solid FALSE
        coord DEF co Coordinate {
            point [
                -0.3529 -0.0749 0.0476, -0.4297 -0.2718 0.0476, -0.3529 -0.0749 0.0472, -0.4297 -0.2718 0.0472, -0.4009 -0.2718 0.0476, -0.4009 -0.2718 0.0472, -0.381 -0.2166 0.0476, -0.381 -0.2166 0.0472, -0.2997 -0.2166 0.0476, -0.2997 -0.2166 0.0472, -0.2809 -0.2718 0.0476, -0.2809 -0.2718 0.0472, -0.2521 -0.2718 0.0476, -0.2521 -0.2718 0.0472, -0.3265 -0.0749 0.0476, -0.3265 -0.0749 0.0472, -0.3063 -0.195 0.0476, -0.3721 -0.195 0.0476, -0.3357 -0.1127 0.0476, -0.3376 -0.1059 0.0476, -0.3388 -0.0989 0.0476, -0.3395 -0.0989 0.0476, -0.3408 -0.1059 0.0476, -0.3425 -0.1127 0.0476, -0.3063 -0.195 0.0472, -0.3721 -0.195 0.0472, -0.3357 -0.1127 0.0472, -0.3376 -0.1059 0.0472, -0.3388 -0.0989 0.0472, -0.3395 -0.0989 0.0472, -0.3408 -0.1059 0.0472, -0.3425 -0.1127 0.0472, -0.1328 -0.2718 0.0476, -0.0792 -0.2718 0.0476, -0.1328 -0.2718 0.0472, -0.0792 -0.2718 0.0472, -0.0792 -0.0749 0.0476, -0.0792 -0.0749 0.0472, -0.1348 -0.0749 0.0476, -0.1348 -0.0749 0.0472, -0.2377 -0.1709 0.0476, -0.2377 -0.1709 0.0472, -0.2362 -0.1524 0.0472, -0.2362 -0.1524 0.0476, -0.231 -0.133 0.0472, -0.231 -0.133 0.0476, -0.2218 -0.116 0.0472, -0.2218 -0.116 0.0476, -0.2079 -0.1006 0.0472, -0.2079 -0.1006 0.0476, -0.2077 -0.1004 0.0472, -0.2077 -0.1004 0.0476, -0.1863 -0.0861 0.0472, -0.1863 -0.0861 0.0476, -0.1632 -0.078 0.0472, -0.1632 -0.078 0.0476, -0.1571 -0.2697 0.0472, -0.1571 -0.2697 0.0476, -0.1798 -0.2629 0.0472, -0.1798 -0.2629 0.0476, -0.2003 -0.2509 0.0472, -0.2003 -0.2509 0.0476, -0.2166 -0.2354 0.0472, -0.2166 -0.2354 0.0476, -0.2278 -0.2178 0.0472, -0.2278 -0.2178 0.0476, -0.2349 -0.1972 0.0472, -0.2349 -0.1972 0.0476, -0.1982 -0.1241 0.0476, -0.1886 -0.114 0.0476, -0.1742 -0.1047 0.0476, -0.158 -0.099 0.0476, -0.1347 -0.0965 0.0476, -0.1056 -0.0965 0.0476, -0.1056 -0.2502 0.0476, -0.1336 -0.2502 0.0476, -0.1543 -0.2482 0.0476, -0.1709 -0.2431 0.0476, -0.1843 -0.2351 0.0476, -0.1954 -0.2242 0.0476, -0.2037 -0.2106 0.0476, -0.2095 -0.1921 0.0476, -0.2113 -0.1714 0.0476, -0.2096 -0.1518 0.0476, -0.205 -0.1363 0.0476, -0.1347 -0.0965 0.0472, -0.1056 -0.0965 0.0472, -0.158 -0.099 0.0472, -0.1742 -0.1047 0.0472, -0.1886 -0.114 0.0472, -0.1982 -0.1241 0.0472, -0.205 -0.1363 0.0472, -0.2096 -0.1518 0.0472, -0.2113 -0.1714 0.0472, -0.2095 -0.1921 0.0472, -0.2037 -0.2106 0.0472, -0.1954 -0.2242 0.0472, -0.1843 -0.2351 0.0472, -0.1709 -0.2431 0.0472, -0.1543 -0.2482 0.0472, -0.1336 -0.2502 0.0472, -0.1056 -0.2502 0.0472, -0.0408 -0.2502 0.0476, -0.0408 -0.2718 0.0476, -0.0408 -0.2502 0.0472, -0.0408 -0.2718 0.0472, 0.0648 -0.2718 0.0476, 0.0648 -0.2718 0.0472, 0.0648 -0.0749 0.0476, 0.0648 -0.0749 0.0472, -0.036 -0.0749 0.0476, -0.036 -0.0749 0.0472, -0.036 -0.0965 0.0476, -0.036 -0.0965 0.0472, 0.0384 -0.0965 0.0476, 0.0384 -0.0965 0.0472, 0.0384 -0.1613 0.0476, 0.0384 -0.1613 0.0472, -0.0312 -0.1613 0.0476, -0.0312 -0.1613 0.0472, -0.0312 -0.183 0.0476, -0.0312 -0.183 0.0472, 0.0384 -0.183 0.0476, 0.0384 -0.183 0.0472, 0.0384 -0.2502 0.0476, 0.0384 -0.2502 0.0472, 0.1032 -0.24 0.0476, 0.1032 -0.2616 0.0476, 0.1032 -0.24 0.0472, 0.1032 -0.2616 0.0472, 0.1242 -0.2702 0.0476, 0.1574 -0.2742 0.0476, 0.1574 -0.2742 0.0472, 0.152 -0.2741 0.0472, 0.152 -0.2741 0.0476, 0.1441 -0.273 0.0472, 0.1242 -0.2702 0.0472, 0.169 -0.273 0.0472, 0.1816 -0.2717 0.0476, 0.1816 -0.2717 0.0472, 0.2007 -0.2651 0.0476, 0.2007 -0.2651 0.0472, 0.2166 -0.255 0.0476, 0.2166 -0.255 0.0472, 0.2313 -0.2394 0.0476, 0.2313 -0.2394 0.0472, 0.2418 -0.2207 0.0476, 0.2418 -0.2207 0.0472, 0.2478 -0.1999 0.0476, 0.2478 -0.1999 0.0472, 0.2497 -0.1771 0.0476, 0.2497 -0.1771 0.0472, 0.1495 -0.0725 0.0476, 0.1495 -0.0725 0.0472, 0.1693 -0.0741 0.0472, 0.1693 -0.0741 0.0476, 0.1913 -0.0805 0.0472, 0.1913 -0.0805 0.0476, 0.21 -0.0913 0.0472, 0.21 -0.0913 0.0476, 0.2277 -0.1084 0.0472, 0.2277 -0.1084 0.0476, 0.2393 -0.1268 0.0472, 0.2393 -0.1268 0.0476, 0.2468 -0.1491 0.0472, 0.2468 -0.1491 0.0476, 0.1032 -0.0803 0.0476, 0.1032 -0.0803 0.0472, 0.126 -0.0742 0.0472, 0.126 -0.0742 0.0476, 0.1032 -0.1067 0.0476, 0.1032 -0.1067 0.0472, 0.1493 -0.0941 0.0476, 0.1493 -0.0941 0.0472, 0.1254 -0.0972 0.0472, 0.1254 -0.0972 0.0476, 0.2232 -0.1755 0.0476, 0.2232 -0.1755 0.0472, 0.2223 -0.1601 0.0472, 0.2223 -0.1601 0.0476, 0.2171 -0.1391 0.0472, 0.2171 -0.1391 0.0476, 0.2089 -0.1239 0.0472, 0.2089 -0.1239 0.0476, 0.1971 -0.1107 0.0472, 0.1971 -0.1107 0.0476, 0.1834 -0.1016 0.0472, 0.1834 -0.1016 0.0476, 0.1687 -0.0963 0.0472, 0.1687 -0.0963 0.0476, 0.1537 -0.2526 0.0476, 0.1537 -0.2526 0.0472, 0.1721 -0.2505 0.0472, 0.1721 -0.2505 0.0476, 0.1864 -0.2452 0.0472, 0.1864 -0.2452 0.0476, 0.1985 -0.2371 0.0472, 0.1985 -0.2371 0.0476, 0.2078 -0.2273 0.0472, 0.2078 -0.2273 0.0476, 0.2159 -0.2137 0.0472, 0.2159 -0.2137 0.0476, 0.2213 -0.1968 0.0472, 0.2213 -0.1968 0.0476, 0.1067 -0.2419 0.0472, 0.1067 -0.2419 0.0476, 0.1276 -0.2497 0.0472, 0.1276 -0.2497 0.0476, 0.2665 -0.2502 0.0476, 0.2665 -0.2718 0.0476, 0.2665 -0.2502 0.0472, 0.2665 -0.2718 0.0472, 0.3673 -0.2718 0.0476, 0.3673 -0.2718 0.0472, 0.3673 -0.0749 0.0476, 0.3673 -0.0749 0.0472, 0.3409 -0.0749 0.0476, 0.3409 -0.0749 0.0472, 0.3409 -0.2502 0.0476, 0.3409 -0.2502 0.0472
            ]
        }
        coordIndex [
            0,1,2,-1,2,1,3,-1,1,4,3,-1,3,4,5,-1,4,6,5,-1,5,6,7,-1,6,8,7,-1,7,8,9,-1,8,10,9,-1,9,10,11,-1,10,12,11,-1,11,12,13,-1,12,14,13,-1,13,14,15,-1,14,0,15,-1,15,0,2,-1,16,8,17,-1,17,8,6,-1,18,14,16,-1,16,14,12,-1,16,12,8,-1,8,12,10,-1,18,19,14,-1,14,19,20,-1,14,20,0,-1,0,20,21,-1,0,21,22,-1,22,23,0,-1,0,23,17,-1,0,17,1,-1,1,17,6,-1,1,6,4,-1,16,17,24,-1,24,17,25,-1,18,16,26,-1,26,16,24,-1,18,26,27,-1,18,27,19,-1,19,27,28,-1,19,28,20,-1,21,20,29,-1,29,20,28,-1,21,29,30,-1,21,30,22,-1,22,30,31,-1,22,31,23,-1,17,23,25,-1,25,23,31,-1,32,33,34,-1,34,33,35,-1,33,36,35,-1,35,36,37,-1,36,38,37,-1,37,38,39,-1,40,41,42,-1,40,42,43,-1,43,42,44,-1,43,44,45,-1,45,44,46,-1,45,46,47,-1,47,46,48,-1,47,48,49,-1,49,48,50,-1,49,50,51,-1,51,50,52,-1,51,52,53,-1,53,52,54,-1,53,54,55,-1,55,54,39,-1,55,39,38,-1,32,34,56,-1,32,56,57,-1,57,56,58,-1,57,58,59,-1,59,58,60,-1,59,60,61,-1,61,60,62,-1,61,62,63,-1,63,62,64,-1,63,64,65,-1,65,64,66,-1,65,66,67,-1,67,66,41,-1,67,41,40,-1,45,47,68,-1,68,47,49,-1,68,49,69,-1,69,49,51,-1,69,51,70,-1,70,51,53,-1,70,53,71,-1,71,53,55,-1,71,55,72,-1,72,55,38,-1,72,38,73,-1,73,38,36,-1,73,36,74,-1,74,36,33,-1,74,33,75,-1,75,33,32,-1,75,32,76,-1,76,32,57,-1,76,57,77,-1,77,57,59,-1,77,59,78,-1,78,59,61,-1,78,61,79,-1,79,61,63,-1,79,63,80,-1,80,63,65,-1,80,65,81,-1,81,65,67,-1,81,67,82,-1,82,67,40,-1,82,40,83,-1,83,40,43,-1,83,43,84,-1,84,43,45,-1,84,45,68,-1,72,73,85,-1,85,73,86,-1,72,85,87,-1,72,87,71,-1,71,87,88,-1,71,88,70,-1,70,88,89,-1,70,89,69,-1,69,89,90,-1,69,90,68,-1,68,90,91,-1,68,91,84,-1,84,91,92,-1,84,92,83,-1,83,92,93,-1,83,93,82,-1,82,93,94,-1,82,94,81,-1,81,94,95,-1,81,95,80,-1,80,95,96,-1,80,96,79,-1,79,96,97,-1,79,97,78,-1,78,97,98,-1,78,98,77,-1,77,98,99,-1,77,99,76,-1,76,99,100,-1,76,100,75,-1,74,75,101,-1,101,75,100,-1,73,74,86,-1,86,74,101,-1,102,103,104,-1,104,103,105,-1,103,106,105,-1,105,106,107,-1,106,108,107,-1,107,108,109,-1,108,110,109,-1,109,110,111,-1,110,112,111,-1,111,112,113,-1,112,114,113,-1,113,114,115,-1,114,116,115,-1,115,116,117,-1,116,118,117,-1,117,118,119,-1,118,120,119,-1,119,120,121,-1,120,122,121,-1,121,122,123,-1,122,124,123,-1,123,124,125,-1,124,102,125,-1,125,102,104,-1,106,103,102,-1,102,124,106,-1,106,124,122,-1,106,122,108,-1,112,110,114,-1,114,110,108,-1,114,108,116,-1,116,108,122,-1,116,122,118,-1,118,122,120,-1,126,127,128,-1,128,127,129,-1,129,127,130,-1,131,132,133,-1,131,133,134,-1,134,133,135,-1,134,135,130,-1,130,135,136,-1,130,136,129,-1,132,131,137,-1,137,131,138,-1,137,138,139,-1,139,138,140,-1,139,140,141,-1,141,140,142,-1,141,142,143,-1,143,142,144,-1,143,144,145,-1,145,144,146,-1,145,146,147,-1,147,146,148,-1,147,148,149,-1,149,148,150,-1,149,150,151,-1,152,153,154,-1,152,154,155,-1,155,154,156,-1,155,156,157,-1,157,156,158,-1,157,158,159,-1,159,158,160,-1,159,160,161,-1,161,160,162,-1,161,162,163,-1,163,162,164,-1,163,164,165,-1,165,164,151,-1,165,151,150,-1,166,167,168,-1,166,168,169,-1,169,168,153,-1,169,153,152,-1,166,170,167,-1,167,170,171,-1,172,173,174,-1,172,174,175,-1,175,174,171,-1,175,171,170,-1,176,177,178,-1,176,178,179,-1,179,178,180,-1,179,180,181,-1,181,180,182,-1,181,182,183,-1,183,182,184,-1,183,184,185,-1,185,184,186,-1,185,186,187,-1,187,186,188,-1,187,188,189,-1,189,188,173,-1,189,173,172,-1,190,191,192,-1,190,192,193,-1,193,192,194,-1,193,194,195,-1,195,194,196,-1,195,196,197,-1,197,196,198,-1,197,198,199,-1,199,198,200,-1,199,200,201,-1,201,200,202,-1,201,202,203,-1,203,202,177,-1,203,177,176,-1,126,128,204,-1,126,204,205,-1,205,204,206,-1,205,206,207,-1,207,206,191,-1,207,191,190,-1,193,131,190,-1,190,131,134,-1,190,134,207,-1,207,134,130,-1,207,130,205,-1,205,130,127,-1,205,127,126,-1,170,166,175,-1,175,166,169,-1,175,169,172,-1,172,169,152,-1,172,152,189,-1,189,152,155,-1,189,155,187,-1,187,155,157,-1,187,157,185,-1,185,157,159,-1,185,159,183,-1,183,159,161,-1,183,161,181,-1,181,161,163,-1,181,163,179,-1,179,163,165,-1,179,165,176,-1,176,165,150,-1,176,150,203,-1,203,150,148,-1,203,148,201,-1,201,148,146,-1,201,146,199,-1,199,146,144,-1,199,144,197,-1,197,144,142,-1,197,142,195,-1,195,142,140,-1,195,140,193,-1,193,140,138,-1,193,138,131,-1,208,209,210,-1,210,209,211,-1,209,212,211,-1,211,212,213,-1,212,214,213,-1,213,214,215,-1,214,216,215,-1,215,216,217,-1,216,218,217,-1,217,218,219,-1,218,208,219,-1,219,208,210,-1,216,214,218,-1,218,214,212,-1,218,212,208,-1,208,212,209,-1,
        ]
    }
}
Shape{
    appearance Appearance {
        material  Material {
            diffuseColor 1.0 0.9411764705882353 0.8117647058823529
            specularColor 0.30196078431372547 0.2823529411764706 0.24313725490196078
            ambientIntensity 0.944
            transparency 0.0
            shininess 0.5
        }
    }
    geometry IndexedFaceSet {
        ccw TRUE
        solid FALSE
        coord DEF co Coordinate {
            point [
                -0.3063 -0.195 0.0472, -0.3721 -0.195 0.0472, -0.3357 -0.1127 0.0472, -0.3425 -0.1127 0.0472, -0.3376 -0.1059 0.0472, -0.3408 -0.1059 0.0472, -0.3388 -0.0989 0.0472, -0.3395 -0.0989 0.0472, -0.1056 -0.0965 0.0472, -0.1056 -0.2502 0.0472, -0.1347 -0.0965 0.0472, -0.1336 -0.2502 0.0472, -0.1543 -0.2482 0.0472, -0.2113 -0.1714 0.0472, -0.2096 -0.1518 0.0472, -0.205 -0.1363 0.0472, -0.158 -0.099 0.0472, -0.1709 -0.2431 0.0472, -0.1843 -0.2351 0.0472, -0.1954 -0.2242 0.0472, -0.2037 -0.2106 0.0472, -0.2095 -0.1921 0.0472, -0.1982 -0.1241 0.0472, -0.1886 -0.114 0.0472, -0.1742 -0.1047 0.0472, 1.3976 1.6929 0.2047, 1.3189 1.6142 0.2835, 1.3976 1.6929 1.1102, 1.3189 1.6142 1.1102, -1.3976 1.6929 0.2047, -1.3189 1.6142 0.2835, -1.3976 1.6929 1.1102, -1.3189 1.6142 1.1102, 1.3189 1.6142 1.8189, 1.3976 1.6929 1.8976, 1.3189 1.6142 1.4252, 1.3976 1.6929 1.4252, 0.7283 1.6142 1.8189, 0.8071 1.6929 1.8976, 0.7283 1.6142 1.9567, 0.8071 1.6929 2.0354, -0.7284 1.6142 1.9567, -0.8071 1.6929 2.0354, -0.7284 1.6142 1.8189, -0.8071 1.6929 1.8976, -1.3189 1.6142 1.8189, -1.3976 1.6929 1.8976, -1.3976 1.6929 1.4252, -1.3189 1.6142 1.4252
            ]
        }
        coordIndex [
            0,1,2,-1,2,1,3,-1,2,3,4,-1,4,3,5,-1,4,5,6,-1,6,5,7,-1,8,9,10,-1,10,9,11,-1,10,11,12,-1,13,14,10,-1,10,14,15,-1,10,15,16,-1,12,17,10,-1,10,17,18,-1,10,18,19,-1,19,20,10,-1,10,20,21,-1,10,21,13,-1,22,23,15,-1,15,23,24,-1,15,24,16,-1,25,26,27,-1,27,26,28,-1,29,30,25,-1,25,30,26,-1,31,32,29,-1,29,32,30,-1,33,34,35,-1,35,34,36,-1,37,38,33,-1,33,38,34,-1,39,40,37,-1,37,40,38,-1,41,42,39,-1,39,42,40,-1,43,44,41,-1,41,44,42,-1,45,46,43,-1,43,46,44,-1,46,45,47,-1,47,45,48,-1,
        ]
    }
}