#VRML V2.0 utf8
# 3D model generated by kicad-lcsc-manager
# Based on easyeda2kicad.py v1.0.1

Shape{
    appearance Appearance {
        material  Material {
            diffuseColor 0.7529411764705882 0.7529411764705882 0.7529411764705882
            specularColor 0.3764705882352941 0.3764705882352941 0.3764705882352941
            ambientIntensity 0.7529
            transparency 0.0
            shininess 0.5
        }
    }
    geometry IndexedFaceSet {
        ccw TRUE
        solid FALSE
        coord DEF co Coordinate {
            point [
                -0.315 0.8052 0.0, -0.6299 0.8052 0.0, -0.315 0.8052 0.0394, -0.6299 0.8052 0.0394, -0.315 -0.809 0.0, -0.315 -0.809 0.0394, -0.6299 -0.809 0.0, -0.6299 -0.809 0.0394, -0.6299 -0.4744 0.0, -0.6299 -0.4744 0.0394, -0.8071 -0.4744 0.0, -0.8071 -0.4744 0.0394, -0.8071 0.4705 0.0, -0.8071 0.4705 0.0394, -0.6299 0.4705 0.0, -0.6299 0.4705 0.0394, 0.6299 0.8052 0.0, 0.315 0.8052 0.0, 0.6299 0.8052 0.0394, 0.315 0.8052 0.0394, 0.315 -0.809 0.0, 0.315 -0.809 0.0394, 0.6299 -0.809 0.0, 0.6299 -0.809 0.0394, 0.6299 -0.4744 0.0, 0.6299 -0.4744 0.0394, 0.8071 -0.4744 0.0, 0.8071 -0.4744 0.0394, 0.8071 0.4705 0.0, 0.8071 0.4705 0.0394, 0.6299 0.4705 0.0, 0.6299 0.4705 0.0394
            ]
        }
        coordIndex [
            0,1,2,-1,2,1,3,-1,4,0,5,-1,5,0,2,-1,6,4,7,-1,7,4,5,-1,8,6,9,-1,9,6,7,-1,10,8,11,-1,11,8,9,-1,12,10,13,-1,13,10,11,-1,14,12,15,-1,15,12,13,-1,1,14,3,-1,3,14,15,-1,0,4,8,-1,8,4,6,-1,1,0,14,-1,14,0,8,-1,14,8,12,-1,12,8,10,-1,5,2,15,-1,15,2,3,-1,7,5,9,-1,9,5,15,-1,9,15,11,-1,11,15,13,-1,16,17,18,-1,18,17,19,-1,17,20,19,-1,19,20,21,-1,20,22,21,-1,21,22,23,-1,22,24,23,-1,23,24,25,-1,24,26,25,-1,25,26,27,-1,26,28,27,-1,27,28,29,-1,28,30,29,-1,29,30,31,-1,30,16,31,-1,31,16,18,-1,20,17,30,-1,30,17,16,-1,22,20,24,-1,24,20,30,-1,24,30,26,-1,26,30,28,-1,19,21,25,-1,25,21,23,-1,18,19,31,-1,31,19,25,-1,31,25,29,-1,29,25,27,-1,
        ]
    }
}
Shape{
    appearance Appearance {
        material  Material {
            diffuseColor 0.5019607843137255 0.5019607843137255 0.5019607843137255
            specularColor 0.25098039215686274 0.25098039215686274 0.25098039215686274
            ambientIntensity 0.502
            transparency 0.0
            shininess 0.5
        }
    }
    geometry IndexedFaceSet {
        ccw TRUE
        solid FALSE
        coord DEF co Coordinate {
            point [
                0.4488 0.8052 0.1601, 0.4488 0.8052 0.2135, 0.4707 0.8052 0.2287, -0.3098 0.8052 0.2287, -0.3098 0.8052 0.2986, 0.2173 0.8052 0.2986, -0.7874 0.8052 0.7566, -0.7874 0.8052 1.2008, -0.3098 0.8052 1.2008, 0.3989 0.8052 0.2981, 0.3949 0.8052 0.2986, 0.4161 0.8052 0.2986, 0.3576 0.8052 0.1599, 0.3599 0.8052 0.1597, 0.3465 0.8052 0.1597, 0.3693 0.8052 0.1598, 0.3709 0.8052 0.1604, 0.3709 0.8052 0.1597, 0.5675 0.8052 0.3041, 0.5593 0.8052 0.2986, 0.4707 0.8052 0.2986, 0.5506 0.8052 0.2928, 0.5382 0.8052 0.2785, 0.5301 0.8052 0.2628, 0.5282 0.8052 0.2621, 0.5169 0.8052 0.2565, 0.5866 0.8052 0.3108, 0.4707 0.8052 0.7566, 0.6386 0.8052 0.3034, 0.6211 0.8052 0.3102, 0.7874 0.8052 0.7566, 0.6022 0.8052 0.3125, 0.7317 0.8052 0.2394, 0.7874 0.8052 0.2986, 0.7337 0.8052 0.2287, 0.7874 0.8052 0.2287, 0.7345 0.8052 0.2244, 0.6463 0.8052 0.2986, 0.6478 0.8052 0.2977, 0.7253 0.8052 0.2529, 0.7168 0.8052 0.2635, 0.7137 0.8052 0.2665, 0.701 0.8052 0.2751, 0.6869 0.8052 0.2802, 0.6732 0.8052 0.2817, 0.6567 0.8052 0.29, 0.6688 0.8052 0.2815, 0.6645 0.8052 0.281, 0.6884 0.8052 0.1607, 0.6946 0.8052 0.1626, 0.7874 0.8052 0.1597, 0.7082 0.8052 0.1696, 0.7187 0.8052 0.1789, 0.72 0.8052 0.1803, 0.728 0.8052 0.1925, 0.7331 0.8052 0.2067, 0.7347 0.8052 0.2203, 0.6715 0.8052 0.14, 0.6789 0.8052 0.1456, 0.7874 0.8052 0.1385, 0.6846 0.8052 0.1525, 0.6879 0.8052 0.1597, 0.6523 0.8052 0.1349, 0.7874 0.8052 0.0394, 0.6432 0.8052 0.136, 0.4707 0.8052 0.0394, 0.6366 0.8052 0.1385, 0.6538 0.8052 0.1349, 0.6628 0.8052 0.1363, 0.668 0.8052 0.1385, 0.6168 0.8052 0.1597, 0.6168 0.8052 0.1596, 0.4707 0.8052 0.1385, 0.6213 0.8052 0.1511, 0.6271 0.8052 0.1445, 0.6347 0.8052 0.1392, 0.5066 0.8052 0.2478, 0.4989 0.8052 0.2369, 0.4956 0.8052 0.2287, 0.4943 0.8052 0.2254, 0.5682 0.8052 0.1821, 0.5656 0.8052 0.1831, 0.5612 0.8052 0.2047, 0.4925 0.8052 0.2131, 0.4944 0.8052 0.1993, 0.4707 0.8052 0.1597, 0.6239 0.8052 0.1983, 0.573 0.8052 0.2248, 0.6305 0.8052 0.2043, 0.6385 0.8052 0.2086, 0.5706 0.8052 0.1805, 0.5163 0.8052 0.216, 0.518 0.8052 0.2232, 0.521 0.8052 0.2287, 0.7098 0.8052 0.2287, 0.4992 0.8052 0.1873, 0.5066 0.8052 0.177, 0.5171 0.8052 0.1681, 0.5628 0.8052 0.1835, 0.5624 0.8052 0.1834, 0.5613 0.8052 0.1832, 0.7076 0.8052 0.2059, 0.7031 0.8052 0.1982, 0.6838 0.8052 0.1943, 0.6963 0.8052 0.1912, 0.688 0.8052 0.1861, 0.6698 0.8052 0.2068, 0.6775 0.8052 0.2015, 0.7108 0.8052 0.221, 0.7103 0.8052 0.2152, 0.6614 0.8052 0.21, 0.6523 0.8052 0.2112, 0.6477 0.8052 0.2109, 0.5238 0.8052 0.1926, 0.5196 0.8052 0.1985, 0.517 0.8052 0.2053, 0.5161 0.8052 0.2127, 0.5287 0.8052 0.1625, 0.5411 0.8052 0.1599, 0.5635 0.8052 0.1599, 0.5656 0.8052 0.1602, 0.5681 0.8052 0.1612, 0.5706 0.8052 0.1629, 0.5715 0.8052 0.1639, 0.5745 0.8052 0.1717, 0.5745 0.8052 0.1729, 0.6144 0.8052 0.1766, 0.5738 0.8052 0.1758, 0.5724 0.8052 0.1784, 0.5605 0.8052 0.1831, 0.5434 0.8052 0.1831, 0.5366 0.8052 0.1844, 0.5732 0.8052 0.1663, 0.5742 0.8052 0.1689, 0.6146 0.8052 0.1689, 0.6144 0.8052 0.1728, 0.5299 0.8052 0.1875, 0.5243 0.8052 0.192, 0.5647 0.8052 0.2746, 0.5667 0.8052 0.2764, 0.6527 0.8052 0.2533, 0.5564 0.8052 0.2642, 0.6555 0.8052 0.2548, 0.664 0.8052 0.2579, 0.5216 0.8052 0.2298, 0.526 0.8052 0.2347, 0.5457 0.8052 0.2423, 0.5318 0.8052 0.2388, 0.5385 0.8052 0.2414, 0.5487 0.8052 0.2423, 0.5507 0.8052 0.2519, 0.5774 0.8052 0.2837, 0.5893 0.8052 0.2882, 0.6471 0.8052 0.2649, 0.6018 0.8052 0.2897, 0.6861 0.8052 0.2566, 0.6946 0.8052 0.2521, 0.6767 0.8052 0.2588, 0.7011 0.8052 0.2462, 0.7064 0.8052 0.2387, 0.6157 0.8052 0.2879, 0.6282 0.8052 0.2829, 0.6387 0.8052 0.2752, 0.6728 0.8052 0.259, 0.7096 0.8052 0.2302, 0.2723 0.8052 0.1662, 0.2723 0.8052 0.1601, 0.2672 0.8052 0.1597, 0.2841 0.8052 0.1597, 0.2735 0.8052 0.2073, 0.2672 0.8052 0.2287, 0.2841 0.8052 0.1662, 0.275 0.8052 0.1841, 0.275 0.8052 0.1903, 0.2841 0.8052 0.1903, 0.2841 0.8052 0.1841, 0.2941 0.8052 0.1841, 0.2941 0.8052 0.1662, 0.2841 0.8052 0.2073, 0.2941 0.8052 0.2073, 0.2941 0.8052 0.1903, 0.2841 0.8052 0.1601, 0.301 0.8052 0.1601, 0.3234 0.8052 0.1597, 0.3082 0.8052 0.1982, 0.3274 0.8052 0.1696, 0.3265 0.8052 0.1664, 0.3264 0.8052 0.1664, 0.3341 0.8052 0.2287, 0.301 0.8052 0.2135, 0.2841 0.8052 0.2287, 0.2841 0.8052 0.2135, 0.2735 0.8052 0.2135, 0.3261 0.8052 0.1677, 0.3255 0.8052 0.1695, 0.3341 0.8052 0.1889, 0.3151 0.8052 0.1982, 0.3808 0.8052 0.1597, 0.374 0.8052 0.1614, 0.374 0.8052 0.1683, 0.374 0.8052 0.1879, 0.3737 0.8052 0.1903, 0.3808 0.8052 0.2287, 0.373 0.8052 0.1833, 0.3737 0.8052 0.1853, 0.3716 0.8052 0.1668, 0.3709 0.8052 0.1666, 0.3709 0.8052 0.1807, 0.3721 0.8052 0.1819, 0.371 0.8052 0.1808, 0.3709 0.8052 0.1385, 0.3637 0.8052 0.1592, 0.368 0.8052 0.1597, 0.3501 0.8052 0.1974, 0.3501 0.8052 0.1909, 0.3697 0.8052 0.1961, 0.3681 0.8052 0.1971, 0.3709 0.8052 0.2287, 0.3729 0.8052 0.1925, 0.3717 0.8052 0.1943, 0.3709 0.8052 0.195, 0.3486 0.8052 0.1678, 0.3494 0.8052 0.1657, 0.3507 0.8052 0.1639, 0.3645 0.8052 0.1985, 0.3591 0.8052 0.1991, 0.3465 0.8052 0.2287, 0.3544 0.8052 0.1987, 0.3505 0.8052 0.1768, 0.3493 0.8052 0.1749, 0.3486 0.8052 0.173, 0.3483 0.8052 0.1705, 0.3526 0.8052 0.1622, 0.3541 0.8052 0.1613, 0.3598 0.8052 0.1937, 0.3618 0.8052 0.1935, 0.3671 0.8052 0.1885, 0.3636 0.8052 0.193, 0.3651 0.8052 0.1923, 0.367 0.8052 0.1877, 0.3668 0.8052 0.1866, 0.3663 0.8052 0.1857, 0.3656 0.8052 0.185, 0.3633 0.8052 0.1835, 0.3551 0.8052 0.1931, 0.3591 0.8052 0.1817, 0.3513 0.8052 0.1916, 0.3566 0.8052 0.1807, 0.3521 0.8052 0.1782, 0.3661 0.8052 0.1914, 0.3666 0.8052 0.1905, 0.367 0.8052 0.1896, 0.3674 0.8052 0.1652, 0.3639 0.8052 0.1769, 0.3678 0.8052 0.1787, 0.363 0.8052 0.1647, 0.3627 0.8052 0.1647, 0.3595 0.8052 0.175, 0.3593 0.8052 0.165, 0.3551 0.8052 0.1698, 0.3552 0.8052 0.1707, 0.3576 0.8052 0.1657, 0.357 0.8052 0.166, 0.3562 0.8052 0.1667, 0.3556 0.8052 0.1676, 0.3553 0.8052 0.1685, 0.3555 0.8052 0.1717, 0.356 0.8052 0.1726, 0.3569 0.8052 0.1734, 0.2477 0.8052 0.2594, 0.2672 0.8052 0.2594, 0.2422 0.8052 0.2448, 0.2346 0.8052 0.2448, 0.2173 0.8052 0.2287, 0.2549 0.8052 0.2982, 0.2826 0.8052 0.2448, 0.275 0.8052 0.2448, 0.2699 0.8052 0.2594, 0.3465 0.8052 0.2986, 0.3404 0.8052 0.2982, 0.3341 0.8052 0.2986, 0.3404 0.8052 0.292, 0.3419 0.8052 0.2749, 0.3419 0.8052 0.2688, 0.361 0.8052 0.2688, 0.361 0.8052 0.2509, 0.3465 0.8052 0.2509, 0.3465 0.8052 0.292, 0.3465 0.8052 0.2749, 0.361 0.8052 0.292, 0.361 0.8052 0.2749, 0.3678 0.8052 0.2448, 0.3465 0.8052 0.2448, 0.3391 0.8052 0.2448, 0.3391 0.8052 0.2509, 0.3465 0.8052 0.2688, 0.3709 0.8052 0.2986, 0.3678 0.8052 0.2982, 0.3465 0.8052 0.2982, 0.3808 0.8052 0.2461, 0.3794 0.8052 0.2465, 0.3785 0.8052 0.247, 0.3785 0.8052 0.2536, 0.3898 0.8052 0.2501, 0.3838 0.8052 0.2512, 0.3808 0.8052 0.2906, 0.3808 0.8052 0.2526, 0.3791 0.8052 0.29, 0.3785 0.8052 0.2897, 0.3845 0.8052 0.2921, 0.3911 0.8052 0.2928, 0.4113 0.8052 0.2709, 0.405 0.8052 0.2546, 0.4015 0.8052 0.2521, 0.4057 0.8052 0.2869, 0.4086 0.8052 0.2829, 0.402 0.8052 0.2899, 0.3978 0.8052 0.2919, 0.3932 0.8052 0.2928, 0.4104 0.8052 0.2783, 0.4112 0.8052 0.2689, 0.4104 0.8052 0.2636, 0.3977 0.8052 0.2507, 0.3923 0.8052 0.25, 0.4086 0.8052 0.2593, 0.406 0.8052 0.2556, 0.3855 0.8052 0.2986, 0.3841 0.8052 0.2985, 0.3808 0.8052 0.2986, 0.3808 0.8052 0.2975, 0.3785 0.8052 0.2969, 0.4161 0.8052 0.7566, 0.3912 0.8052 0.2991, 0.3808 0.8052 0.7566, 0.3911 0.8052 0.2991, 0.4147 0.8052 0.2861, 0.4108 0.8052 0.2912, 0.4095 0.8052 0.2924, 0.4045 0.8052 0.2959, 0.4193 0.8052 0.2986, 0.4172 0.8052 0.2802, 0.4161 0.8052 0.2828, 0.4193 0.8052 0.2287, 0.4185 0.8052 0.2705, 0.4184 0.8052 0.2733, 0.4023 0.8052 0.2452, 0.4074 0.8052 0.2476, 0.4161 0.8052 0.2287, 0.4116 0.8052 0.2512, 0.4152 0.8052 0.2562, 0.4161 0.8052 0.2584, 0.4174 0.8052 0.2617, 0.3852 0.8052 0.2447, 0.3933 0.8052 0.2439, 0.3965 0.8052 0.244, 0.4126 0.8052 0.1758, 0.4112 0.8052 0.178, 0.41 0.8052 0.1891, 0.3831 0.8052 0.1601, 0.3898 0.8052 0.1601, 0.3931 0.8052 0.1622, 0.3955 0.8052 0.1606, 0.398 0.8052 0.1597, 0.3952 0.8052 0.1934, 0.3975 0.8052 0.1937, 0.4011 0.8052 0.1828, 0.3837 0.8052 0.1903, 0.3831 0.8052 0.1846, 0.4093 0.8052 0.1798, 0.4066 0.8052 0.1813, 0.4054 0.8052 0.192, 0.4012 0.8052 0.1933, 0.4056 0.8052 0.1597, 0.4082 0.8052 0.1606, 0.4161 0.8052 0.1597, 0.4104 0.8052 0.1622, 0.4133 0.8052 0.1671, 0.4137 0.8052 0.1703, 0.4111 0.8052 0.1628, 0.4125 0.8052 0.1649, 0.4134 0.8052 0.1734, 0.3898 0.8052 0.166, 0.39 0.8052 0.166, 0.391 0.8052 0.1644, 0.41 0.8052 0.1956, 0.3898 0.8052 0.1843, 0.39 0.8052 0.1873, 0.3907 0.8052 0.1897, 0.3915 0.8052 0.191, 0.4086 0.8052 0.1963, 0.4037 0.8052 0.1983, 0.3969 0.8052 0.1991, 0.3922 0.8052 0.1986, 0.3895 0.8052 0.1977, 0.3874 0.8052 0.1963, 0.3863 0.8052 0.1952, 0.3849 0.8052 0.1931, 0.3925 0.8052 0.1921, 0.3937 0.8052 0.1929, 0.3982 0.8052 0.1596, 0.3808 0.8052 0.1385, 0.4161 0.8052 0.1385, 0.4016 0.8052 0.1592, 0.4055 0.8052 0.1597, 0.3341 0.8052 0.1597, 0.3341 0.8052 0.171, 0.3448 0.8052 0.1982, 0.3373 0.8052 0.1982, 0.3298 0.8052 0.1602, 0.3301 0.8052 0.1597, 0.3328 0.8052 0.1533, 0.3465 0.8052 0.1385, 0.3434 0.8052 0.1427, 0.3434 0.8052 0.1486, 0.3421 0.8052 0.1482, 0.3396 0.8052 0.1479, 0.3394 0.8052 0.1479, 0.3378 0.8052 0.1481, 0.3364 0.8052 0.1487, 0.3354 0.8052 0.1494, 0.3341 0.8052 0.1508, 0.3341 0.8052 0.1509, 0.3341 0.8052 0.1434, 0.3362 0.8052 0.1425, 0.3341 0.8052 0.1385, 0.3391 0.8052 0.1421, 0.3406 0.8052 0.1422, 0.2841 0.8052 0.1385, 0.3313 0.8052 0.1452, 0.3335 0.8052 0.1436, 0.3255 0.8052 0.1543, 0.3286 0.8052 0.1484, -0.7874 0.8052 0.2986, -0.7874 0.8052 0.2287, -0.7874 0.8052 0.1597, -0.3098 0.8052 0.1597, 0.2082 0.8052 0.1601, 0.2158 0.8052 0.1601, 0.2173 0.8052 0.1597, 0.1754 0.8052 0.1601, 0.1808 0.8052 0.1747, 0.203 0.8052 0.1747, 0.1955 0.8052 0.2135, 0.1881 0.8052 0.2135, 0.1678 0.8052 0.1601, 0.2672 0.8052 0.2986, 0.2623 0.8052 0.2982, 0.2672 0.8052 0.2852, 0.2202 0.8052 0.1778, 0.2228 0.8052 0.1723, 0.2268 0.8052 0.1676, 0.2323 0.8052 0.1636, 0.2384 0.8052 0.1612, 0.2475 0.8052 0.1601, 0.2622 0.8052 0.1601, 0.2622 0.8052 0.2135, 0.247 0.8052 0.2135, 0.2388 0.8052 0.2126, 0.2324 0.8052 0.2102, 0.2268 0.8052 0.2064, 0.2249 0.8052 0.2046, 0.2216 0.8052 0.2, 0.2196 0.8052 0.1949, 0.2187 0.8052 0.1875, 0.2189 0.8052 0.1841, 0.2672 0.8052 0.1385, 0.2173 0.8052 0.1385, -0.3098 0.8052 0.1385, -0.7874 0.8052 0.1385, 0.3291 0.8052 0.2448, 0.2858 0.8052 0.2688, 0.287 0.8052 0.2625, 0.2897 0.8052 0.257, 0.2936 0.8052 0.2523, 0.2885 0.8052 0.2846, 0.2865 0.8052 0.2796, 0.2841 0.8052 0.2986, 0.2856 0.8052 0.2722, 0.2992 0.8052 0.2483, 0.3053 0.8052 0.2459, 0.3144 0.8052 0.2448, 0.3291 0.8052 0.2982, 0.3138 0.8052 0.2982, 0.3057 0.8052 0.2973, 0.2992 0.8052 0.2949, 0.2936 0.8052 0.2911, 0.2918 0.8052 0.2893, 0.3709 0.8052 0.7566, 0.3465 0.8052 0.7566, 0.3341 0.8052 0.7566, 0.2841 0.8052 0.7566, 0.2672 0.8052 0.7566, 0.2173 0.8052 0.7566, -0.3098 0.8052 0.7566, 0.4193 0.8052 0.0394, 0.4193 0.8052 0.1385, 0.4161 0.8052 0.0394, 0.3808 0.8052 0.0394, 0.3709 0.8052 0.0394, 0.3465 0.8052 0.0394, 0.3341 0.8052 0.0394, 0.2841 0.8052 0.0394, 0.2672 0.8052 0.0394, 0.2173 0.8052 0.0394, -0.3098 0.8052 0.0394, -0.7874 0.8052 0.0394, 0.4193 0.8052 0.1597, 0.4213 0.8052 0.2135, 0.4213 0.8052 0.2073, 0.4419 0.8052 0.2073, 0.4419 0.8052 0.1903, 0.4228 0.8052 0.1903, 0.4201 0.8052 0.1601, 0.4201 0.8052 0.1662, 0.4419 0.8052 0.1841, 0.4419 0.8052 0.1662, 0.4228 0.8052 0.1841, 0.4419 0.8052 0.2982, 0.4419 0.8052 0.2509, 0.4207 0.8052 0.2509, 0.4207 0.8052 0.2448, 0.4488 0.8052 0.2448, 0.4488 0.8052 0.2982, 0.4193 0.8052 0.7566, 0.2173 0.8052 1.2008, 0.2672 0.8052 1.2008, 0.2841 0.8052 1.2008, 0.3341 0.8052 1.2008, 0.3465 0.8052 1.2008, 0.3709 0.8052 1.2008, 0.3808 0.8052 1.2008, 0.4161 0.8052 1.2008, 0.4193 0.8052 1.2008, 0.4707 0.8052 1.2008, 0.7874 0.8052 1.2008, 0.8071 -0.7893 0.0394, 0.8071 0.7855 0.0394, 0.8071 -0.7893 1.2008, 0.8071 0.7855 1.2008, -0.8071 -0.7893 1.2008, -0.8071 0.7855 1.2008, -0.8071 -0.7893 0.0394, -0.8071 0.7855 0.0394, -0.7874 -0.809 0.0394, 0.7874 -0.809 0.0394, -0.7874 -0.809 1.2008, 0.7874 -0.809 1.2008, 0.7874 -0.7893 1.2205, 0.7874 0.7855 1.2205, -0.7874 -0.7893 1.2205, -0.7874 0.7855 1.2205, -0.8064 -0.7944 0.0394, -0.7973 -0.8064 0.0394, -0.8013 -0.8032 0.0394, -0.8045 -0.7992 0.0394, 0.7925 -0.8083 0.0394, -0.8064 0.7906 0.0394, -0.7925 0.8045 0.0394, -0.8045 0.7953 0.0394, -0.7973 0.8025 0.0394, -0.8013 0.7994 0.0394, 0.8044 -0.7992 0.0394, 0.8013 -0.8032 0.0394, 0.7972 -0.8064 0.0394, 0.7925 0.8045 0.0394, 0.8064 0.7906 0.0394, 0.7972 0.8025 0.0394, 0.8044 0.7953 0.0394, 0.8013 0.7994 0.0394, -0.7925 -0.8083 0.0394, 0.8064 -0.7944 0.0394, -0.7925 0.8045 1.2008, -0.7973 0.8025 1.2008, -0.8013 0.7994 1.2008, -0.8045 0.7953 1.2008, -0.8064 0.7906 1.2008, 0.7874 0.7906 1.2198, -0.7874 0.7906 1.2198, 0.7874 0.7953 1.2178, -0.7874 0.7953 1.2178, 0.7874 0.7994 1.2147, -0.7874 0.7994 1.2147, 0.7874 0.8025 1.2106, -0.7874 0.8025 1.2106, 0.7874 0.8045 1.2059, -0.7874 0.8045 1.2059, 0.8064 0.7906 1.2008, 0.8044 0.7953 1.2008, 0.8013 0.7994 1.2008, 0.7972 0.8025 1.2008, 0.7925 0.8045 1.2008, -0.8064 0.7855 1.2059, -0.8058 0.7904 1.2059, -0.7959 0.7904 1.2178, -0.7918 0.788 1.2198, -0.791 0.7891 1.2198, -0.7887 0.7904 1.2198, -0.7923 0.7868 1.2198, -0.7969 0.788 1.2178, -0.8009 0.7891 1.2147, -0.7925 0.7855 1.2198, -0.7944 0.7924 1.2178, -0.79 0.7899 1.2198, -0.7923 0.794 1.2178, -0.79 0.795 1.2178, -0.7973 0.7855 1.2178, -0.8013 0.7855 1.2147, -0.8045 0.7855 1.2106, -0.7995 0.7924 1.2147, -0.7973 0.7953 1.2147, -0.7944 0.7975 1.2147, -0.791 0.7989 1.2147, -0.8039 0.7899 1.2106, -0.8022 0.794 1.2106, -0.7995 0.7975 1.2106, -0.7959 0.8002 1.2106, -0.7918 0.8019 1.2106, -0.8039 0.795 1.2059, -0.8009 0.7989 1.2059, -0.7969 0.8019 1.2059, -0.7923 0.8038 1.2059, 0.7923 0.8038 1.2059, 0.7923 0.794 1.2178, 0.7899 0.7899 1.2198, 0.791 0.7891 1.2198, 0.7925 0.7855 1.2198, 0.7923 0.7868 1.2198, 0.7887 0.7904 1.2198, 0.7899 0.795 1.2178, 0.791 0.7989 1.2147, 0.7944 0.7924 1.2178, 0.7918 0.788 1.2198, 0.7959 0.7904 1.2178, 0.7969 0.788 1.2178, 0.7972 0.7855 1.2178, 0.7944 0.7975 1.2147, 0.7972 0.7953 1.2147, 0.7994 0.7924 1.2147, 0.8008 0.7891 1.2147, 0.8013 0.7855 1.2147, 0.7918 0.8019 1.2106, 0.7959 0.8002 1.2106, 0.7994 0.7975 1.2106, 0.8022 0.794 1.2106, 0.8039 0.7899 1.2106, 0.8044 0.7855 1.2106, 0.7969 0.8019 1.2059, 0.8008 0.7989 1.2059, 0.8039 0.795 1.2059, 0.8058 0.7904 1.2059, 0.8064 0.7855 1.2059, -0.8064 -0.7944 1.2008, -0.8045 -0.7992 1.2008, -0.8013 -0.8032 1.2008, -0.7973 -0.8064 1.2008, -0.7925 -0.8083 1.2008, -0.7925 -0.7893 1.2198, -0.7973 -0.7893 1.2178, -0.8013 -0.7893 1.2147, -0.8045 -0.7893 1.2106, -0.8064 -0.7893 1.2059, 0.7925 -0.7893 1.2198, 0.7972 -0.7893 1.2178, 0.8013 -0.7893 1.2147, 0.8044 -0.7893 1.2106, 0.8064 -0.7893 1.2059, 0.7925 -0.8083 1.2008, 0.7972 -0.8064 1.2008, 0.8013 -0.8032 1.2008, 0.8044 -0.7992 1.2008, 0.8064 -0.7944 1.2008, -0.7874 -0.8083 1.2059, -0.7923 -0.8077 1.2059, -0.7923 -0.7979 1.2178, -0.79 -0.7937 1.2198, -0.791 -0.7929 1.2198, -0.7923 -0.7906 1.2198, -0.7887 -0.7943 1.2198, -0.79 -0.7988 1.2178, -0.791 -0.8028 1.2147, -0.7874 -0.7944 1.2198, -0.7944 -0.7963 1.2178, -0.7918 -0.7919 1.2198, -0.7959 -0.7943 1.2178, -0.7969 -0.7919 1.2178, -0.7874 -0.7992 1.2178, -0.7874 -0.8032 1.2147, -0.7874 -0.8064 1.2106, -0.7944 -0.8014 1.2147, -0.7973 -0.7992 1.2147, -0.7995 -0.7963 1.2147, -0.8009 -0.7929 1.2147, -0.7918 -0.8058 1.2106, -0.7959 -0.8041 1.2106, -0.7995 -0.8014 1.2106, -0.8022 -0.7979 1.2106, -0.8039 -0.7937 1.2106, -0.7969 -0.8058 1.2059, -0.8009 -0.8028 1.2059, -0.8039 -0.7988 1.2059, -0.8058 -0.7943 1.2059, 0.8058 -0.7943 1.2059, 0.7959 -0.7943 1.2178, 0.7918 -0.7919 1.2198, 0.791 -0.7929 1.2198, 0.7874 -0.7944 1.2198, 0.7887 -0.7943 1.2198, 0.7923 -0.7906 1.2198, 0.7969 -0.7919 1.2178, 0.8008 -0.7929 1.2147, 0.7944 -0.7963 1.2178, 0.7899 -0.7937 1.2198, 0.7923 -0.7979 1.2178, 0.7899 -0.7988 1.2178, 0.7874 -0.7992 1.2178, 0.7994 -0.7963 1.2147, 0.7972 -0.7992 1.2147, 0.7944 -0.8014 1.2147, 0.791 -0.8028 1.2147, 0.7874 -0.8032 1.2147, 0.8039 -0.7937 1.2106, 0.8022 -0.7979 1.2106, 0.7994 -0.8014 1.2106, 0.7959 -0.8041 1.2106, 0.7918 -0.8058 1.2106, 0.7874 -0.8064 1.2106, 0.8039 -0.7988 1.2059, 0.8008 -0.8028 1.2059, 0.7969 -0.8058 1.2059, 0.7923 -0.8077 1.2059, 0.7874 -0.8083 1.2059
            ]
        }
        coordIndex [
            0,1,2,-1,3,4,5,-1,6,7,8,-1,9,10,11,-1,12,13,14,-1,15,16,17,-1,18,19,20,-1,20,19,21,-1,20,21,22,-1,22,23,20,-1,20,23,24,-1,20,24,25,-1,26,18,27,-1,28,29,30,-1,30,29,27,-1,27,29,31,-1,27,31,26,-1,32,33,34,-1,34,33,35,-1,34,35,36,-1,28,30,37,-1,37,30,33,-1,37,33,38,-1,32,39,33,-1,33,39,40,-1,33,40,41,-1,41,42,33,-1,33,42,43,-1,33,43,38,-1,38,43,44,-1,38,44,45,-1,45,44,46,-1,45,46,47,-1,48,49,50,-1,49,51,50,-1,50,51,52,-1,50,52,53,-1,53,54,50,-1,50,54,55,-1,50,55,35,-1,35,55,56,-1,35,56,36,-1,57,58,59,-1,59,58,60,-1,59,60,50,-1,50,60,61,-1,50,61,48,-1,62,63,64,-1,64,63,65,-1,64,65,66,-1,62,67,63,-1,63,67,68,-1,63,68,59,-1,59,68,69,-1,59,69,57,-1,70,71,72,-1,72,71,73,-1,73,74,72,-1,72,74,75,-1,72,75,66,-1,25,76,20,-1,20,76,77,-1,20,77,2,-1,2,77,78,-1,2,78,79,-1,80,81,82,-1,83,84,85,-1,86,87,88,-1,88,87,89,-1,80,82,90,-1,91,92,87,-1,87,92,93,-1,87,93,94,-1,84,95,85,-1,85,95,96,-1,85,96,97,-1,81,98,82,-1,82,98,99,-1,82,99,100,-1,101,102,103,-1,103,102,104,-1,103,104,105,-1,106,94,107,-1,107,94,108,-1,107,108,103,-1,103,108,109,-1,103,109,101,-1,106,110,94,-1,94,110,111,-1,94,111,87,-1,87,111,112,-1,87,112,89,-1,113,114,82,-1,82,114,115,-1,82,115,87,-1,87,115,116,-1,87,116,91,-1,97,117,85,-1,85,117,118,-1,85,118,70,-1,70,118,119,-1,70,119,120,-1,120,121,70,-1,70,121,122,-1,70,122,123,-1,124,125,126,-1,126,125,127,-1,126,127,82,-1,82,127,128,-1,82,128,90,-1,100,129,82,-1,82,129,130,-1,82,130,131,-1,123,132,70,-1,70,132,133,-1,70,133,134,-1,134,133,124,-1,134,124,135,-1,135,124,126,-1,131,136,82,-1,82,136,137,-1,82,137,113,-1,138,139,140,-1,138,140,141,-1,93,140,94,-1,94,140,142,-1,94,142,143,-1,144,145,146,-1,146,145,147,-1,146,147,148,-1,144,146,93,-1,93,146,149,-1,93,149,140,-1,140,149,150,-1,140,150,141,-1,139,151,140,-1,140,151,152,-1,140,152,153,-1,153,152,154,-1,155,156,157,-1,157,156,158,-1,157,158,159,-1,160,161,154,-1,154,161,162,-1,154,162,153,-1,143,163,94,-1,94,163,157,-1,94,157,164,-1,164,157,159,-1,165,166,167,-1,167,166,168,-1,169,167,170,-1,171,165,172,-1,172,165,167,-1,172,167,173,-1,173,167,169,-1,173,169,174,-1,172,175,171,-1,171,175,176,-1,171,176,177,-1,169,178,174,-1,174,178,179,-1,174,179,180,-1,166,181,168,-1,168,181,182,-1,168,182,183,-1,183,182,184,-1,185,186,187,-1,188,189,190,-1,190,189,191,-1,190,191,170,-1,170,191,192,-1,170,192,169,-1,187,193,185,-1,185,193,194,-1,185,194,195,-1,195,194,196,-1,195,196,188,-1,188,196,184,-1,188,184,189,-1,189,184,182,-1,17,16,197,-1,197,16,198,-1,197,198,199,-1,200,201,202,-1,203,204,199,-1,205,206,207,-1,203,199,208,-1,205,207,199,-1,199,207,209,-1,199,209,208,-1,210,211,212,-1,213,214,14,-1,215,216,217,-1,201,218,202,-1,202,218,219,-1,202,219,217,-1,217,219,220,-1,217,220,215,-1,221,222,14,-1,14,222,223,-1,216,224,217,-1,217,224,225,-1,217,225,226,-1,226,225,227,-1,226,227,213,-1,228,229,214,-1,214,229,230,-1,214,230,14,-1,14,230,231,-1,14,231,221,-1,223,232,14,-1,14,232,233,-1,14,233,12,-1,234,235,236,-1,236,235,237,-1,236,237,238,-1,236,239,234,-1,234,239,240,-1,234,240,241,-1,241,242,234,-1,234,242,243,-1,234,243,244,-1,244,243,245,-1,244,245,246,-1,246,245,247,-1,246,247,214,-1,214,247,248,-1,214,248,228,-1,249,250,238,-1,238,250,251,-1,238,251,236,-1,252,253,206,-1,206,253,254,-1,206,254,207,-1,252,255,253,-1,253,255,256,-1,253,256,257,-1,257,256,258,-1,257,259,260,-1,258,261,257,-1,257,261,262,-1,257,262,263,-1,263,264,257,-1,257,264,265,-1,257,265,259,-1,260,266,257,-1,257,266,267,-1,257,267,268,-1,269,270,271,-1,271,270,170,-1,271,170,272,-1,272,170,273,-1,272,273,274,-1,275,190,276,-1,276,190,170,-1,276,170,277,-1,277,170,270,-1,278,279,280,-1,280,279,281,-1,282,283,188,-1,284,285,286,-1,281,287,288,-1,288,287,289,-1,288,289,290,-1,291,217,292,-1,292,217,226,-1,292,226,293,-1,293,226,188,-1,293,188,294,-1,294,188,283,-1,294,283,286,-1,286,283,295,-1,286,295,284,-1,296,297,278,-1,278,297,298,-1,278,298,279,-1,299,202,300,-1,300,202,217,-1,300,217,301,-1,301,217,302,-1,303,304,305,-1,305,304,306,-1,305,306,307,-1,307,306,302,-1,307,302,308,-1,308,302,217,-1,308,217,296,-1,296,217,291,-1,296,291,297,-1,309,310,311,-1,305,312,313,-1,314,315,316,-1,316,315,317,-1,310,318,311,-1,311,318,317,-1,311,317,319,-1,319,317,315,-1,309,311,305,-1,305,311,320,-1,305,320,321,-1,313,322,305,-1,305,322,323,-1,305,323,303,-1,321,324,305,-1,305,324,325,-1,305,325,312,-1,326,327,328,-1,328,327,329,-1,328,329,296,-1,296,329,330,-1,296,330,308,-1,331,332,333,-1,333,332,334,-1,333,334,326,-1,11,335,336,-1,336,337,11,-1,11,337,338,-1,11,338,9,-1,339,340,11,-1,11,340,341,-1,11,341,335,-1,342,343,339,-1,339,343,344,-1,339,344,340,-1,345,346,347,-1,347,346,348,-1,348,349,347,-1,347,349,350,-1,347,350,342,-1,342,350,351,-1,342,351,343,-1,299,352,202,-1,202,352,353,-1,202,353,347,-1,347,353,354,-1,347,354,345,-1,355,356,357,-1,197,358,359,-1,360,361,359,-1,359,361,362,-1,359,362,197,-1,363,364,365,-1,202,366,367,-1,356,368,357,-1,357,368,369,-1,357,369,370,-1,370,369,365,-1,370,365,371,-1,371,365,364,-1,372,373,374,-1,374,373,375,-1,374,376,377,-1,204,200,199,-1,199,200,202,-1,199,202,197,-1,197,202,367,-1,197,367,358,-1,375,378,374,-1,374,378,379,-1,374,379,376,-1,377,380,347,-1,381,382,359,-1,359,382,383,-1,359,383,360,-1,355,357,380,-1,380,357,384,-1,380,384,347,-1,385,386,365,-1,365,386,387,-1,365,387,388,-1,384,389,347,-1,347,389,390,-1,347,390,202,-1,202,390,391,-1,391,392,202,-1,202,392,393,-1,202,393,394,-1,394,395,202,-1,202,395,396,-1,202,396,366,-1,388,397,365,-1,365,397,398,-1,365,398,363,-1,362,399,400,-1,400,399,401,-1,401,399,402,-1,401,402,403,-1,404,405,14,-1,14,405,406,-1,213,14,226,-1,226,14,406,-1,226,406,188,-1,188,406,407,-1,188,407,195,-1,408,405,409,-1,409,405,404,-1,409,404,410,-1,411,412,413,-1,414,415,14,-1,211,210,13,-1,13,210,411,-1,13,411,14,-1,14,411,413,-1,14,413,414,-1,415,416,14,-1,14,416,417,-1,14,417,418,-1,418,419,14,-1,14,419,420,-1,14,420,404,-1,404,420,421,-1,404,421,410,-1,422,423,424,-1,424,423,425,-1,424,425,411,-1,411,425,426,-1,411,426,412,-1,427,428,424,-1,424,428,429,-1,424,429,422,-1,183,430,427,-1,427,430,431,-1,427,431,428,-1,432,4,433,-1,433,4,3,-1,433,3,434,-1,434,3,435,-1,436,437,438,-1,439,440,441,-1,438,437,273,-1,273,437,442,-1,273,442,443,-1,441,436,439,-1,439,436,438,-1,439,438,444,-1,444,438,435,-1,444,435,443,-1,443,435,3,-1,443,3,273,-1,273,3,5,-1,273,5,274,-1,274,5,445,-1,274,445,446,-1,446,445,447,-1,448,449,438,-1,438,449,450,-1,438,450,451,-1,451,452,438,-1,438,452,453,-1,438,453,167,-1,167,453,454,-1,167,454,170,-1,454,455,170,-1,170,455,456,-1,170,456,273,-1,273,456,457,-1,273,457,458,-1,458,459,273,-1,273,459,460,-1,273,460,461,-1,461,462,273,-1,273,462,463,-1,273,463,438,-1,438,463,464,-1,438,464,448,-1,183,427,168,-1,168,427,465,-1,168,465,167,-1,167,465,466,-1,167,466,438,-1,438,466,467,-1,438,467,435,-1,435,467,468,-1,435,468,434,-1,288,282,281,-1,281,282,188,-1,281,188,280,-1,280,188,469,-1,470,471,190,-1,190,471,472,-1,190,472,473,-1,474,475,476,-1,476,475,477,-1,473,478,190,-1,190,478,479,-1,190,479,188,-1,188,479,480,-1,188,480,469,-1,469,481,280,-1,280,481,482,-1,280,482,476,-1,476,482,483,-1,476,483,484,-1,484,485,476,-1,476,485,486,-1,476,486,474,-1,447,445,275,-1,275,445,476,-1,275,476,190,-1,190,476,477,-1,190,477,470,-1,362,400,197,-1,197,400,210,-1,197,210,17,-1,17,210,212,-1,17,212,15,-1,326,328,333,-1,333,328,296,-1,333,296,487,-1,487,296,278,-1,487,278,488,-1,488,278,280,-1,488,280,489,-1,489,280,476,-1,489,476,490,-1,490,476,445,-1,490,445,491,-1,491,445,5,-1,491,5,492,-1,492,5,4,-1,492,4,493,-1,493,4,432,-1,493,432,6,-1,66,65,72,-1,72,65,494,-1,72,494,495,-1,495,494,496,-1,495,496,401,-1,401,496,497,-1,401,497,400,-1,400,497,498,-1,400,498,210,-1,210,498,499,-1,210,499,411,-1,411,499,500,-1,411,500,424,-1,424,500,501,-1,424,501,427,-1,427,501,502,-1,427,502,465,-1,465,502,503,-1,465,503,466,-1,466,503,504,-1,466,504,467,-1,467,504,505,-1,467,505,468,-1,70,72,85,-1,85,72,495,-1,85,495,506,-1,506,495,401,-1,506,401,374,-1,374,401,403,-1,374,403,372,-1,2,1,342,-1,342,1,507,-1,342,507,508,-1,509,510,508,-1,508,510,511,-1,79,83,2,-1,2,83,85,-1,2,85,0,-1,0,85,506,-1,0,506,512,-1,512,506,513,-1,514,515,516,-1,516,515,513,-1,377,347,374,-1,374,347,342,-1,374,342,506,-1,506,342,508,-1,506,508,513,-1,513,508,511,-1,513,511,516,-1,517,339,20,-1,517,518,339,-1,339,518,519,-1,339,519,342,-1,342,519,520,-1,342,520,2,-1,2,520,521,-1,2,521,20,-1,20,521,522,-1,20,522,517,-1,18,20,27,-1,27,20,339,-1,27,339,523,-1,523,339,11,-1,523,11,331,-1,331,11,10,-1,331,10,332,-1,6,8,493,-1,493,8,524,-1,493,524,492,-1,492,524,525,-1,492,525,491,-1,491,525,526,-1,491,526,490,-1,490,526,527,-1,490,527,489,-1,489,527,528,-1,489,528,488,-1,488,528,529,-1,488,529,487,-1,487,529,530,-1,487,530,333,-1,333,530,531,-1,333,531,331,-1,331,531,532,-1,331,532,523,-1,523,532,533,-1,523,533,27,-1,27,533,534,-1,27,534,30,-1,535,536,537,-1,537,536,538,-1,539,540,541,-1,541,540,542,-1,543,544,545,-1,545,544,546,-1,547,548,549,-1,549,548,550,-1,551,541,543,-1,543,541,544,-1,552,553,554,-1,555,544,535,-1,535,544,541,-1,535,541,536,-1,536,541,542,-1,536,542,505,-1,505,542,556,-1,505,556,557,-1,557,556,558,-1,557,558,559,-1,559,558,560,-1,561,562,563,-1,505,63,536,-1,536,63,564,-1,536,564,565,-1,565,564,566,-1,565,566,567,-1,567,566,568,-1,551,543,554,-1,554,543,569,-1,554,569,552,-1,555,535,563,-1,563,535,570,-1,563,570,561,-1,7,505,557,-1,7,557,571,-1,571,557,559,-1,571,559,572,-1,572,559,560,-1,572,560,573,-1,573,560,558,-1,573,558,574,-1,574,558,556,-1,574,556,575,-1,575,556,542,-1,575,542,540,-1,550,548,576,-1,550,576,577,-1,577,576,578,-1,577,578,579,-1,579,578,580,-1,579,580,581,-1,581,580,582,-1,581,582,583,-1,583,582,584,-1,583,584,585,-1,585,584,534,-1,585,534,7,-1,538,536,565,-1,538,565,586,-1,586,565,567,-1,586,567,587,-1,587,567,568,-1,587,568,588,-1,588,568,566,-1,588,566,589,-1,589,566,564,-1,589,564,590,-1,590,564,63,-1,590,63,534,-1,540,591,592,-1,593,594,595,-1,550,577,596,-1,595,594,550,-1,597,550,594,-1,597,594,598,-1,598,594,593,-1,598,593,599,-1,600,550,597,-1,601,602,603,-1,603,602,596,-1,603,596,604,-1,604,596,577,-1,604,577,579,-1,600,597,605,-1,605,597,598,-1,605,598,606,-1,606,598,599,-1,606,599,607,-1,608,601,609,-1,609,601,603,-1,609,603,610,-1,610,603,604,-1,610,604,611,-1,611,604,579,-1,611,579,581,-1,612,608,613,-1,613,608,609,-1,613,609,614,-1,614,609,610,-1,614,610,615,-1,615,610,611,-1,615,611,616,-1,616,611,581,-1,616,581,583,-1,591,612,592,-1,592,612,613,-1,592,613,617,-1,617,613,614,-1,617,614,618,-1,618,614,615,-1,618,615,619,-1,619,615,616,-1,619,616,620,-1,620,616,583,-1,620,583,585,-1,540,592,575,-1,575,592,617,-1,575,617,574,-1,574,617,618,-1,574,618,573,-1,573,618,619,-1,573,619,572,-1,572,619,620,-1,572,620,571,-1,571,620,585,-1,571,585,7,-1,602,550,596,-1,591,607,612,-1,612,607,599,-1,612,599,608,-1,608,599,593,-1,608,593,601,-1,601,593,595,-1,601,595,602,-1,602,595,550,-1,534,584,621,-1,622,623,624,-1,548,625,626,-1,624,623,548,-1,627,548,623,-1,627,623,628,-1,628,623,622,-1,628,622,629,-1,576,548,627,-1,630,631,632,-1,632,631,626,-1,632,626,633,-1,633,626,625,-1,633,625,634,-1,576,627,578,-1,578,627,628,-1,578,628,580,-1,580,628,629,-1,580,629,582,-1,635,630,636,-1,636,630,632,-1,636,632,637,-1,637,632,633,-1,637,633,638,-1,638,633,634,-1,638,634,639,-1,640,635,641,-1,641,635,636,-1,641,636,642,-1,642,636,637,-1,642,637,643,-1,643,637,638,-1,643,638,644,-1,644,638,639,-1,644,639,645,-1,584,640,621,-1,621,640,641,-1,621,641,646,-1,646,641,642,-1,646,642,647,-1,647,642,643,-1,647,643,648,-1,648,643,644,-1,648,644,649,-1,649,644,645,-1,649,645,650,-1,534,621,590,-1,590,621,646,-1,590,646,589,-1,589,646,647,-1,589,647,588,-1,588,647,648,-1,588,648,587,-1,587,648,649,-1,587,649,586,-1,586,649,650,-1,586,650,538,-1,631,548,626,-1,584,582,640,-1,640,582,629,-1,640,629,635,-1,635,629,622,-1,635,622,630,-1,630,622,624,-1,630,624,631,-1,631,624,548,-1,539,541,551,-1,539,551,651,-1,651,551,554,-1,651,554,652,-1,652,554,553,-1,652,553,653,-1,653,553,552,-1,653,552,654,-1,654,552,569,-1,654,569,655,-1,655,569,543,-1,655,543,545,-1,549,550,600,-1,549,600,656,-1,656,600,605,-1,656,605,657,-1,657,605,606,-1,657,606,658,-1,658,606,607,-1,658,607,659,-1,659,607,591,-1,659,591,660,-1,660,591,540,-1,660,540,539,-1,548,547,661,-1,548,661,625,-1,625,661,662,-1,625,662,634,-1,634,662,663,-1,634,663,639,-1,639,663,664,-1,639,664,645,-1,645,664,665,-1,645,665,650,-1,650,665,537,-1,650,537,538,-1,546,544,555,-1,546,555,666,-1,666,555,563,-1,666,563,667,-1,667,563,562,-1,667,562,668,-1,668,562,561,-1,668,561,669,-1,669,561,570,-1,669,570,670,-1,670,570,535,-1,670,535,537,-1,545,671,672,-1,673,674,675,-1,549,656,676,-1,675,674,549,-1,677,549,674,-1,677,674,678,-1,678,674,673,-1,678,673,679,-1,680,549,677,-1,681,682,683,-1,683,682,676,-1,683,676,684,-1,684,676,656,-1,684,656,657,-1,680,677,685,-1,685,677,678,-1,685,678,686,-1,686,678,679,-1,686,679,687,-1,688,681,689,-1,689,681,683,-1,689,683,690,-1,690,683,684,-1,690,684,691,-1,691,684,657,-1,691,657,658,-1,692,688,693,-1,693,688,689,-1,693,689,694,-1,694,689,690,-1,694,690,695,-1,695,690,691,-1,695,691,696,-1,696,691,658,-1,696,658,659,-1,671,692,672,-1,672,692,693,-1,672,693,697,-1,697,693,694,-1,697,694,698,-1,698,694,695,-1,698,695,699,-1,699,695,696,-1,699,696,700,-1,700,696,659,-1,700,659,660,-1,545,672,655,-1,655,672,697,-1,655,697,654,-1,654,697,698,-1,654,698,653,-1,653,698,699,-1,653,699,652,-1,652,699,700,-1,652,700,651,-1,651,700,660,-1,651,660,539,-1,682,549,676,-1,671,687,692,-1,692,687,679,-1,692,679,688,-1,688,679,673,-1,688,673,681,-1,681,673,675,-1,681,675,682,-1,682,675,549,-1,537,665,701,-1,702,703,704,-1,547,705,706,-1,704,703,547,-1,707,547,703,-1,707,703,708,-1,708,703,702,-1,708,702,709,-1,661,547,707,-1,710,711,712,-1,712,711,706,-1,712,706,713,-1,713,706,705,-1,713,705,714,-1,661,707,662,-1,662,707,708,-1,662,708,663,-1,663,708,709,-1,663,709,664,-1,715,710,716,-1,716,710,712,-1,716,712,717,-1,717,712,713,-1,717,713,718,-1,718,713,714,-1,718,714,719,-1,720,715,721,-1,721,715,716,-1,721,716,722,-1,722,716,717,-1,722,717,723,-1,723,717,718,-1,723,718,724,-1,724,718,719,-1,724,719,725,-1,665,720,701,-1,701,720,721,-1,701,721,726,-1,726,721,722,-1,726,722,727,-1,727,722,723,-1,727,723,728,-1,728,723,724,-1,728,724,729,-1,729,724,725,-1,729,725,730,-1,537,701,670,-1,670,701,726,-1,670,726,669,-1,669,726,727,-1,669,727,668,-1,668,727,728,-1,668,728,667,-1,667,728,729,-1,667,729,666,-1,666,729,730,-1,666,730,546,-1,711,547,706,-1,665,664,720,-1,720,664,709,-1,720,709,715,-1,715,709,702,-1,715,702,710,-1,710,702,704,-1,710,704,711,-1,711,704,547,-1,547,549,680,-1,547,680,705,-1,705,680,685,-1,705,685,714,-1,714,685,686,-1,714,686,719,-1,719,686,687,-1,719,687,725,-1,725,687,671,-1,725,671,730,-1,730,671,545,-1,730,545,546,-1,
        ]
    }
}
Shape{
    appearance Appearance {
        material  Material {
            diffuseColor 0.0 0.0 0.0
            specularColor 0.0 0.0 0.0
            ambientIntensity 0.0
            transparency 0.0
            shininess 0.5
        }
    }
    geometry IndexedFaceSet {
        ccw TRUE
        solid FALSE
        coord DEF co Coordinate {
            point [
                0.4207 0.8091 0.2509, 0.4207 0.8091 0.2448, 0.4207 0.8052 0.2509, 0.4207 0.8052 0.2448, 0.4419 0.8091 0.2509, 0.4419 0.8052 0.2509, 0.4419 0.8091 0.2982, 0.4419 0.8052 0.2982, 0.4488 0.8091 0.2982, 0.4488 0.8052 0.2982, 0.4488 0.8091 0.2448, 0.4488 0.8052 0.2448, 0.3785 0.8052 0.247, 0.3785 0.8091 0.247, 0.3794 0.8091 0.2465, 0.3933 0.8091 0.2439, 0.3933 0.8052 0.2439, 0.3852 0.8052 0.2447, 0.3852 0.8091 0.2447, 0.3808 0.8052 0.2461, 0.3794 0.8052 0.2465, 0.3785 0.8091 0.2536, 0.3785 0.8052 0.2536, 0.3808 0.8052 0.2526, 0.3838 0.8091 0.2512, 0.3838 0.8052 0.2512, 0.3898 0.8052 0.2501, 0.3898 0.8091 0.2501, 0.3923 0.8052 0.25, 0.3923 0.8091 0.25, 0.3977 0.8052 0.2507, 0.3977 0.8091 0.2507, 0.4015 0.8052 0.2521, 0.4015 0.8091 0.2521, 0.405 0.8052 0.2546, 0.405 0.8091 0.2546, 0.406 0.8052 0.2556, 0.406 0.8091 0.2556, 0.4086 0.8052 0.2593, 0.4086 0.8091 0.2593, 0.4104 0.8052 0.2636, 0.4104 0.8091 0.2636, 0.4112 0.8052 0.2689, 0.4112 0.8091 0.2689, 0.4113 0.8052 0.2709, 0.4113 0.8091 0.2709, 0.4104 0.8052 0.2783, 0.4104 0.8091 0.2783, 0.4086 0.8052 0.2829, 0.4086 0.8091 0.2829, 0.4057 0.8052 0.2869, 0.4057 0.8091 0.2869, 0.402 0.8052 0.2899, 0.402 0.8091 0.2899, 0.3978 0.8052 0.2919, 0.3978 0.8091 0.2919, 0.3932 0.8052 0.2928, 0.3932 0.8091 0.2928, 0.3911 0.8052 0.2928, 0.3911 0.8091 0.2928, 0.3785 0.8052 0.2897, 0.3785 0.8091 0.2897, 0.3791 0.8091 0.29, 0.3845 0.8052 0.2921, 0.3845 0.8091 0.2921, 0.3808 0.8052 0.2906, 0.3791 0.8052 0.29, 0.3785 0.8091 0.2969, 0.3785 0.8052 0.2969, 0.3912 0.8052 0.2991, 0.3912 0.8091 0.2991, 0.3911 0.8091 0.2991, 0.3808 0.8052 0.2975, 0.3841 0.8091 0.2985, 0.3841 0.8052 0.2985, 0.3855 0.8052 0.2986, 0.3911 0.8052 0.2991, 0.3949 0.8052 0.2986, 0.3989 0.8091 0.2981, 0.3989 0.8052 0.2981, 0.4045 0.8052 0.2959, 0.4045 0.8091 0.2959, 0.4095 0.8052 0.2924, 0.4095 0.8091 0.2924, 0.4108 0.8052 0.2912, 0.4108 0.8091 0.2912, 0.4147 0.8052 0.2861, 0.4161 0.8052 0.2828, 0.4172 0.8091 0.2802, 0.4147 0.8091 0.2861, 0.4172 0.8052 0.2802, 0.4184 0.8052 0.2733, 0.4184 0.8091 0.2733, 0.4185 0.8052 0.2705, 0.4185 0.8091 0.2705, 0.4174 0.8052 0.2617, 0.4161 0.8052 0.2584, 0.4152 0.8091 0.2562, 0.4174 0.8091 0.2617, 0.4152 0.8052 0.2562, 0.4116 0.8052 0.2512, 0.4116 0.8091 0.2512, 0.4074 0.8052 0.2476, 0.4074 0.8091 0.2476, 0.4023 0.8052 0.2452, 0.4023 0.8091 0.2452, 0.3965 0.8052 0.244, 0.3965 0.8091 0.244, 0.3391 0.8091 0.2509, 0.3391 0.8091 0.2448, 0.3391 0.8052 0.2509, 0.3391 0.8052 0.2448, 0.361 0.8052 0.2509, 0.361 0.8091 0.2509, 0.3465 0.8052 0.2509, 0.361 0.8091 0.2688, 0.361 0.8052 0.2688, 0.3419 0.8091 0.2688, 0.3465 0.8052 0.2688, 0.3419 0.8052 0.2688, 0.3419 0.8091 0.2749, 0.3419 0.8052 0.2749, 0.361 0.8052 0.2749, 0.361 0.8091 0.2749, 0.3465 0.8052 0.2749, 0.361 0.8091 0.292, 0.361 0.8052 0.292, 0.3404 0.8091 0.292, 0.3465 0.8052 0.292, 0.3404 0.8052 0.292, 0.3404 0.8091 0.2982, 0.3404 0.8052 0.2982, 0.3678 0.8052 0.2982, 0.3678 0.8091 0.2982, 0.3465 0.8052 0.2982, 0.3678 0.8091 0.2448, 0.3678 0.8052 0.2448, 0.3465 0.8052 0.2448, 0.2936 0.8091 0.2523, 0.2991 0.8091 0.2559, 0.2992 0.8091 0.2483, 0.3026 0.8091 0.2535, 0.3053 0.8091 0.2459, 0.3069 0.8091 0.2518, 0.3144 0.8091 0.2448, 0.3144 0.8091 0.2509, 0.3291 0.8091 0.2448, 0.3222 0.8091 0.2509, 0.3291 0.8091 0.2982, 0.3222 0.8091 0.292, 0.3138 0.8091 0.2982, 0.3141 0.8091 0.292, 0.3057 0.8091 0.2973, 0.3072 0.8091 0.2913, 0.2992 0.8091 0.2949, 0.3026 0.8091 0.2896, 0.2936 0.8091 0.2911, 0.2987 0.8091 0.287, 0.2918 0.8091 0.2893, 0.2972 0.8091 0.2856, 0.2885 0.8091 0.2846, 0.2952 0.8091 0.2826, 0.2865 0.8091 0.2796, 0.2936 0.8091 0.2787, 0.2856 0.8091 0.2722, 0.2928 0.8091 0.272, 0.2858 0.8091 0.2688, 0.2931 0.8091 0.2678, 0.287 0.8091 0.2625, 0.2943 0.8091 0.2631, 0.2897 0.8091 0.257, 0.2962 0.8091 0.2592, 0.2985 0.8091 0.2564, 0.3144 0.8052 0.2448, 0.3291 0.8052 0.2448, 0.3053 0.8052 0.2459, 0.2992 0.8052 0.2483, 0.2936 0.8052 0.2523, 0.2897 0.8052 0.257, 0.287 0.8052 0.2625, 0.2858 0.8052 0.2688, 0.2856 0.8052 0.2722, 0.2865 0.8052 0.2796, 0.2885 0.8052 0.2846, 0.2918 0.8052 0.2893, 0.2936 0.8052 0.2911, 0.2992 0.8052 0.2949, 0.3057 0.8052 0.2973, 0.3138 0.8052 0.2982, 0.3291 0.8052 0.2982, 0.3141 0.8052 0.292, 0.3222 0.8052 0.292, 0.3222 0.8052 0.2509, 0.3144 0.8052 0.2509, 0.2985 0.8052 0.2564, 0.2991 0.8052 0.2559, 0.3026 0.8052 0.2535, 0.3069 0.8052 0.2518, 0.2928 0.8052 0.272, 0.2931 0.8052 0.2678, 0.2943 0.8052 0.2631, 0.2962 0.8052 0.2592, 0.2987 0.8052 0.287, 0.2972 0.8052 0.2856, 0.2952 0.8052 0.2826, 0.2936 0.8052 0.2787, 0.3072 0.8052 0.2913, 0.3026 0.8052 0.2896
            ]
        }
        coordIndex [
            0,1,2,-1,2,1,3,-1,4,0,5,-1,5,0,2,-1,6,4,7,-1,7,4,5,-1,8,6,9,-1,9,6,7,-1,10,8,11,-1,11,8,9,-1,1,10,3,-1,3,10,11,-1,6,8,4,-1,4,8,10,-1,4,10,0,-1,0,10,1,-1,12,13,14,-1,15,16,17,-1,15,17,18,-1,18,17,19,-1,18,19,14,-1,14,19,20,-1,14,20,12,-1,21,13,22,-1,22,13,12,-1,21,22,23,-1,21,23,24,-1,23,25,24,-1,24,25,26,-1,24,26,27,-1,27,26,28,-1,27,28,29,-1,29,28,30,-1,29,30,31,-1,31,30,32,-1,31,32,33,-1,33,32,34,-1,33,34,35,-1,35,34,36,-1,35,36,37,-1,37,36,38,-1,37,38,39,-1,39,38,40,-1,39,40,41,-1,41,40,42,-1,41,42,43,-1,43,42,44,-1,43,44,45,-1,45,44,46,-1,45,46,47,-1,47,46,48,-1,47,48,49,-1,49,48,50,-1,49,50,51,-1,51,50,52,-1,51,52,53,-1,53,52,54,-1,53,54,55,-1,55,54,56,-1,55,56,57,-1,57,56,58,-1,57,58,59,-1,60,61,62,-1,59,58,63,-1,59,63,64,-1,64,63,65,-1,64,65,62,-1,62,65,66,-1,62,66,60,-1,67,61,68,-1,68,61,60,-1,69,70,71,-1,67,68,72,-1,67,72,73,-1,72,74,73,-1,73,74,75,-1,73,75,71,-1,71,75,76,-1,71,76,69,-1,70,69,77,-1,70,77,78,-1,77,79,78,-1,78,79,80,-1,78,80,81,-1,81,80,82,-1,81,82,83,-1,83,82,84,-1,83,84,85,-1,85,84,86,-1,87,88,86,-1,86,88,89,-1,86,89,85,-1,87,90,88,-1,88,90,91,-1,88,91,92,-1,92,91,93,-1,92,93,94,-1,94,93,95,-1,96,97,95,-1,95,97,98,-1,95,98,94,-1,96,99,97,-1,97,99,100,-1,97,100,101,-1,101,100,102,-1,101,102,103,-1,103,102,104,-1,103,104,105,-1,105,104,106,-1,105,106,107,-1,107,106,16,-1,107,16,15,-1,62,61,67,-1,53,83,51,-1,51,83,85,-1,51,85,49,-1,49,85,89,-1,49,89,47,-1,62,67,64,-1,64,67,73,-1,64,73,59,-1,59,73,71,-1,59,71,57,-1,57,71,70,-1,57,70,55,-1,55,70,78,-1,55,78,53,-1,53,78,81,-1,53,81,83,-1,94,45,92,-1,92,45,47,-1,92,47,88,-1,88,47,89,-1,13,21,14,-1,14,21,24,-1,14,24,18,-1,18,24,27,-1,18,27,15,-1,15,27,29,-1,15,29,107,-1,107,29,31,-1,107,31,105,-1,105,31,33,-1,105,33,103,-1,103,33,35,-1,103,35,101,-1,101,35,37,-1,101,37,97,-1,97,37,39,-1,97,39,98,-1,98,39,41,-1,98,41,94,-1,94,41,43,-1,94,43,45,-1,108,109,110,-1,110,109,111,-1,112,113,114,-1,114,113,108,-1,114,108,110,-1,115,113,116,-1,116,113,112,-1,115,116,117,-1,117,116,118,-1,117,118,119,-1,120,117,121,-1,121,117,119,-1,122,123,124,-1,124,123,120,-1,124,120,121,-1,125,123,126,-1,126,123,122,-1,125,126,127,-1,127,126,128,-1,127,128,129,-1,130,127,131,-1,131,127,129,-1,132,133,134,-1,134,133,130,-1,134,130,131,-1,135,133,136,-1,136,133,132,-1,135,136,109,-1,109,136,137,-1,109,137,111,-1,135,109,108,-1,108,113,135,-1,135,113,115,-1,135,115,133,-1,127,130,125,-1,125,130,133,-1,125,133,123,-1,123,133,115,-1,123,115,120,-1,120,115,117,-1,138,139,140,-1,140,139,141,-1,140,141,142,-1,142,141,143,-1,142,143,144,-1,144,143,145,-1,144,145,146,-1,146,145,147,-1,146,147,148,-1,148,147,149,-1,148,149,150,-1,150,149,151,-1,150,151,152,-1,152,151,153,-1,152,153,154,-1,154,153,155,-1,154,155,156,-1,156,155,157,-1,156,157,158,-1,158,157,159,-1,158,159,160,-1,160,159,161,-1,160,161,162,-1,162,161,163,-1,162,163,164,-1,164,163,165,-1,164,165,166,-1,166,165,167,-1,166,167,168,-1,168,167,169,-1,168,169,170,-1,170,169,171,-1,170,171,138,-1,138,171,172,-1,138,172,139,-1,144,146,173,-1,173,146,174,-1,144,173,175,-1,144,175,142,-1,142,175,176,-1,142,176,140,-1,140,176,177,-1,140,177,138,-1,138,177,178,-1,138,178,170,-1,170,178,179,-1,170,179,168,-1,168,179,180,-1,168,180,166,-1,166,180,181,-1,166,181,164,-1,164,181,182,-1,164,182,162,-1,162,182,183,-1,162,183,160,-1,160,183,184,-1,160,184,158,-1,158,184,185,-1,158,185,156,-1,156,185,186,-1,156,186,154,-1,154,186,187,-1,154,187,152,-1,152,187,188,-1,152,188,150,-1,148,150,189,-1,189,150,188,-1,146,148,174,-1,174,148,189,-1,151,149,190,-1,190,149,191,-1,149,147,191,-1,191,147,192,-1,147,145,192,-1,192,145,193,-1,172,194,195,-1,172,195,139,-1,139,195,196,-1,139,196,141,-1,141,196,197,-1,141,197,143,-1,143,197,193,-1,143,193,145,-1,165,198,199,-1,165,199,167,-1,167,199,200,-1,167,200,169,-1,169,200,201,-1,169,201,171,-1,171,201,194,-1,171,194,172,-1,157,202,203,-1,157,203,159,-1,159,203,204,-1,159,204,161,-1,161,204,205,-1,161,205,163,-1,163,205,198,-1,163,198,165,-1,151,190,206,-1,151,206,153,-1,153,206,207,-1,153,207,155,-1,155,207,202,-1,155,202,157,-1,
        ]
    }
}
Shape{
    appearance Appearance {
        material  Material {
            diffuseColor 0.5019607843137255 0.5019607843137255 0.5019607843137255
            specularColor 0.25098039215686274 0.25098039215686274 0.25098039215686274
            ambientIntensity 0.502
            transparency 0.0
            shininess 0.5
        }
    }
    geometry IndexedFaceSet {
        ccw TRUE
        solid FALSE
        coord DEF co Coordinate {
            point [
                0.2991 0.8052 0.2559, 0.2985 0.8052 0.2564, 0.3141 0.8052 0.292, 0.3222 0.8052 0.292, 0.3222 0.8052 0.2509, 0.3144 0.8052 0.2509, 0.3069 0.8052 0.2518, 0.3026 0.8052 0.2535, 0.2962 0.8052 0.2592, 0.2943 0.8052 0.2631, 0.2931 0.8052 0.2678, 0.2928 0.8052 0.272, 0.2936 0.8052 0.2787, 0.2952 0.8052 0.2826, 0.2972 0.8052 0.2856, 0.2987 0.8052 0.287, 0.3072 0.8052 0.2913, 0.3026 0.8052 0.2896
            ]
        }
        coordIndex [
            0,1,2,-1,3,4,2,-1,2,4,5,-1,5,6,2,-1,2,6,7,-1,2,7,0,-1,1,8,2,-1,2,8,9,-1,2,9,10,-1,10,11,2,-1,2,11,12,-1,2,12,13,-1,13,14,2,-1,2,14,15,-1,2,15,16,-1,16,15,17,-1,
        ]
    }
}
Shape{
    appearance Appearance {
        material  Material {
            diffuseColor 0.0 0.0 0.0
            specularColor 0.0 0.0 0.0
            ambientIntensity 0.0
            transparency 0.0
            shininess 0.5
        }
    }
    geometry IndexedFaceSet {
        ccw TRUE
        solid FALSE
        coord DEF co Coordinate {
            point [
                0.2677 0.8091 0.2654, 0.2597 0.8091 0.2876, 0.2623 0.8091 0.2982, 0.2826 0.8091 0.2448, 0.275 0.8091 0.2448, 0.2699 0.8091 0.2594, 0.2593 0.8091 0.2892, 0.2588 0.8091 0.2913, 0.2549 0.8091 0.2982, 0.2587 0.8091 0.2913, 0.2583 0.8091 0.2891, 0.2579 0.8091 0.2876, 0.2498 0.8091 0.2654, 0.2346 0.8091 0.2448, 0.2422 0.8091 0.2448, 0.2477 0.8091 0.2594, 0.2549 0.8052 0.2982, 0.2346 0.8052 0.2448, 0.2623 0.8052 0.2982, 0.2826 0.8052 0.2448, 0.2672 0.8052 0.2852, 0.275 0.8052 0.2448, 0.2699 0.8052 0.2594, 0.2477 0.8052 0.2594, 0.2672 0.8052 0.2594, 0.2422 0.8052 0.2448, 0.2677 0.8052 0.2654, 0.2498 0.8052 0.2654, 0.2579 0.8052 0.2876, 0.2587 0.8052 0.2913, 0.2583 0.8052 0.2891, 0.2588 0.8052 0.2913, 0.2597 0.8052 0.2876, 0.2593 0.8052 0.2892
            ]
        }
        coordIndex [
            0,1,2,-1,3,4,5,-1,1,6,2,-1,2,6,7,-1,2,7,8,-1,8,7,9,-1,8,9,10,-1,10,11,8,-1,8,11,12,-1,8,12,13,-1,14,13,15,-1,15,13,12,-1,15,12,5,-1,5,12,0,-1,5,0,3,-1,3,0,2,-1,8,13,16,-1,16,13,17,-1,2,8,18,-1,18,8,16,-1,19,3,20,-1,20,3,2,-1,20,2,18,-1,4,3,21,-1,21,3,19,-1,5,4,22,-1,22,4,21,-1,23,15,24,-1,24,15,5,-1,24,5,22,-1,14,15,25,-1,25,15,23,-1,13,14,17,-1,17,14,25,-1,0,12,26,-1,26,12,27,-1,12,11,27,-1,27,11,28,-1,9,29,30,-1,9,30,10,-1,10,30,28,-1,10,28,11,-1,9,7,29,-1,29,7,31,-1,1,32,33,-1,1,33,6,-1,6,33,31,-1,6,31,7,-1,1,0,32,-1,32,0,26,-1,
        ]
    }
}
Shape{
    appearance Appearance {
        material  Material {
            diffuseColor 0.5019607843137255 0.5019607843137255 0.5019607843137255
            specularColor 0.25098039215686274 0.25098039215686274 0.25098039215686274
            ambientIntensity 0.502
            transparency 0.0
            shininess 0.5
        }
    }
    geometry IndexedFaceSet {
        ccw TRUE
        solid FALSE
        coord DEF co Coordinate {
            point [
                0.2587 0.8052 0.2913, 0.2588 0.8052 0.2913, 0.2583 0.8052 0.2891, 0.2593 0.8052 0.2892, 0.2579 0.8052 0.2876, 0.2597 0.8052 0.2876, 0.2498 0.8052 0.2654, 0.2677 0.8052 0.2654
            ]
        }
        coordIndex [
            0,1,2,-1,2,1,3,-1,2,3,4,-1,4,3,5,-1,4,5,6,-1,6,5,7,-1,
        ]
    }
}
Shape{
    appearance Appearance {
        material  Material {
            diffuseColor 0.0 0.0 0.0
            specularColor 0.0 0.0 0.0
            ambientIntensity 0.0
            transparency 0.0
            shininess 0.5
        }
    }
    geometry IndexedFaceSet {
        ccw TRUE
        solid FALSE
        coord DEF co Coordinate {
            point [
                0.4201 0.8091 0.1662, 0.4201 0.8091 0.1601, 0.4201 0.8052 0.1662, 0.4201 0.8052 0.1601, 0.4419 0.8091 0.1662, 0.4419 0.8052 0.1662, 0.4419 0.8091 0.1841, 0.4419 0.8052 0.1841, 0.4228 0.8091 0.1841, 0.4228 0.8052 0.1841, 0.4228 0.8091 0.1903, 0.4228 0.8052 0.1903, 0.4419 0.8091 0.1903, 0.4419 0.8052 0.1903, 0.4419 0.8091 0.2073, 0.4419 0.8052 0.2073, 0.4213 0.8091 0.2073, 0.4213 0.8052 0.2073, 0.4213 0.8091 0.2135, 0.4213 0.8052 0.2135, 0.4488 0.8091 0.2135, 0.4488 0.8052 0.2135, 0.4488 0.8091 0.1601, 0.4488 0.8052 0.1601, 0.3898 0.8091 0.1601, 0.3831 0.8091 0.1601, 0.3898 0.8091 0.166, 0.3831 0.8091 0.1846, 0.3898 0.8091 0.1843, 0.4044 0.8091 0.1763, 0.4029 0.8091 0.1771, 0.39 0.8091 0.166, 0.3935 0.8091 0.167, 0.391 0.8091 0.1644, 0.3954 0.8091 0.1657, 0.3987 0.8091 0.178, 0.3898 0.8091 0.1792, 0.3898 0.8091 0.1756, 0.3898 0.8091 0.1751, 0.3902 0.8091 0.1722, 0.3912 0.8091 0.1698, 0.3926 0.8091 0.1678, 0.3922 0.8091 0.1986, 0.3937 0.8091 0.1929, 0.3895 0.8091 0.1977, 0.3925 0.8091 0.1921, 0.39 0.8091 0.1873, 0.3837 0.8091 0.1903, 0.3907 0.8091 0.1897, 0.3849 0.8091 0.1931, 0.3915 0.8091 0.191, 0.3863 0.8091 0.1952, 0.3874 0.8091 0.1963, 0.41 0.8091 0.1956, 0.41 0.8091 0.1891, 0.4086 0.8091 0.1963, 0.4054 0.8091 0.192, 0.4037 0.8091 0.1983, 0.4012 0.8091 0.1933, 0.3969 0.8091 0.1991, 0.3975 0.8091 0.1937, 0.3952 0.8091 0.1934, 0.4056 0.8091 0.167, 0.4104 0.8091 0.1622, 0.405 0.8091 0.1664, 0.4082 0.8091 0.1606, 0.4037 0.8091 0.1655, 0.4056 0.8091 0.1597, 0.4022 0.8091 0.1649, 0.4016 0.8091 0.1592, 0.3999 0.8091 0.1647, 0.3982 0.8091 0.1596, 0.3974 0.8091 0.165, 0.3955 0.8091 0.1606, 0.3931 0.8091 0.1622, 0.4011 0.8091 0.1828, 0.4066 0.8091 0.1813, 0.4052 0.8091 0.1757, 0.4093 0.8091 0.1798, 0.406 0.8091 0.1747, 0.4112 0.8091 0.178, 0.4066 0.8091 0.1734, 0.4126 0.8091 0.1758, 0.4069 0.8091 0.1719, 0.4134 0.8091 0.1734, 0.4069 0.8091 0.1709, 0.4137 0.8091 0.1703, 0.4068 0.8091 0.1693, 0.4133 0.8091 0.1671, 0.4063 0.8091 0.1681, 0.4125 0.8091 0.1649, 0.4111 0.8091 0.1628, 0.3969 0.8052 0.1991, 0.4037 0.8052 0.1983, 0.4086 0.8052 0.1963, 0.41 0.8052 0.1956, 0.41 0.8052 0.1891, 0.4054 0.8052 0.192, 0.4012 0.8052 0.1933, 0.3975 0.8052 0.1937, 0.3952 0.8052 0.1934, 0.3937 0.8052 0.1929, 0.3925 0.8052 0.1921, 0.3915 0.8052 0.191, 0.3907 0.8052 0.1897, 0.39 0.8052 0.1873, 0.3898 0.8052 0.1843, 0.4011 0.8052 0.1828, 0.4066 0.8052 0.1813, 0.4093 0.8052 0.1798, 0.4112 0.8052 0.178, 0.4126 0.8052 0.1758, 0.4134 0.8052 0.1734, 0.4137 0.8052 0.1703, 0.4133 0.8052 0.1671, 0.4125 0.8052 0.1649, 0.4111 0.8052 0.1628, 0.4104 0.8052 0.1622, 0.4016 0.8052 0.1592, 0.4055 0.8052 0.1597, 0.4056 0.8052 0.1597, 0.4082 0.8052 0.1606, 0.3982 0.8052 0.1596, 0.398 0.8052 0.1597, 0.3955 0.8052 0.1606, 0.3931 0.8052 0.1622, 0.391 0.8052 0.1644, 0.39 0.8052 0.166, 0.3898 0.8052 0.166, 0.3898 0.8052 0.1601, 0.3831 0.8052 0.1601, 0.3831 0.8052 0.1846, 0.3837 0.8052 0.1903, 0.3849 0.8052 0.1931, 0.3863 0.8052 0.1952, 0.3874 0.8052 0.1963, 0.3895 0.8052 0.1977, 0.3922 0.8052 0.1986, 0.4052 0.8052 0.1757, 0.4044 0.8052 0.1763, 0.4029 0.8052 0.1771, 0.3987 0.8052 0.178, 0.4069 0.8052 0.1709, 0.4069 0.8052 0.1719, 0.4066 0.8052 0.1734, 0.406 0.8052 0.1747, 0.405 0.8052 0.1664, 0.4056 0.8052 0.167, 0.4063 0.8052 0.1681, 0.4068 0.8052 0.1693, 0.3999 0.8052 0.1647, 0.4022 0.8052 0.1649, 0.4037 0.8052 0.1655, 0.3926 0.8052 0.1678, 0.3935 0.8052 0.167, 0.3954 0.8052 0.1657, 0.3974 0.8052 0.165, 0.3898 0.8052 0.1756, 0.3898 0.8052 0.1751, 0.3902 0.8052 0.1722, 0.3912 0.8052 0.1698, 0.3898 0.8052 0.1792
            ]
        }
        coordIndex [
            0,1,2,-1,2,1,3,-1,4,0,5,-1,5,0,2,-1,6,4,7,-1,7,4,5,-1,8,6,9,-1,9,6,7,-1,10,8,11,-1,11,8,9,-1,12,10,13,-1,13,10,11,-1,14,12,15,-1,15,12,13,-1,16,14,17,-1,17,14,15,-1,18,16,19,-1,19,16,17,-1,20,18,21,-1,21,18,19,-1,22,20,23,-1,23,20,21,-1,1,22,3,-1,3,22,23,-1,22,1,0,-1,0,4,22,-1,22,4,6,-1,22,6,20,-1,16,18,14,-1,14,18,20,-1,14,20,12,-1,12,20,6,-1,12,6,10,-1,10,6,8,-1,24,25,26,-1,26,25,27,-1,28,29,30,-1,31,32,33,-1,33,32,34,-1,35,36,27,-1,27,36,37,-1,37,38,27,-1,27,38,39,-1,27,39,26,-1,26,39,40,-1,26,40,31,-1,31,40,41,-1,31,41,32,-1,42,43,44,-1,44,43,45,-1,30,35,28,-1,28,35,27,-1,28,27,46,-1,46,27,47,-1,46,47,48,-1,48,47,49,-1,48,49,50,-1,50,49,51,-1,50,51,45,-1,45,51,52,-1,45,52,44,-1,53,54,55,-1,55,54,56,-1,55,56,57,-1,57,56,58,-1,57,58,59,-1,59,58,60,-1,59,60,42,-1,42,60,61,-1,42,61,43,-1,62,63,64,-1,64,63,65,-1,64,65,66,-1,66,65,67,-1,66,67,68,-1,68,67,69,-1,68,69,70,-1,70,69,71,-1,70,71,72,-1,72,71,73,-1,72,73,34,-1,34,73,74,-1,34,74,33,-1,28,75,29,-1,29,75,76,-1,29,76,77,-1,77,76,78,-1,77,78,79,-1,79,78,80,-1,79,80,81,-1,81,80,82,-1,81,82,83,-1,83,82,84,-1,83,84,85,-1,85,84,86,-1,85,86,87,-1,87,86,88,-1,87,88,89,-1,89,88,90,-1,89,90,62,-1,62,90,91,-1,62,91,63,-1,59,92,93,-1,59,93,57,-1,57,93,94,-1,57,94,55,-1,55,94,95,-1,55,95,53,-1,54,53,96,-1,96,53,95,-1,54,96,97,-1,54,97,56,-1,56,97,98,-1,56,98,58,-1,58,98,99,-1,58,99,60,-1,60,99,100,-1,60,100,61,-1,61,100,101,-1,61,101,43,-1,43,101,102,-1,43,102,45,-1,45,102,103,-1,45,103,50,-1,50,103,104,-1,50,104,48,-1,48,104,105,-1,48,105,46,-1,46,105,106,-1,46,106,28,-1,75,28,107,-1,107,28,106,-1,75,107,108,-1,75,108,76,-1,76,108,109,-1,76,109,78,-1,78,109,110,-1,78,110,80,-1,80,110,111,-1,80,111,82,-1,82,111,112,-1,82,112,84,-1,84,112,113,-1,84,113,86,-1,86,113,114,-1,86,114,88,-1,88,114,115,-1,88,115,90,-1,90,115,116,-1,90,116,91,-1,91,116,117,-1,91,117,63,-1,118,69,119,-1,119,69,67,-1,119,67,120,-1,120,67,65,-1,120,65,121,-1,121,65,63,-1,121,63,117,-1,69,118,122,-1,69,122,71,-1,71,122,123,-1,71,123,73,-1,123,124,73,-1,73,124,125,-1,73,125,74,-1,74,125,126,-1,74,126,33,-1,33,126,127,-1,33,127,31,-1,26,31,128,-1,128,31,127,-1,24,26,129,-1,129,26,128,-1,25,24,130,-1,130,24,129,-1,27,25,131,-1,131,25,130,-1,27,131,132,-1,27,132,47,-1,47,132,133,-1,47,133,49,-1,49,133,134,-1,49,134,51,-1,51,134,135,-1,51,135,52,-1,52,135,136,-1,52,136,44,-1,44,136,137,-1,44,137,42,-1,42,137,92,-1,42,92,59,-1,77,138,139,-1,77,139,29,-1,29,139,140,-1,29,140,30,-1,30,140,141,-1,30,141,35,-1,85,142,143,-1,85,143,83,-1,83,143,144,-1,83,144,81,-1,81,144,145,-1,81,145,79,-1,79,145,138,-1,79,138,77,-1,64,146,147,-1,64,147,62,-1,62,147,148,-1,62,148,89,-1,89,148,149,-1,89,149,87,-1,87,149,142,-1,87,142,85,-1,70,150,151,-1,70,151,68,-1,68,151,152,-1,68,152,66,-1,66,152,146,-1,66,146,64,-1,41,153,154,-1,41,154,32,-1,32,154,155,-1,32,155,34,-1,34,155,156,-1,34,156,72,-1,72,156,150,-1,72,150,70,-1,37,157,158,-1,37,158,38,-1,38,158,159,-1,38,159,39,-1,39,159,160,-1,39,160,40,-1,40,160,153,-1,40,153,41,-1,37,36,157,-1,157,36,161,-1,36,35,161,-1,161,35,141,-1,
        ]
    }
}
Shape{
    appearance Appearance {
        material  Material {
            diffuseColor 0.5019607843137255 0.5019607843137255 0.5019607843137255
            specularColor 0.25098039215686274 0.25098039215686274 0.25098039215686274
            ambientIntensity 0.502
            transparency 0.0
            shininess 0.5
        }
    }
    geometry IndexedFaceSet {
        ccw TRUE
        solid FALSE
        coord DEF co Coordinate {
            point [
                0.3898 0.8052 0.1751, 0.3898 0.8052 0.1756, 0.4052 0.8052 0.1757, 0.3898 0.8052 0.1792, 0.3987 0.8052 0.178, 0.4029 0.8052 0.1771, 0.4044 0.8052 0.1763, 0.3902 0.8052 0.1722, 0.406 0.8052 0.1747, 0.3912 0.8052 0.1698, 0.4056 0.8052 0.167, 0.405 0.8052 0.1664, 0.3935 0.8052 0.167, 0.4063 0.8052 0.1681, 0.3954 0.8052 0.1657, 0.3974 0.8052 0.165, 0.3999 0.8052 0.1647, 0.4066 0.8052 0.1734, 0.4069 0.8052 0.1719, 0.3926 0.8052 0.1678, 0.4069 0.8052 0.1709, 0.4068 0.8052 0.1693, 0.4037 0.8052 0.1655, 0.4022 0.8052 0.1649
            ]
        }
        coordIndex [
            0,1,2,-1,1,3,4,-1,4,5,1,-1,1,5,6,-1,1,6,2,-1,0,2,7,-1,7,2,8,-1,7,8,9,-1,10,11,12,-1,10,12,13,-1,14,12,15,-1,15,12,16,-1,8,17,9,-1,9,17,18,-1,9,18,19,-1,19,18,20,-1,19,20,12,-1,12,20,21,-1,12,21,13,-1,11,22,12,-1,12,22,23,-1,12,23,16,-1,
        ]
    }
}
Shape{
    appearance Appearance {
        material  Material {
            diffuseColor 0.0 0.0 0.0
            specularColor 0.0 0.0 0.0
            ambientIntensity 0.0
            transparency 0.0
            shininess 0.5
        }
    }
    geometry IndexedFaceSet {
        ccw TRUE
        solid FALSE
        coord DEF co Coordinate {
            point [
                0.374 0.8052 0.1683, 0.374 0.8091 0.1683, 0.3716 0.8091 0.1668, 0.363 0.8091 0.1647, 0.363 0.8052 0.1647, 0.3674 0.8052 0.1652, 0.3674 0.8091 0.1652, 0.3709 0.8052 0.1666, 0.3716 0.8052 0.1668, 0.374 0.8091 0.1614, 0.374 0.8052 0.1614, 0.3709 0.8052 0.1604, 0.3693 0.8091 0.1598, 0.3637 0.8052 0.1592, 0.3637 0.8091 0.1592, 0.368 0.8052 0.1597, 0.3693 0.8052 0.1598, 0.3576 0.8091 0.1599, 0.3599 0.8052 0.1597, 0.3576 0.8052 0.1599, 0.3541 0.8052 0.1613, 0.3541 0.8091 0.1613, 0.3526 0.8052 0.1622, 0.3526 0.8091 0.1622, 0.3507 0.8052 0.1639, 0.3507 0.8091 0.1639, 0.3494 0.8052 0.1657, 0.3494 0.8091 0.1657, 0.3486 0.8052 0.1678, 0.3486 0.8091 0.1678, 0.3483 0.8052 0.1705, 0.3483 0.8091 0.1705, 0.3486 0.8052 0.173, 0.3486 0.8091 0.173, 0.3493 0.8052 0.1749, 0.3493 0.8091 0.1749, 0.3505 0.8052 0.1768, 0.3505 0.8091 0.1768, 0.3521 0.8052 0.1782, 0.3521 0.8091 0.1782, 0.3566 0.8052 0.1807, 0.3566 0.8091 0.1807, 0.3591 0.8052 0.1817, 0.3591 0.8091 0.1817, 0.3633 0.8052 0.1835, 0.3633 0.8091 0.1835, 0.3656 0.8052 0.185, 0.3656 0.8091 0.185, 0.3663 0.8052 0.1857, 0.3663 0.8091 0.1857, 0.3668 0.8052 0.1866, 0.3668 0.8091 0.1866, 0.367 0.8052 0.1877, 0.367 0.8091 0.1877, 0.3671 0.8052 0.1885, 0.3671 0.8091 0.1885, 0.367 0.8052 0.1896, 0.367 0.8091 0.1896, 0.3666 0.8052 0.1905, 0.3666 0.8091 0.1905, 0.3661 0.8052 0.1914, 0.3661 0.8091 0.1914, 0.3651 0.8052 0.1923, 0.3651 0.8091 0.1923, 0.3636 0.8052 0.193, 0.3636 0.8091 0.193, 0.3618 0.8052 0.1935, 0.3618 0.8091 0.1935, 0.3598 0.8052 0.1937, 0.3598 0.8091 0.1937, 0.3551 0.8052 0.1931, 0.3551 0.8091 0.1931, 0.3513 0.8052 0.1916, 0.3513 0.8091 0.1916, 0.3501 0.8052 0.1909, 0.3501 0.8091 0.1909, 0.3501 0.8091 0.1974, 0.3501 0.8052 0.1974, 0.3544 0.8052 0.1987, 0.3544 0.8091 0.1987, 0.3591 0.8052 0.1991, 0.3591 0.8091 0.1991, 0.3645 0.8052 0.1985, 0.3645 0.8091 0.1985, 0.3681 0.8052 0.1971, 0.3681 0.8091 0.1971, 0.3697 0.8052 0.1961, 0.3697 0.8091 0.1961, 0.3709 0.8052 0.195, 0.3717 0.8091 0.1943, 0.3717 0.8052 0.1943, 0.3729 0.8052 0.1925, 0.3729 0.8091 0.1925, 0.3737 0.8052 0.1903, 0.3737 0.8091 0.1903, 0.374 0.8052 0.1879, 0.374 0.8091 0.1879, 0.3737 0.8052 0.1853, 0.3737 0.8091 0.1853, 0.373 0.8052 0.1833, 0.373 0.8091 0.1833, 0.3721 0.8052 0.1819, 0.3721 0.8091 0.1819, 0.3639 0.8052 0.1769, 0.3639 0.8091 0.1769, 0.3678 0.8091 0.1787, 0.371 0.8052 0.1808, 0.371 0.8091 0.1808, 0.3709 0.8052 0.1807, 0.3678 0.8052 0.1787, 0.3595 0.8052 0.175, 0.3595 0.8091 0.175, 0.3569 0.8052 0.1734, 0.3569 0.8091 0.1734, 0.356 0.8052 0.1726, 0.356 0.8091 0.1726, 0.3555 0.8052 0.1717, 0.3555 0.8091 0.1717, 0.3552 0.8052 0.1707, 0.3552 0.8091 0.1707, 0.3551 0.8052 0.1698, 0.3551 0.8091 0.1698, 0.3553 0.8052 0.1685, 0.3553 0.8091 0.1685, 0.3556 0.8052 0.1676, 0.3556 0.8091 0.1676, 0.3562 0.8052 0.1667, 0.3562 0.8091 0.1667, 0.357 0.8052 0.166, 0.357 0.8091 0.166, 0.3576 0.8052 0.1657, 0.3576 0.8091 0.1657, 0.3593 0.8052 0.165, 0.3593 0.8091 0.165, 0.3627 0.8052 0.1647, 0.3627 0.8091 0.1647, 0.3151 0.8091 0.1982, 0.3082 0.8091 0.1982, 0.3151 0.8052 0.1982, 0.3082 0.8052 0.1982, 0.3255 0.8091 0.1695, 0.3255 0.8052 0.1695, 0.3261 0.8052 0.1677, 0.3261 0.8091 0.1677, 0.3264 0.8052 0.1664, 0.3264 0.8091 0.1664, 0.3265 0.8091 0.1664, 0.3265 0.8052 0.1664, 0.3274 0.8091 0.1696, 0.3274 0.8052 0.1696, 0.3373 0.8091 0.1982, 0.3341 0.8052 0.1889, 0.3373 0.8052 0.1982, 0.3448 0.8091 0.1982, 0.3448 0.8052 0.1982, 0.3298 0.8091 0.1602, 0.3341 0.8052 0.171, 0.3298 0.8052 0.1602, 0.3328 0.8052 0.1533, 0.3328 0.8091 0.1533, 0.3301 0.8052 0.1597, 0.3341 0.8052 0.1509, 0.3341 0.8091 0.1508, 0.3341 0.8052 0.1508, 0.3354 0.8052 0.1494, 0.3354 0.8091 0.1494, 0.3364 0.8052 0.1487, 0.3364 0.8091 0.1487, 0.3378 0.8052 0.1481, 0.3378 0.8091 0.1481, 0.3394 0.8052 0.1479, 0.3394 0.8091 0.1479, 0.3396 0.8052 0.1479, 0.3396 0.8091 0.1479, 0.3421 0.8052 0.1482, 0.3421 0.8091 0.1482, 0.3434 0.8052 0.1486, 0.3434 0.8091 0.1486, 0.3434 0.8091 0.1427, 0.3434 0.8052 0.1427, 0.3406 0.8052 0.1422, 0.3406 0.8091 0.1422, 0.3391 0.8052 0.1421, 0.3391 0.8091 0.1421, 0.3362 0.8052 0.1425, 0.3362 0.8091 0.1425, 0.3341 0.8052 0.1434, 0.3335 0.8091 0.1436, 0.3335 0.8052 0.1436, 0.3313 0.8052 0.1452, 0.3313 0.8091 0.1452, 0.3286 0.8052 0.1484, 0.3286 0.8091 0.1484, 0.3255 0.8052 0.1543, 0.3255 0.8091 0.1543, 0.3234 0.8052 0.1597, 0.2723 0.8091 0.1662, 0.2723 0.8091 0.1601, 0.2723 0.8052 0.1662, 0.2723 0.8052 0.1601, 0.2941 0.8091 0.1662, 0.2841 0.8052 0.1662, 0.2941 0.8052 0.1662, 0.2941 0.8091 0.1841, 0.2941 0.8052 0.1841, 0.275 0.8091 0.1841, 0.2841 0.8052 0.1841, 0.275 0.8052 0.1841, 0.275 0.8091 0.1903, 0.275 0.8052 0.1903, 0.2941 0.8052 0.1903, 0.2941 0.8091 0.1903, 0.2841 0.8052 0.1903, 0.2941 0.8091 0.2073, 0.2941 0.8052 0.2073, 0.2735 0.8052 0.2073, 0.2735 0.8091 0.2073, 0.2841 0.8052 0.2073, 0.2735 0.8091 0.2135, 0.2735 0.8052 0.2135, 0.301 0.8052 0.2135, 0.301 0.8091 0.2135, 0.2841 0.8052 0.2135, 0.301 0.8091 0.1601, 0.301 0.8052 0.1601, 0.2841 0.8052 0.1601, 0.2268 0.8091 0.1676, 0.2323 0.8091 0.1712, 0.2323 0.8091 0.1636, 0.2357 0.8091 0.1688, 0.2384 0.8091 0.1612, 0.2401 0.8091 0.1671, 0.2475 0.8091 0.1601, 0.2476 0.8091 0.1662, 0.2622 0.8091 0.1601, 0.2553 0.8091 0.1662, 0.2622 0.8091 0.2135, 0.2553 0.8091 0.2073, 0.247 0.8091 0.2135, 0.2473 0.8091 0.2073, 0.2388 0.8091 0.2126, 0.2404 0.8091 0.2066, 0.2324 0.8091 0.2102, 0.2358 0.8091 0.2049, 0.2268 0.8091 0.2064, 0.2318 0.8091 0.2023, 0.2249 0.8091 0.2046, 0.2304 0.8091 0.2009, 0.2216 0.8091 0.2, 0.2283 0.8091 0.1979, 0.2196 0.8091 0.1949, 0.2268 0.8091 0.194, 0.2187 0.8091 0.1875, 0.226 0.8091 0.1873, 0.2189 0.8091 0.1841, 0.2263 0.8091 0.1831, 0.2202 0.8091 0.1778, 0.2274 0.8091 0.1784, 0.2228 0.8091 0.1723, 0.2294 0.8091 0.1745, 0.2317 0.8091 0.1718, 0.2475 0.8052 0.1601, 0.2622 0.8052 0.1601, 0.2384 0.8052 0.1612, 0.2323 0.8052 0.1636, 0.2268 0.8052 0.1676, 0.2228 0.8052 0.1723, 0.2202 0.8052 0.1778, 0.2189 0.8052 0.1841, 0.2187 0.8052 0.1875, 0.2196 0.8052 0.1949, 0.2216 0.8052 0.2, 0.2249 0.8052 0.2046, 0.2268 0.8052 0.2064, 0.2324 0.8052 0.2102, 0.2388 0.8052 0.2126, 0.247 0.8052 0.2135, 0.2622 0.8052 0.2135, 0.2473 0.8052 0.2073, 0.2553 0.8052 0.2073, 0.2553 0.8052 0.1662, 0.2476 0.8052 0.1662, 0.2317 0.8052 0.1718, 0.2323 0.8052 0.1712, 0.2357 0.8052 0.1688, 0.2401 0.8052 0.1671, 0.226 0.8052 0.1873, 0.2263 0.8052 0.1831, 0.2274 0.8052 0.1784, 0.2294 0.8052 0.1745, 0.2318 0.8052 0.2023, 0.2304 0.8052 0.2009, 0.2283 0.8052 0.1979, 0.2268 0.8052 0.194, 0.2404 0.8052 0.2066, 0.2358 0.8052 0.2049
            ]
        }
        coordIndex [
            0,1,2,-1,3,4,5,-1,3,5,6,-1,6,5,7,-1,6,7,2,-1,2,7,8,-1,2,8,0,-1,9,1,10,-1,10,1,0,-1,10,11,9,-1,9,11,12,-1,13,14,15,-1,15,14,12,-1,15,12,16,-1,16,12,11,-1,14,13,17,-1,17,13,18,-1,18,19,17,-1,17,19,20,-1,17,20,21,-1,21,20,22,-1,21,22,23,-1,23,22,24,-1,23,24,25,-1,25,24,26,-1,25,26,27,-1,27,26,28,-1,27,28,29,-1,29,28,30,-1,29,30,31,-1,31,30,32,-1,31,32,33,-1,33,32,34,-1,33,34,35,-1,35,34,36,-1,35,36,37,-1,37,36,38,-1,37,38,39,-1,39,38,40,-1,39,40,41,-1,41,40,42,-1,41,42,43,-1,43,42,44,-1,43,44,45,-1,45,44,46,-1,45,46,47,-1,47,46,48,-1,47,48,49,-1,49,48,50,-1,49,50,51,-1,51,50,52,-1,51,52,53,-1,53,52,54,-1,53,54,55,-1,55,54,56,-1,55,56,57,-1,57,56,58,-1,57,58,59,-1,59,58,60,-1,59,60,61,-1,61,60,62,-1,61,62,63,-1,63,62,64,-1,63,64,65,-1,65,64,66,-1,65,66,67,-1,67,66,68,-1,67,68,69,-1,69,68,70,-1,69,70,71,-1,71,70,72,-1,71,72,73,-1,73,72,74,-1,73,74,75,-1,76,75,77,-1,77,75,74,-1,76,77,78,-1,76,78,79,-1,79,78,80,-1,79,80,81,-1,81,80,82,-1,81,82,83,-1,83,82,84,-1,83,84,85,-1,85,84,86,-1,85,86,87,-1,86,88,87,-1,87,88,89,-1,88,90,89,-1,89,90,91,-1,89,91,92,-1,92,91,93,-1,92,93,94,-1,94,93,95,-1,94,95,96,-1,96,95,97,-1,96,97,98,-1,98,97,99,-1,98,99,100,-1,100,99,101,-1,100,101,102,-1,103,104,105,-1,102,101,106,-1,102,106,107,-1,107,106,108,-1,107,108,105,-1,105,108,109,-1,105,109,103,-1,104,103,110,-1,104,110,111,-1,111,110,112,-1,111,112,113,-1,113,112,114,-1,113,114,115,-1,115,114,116,-1,115,116,117,-1,117,116,118,-1,117,118,119,-1,119,118,120,-1,119,120,121,-1,121,120,122,-1,121,122,123,-1,123,122,124,-1,123,124,125,-1,125,124,126,-1,125,126,127,-1,127,126,128,-1,127,128,129,-1,129,128,130,-1,129,130,131,-1,131,130,132,-1,131,132,133,-1,133,132,134,-1,133,134,135,-1,135,134,4,-1,135,4,3,-1,59,61,87,-1,87,61,85,-1,85,61,63,-1,85,63,83,-1,125,25,27,-1,111,43,104,-1,104,43,45,-1,125,27,123,-1,123,27,29,-1,123,29,121,-1,121,29,31,-1,121,31,119,-1,119,31,33,-1,119,33,117,-1,117,33,35,-1,117,35,115,-1,115,35,37,-1,115,37,113,-1,113,37,39,-1,113,39,111,-1,111,39,41,-1,111,41,43,-1,25,125,23,-1,23,125,127,-1,23,127,21,-1,14,3,12,-1,12,3,6,-1,12,6,9,-1,9,6,2,-1,9,2,1,-1,63,65,83,-1,83,65,67,-1,83,67,81,-1,81,67,69,-1,81,69,79,-1,79,69,71,-1,79,71,76,-1,76,71,73,-1,76,73,75,-1,127,129,21,-1,21,129,131,-1,21,131,17,-1,17,131,133,-1,17,133,14,-1,14,133,135,-1,14,135,3,-1,87,89,59,-1,59,89,92,-1,59,92,57,-1,57,92,94,-1,57,94,55,-1,55,94,96,-1,55,96,53,-1,53,96,98,-1,53,98,51,-1,51,98,100,-1,51,100,49,-1,49,100,102,-1,49,102,47,-1,47,102,107,-1,47,107,45,-1,45,107,105,-1,45,105,104,-1,136,137,138,-1,138,137,139,-1,140,136,141,-1,141,136,138,-1,140,141,142,-1,140,142,143,-1,143,142,144,-1,143,144,145,-1,146,145,147,-1,147,145,144,-1,148,146,149,-1,149,146,147,-1,148,149,150,-1,150,149,151,-1,150,151,152,-1,153,150,154,-1,154,150,152,-1,153,154,155,-1,155,154,156,-1,155,156,157,-1,158,159,160,-1,160,159,155,-1,160,155,157,-1,158,161,159,-1,159,161,162,-1,161,163,162,-1,162,163,164,-1,162,164,165,-1,165,164,166,-1,165,166,167,-1,167,166,168,-1,167,168,169,-1,169,168,170,-1,169,170,171,-1,171,170,172,-1,171,172,173,-1,173,172,174,-1,173,174,175,-1,175,174,176,-1,175,176,177,-1,178,177,179,-1,179,177,176,-1,178,179,180,-1,178,180,181,-1,181,180,182,-1,181,182,183,-1,183,182,184,-1,183,184,185,-1,185,184,186,-1,185,186,187,-1,186,188,187,-1,187,188,189,-1,187,189,190,-1,190,189,191,-1,190,191,192,-1,192,191,193,-1,192,193,194,-1,139,137,195,-1,195,137,194,-1,195,194,193,-1,143,145,194,-1,137,136,194,-1,194,136,140,-1,194,140,143,-1,150,153,148,-1,148,153,155,-1,148,155,146,-1,145,146,194,-1,194,146,155,-1,194,155,192,-1,155,159,192,-1,192,159,162,-1,192,162,190,-1,190,162,165,-1,190,165,187,-1,187,165,167,-1,187,167,185,-1,185,167,169,-1,185,169,183,-1,183,169,171,-1,183,171,181,-1,181,171,173,-1,181,173,178,-1,178,173,175,-1,178,175,177,-1,196,197,198,-1,198,197,199,-1,196,198,200,-1,200,198,201,-1,200,201,202,-1,203,200,204,-1,204,200,202,-1,203,204,205,-1,205,204,206,-1,205,206,207,-1,208,205,209,-1,209,205,207,-1,210,211,212,-1,212,211,208,-1,212,208,209,-1,213,211,214,-1,214,211,210,-1,215,216,217,-1,217,216,213,-1,217,213,214,-1,218,216,219,-1,219,216,215,-1,220,221,222,-1,222,221,218,-1,222,218,219,-1,223,221,224,-1,224,221,220,-1,223,224,197,-1,197,224,225,-1,197,225,199,-1,223,197,196,-1,196,200,223,-1,223,200,203,-1,223,203,221,-1,216,218,213,-1,213,218,221,-1,213,221,211,-1,211,221,203,-1,211,203,208,-1,208,203,205,-1,226,227,228,-1,228,227,229,-1,228,229,230,-1,230,229,231,-1,230,231,232,-1,232,231,233,-1,232,233,234,-1,234,233,235,-1,234,235,236,-1,236,235,237,-1,236,237,238,-1,238,237,239,-1,238,239,240,-1,240,239,241,-1,240,241,242,-1,242,241,243,-1,242,243,244,-1,244,243,245,-1,244,245,246,-1,246,245,247,-1,246,247,248,-1,248,247,249,-1,248,249,250,-1,250,249,251,-1,250,251,252,-1,252,251,253,-1,252,253,254,-1,254,253,255,-1,254,255,256,-1,256,255,257,-1,256,257,258,-1,258,257,259,-1,258,259,226,-1,226,259,260,-1,226,260,227,-1,232,234,261,-1,261,234,262,-1,232,261,263,-1,232,263,230,-1,230,263,264,-1,230,264,228,-1,228,264,265,-1,228,265,226,-1,226,265,266,-1,226,266,258,-1,258,266,267,-1,258,267,256,-1,256,267,268,-1,256,268,254,-1,254,268,269,-1,254,269,252,-1,252,269,270,-1,252,270,250,-1,250,270,271,-1,250,271,248,-1,248,271,272,-1,248,272,246,-1,246,272,273,-1,246,273,244,-1,244,273,274,-1,244,274,242,-1,242,274,275,-1,242,275,240,-1,240,275,276,-1,240,276,238,-1,236,238,277,-1,277,238,276,-1,234,236,262,-1,262,236,277,-1,239,237,278,-1,278,237,279,-1,237,235,279,-1,279,235,280,-1,235,233,280,-1,280,233,281,-1,260,282,283,-1,260,283,227,-1,227,283,284,-1,227,284,229,-1,229,284,285,-1,229,285,231,-1,231,285,281,-1,231,281,233,-1,253,286,287,-1,253,287,255,-1,255,287,288,-1,255,288,257,-1,257,288,289,-1,257,289,259,-1,259,289,282,-1,259,282,260,-1,245,290,291,-1,245,291,247,-1,247,291,292,-1,247,292,249,-1,249,292,293,-1,249,293,251,-1,251,293,286,-1,251,286,253,-1,239,278,294,-1,239,294,241,-1,241,294,295,-1,241,295,243,-1,243,295,290,-1,243,290,245,-1,
        ]
    }
}
Shape{
    appearance Appearance {
        material  Material {
            diffuseColor 0.5019607843137255 0.5019607843137255 0.5019607843137255
            specularColor 0.25098039215686274 0.25098039215686274 0.25098039215686274
            ambientIntensity 0.502
            transparency 0.0
            shininess 0.5
        }
    }
    geometry IndexedFaceSet {
        ccw TRUE
        solid FALSE
        coord DEF co Coordinate {
            point [
                0.2323 0.8052 0.1712, 0.2317 0.8052 0.1718, 0.2473 0.8052 0.2073, 0.2553 0.8052 0.2073, 0.2553 0.8052 0.1662, 0.2476 0.8052 0.1662, 0.2401 0.8052 0.1671, 0.2357 0.8052 0.1688, 0.2294 0.8052 0.1745, 0.2274 0.8052 0.1784, 0.2263 0.8052 0.1831, 0.226 0.8052 0.1873, 0.2268 0.8052 0.194, 0.2283 0.8052 0.1979, 0.2304 0.8052 0.2009, 0.2318 0.8052 0.2023, 0.2404 0.8052 0.2066, 0.2358 0.8052 0.2049
            ]
        }
        coordIndex [
            0,1,2,-1,3,4,2,-1,2,4,5,-1,5,6,2,-1,2,6,7,-1,2,7,0,-1,1,8,2,-1,2,8,9,-1,2,9,10,-1,10,11,2,-1,2,11,12,-1,2,12,13,-1,13,14,2,-1,2,14,15,-1,2,15,16,-1,16,15,17,-1,
        ]
    }
}
Shape{
    appearance Appearance {
        material  Material {
            diffuseColor 0.0 0.0 0.0
            specularColor 0.0 0.0 0.0
            ambientIntensity 0.0
            transparency 0.0
            shininess 0.5
        }
    }
    geometry IndexedFaceSet {
        ccw TRUE
        solid FALSE
        coord DEF co Coordinate {
            point [
                0.2009 0.8091 0.1807, 0.1929 0.8091 0.2029, 0.1955 0.8091 0.2135, 0.2158 0.8091 0.1601, 0.2082 0.8091 0.1601, 0.203 0.8091 0.1747, 0.1924 0.8091 0.2045, 0.192 0.8091 0.2067, 0.1881 0.8091 0.2135, 0.1918 0.8091 0.2067, 0.1914 0.8091 0.2044, 0.191 0.8091 0.2029, 0.1829 0.8091 0.1807, 0.1678 0.8091 0.1601, 0.1754 0.8091 0.1601, 0.1808 0.8091 0.1747, 0.1881 0.8052 0.2135, 0.1678 0.8052 0.1601, 0.1955 0.8052 0.2135, 0.2158 0.8052 0.1601, 0.2082 0.8052 0.1601, 0.203 0.8052 0.1747, 0.1808 0.8052 0.1747, 0.1754 0.8052 0.1601, 0.2009 0.8052 0.1807, 0.1829 0.8052 0.1807, 0.191 0.8052 0.2029, 0.1918 0.8052 0.2067, 0.1914 0.8052 0.2044, 0.192 0.8052 0.2067, 0.1929 0.8052 0.2029, 0.1924 0.8052 0.2045
            ]
        }
        coordIndex [
            0,1,2,-1,3,4,5,-1,1,6,2,-1,2,6,7,-1,2,7,8,-1,8,7,9,-1,8,9,10,-1,10,11,8,-1,8,11,12,-1,8,12,13,-1,14,13,15,-1,15,13,12,-1,15,12,5,-1,5,12,0,-1,5,0,3,-1,3,0,2,-1,8,13,16,-1,16,13,17,-1,2,8,18,-1,18,8,16,-1,3,2,19,-1,19,2,18,-1,4,3,20,-1,20,3,19,-1,5,4,21,-1,21,4,20,-1,15,5,22,-1,22,5,21,-1,14,15,23,-1,23,15,22,-1,13,14,17,-1,17,14,23,-1,0,12,24,-1,24,12,25,-1,12,11,25,-1,25,11,26,-1,9,27,28,-1,9,28,10,-1,10,28,26,-1,10,26,11,-1,9,7,27,-1,27,7,29,-1,1,30,31,-1,1,31,6,-1,6,31,29,-1,6,29,7,-1,1,0,30,-1,30,0,24,-1,
        ]
    }
}
Shape{
    appearance Appearance {
        material  Material {
            diffuseColor 0.5019607843137255 0.5019607843137255 0.5019607843137255
            specularColor 0.25098039215686274 0.25098039215686274 0.25098039215686274
            ambientIntensity 0.502
            transparency 0.0
            shininess 0.5
        }
    }
    geometry IndexedFaceSet {
        ccw TRUE
        solid FALSE
        coord DEF co Coordinate {
            point [
                0.1918 0.8052 0.2067, 0.192 0.8052 0.2067, 0.1914 0.8052 0.2044, 0.1924 0.8052 0.2045, 0.191 0.8052 0.2029, 0.1929 0.8052 0.2029, 0.1829 0.8052 0.1807, 0.2009 0.8052 0.1807
            ]
        }
        coordIndex [
            0,1,2,-1,2,1,3,-1,2,3,4,-1,4,3,5,-1,4,5,6,-1,6,5,7,-1,
        ]
    }
}
Shape{
    appearance Appearance {
        material  Material {
            diffuseColor 0.0 0.0 0.0
            specularColor 0.0 0.0 0.0
            ambientIntensity 0.0
            transparency 0.0
            shininess 0.5
        }
    }
    geometry IndexedFaceSet {
        ccw TRUE
        solid FALSE
        coord DEF co Coordinate {
            point [
                0.6846 0.8091 0.1525, 0.6789 0.8091 0.1456, 0.688 0.8091 0.1861, 0.5612 0.8091 0.2047, 0.573 0.8091 0.2248, 0.6239 0.8091 0.1983, 0.6495 0.8091 0.1869, 0.646 0.8091 0.1856, 0.6429 0.8091 0.1836, 0.6405 0.8091 0.1808, 0.6144 0.8091 0.1766, 0.6963 0.8091 0.1912, 0.6946 0.8091 0.1626, 0.6884 0.8091 0.1607, 0.6389 0.8091 0.1777, 0.638 0.8091 0.1742, 0.6144 0.8091 0.1728, 0.638 0.8091 0.1708, 0.5487 0.8091 0.2423, 0.5457 0.8091 0.2423, 0.5301 0.8091 0.2628, 0.5385 0.8091 0.2414, 0.5282 0.8091 0.2621, 0.5318 0.8091 0.2388, 0.5169 0.8091 0.2565, 0.5066 0.8091 0.2478, 0.6555 0.8091 0.2548, 0.6527 0.8091 0.2533, 0.6645 0.8091 0.281, 0.6471 0.8091 0.2649, 0.6567 0.8091 0.29, 0.6387 0.8091 0.2752, 0.6478 0.8091 0.2977, 0.6282 0.8091 0.2829, 0.6386 0.8091 0.3034, 0.656 0.8091 0.1869, 0.6614 0.8091 0.21, 0.6593 0.8091 0.1857, 0.6698 0.8091 0.2068, 0.6623 0.8091 0.1837, 0.6775 0.8091 0.2015, 0.6648 0.8091 0.181, 0.6838 0.8091 0.1943, 0.6666 0.8091 0.1777, 0.6674 0.8091 0.174, 0.5066 0.8091 0.177, 0.5243 0.8091 0.192, 0.5171 0.8091 0.1681, 0.5299 0.8091 0.1875, 0.5287 0.8091 0.1625, 0.5366 0.8091 0.1844, 0.5411 0.8091 0.1599, 0.5434 0.8091 0.1831, 0.5635 0.8091 0.1599, 0.5605 0.8091 0.1831, 0.5656 0.8091 0.1602, 0.5506 0.8091 0.2928, 0.5647 0.8091 0.2746, 0.5382 0.8091 0.2785, 0.5564 0.8091 0.2642, 0.5507 0.8091 0.2519, 0.7031 0.8091 0.1982, 0.7187 0.8091 0.1789, 0.7082 0.8091 0.1696, 0.7096 0.8091 0.2302, 0.7345 0.8091 0.2244, 0.7108 0.8091 0.221, 0.7347 0.8091 0.2203, 0.7103 0.8091 0.2152, 0.7331 0.8091 0.2067, 0.7076 0.8091 0.2059, 0.728 0.8091 0.1925, 0.72 0.8091 0.1803, 0.6622 0.8091 0.1611, 0.6591 0.8091 0.1591, 0.6715 0.8091 0.14, 0.6555 0.8091 0.1579, 0.6385 0.8091 0.2086, 0.6477 0.8091 0.2109, 0.6523 0.8091 0.2112, 0.526 0.8091 0.2347, 0.5216 0.8091 0.2298, 0.4989 0.8091 0.2369, 0.518 0.8091 0.2232, 0.4943 0.8091 0.2254, 0.5163 0.8091 0.216, 0.4925 0.8091 0.2131, 0.5161 0.8091 0.2127, 0.4944 0.8091 0.1993, 0.517 0.8091 0.2053, 0.4992 0.8091 0.1873, 0.5196 0.8091 0.1985, 0.5238 0.8091 0.1926, 0.6211 0.8091 0.3102, 0.6157 0.8091 0.2879, 0.6022 0.8091 0.3125, 0.6018 0.8091 0.2897, 0.5866 0.8091 0.3108, 0.5893 0.8091 0.2882, 0.5675 0.8091 0.3041, 0.5774 0.8091 0.2837, 0.5667 0.8091 0.2764, 0.664 0.8091 0.2579, 0.6688 0.8091 0.2815, 0.6728 0.8091 0.259, 0.6732 0.8091 0.2817, 0.6767 0.8091 0.2588, 0.6869 0.8091 0.2802, 0.6861 0.8091 0.2566, 0.701 0.8091 0.2751, 0.6946 0.8091 0.2521, 0.7137 0.8091 0.2665, 0.7011 0.8091 0.2462, 0.7168 0.8091 0.2635, 0.7064 0.8091 0.2387, 0.7253 0.8091 0.2529, 0.7317 0.8091 0.2394, 0.6647 0.8091 0.1638, 0.6664 0.8091 0.1668, 0.6674 0.8091 0.1703, 0.6527 0.8091 0.1872, 0.6305 0.8091 0.2043, 0.5624 0.8091 0.1834, 0.5715 0.8091 0.1639, 0.5706 0.8091 0.1629, 0.5613 0.8091 0.1832, 0.5681 0.8091 0.1612, 0.6628 0.8091 0.1363, 0.6538 0.8091 0.1349, 0.6527 0.8091 0.1576, 0.6523 0.8091 0.1349, 0.6494 0.8091 0.158, 0.6432 0.8091 0.136, 0.6461 0.8091 0.1592, 0.6347 0.8091 0.1392, 0.6431 0.8091 0.1612, 0.6271 0.8091 0.1445, 0.6407 0.8091 0.1639, 0.6213 0.8091 0.1511, 0.6389 0.8091 0.1671, 0.6168 0.8091 0.1596, 0.6146 0.8091 0.1689, 0.5745 0.8091 0.1717, 0.5742 0.8091 0.1689, 0.5732 0.8091 0.1663, 0.5656 0.8091 0.1831, 0.5682 0.8091 0.1821, 0.5745 0.8091 0.1729, 0.5706 0.8091 0.1805, 0.5724 0.8091 0.1784, 0.5738 0.8091 0.1758, 0.5628 0.8091 0.1835, 0.4925 0.8052 0.2131, 0.4943 0.8052 0.2254, 0.4956 0.8052 0.2287, 0.4989 0.8052 0.2369, 0.5066 0.8052 0.2478, 0.5169 0.8052 0.2565, 0.5282 0.8052 0.2621, 0.5301 0.8052 0.2628, 0.5382 0.8052 0.2785, 0.5506 0.8052 0.2928, 0.5593 0.8052 0.2986, 0.5675 0.8052 0.3041, 0.5866 0.8052 0.3108, 0.6022 0.8052 0.3125, 0.6478 0.8052 0.2977, 0.6463 0.8052 0.2986, 0.6386 0.8052 0.3034, 0.6211 0.8052 0.3102, 0.6567 0.8052 0.29, 0.6645 0.8052 0.281, 0.6688 0.8052 0.2815, 0.6732 0.8052 0.2817, 0.6869 0.8052 0.2802, 0.701 0.8052 0.2751, 0.7137 0.8052 0.2665, 0.7168 0.8052 0.2635, 0.7317 0.8052 0.2394, 0.7253 0.8052 0.2529, 0.7337 0.8052 0.2287, 0.7345 0.8052 0.2244, 0.7347 0.8052 0.2203, 0.7331 0.8052 0.2067, 0.728 0.8052 0.1925, 0.72 0.8052 0.1803, 0.7187 0.8052 0.1789, 0.7082 0.8052 0.1696, 0.6946 0.8052 0.1626, 0.6884 0.8052 0.1607, 0.6879 0.8052 0.1597, 0.6846 0.8052 0.1525, 0.6789 0.8052 0.1456, 0.6715 0.8052 0.14, 0.668 0.8052 0.1385, 0.6628 0.8052 0.1363, 0.6538 0.8052 0.1349, 0.6523 0.8052 0.1349, 0.6144 0.8052 0.1728, 0.6432 0.8052 0.136, 0.6366 0.8052 0.1385, 0.6347 0.8052 0.1392, 0.6271 0.8052 0.1445, 0.6213 0.8052 0.1511, 0.6168 0.8052 0.1596, 0.6168 0.8052 0.1597, 0.6146 0.8052 0.1689, 0.6144 0.8052 0.1766, 0.5612 0.8052 0.2047, 0.573 0.8052 0.2248, 0.6239 0.8052 0.1983, 0.6305 0.8052 0.2043, 0.6385 0.8052 0.2086, 0.6477 0.8052 0.2109, 0.6523 0.8052 0.2112, 0.6614 0.8052 0.21, 0.6698 0.8052 0.2068, 0.6775 0.8052 0.2015, 0.6838 0.8052 0.1943, 0.688 0.8052 0.1861, 0.6963 0.8052 0.1912, 0.7031 0.8052 0.1982, 0.7076 0.8052 0.2059, 0.7103 0.8052 0.2152, 0.7108 0.8052 0.221, 0.7098 0.8052 0.2287, 0.7096 0.8052 0.2302, 0.7064 0.8052 0.2387, 0.7011 0.8052 0.2462, 0.6946 0.8052 0.2521, 0.6861 0.8052 0.2566, 0.6767 0.8052 0.2588, 0.6728 0.8052 0.259, 0.664 0.8052 0.2579, 0.6555 0.8052 0.2548, 0.6527 0.8052 0.2533, 0.6471 0.8052 0.2649, 0.6387 0.8052 0.2752, 0.6282 0.8052 0.2829, 0.6157 0.8052 0.2879, 0.6018 0.8052 0.2897, 0.5893 0.8052 0.2882, 0.5774 0.8052 0.2837, 0.5667 0.8052 0.2764, 0.5647 0.8052 0.2746, 0.5564 0.8052 0.2642, 0.5507 0.8052 0.2519, 0.5487 0.8052 0.2423, 0.5457 0.8052 0.2423, 0.5385 0.8052 0.2414, 0.5318 0.8052 0.2388, 0.526 0.8052 0.2347, 0.5216 0.8052 0.2298, 0.521 0.8052 0.2287, 0.518 0.8052 0.2232, 0.5163 0.8052 0.216, 0.5161 0.8052 0.2127, 0.517 0.8052 0.2053, 0.5196 0.8052 0.1985, 0.5238 0.8052 0.1926, 0.5243 0.8052 0.192, 0.5299 0.8052 0.1875, 0.5366 0.8052 0.1844, 0.5434 0.8052 0.1831, 0.5605 0.8052 0.1831, 0.5613 0.8052 0.1832, 0.5624 0.8052 0.1834, 0.5628 0.8052 0.1835, 0.5656 0.8052 0.1831, 0.5682 0.8052 0.1821, 0.5706 0.8052 0.1805, 0.5724 0.8052 0.1784, 0.5738 0.8052 0.1758, 0.5745 0.8052 0.1729, 0.5745 0.8052 0.1717, 0.5742 0.8052 0.1689, 0.5732 0.8052 0.1663, 0.5715 0.8052 0.1639, 0.5706 0.8052 0.1629, 0.5681 0.8052 0.1612, 0.5656 0.8052 0.1602, 0.5635 0.8052 0.1599, 0.5411 0.8052 0.1599, 0.5287 0.8052 0.1625, 0.5171 0.8052 0.1681, 0.5066 0.8052 0.177, 0.4992 0.8052 0.1873, 0.4944 0.8052 0.1993, 0.6527 0.8052 0.1872, 0.6495 0.8052 0.1869, 0.646 0.8052 0.1856, 0.6429 0.8052 0.1836, 0.6405 0.8052 0.1808, 0.6389 0.8052 0.1777, 0.638 0.8052 0.1742, 0.638 0.8052 0.1708, 0.6389 0.8052 0.1671, 0.6407 0.8052 0.1639, 0.6431 0.8052 0.1612, 0.6461 0.8052 0.1592, 0.6494 0.8052 0.158, 0.6527 0.8052 0.1576, 0.6555 0.8052 0.1579, 0.6591 0.8052 0.1591, 0.6622 0.8052 0.1611, 0.6647 0.8052 0.1638, 0.6664 0.8052 0.1668, 0.6674 0.8052 0.1703, 0.6674 0.8052 0.174, 0.6666 0.8052 0.1777, 0.6648 0.8052 0.181, 0.6623 0.8052 0.1837, 0.6593 0.8052 0.1857, 0.656 0.8052 0.1869
            ]
        }
        coordIndex [
            0,1,2,-1,3,4,5,-1,6,7,3,-1,7,8,3,-1,3,8,9,-1,3,9,10,-1,11,12,2,-1,2,12,13,-1,2,13,0,-1,9,14,10,-1,10,14,15,-1,10,15,16,-1,16,15,17,-1,18,19,20,-1,20,19,21,-1,20,21,22,-1,22,21,23,-1,22,23,24,-1,24,23,25,-1,26,27,28,-1,28,27,29,-1,28,29,30,-1,30,29,31,-1,30,31,32,-1,32,31,33,-1,32,33,34,-1,35,36,37,-1,37,36,38,-1,37,38,39,-1,39,38,40,-1,39,40,41,-1,41,40,42,-1,41,42,43,-1,43,42,2,-1,43,2,44,-1,45,46,47,-1,47,46,48,-1,47,48,49,-1,49,48,50,-1,49,50,51,-1,51,50,52,-1,51,52,53,-1,53,52,54,-1,53,54,55,-1,56,57,58,-1,58,57,59,-1,58,59,20,-1,20,59,60,-1,20,60,18,-1,61,62,11,-1,11,62,63,-1,11,63,12,-1,64,65,66,-1,66,65,67,-1,66,67,68,-1,68,67,69,-1,68,69,70,-1,70,69,71,-1,70,71,61,-1,61,71,72,-1,61,72,62,-1,73,1,74,-1,74,1,75,-1,74,75,76,-1,77,78,35,-1,35,78,79,-1,35,79,36,-1,23,80,25,-1,25,80,81,-1,25,81,82,-1,82,81,83,-1,82,83,84,-1,84,83,85,-1,84,85,86,-1,86,85,87,-1,86,87,88,-1,88,87,89,-1,88,89,90,-1,90,89,91,-1,90,91,45,-1,45,91,92,-1,45,92,46,-1,34,33,93,-1,93,33,94,-1,93,94,95,-1,95,94,96,-1,95,96,97,-1,97,96,98,-1,97,98,99,-1,99,98,100,-1,99,100,56,-1,56,100,101,-1,56,101,57,-1,26,28,102,-1,102,28,103,-1,102,103,104,-1,104,103,105,-1,104,105,106,-1,106,105,107,-1,106,107,108,-1,108,107,109,-1,108,109,110,-1,110,109,111,-1,110,111,112,-1,112,111,113,-1,112,113,114,-1,114,113,115,-1,114,115,64,-1,64,115,116,-1,64,116,65,-1,73,117,1,-1,1,117,118,-1,1,118,2,-1,2,118,119,-1,2,119,44,-1,6,3,120,-1,120,3,5,-1,120,5,35,-1,35,5,121,-1,35,121,77,-1,122,123,124,-1,54,125,55,-1,55,125,122,-1,55,122,126,-1,126,122,124,-1,75,127,76,-1,76,127,128,-1,76,128,129,-1,129,128,130,-1,129,130,131,-1,131,130,132,-1,131,132,133,-1,133,132,134,-1,133,134,135,-1,135,134,136,-1,135,136,137,-1,137,136,138,-1,137,138,139,-1,139,138,140,-1,139,140,17,-1,17,140,141,-1,17,141,16,-1,142,143,122,-1,122,143,144,-1,122,144,123,-1,145,146,147,-1,146,148,147,-1,147,148,149,-1,147,149,150,-1,142,122,147,-1,147,122,151,-1,147,151,145,-1,86,152,153,-1,86,153,84,-1,84,153,154,-1,84,154,82,-1,154,155,82,-1,82,155,156,-1,82,156,25,-1,25,156,157,-1,25,157,24,-1,24,157,158,-1,24,158,22,-1,22,158,159,-1,22,159,20,-1,20,159,160,-1,20,160,58,-1,58,160,161,-1,58,161,56,-1,56,161,99,-1,99,161,162,-1,162,163,99,-1,99,163,164,-1,99,164,97,-1,97,164,165,-1,97,165,95,-1,166,32,167,-1,167,32,34,-1,167,34,168,-1,168,34,93,-1,168,93,169,-1,169,93,95,-1,169,95,165,-1,32,166,170,-1,32,170,30,-1,30,170,171,-1,30,171,28,-1,28,171,172,-1,28,172,103,-1,103,172,173,-1,103,173,105,-1,105,173,174,-1,105,174,107,-1,107,174,175,-1,107,175,109,-1,109,175,176,-1,109,176,111,-1,111,176,177,-1,111,177,113,-1,178,115,179,-1,179,115,113,-1,179,113,177,-1,180,65,178,-1,178,65,116,-1,178,116,115,-1,180,181,65,-1,65,181,182,-1,65,182,67,-1,67,182,183,-1,67,183,69,-1,69,183,184,-1,69,184,71,-1,71,184,185,-1,71,185,72,-1,72,185,186,-1,72,186,62,-1,62,186,187,-1,62,187,63,-1,63,187,188,-1,63,188,12,-1,12,188,189,-1,12,189,13,-1,13,189,190,-1,13,190,0,-1,190,191,0,-1,0,191,192,-1,0,192,1,-1,1,192,193,-1,1,193,75,-1,75,193,194,-1,75,194,127,-1,194,195,127,-1,127,195,196,-1,127,196,128,-1,128,196,197,-1,128,197,130,-1,198,16,141,-1,130,197,199,-1,130,199,132,-1,132,199,200,-1,132,200,134,-1,200,201,134,-1,134,201,202,-1,134,202,136,-1,136,202,203,-1,136,203,138,-1,138,203,204,-1,138,204,140,-1,140,204,205,-1,140,205,141,-1,141,205,206,-1,141,206,198,-1,10,16,207,-1,207,16,198,-1,3,10,208,-1,208,10,207,-1,4,3,209,-1,209,3,208,-1,5,4,210,-1,210,4,209,-1,5,210,211,-1,5,211,121,-1,121,211,212,-1,121,212,77,-1,77,212,213,-1,77,213,78,-1,78,213,214,-1,78,214,79,-1,79,214,215,-1,79,215,36,-1,36,215,216,-1,36,216,38,-1,38,216,217,-1,38,217,40,-1,40,217,218,-1,40,218,42,-1,42,218,219,-1,42,219,2,-1,2,219,220,-1,2,220,11,-1,11,220,221,-1,11,221,61,-1,61,221,222,-1,61,222,70,-1,70,222,223,-1,70,223,68,-1,68,223,224,-1,68,224,66,-1,224,225,66,-1,66,225,64,-1,225,226,64,-1,64,226,227,-1,64,227,114,-1,114,227,228,-1,114,228,112,-1,112,228,229,-1,112,229,110,-1,110,229,230,-1,110,230,108,-1,108,230,231,-1,108,231,106,-1,106,231,232,-1,106,232,104,-1,104,232,233,-1,104,233,102,-1,102,233,234,-1,102,234,26,-1,26,234,235,-1,26,235,27,-1,27,235,236,-1,27,236,29,-1,29,236,237,-1,29,237,31,-1,31,237,238,-1,31,238,33,-1,33,238,239,-1,33,239,94,-1,94,239,240,-1,94,240,96,-1,96,240,241,-1,96,241,98,-1,98,241,242,-1,98,242,100,-1,100,242,243,-1,100,243,101,-1,101,243,244,-1,101,244,57,-1,57,244,245,-1,57,245,59,-1,59,245,246,-1,59,246,60,-1,60,246,247,-1,60,247,18,-1,19,18,248,-1,248,18,247,-1,19,248,249,-1,19,249,21,-1,21,249,250,-1,21,250,23,-1,23,250,251,-1,23,251,80,-1,80,251,252,-1,80,252,81,-1,81,252,253,-1,81,253,83,-1,253,254,83,-1,83,254,255,-1,83,255,85,-1,85,255,256,-1,85,256,87,-1,87,256,257,-1,87,257,89,-1,89,257,258,-1,89,258,91,-1,91,258,259,-1,91,259,92,-1,92,259,260,-1,92,260,46,-1,46,260,261,-1,46,261,48,-1,48,261,262,-1,48,262,50,-1,50,262,263,-1,50,263,52,-1,54,52,264,-1,264,52,263,-1,54,264,265,-1,54,265,125,-1,125,265,266,-1,125,266,122,-1,122,266,267,-1,122,267,151,-1,151,267,268,-1,151,268,145,-1,145,268,269,-1,145,269,146,-1,146,269,270,-1,146,270,148,-1,148,270,271,-1,148,271,149,-1,149,271,272,-1,149,272,150,-1,150,272,273,-1,150,273,147,-1,147,273,274,-1,147,274,142,-1,142,274,275,-1,142,275,143,-1,143,275,276,-1,143,276,144,-1,144,276,277,-1,144,277,123,-1,123,277,278,-1,123,278,124,-1,124,278,279,-1,124,279,126,-1,126,279,280,-1,126,280,55,-1,55,280,281,-1,55,281,53,-1,51,53,282,-1,282,53,281,-1,51,282,283,-1,51,283,49,-1,49,283,284,-1,49,284,47,-1,47,284,285,-1,47,285,45,-1,45,285,286,-1,45,286,90,-1,90,286,287,-1,90,287,88,-1,88,287,152,-1,88,152,86,-1,120,288,289,-1,120,289,6,-1,6,289,290,-1,6,290,7,-1,7,290,291,-1,7,291,8,-1,8,291,292,-1,8,292,9,-1,9,292,293,-1,9,293,14,-1,14,293,294,-1,14,294,15,-1,15,294,295,-1,15,295,17,-1,17,295,296,-1,17,296,139,-1,139,296,297,-1,139,297,137,-1,137,297,298,-1,137,298,135,-1,135,298,299,-1,135,299,133,-1,133,299,300,-1,133,300,131,-1,131,300,301,-1,131,301,129,-1,129,301,302,-1,129,302,76,-1,76,302,303,-1,76,303,74,-1,74,303,304,-1,74,304,73,-1,73,304,305,-1,73,305,117,-1,117,305,306,-1,117,306,118,-1,118,306,307,-1,118,307,119,-1,119,307,308,-1,119,308,44,-1,44,308,309,-1,44,309,43,-1,43,309,310,-1,43,310,41,-1,41,310,311,-1,41,311,39,-1,39,311,312,-1,39,312,37,-1,37,312,313,-1,37,313,35,-1,35,313,288,-1,35,288,120,-1,
        ]
    }
}
Shape{
    appearance Appearance {
        material  Material {
            diffuseColor 0.5019607843137255 0.5019607843137255 0.5019607843137255
            specularColor 0.25098039215686274 0.25098039215686274 0.25098039215686274
            ambientIntensity 0.502
            transparency 0.0
            shininess 0.5
        }
    }
    geometry IndexedFaceSet {
        ccw TRUE
        solid FALSE
        coord DEF co Coordinate {
            point [
                0.6555 0.8052 0.1579, 0.6527 0.8052 0.1576, 0.6527 0.8052 0.1872, 0.6494 0.8052 0.158, 0.6593 0.8052 0.1857, 0.6647 0.8052 0.1638, 0.6622 0.8052 0.1611, 0.6407 0.8052 0.1639, 0.6389 0.8052 0.1671, 0.638 0.8052 0.1708, 0.6389 0.8052 0.1777, 0.6405 0.8052 0.1808, 0.6429 0.8052 0.1836, 0.6664 0.8052 0.1668, 0.6623 0.8052 0.1837, 0.6674 0.8052 0.1703, 0.656 0.8052 0.1869, 0.6591 0.8052 0.1591, 0.646 0.8052 0.1856, 0.6495 0.8052 0.1869, 0.638 0.8052 0.1742, 0.6461 0.8052 0.1592, 0.6431 0.8052 0.1612, 0.6674 0.8052 0.174, 0.6648 0.8052 0.181, 0.6666 0.8052 0.1777
            ]
        }
        coordIndex [
            0,1,2,-1,2,1,3,-1,4,5,6,-1,7,8,9,-1,10,11,3,-1,3,11,12,-1,5,4,13,-1,13,4,14,-1,13,14,15,-1,2,16,0,-1,0,16,4,-1,0,4,17,-1,17,4,6,-1,12,18,3,-1,3,18,19,-1,3,19,2,-1,10,3,20,-1,20,3,21,-1,20,21,9,-1,9,21,22,-1,9,22,7,-1,15,14,23,-1,23,14,24,-1,23,24,25,-1,
        ]
    }
}