#VRML V2.0 utf8
# 3D model generated by kicad-lcsc-manager
# Based on easyeda2kicad.py v1.0.1

Shape{
    appearance Appearance {
        material  Material {
            diffuseColor 1.0 0.9411764705882353 0.8117647058823529
            specularColor 0.30196078431372547 0.2823529411764706 0.24313725490196078
            ambientIntensity 0.944
            transparency 0.0
            shininess 0.5
        }
    }
    geometry IndexedFaceSet {
        ccw TRUE
        solid FALSE
        coord DEF co Coordinate {
            point [
                0.2756 -0.5118 0.0472, 0.2756 -0.6693 0.0472, -0.06 -0.6693 0.0472, 1.9685 -0.6693 0.0472, 1.2992 -0.6693 0.0472, 1.2992 -0.5118 0.0472, 2.3622 -0.273 0.0472, 2.3622 -1.2992 0.0472, 1.9685 -1.2992 0.0472, 0.169 -0.273 0.0472, 1.063 -0.6693 0.0472, 0.5118 -0.6693 0.0472, 1.063 -0.5118 0.0472, 0.5118 -0.5118 0.0472, 0.1441 -0.273 0.0472, 0.152 -0.2741 0.0472, 0.1574 -0.2742 0.0472, -0.036 -0.0749 0.0472, -0.036 -0.0965 0.0472, -0.0408 -0.2502 0.0472, 0.1032 -0.2616 0.0472, 0.0648 -0.2718 0.0472, 0.1032 -0.24 0.0472, 0.0648 -0.0749 0.0472, 0.1242 -0.2702 0.0472, -0.06 -0.273 0.0472, -0.06 1.6929 0.0472, 2.0669 1.6929 0.0472, 2.0669 1.6785 0.0472, -0.0408 -0.2718 0.0472, 0.3673 -0.2718 0.0472, 2.0669 0.5118 0.0472, 2.3622 0.5118 0.0472, 0.0384 -0.1829 0.0472, 0.0384 -0.2502 0.0472, -0.0312 -0.1829 0.0472, -0.0312 -0.1613 0.0472, 0.0384 -0.1613 0.0472, 0.0384 -0.0965 0.0472, 0.2393 -0.1268 0.0472, 0.2277 -0.1084 0.0472, 0.3409 -0.0749 0.0472, 0.2665 -0.2718 0.0472, 0.1816 -0.2717 0.0472, 0.2007 -0.2651 0.0472, 0.1687 -0.0963 0.0472, 0.1834 -0.1016 0.0472, 0.1068 -0.2419 0.0472, 0.1971 -0.1107 0.0472, 0.209 -0.1239 0.0472, 0.2233 -0.1754 0.0472, 0.2213 -0.1968 0.0472, 0.2159 -0.2137 0.0472, 0.1721 -0.2505 0.0472, 0.1538 -0.2526 0.0472, 0.1865 -0.2452 0.0472, 0.1985 -0.2371 0.0472, 0.2078 -0.2273 0.0472, 0.1276 -0.2497 0.0472, 2.0669 0.5499 0.0472, 0.3673 -0.0749 0.0472, 0.21 -0.0913 0.0472, 0.2171 -0.1391 0.0472, 0.2223 -0.1601 0.0472, 0.2166 -0.255 0.0472, 0.2313 -0.2394 0.0472, 0.2665 -0.2502 0.0472, 0.2418 -0.2207 0.0472, 0.3409 -0.2502 0.0472, 0.2478 -0.1999 0.0472, 0.2497 -0.1771 0.0472, 0.2468 -0.1491 0.0472, 0.1913 -0.0805 0.0472, 0.1693 -0.0741 0.0472, 0.1496 -0.0725 0.0472, 0.126 -0.0741 0.0472, 0.1032 -0.0803 0.0472, 0.1032 -0.1067 0.0472, 0.1254 -0.0972 0.0472, 0.1493 -0.0941 0.0472, -0.2521 -0.2718 0.0472, -0.2278 -0.2178 0.0472, -0.2165 -0.2354 0.0472, -0.4009 -0.2718 0.0472, -0.4297 -0.2718 0.0472, -2.3622 -0.273 0.0472, -0.2003 -0.2509 0.0472, -0.1798 -0.2629 0.0472, -0.1571 -0.2696 0.0472, -0.3265 -0.0749 0.0472, -2.0669 1.6929 0.0472, -0.3529 -0.0749 0.0472, -2.0669 1.6785 0.0472, -0.1327 -0.2718 0.0472, -0.0792 -0.2718 0.0472, -0.0792 -0.0749 0.0472, -0.1348 -0.0749 0.0472, -0.2079 -0.1006 0.0472, -0.2218 -0.116 0.0472, -0.2309 -0.1329 0.0472, -2.3622 0.5118 0.0472, -2.0669 0.5118 0.0472, -2.0669 0.5499 0.0472, -0.2809 -0.2718 0.0472, -0.2997 -0.2166 0.0472, -0.381 -0.2166 0.0472, -0.1632 -0.078 0.0472, -0.1862 -0.086 0.0472, -0.2077 -0.1004 0.0472, -0.2362 -0.1523 0.0472, -0.2377 -0.1709 0.0472, -0.2349 -0.1972 0.0472, -0.2756 -0.6693 0.0472, -0.5118 -0.6693 0.0472, -1.063 -0.6693 0.0472, -0.5118 -0.5118 0.0472, -1.063 -0.5118 0.0472, -0.2756 -0.5118 0.0472, -1.2992 -0.5118 0.0472, -1.9685 -1.2992 0.0472, -2.3622 -1.2992 0.0472, -1.9685 -0.6693 0.0472, -1.2992 -0.6693 0.0472, -2.3622 -0.6693 2.2126, -2.3622 -0.6693 1.6125, -1.9685 -0.6693 1.6125, 0.8661 -0.6693 2.0551, 0.8661 -0.6693 1.6614, 1.063 -0.6693 1.4252, -0.5118 -0.6693 1.0709, -0.5118 -0.6693 1.4252, -0.8661 -0.6693 1.6614, -0.2756 -0.6693 1.4252, -1.9685 -0.6693 1.0709, -1.2992 -0.6693 1.0709, -1.2992 -0.6693 1.4252, 2.3622 -0.6693 2.2126, 1.6535 -0.6693 2.2126, 1.6535 -0.6693 1.8976, -1.063 -0.6693 1.4252, -1.3386 -0.6693 1.8976, -1.6535 -0.6693 1.8976, -1.6535 -0.6693 2.2126, 1.2992 -0.6693 1.4252, 1.3386 -0.6693 1.8976, 1.3386 -0.6693 2.2126, -0.8661 -0.6693 2.0551, -1.3386 -0.6693 2.2126, -1.063 -0.6693 1.0709, 2.3622 -0.6693 1.6125, 1.9685 -0.6693 1.6125, 1.9685 -0.6693 1.0709, 1.2992 -0.6693 1.0709, -0.2756 -0.6693 1.0709, 0.2756 -0.6693 1.0709, 0.2756 -0.6693 1.4252, 0.5118 -0.6693 1.4252, 0.5118 -0.6693 1.0709, 1.063 -0.6693 1.0709, 0.5118 -0.6693 0.4409, 1.063 -0.6693 0.4409, -1.9685 -0.6693 0.4409, -1.2992 -0.6693 0.4409, -1.063 -0.6693 0.4409, -0.5118 -0.6693 0.4409, 1.2992 -0.6693 0.4409, 1.9685 -0.6693 0.4409, 0.2756 -0.5118 1.0709, 0.2756 -0.5118 1.4252, 0.5118 -0.5118 0.4409, -1.2992 -0.5118 1.0709, -1.2992 -0.5118 1.4252, -1.063 -0.5118 0.4409, -0.5118 -0.5118 0.4409, -0.2756 -0.5118 1.0709, -0.2756 -0.5118 1.4252, 1.063 -0.5118 0.4409, 1.2992 -0.5118 0.4409, -2.0669 0.546 0.0584, -2.0669 0.5118 0.3622, -2.0669 0.5433 0.3622, -2.0669 0.5433 0.0787, 2.0669 1.6824 0.0584, 2.0669 1.6267 0.9824, 2.0669 1.6457 0.9745, 2.0669 1.6929 1.1102, 2.0669 1.662 0.962, 2.0669 1.6745 0.9457, 2.0669 1.4961 1.1102, 2.0669 1.4961 0.9851, 2.0669 1.6063 0.9851, 2.0669 1.6824 0.9267, 2.0669 1.685 0.9064, 2.0669 1.685 0.0787, 2.0669 0.5118 0.3622, 2.0669 0.5433 0.3622, 2.185 0.5433 0.3622, 2.185 1.4961 0.3622, 2.3622 1.4961 0.3622, 2.3622 0.5118 0.3622, 2.185 1.4961 0.9851, 2.3622 1.4961 1.1102, -0.935 0.3858 1.9567, -1.122 0.3858 1.9567, -1.122 1.6142 1.9567, 1.122 1.6142 1.9567, 1.122 0.3858 1.9567, 0.935 0.3858 1.9567, 0.1476 0.3858 1.9567, 0.6398 0.3858 1.9567, 0.6398 0.3071 1.9567, 0.935 0.3071 1.9567, -0.6398 0.3858 1.9567, -0.6398 0.3071 1.9567, -0.935 0.3071 1.9567, -0.1476 0.3858 1.9567, -0.1476 0.3071 1.9567, 0.1476 0.3071 1.9567, -1.7126 0.3071 0.2835, -1.7126 0.3071 1.8189, -1.4272 0.3071 1.8189, -1.4272 0.3071 0.9331, -0.935 0.3071 0.9331, 1.7126 0.3071 0.2835, -0.1476 0.3071 0.9331, 0.1476 0.3071 0.9331, 0.6398 0.3071 0.9331, -0.6398 0.3071 0.9331, 1.4272 0.3071 1.8189, 1.7126 0.3071 1.8189, 1.4272 0.3071 0.9331, 0.935 0.3071 0.9331, -1.122 1.6142 1.8189, -1.122 0.3858 1.8189, -1.4272 0.3858 1.8189, -1.7126 1.6142 1.8189, 1.4272 0.3858 1.8189, 1.122 0.3858 1.8189, 1.122 1.6142 1.8189, 1.7126 1.6142 1.8189, -1.9685 -1.2992 1.2283, -2.3622 -1.2992 1.2283, -1.7126 1.6142 1.4252, -1.7126 1.1024 1.4252, -1.7913 1.6929 1.4252, -2.0669 1.1024 1.4252, -2.0669 1.6929 1.4252, -1.7126 1.1024 1.1102, -2.0669 1.1024 1.1102, -1.7913 1.6929 1.1102, -2.0669 1.6929 1.1102, -1.7126 1.6142 1.1102, -2.0669 1.4961 1.1102, -2.3622 -0.5102 1.1102, -2.0669 -0.5102 1.1102, -2.3622 1.4961 1.1102, 1.7126 1.1024 1.4252, 1.7126 1.6142 1.4252, 2.0669 1.1024 1.4252, 1.7913 1.6929 1.4252, 2.0669 1.6929 1.4252, 1.7126 1.1024 1.1102, 2.0669 1.1024 1.1102, -1.2008 1.6929 2.0354, -1.2008 1.6929 1.8976, -1.7913 1.6929 1.8976, 1.6535 1.6929 2.0551, 1.7913 1.6929 1.8976, 1.3386 1.6929 2.0551, 1.2008 1.6929 1.8976, 1.3386 1.6929 2.2126, 1.2008 1.6929 2.0354, -2.0669 1.6929 2.2126, 1.6535 1.6929 2.2126, 2.0669 1.6929 2.2126, 2.3622 -0.5102 1.4707, 2.3622 0.4597 1.4707, 2.3622 0.4597 1.937, 2.3622 -0.5102 1.1102, 2.3622 1.4528 1.937, 2.3622 1.4528 2.2126, 2.3622 -1.2992 1.2283, 1.7913 1.6929 0.2047, 1.7913 1.6929 1.1102, -1.7913 1.6929 0.2047, -2.0669 1.4528 2.2126, -2.3622 1.4528 2.2126, -1.6535 1.2205 2.2126, -1.3386 1.2205 2.2126, 1.3386 1.2205 2.2126, 1.6535 1.2205 2.2126, 1.6535 1.4173 2.2126, 1.3386 1.4173 2.2126, 2.0669 1.4528 2.2126, 2.0669 -0.5102 1.1102, 1.7126 1.6142 1.1102, 2.0669 0.4597 1.937, 2.0669 1.4528 1.937, -2.3622 1.4528 1.937, -2.0669 1.4528 1.937, -2.3622 0.4597 1.937, -2.0669 0.4597 1.937, -2.0669 -0.5102 1.4707, -2.3622 -0.5102 1.4707, -2.3622 0.4597 1.4707, -2.3622 1.4961 0.3622, -2.3622 0.5118 0.3622, 1.9685 -1.2992 1.2283, 0.2756 -0.6693 0.4409, -0.2756 -0.6693 0.4409, -2.0669 0.4597 1.4707, -2.0669 1.6824 0.0584, -2.0669 1.6745 0.9457, -2.0669 1.662 0.962, -2.0669 1.6457 0.9745, -2.0669 1.685 0.0787, -2.0669 1.685 0.9064, -2.0669 1.6824 0.9267, -2.0669 1.4961 0.9851, -2.0669 1.6063 0.9851, -2.0669 1.6267 0.9824, -2.185 1.4961 0.3622, -2.185 1.4961 0.9851, -2.185 0.5433 0.3622, 2.0669 -0.5102 1.4707, 2.0669 0.4597 1.4707, 2.0669 0.5433 0.0787, 2.0669 0.546 0.0584, 1.6535 1.2205 1.8976, 1.3386 1.2205 1.8976, -1.6535 1.2205 1.8976, -1.3386 1.2205 1.8976, 1.3386 1.4173 2.0551, 1.6535 1.4173 2.0551, -1.7126 1.6142 0.2835, 1.7126 1.6142 0.2835, -1.9685 -0.5118 1.0709, -1.9685 -0.5118 0.4409, 1.9685 -0.5118 0.4409, 1.9685 -0.5118 1.0709, 0.2756 -0.5118 0.4409, 0.5118 -0.5118 1.0709, 0.5118 -0.5118 1.4252, 1.0827 -0.5118 1.1693, 1.0827 -0.5118 1.3661, 1.063 -0.5118 1.4252, 1.2992 -0.5118 1.4252, 1.063 -0.5118 1.0709, 1.2992 -0.5118 1.0709, 1.2795 -0.5118 1.1693, 1.2795 -0.5118 1.3661, -1.2992 -0.5118 0.4409, -1.063 -0.5118 1.4252, -1.0827 -0.5118 1.1693, -1.063 -0.5118 1.0709, -1.2795 -0.5118 1.1693, -0.5118 -0.5118 1.0709, -1.2795 -0.5118 1.3661, -1.0827 -0.5118 1.3661, -0.2953 -0.5118 1.1693, -0.4921 -0.5118 1.1693, -0.2756 -0.5118 0.4409, -0.5118 -0.5118 1.4252, -0.4921 -0.5118 1.3661, -0.2953 -0.5118 1.3661, 0.4921 -0.5118 1.1693, 0.2953 -0.5118 1.1693, 0.2953 -0.5118 1.3661, 0.4921 -0.5118 1.3661
            ]
        }
        coordIndex [
            0,1,2,-1,3,4,5,-1,6,7,8,-1,8,3,6,-1,6,3,5,-1,6,5,9,-1,10,11,12,-1,12,11,13,-1,14,15,0,-1,0,15,16,-1,0,16,13,-1,13,16,9,-1,13,9,12,-1,12,9,5,-1,17,18,19,-1,20,21,22,-1,22,21,23,-1,20,24,21,-1,21,24,14,-1,21,14,25,-1,26,27,28,-1,23,17,26,-1,26,17,19,-1,26,19,25,-1,25,19,29,-1,25,29,21,-1,30,31,32,-1,33,34,35,-1,35,34,19,-1,35,19,36,-1,36,19,18,-1,36,18,37,-1,37,18,38,-1,39,40,41,-1,32,6,30,-1,30,6,9,-1,30,9,42,-1,42,9,43,-1,42,43,44,-1,45,46,47,-1,47,46,48,-1,47,48,49,-1,50,51,47,-1,47,51,52,-1,53,54,55,-1,55,54,56,-1,52,57,47,-1,47,57,56,-1,47,56,58,-1,58,56,54,-1,31,30,59,-1,59,30,60,-1,59,60,28,-1,28,60,41,-1,28,41,26,-1,26,41,40,-1,26,40,61,-1,49,62,47,-1,47,62,63,-1,47,63,50,-1,44,64,42,-1,42,64,65,-1,42,65,66,-1,66,65,67,-1,66,67,68,-1,67,69,68,-1,68,69,70,-1,68,70,41,-1,41,70,71,-1,41,71,39,-1,61,72,26,-1,26,72,73,-1,26,73,74,-1,74,75,26,-1,26,75,76,-1,26,76,23,-1,23,76,77,-1,23,77,22,-1,22,77,78,-1,22,78,47,-1,47,78,79,-1,47,79,45,-1,80,81,82,-1,83,25,84,-1,84,25,85,-1,82,86,80,-1,80,86,87,-1,80,87,88,-1,26,89,90,-1,90,89,91,-1,90,91,92,-1,93,94,25,-1,25,94,95,-1,25,95,26,-1,26,95,96,-1,97,98,89,-1,89,98,99,-1,85,100,84,-1,84,100,101,-1,84,101,91,-1,91,101,102,-1,91,102,92,-1,88,93,80,-1,80,93,25,-1,80,25,103,-1,103,25,83,-1,103,83,104,-1,104,83,105,-1,96,106,26,-1,26,106,107,-1,26,107,89,-1,89,107,108,-1,89,108,97,-1,99,109,89,-1,89,109,110,-1,89,110,80,-1,80,110,111,-1,80,111,81,-1,14,0,25,-1,25,0,2,-1,25,2,112,-1,113,114,115,-1,115,114,116,-1,112,117,25,-1,25,117,115,-1,25,115,85,-1,85,115,116,-1,85,116,118,-1,119,120,121,-1,121,120,85,-1,121,85,122,-1,122,85,118,-1,123,124,125,-1,126,127,128,-1,129,130,131,-1,131,130,132,-1,131,132,127,-1,133,134,135,-1,136,137,138,-1,133,135,125,-1,139,140,135,-1,135,140,141,-1,135,141,125,-1,125,141,142,-1,125,142,123,-1,143,138,128,-1,128,138,144,-1,128,144,126,-1,126,144,145,-1,126,145,146,-1,146,145,147,-1,146,147,131,-1,131,147,140,-1,131,140,129,-1,129,140,139,-1,129,139,148,-1,149,136,150,-1,150,136,138,-1,150,138,151,-1,151,138,143,-1,151,143,152,-1,153,154,132,-1,132,154,155,-1,132,155,127,-1,127,155,156,-1,127,156,128,-1,128,156,157,-1,128,157,158,-1,159,11,160,-1,160,11,10,-1,161,121,162,-1,162,121,122,-1,163,114,164,-1,164,114,113,-1,165,4,166,-1,166,4,3,-1,167,168,154,-1,154,168,155,-1,169,13,159,-1,159,13,11,-1,170,171,134,-1,134,171,135,-1,172,116,163,-1,163,116,114,-1,164,113,173,-1,173,113,115,-1,153,132,174,-1,174,132,175,-1,160,10,176,-1,176,10,12,-1,177,5,165,-1,165,5,4,-1,178,102,101,-1,179,180,101,-1,101,180,181,-1,101,181,178,-1,182,28,27,-1,183,184,185,-1,185,184,186,-1,185,186,187,-1,188,189,185,-1,185,189,190,-1,185,190,183,-1,187,191,185,-1,185,191,192,-1,185,192,27,-1,27,192,193,-1,27,193,182,-1,194,195,196,-1,197,198,196,-1,196,198,199,-1,196,199,194,-1,189,188,200,-1,200,188,201,-1,200,201,197,-1,197,201,198,-1,202,203,204,-1,205,206,204,-1,204,206,207,-1,208,204,209,-1,209,204,207,-1,209,207,210,-1,210,207,211,-1,212,213,214,-1,214,202,212,-1,212,202,204,-1,212,204,215,-1,215,204,208,-1,215,208,216,-1,216,208,217,-1,218,219,220,-1,220,221,218,-1,218,221,222,-1,218,222,223,-1,224,216,217,-1,225,226,223,-1,217,225,224,-1,224,225,223,-1,224,223,227,-1,227,223,222,-1,227,222,213,-1,213,222,214,-1,228,229,230,-1,230,229,223,-1,230,223,231,-1,231,223,226,-1,231,226,211,-1,211,226,210,-1,204,203,232,-1,232,203,233,-1,220,219,234,-1,234,219,235,-1,234,235,233,-1,233,235,232,-1,229,228,236,-1,237,238,236,-1,236,238,239,-1,236,239,229,-1,238,237,205,-1,205,237,206,-1,240,241,119,-1,119,241,120,-1,125,124,240,-1,240,124,241,-1,242,243,244,-1,244,243,245,-1,244,245,246,-1,247,248,243,-1,243,248,245,-1,249,250,251,-1,251,250,252,-1,253,254,255,-1,255,254,248,-1,255,248,252,-1,252,248,247,-1,252,247,251,-1,256,257,258,-1,258,257,259,-1,258,259,260,-1,256,258,261,-1,261,258,262,-1,263,264,265,-1,266,267,268,-1,268,267,269,-1,268,269,270,-1,269,271,270,-1,270,271,263,-1,270,263,272,-1,272,263,265,-1,272,265,246,-1,246,265,244,-1,266,273,267,-1,267,273,274,-1,267,274,259,-1,259,274,260,-1,275,276,277,-1,6,32,199,-1,7,6,278,-1,278,6,199,-1,278,199,201,-1,201,199,198,-1,279,280,277,-1,277,280,136,-1,277,136,275,-1,275,136,149,-1,275,149,278,-1,278,149,281,-1,278,281,7,-1,282,283,185,-1,185,27,282,-1,282,27,26,-1,282,26,284,-1,284,26,90,-1,284,90,249,-1,249,90,250,-1,285,286,123,-1,123,142,285,-1,285,142,287,-1,285,287,272,-1,272,287,288,-1,145,289,147,-1,147,289,288,-1,290,291,289,-1,289,291,292,-1,289,292,288,-1,288,292,270,-1,288,270,272,-1,136,280,293,-1,273,291,274,-1,274,291,290,-1,274,290,293,-1,293,290,137,-1,293,137,136,-1,188,185,283,-1,294,278,262,-1,262,278,201,-1,262,201,261,-1,261,201,188,-1,261,188,295,-1,295,188,283,-1,296,297,277,-1,277,297,279,-1,298,299,300,-1,300,299,301,-1,302,254,303,-1,303,254,253,-1,286,298,300,-1,300,304,303,-1,286,300,123,-1,123,300,303,-1,123,303,124,-1,124,303,241,-1,241,303,253,-1,241,253,120,-1,255,305,253,-1,253,305,306,-1,306,100,253,-1,253,100,85,-1,253,85,120,-1,8,7,307,-1,307,7,281,-1,307,281,150,-1,150,281,149,-1,1,308,2,-1,2,308,309,-1,2,309,112,-1,285,299,286,-1,286,299,298,-1,304,310,303,-1,303,310,302,-1,300,301,304,-1,304,301,310,-1,285,272,299,-1,299,272,246,-1,299,246,301,-1,301,246,245,-1,301,245,310,-1,310,245,248,-1,310,248,302,-1,302,248,254,-1,90,92,311,-1,312,313,250,-1,250,313,314,-1,311,315,90,-1,90,315,316,-1,90,316,250,-1,250,316,317,-1,250,317,312,-1,318,252,319,-1,319,252,250,-1,319,250,320,-1,320,250,314,-1,321,305,322,-1,322,305,255,-1,322,255,318,-1,318,255,252,-1,180,179,323,-1,323,179,306,-1,323,306,321,-1,321,306,305,-1,179,101,306,-1,306,101,100,-1,278,294,275,-1,275,294,324,-1,297,293,279,-1,279,293,280,-1,296,277,325,-1,325,277,276,-1,325,276,324,-1,324,276,275,-1,274,293,260,-1,260,293,297,-1,260,297,258,-1,258,297,296,-1,258,296,262,-1,262,296,325,-1,262,325,294,-1,294,325,324,-1,195,194,326,-1,326,194,31,-1,326,31,327,-1,327,31,59,-1,31,194,32,-1,32,194,199,-1,328,138,290,-1,290,138,137,-1,144,329,145,-1,145,329,289,-1,329,328,289,-1,289,328,290,-1,141,330,142,-1,142,330,287,-1,330,331,287,-1,287,331,288,-1,331,140,288,-1,288,140,147,-1,332,268,292,-1,292,268,270,-1,266,333,273,-1,273,333,291,-1,333,332,291,-1,291,332,292,-1,333,266,332,-1,332,266,268,-1,242,235,243,-1,243,235,219,-1,243,219,247,-1,247,219,218,-1,247,218,251,-1,251,218,334,-1,295,335,261,-1,261,335,223,-1,261,223,256,-1,256,223,229,-1,256,229,257,-1,257,229,239,-1,334,218,335,-1,335,218,223,-1,119,121,240,-1,240,121,161,-1,125,240,133,-1,133,240,161,-1,133,161,336,-1,336,161,337,-1,307,150,8,-1,8,150,151,-1,3,8,166,-1,166,8,151,-1,166,151,338,-1,338,151,339,-1,308,1,340,-1,340,1,0,-1,157,156,341,-1,341,156,342,-1,343,344,345,-1,345,344,346,-1,345,347,343,-1,343,347,348,-1,343,348,349,-1,349,348,346,-1,349,346,350,-1,350,346,344,-1,170,336,337,-1,351,118,116,-1,352,353,354,-1,354,353,355,-1,116,172,351,-1,351,172,356,-1,351,356,337,-1,337,356,354,-1,337,354,170,-1,170,354,355,-1,170,355,171,-1,171,355,357,-1,171,357,352,-1,352,357,358,-1,352,358,353,-1,173,115,117,-1,175,359,174,-1,174,359,360,-1,117,361,173,-1,173,361,167,-1,173,167,172,-1,172,167,174,-1,172,174,356,-1,356,174,360,-1,356,360,362,-1,362,360,363,-1,362,363,175,-1,175,363,364,-1,175,364,359,-1,340,0,13,-1,342,365,341,-1,341,365,366,-1,169,176,347,-1,13,169,340,-1,340,169,347,-1,340,347,361,-1,361,347,341,-1,361,341,167,-1,167,341,366,-1,167,366,168,-1,168,366,367,-1,168,367,342,-1,342,367,368,-1,342,368,365,-1,12,5,176,-1,176,5,177,-1,176,177,347,-1,347,177,338,-1,347,338,348,-1,348,338,339,-1,342,156,168,-1,168,156,155,-1,
        ]
    }
}
Shape{
    appearance Appearance {
        material  Material {
            diffuseColor 0.6666666666666666 0.6980392156862745 0.7686274509803922
            specularColor 0.3333333333333333 0.34901960784313724 0.3843137254901961
            ambientIntensity 0.6967
            transparency 0.0
            shininess 0.5
        }
    }
    geometry IndexedFaceSet {
        ccw TRUE
        solid FALSE
        coord DEF co Coordinate {
            point [
                0.4921 -0.5512 1.3661, 0.2953 -0.5512 1.3661, 0.2953 -0.6276 1.3561, 0.4921 -0.6276 1.3561, 0.2953 -0.6988 1.3266, 0.4921 -0.6988 1.3266, 0.2953 -0.76 1.2797, 0.4921 -0.76 1.2797, 0.2953 -0.8069 1.2185, 0.4921 -0.8069 1.2185, 0.2953 -0.8364 1.1473, 0.4921 -0.8364 1.1473, 0.2953 -0.8464 1.0709, 0.4921 -0.8464 1.0709, 0.4921 -0.8464 0.2244, 0.2953 -0.8464 0.2244, 0.4921 -0.8471 0.2193, 0.2953 -0.8471 0.2193, 0.4921 -0.8491 0.2146, 0.2953 -0.8491 0.2146, 0.4921 -0.8522 0.2105, 0.2953 -0.8522 0.2105, 0.4921 -0.8563 0.2074, 0.2953 -0.8563 0.2074, 0.4921 -0.861 0.2054, 0.2953 -0.861 0.2054, 0.4921 -0.8661 0.2047, 0.2953 -0.8661 0.2047, 0.4921 -1.6142 0.2047, 0.2953 -1.6142 0.2047, 0.3407 -1.6929 0.1593, 0.3407 -1.6929 0.0533, 0.4467 -1.6929 0.1593, 0.4467 -1.6929 0.0533, 0.2953 -1.6142 0.0079, 0.2953 -0.8661 0.0079, 0.4921 -1.6142 0.0079, 0.4921 -0.8661 0.0079, 0.2953 -0.8101 0.0153, 0.4921 -0.8101 0.0153, 0.2953 -0.7579 0.0369, 0.4921 -0.7579 0.0369, 0.2953 -0.713 0.0713, 0.4921 -0.713 0.0713, 0.2953 -0.6786 0.1161, 0.4921 -0.6786 0.1161, 0.2953 -0.657 0.1684, 0.4921 -0.657 0.1684, 0.2953 -0.6496 0.2244, 0.4921 -0.6496 0.2244, 0.4921 -0.6496 1.0709, 0.2953 -0.6496 1.0709, 0.4921 -0.6462 1.0963, 0.2953 -0.6462 1.0963, 0.4921 -0.6364 1.1201, 0.2953 -0.6364 1.1201, 0.4921 -0.6208 1.1405, 0.2953 -0.6208 1.1405, 0.4921 -0.6004 1.1561, 0.2953 -0.6004 1.1561, 0.4921 -0.5766 1.1659, 0.2953 -0.5766 1.1659, 0.4921 -0.5512 1.1693, 0.2953 -0.5512 1.1693, 0.2953 -0.5118 1.1693, 0.2953 -0.5118 1.3661, 0.4921 -0.5118 1.1693, 0.4921 -0.5118 1.3661
            ]
        }
        coordIndex [
            0,1,2,-1,0,2,3,-1,3,2,4,-1,3,4,5,-1,5,4,6,-1,5,6,7,-1,7,6,8,-1,7,8,9,-1,9,8,10,-1,9,10,11,-1,11,10,12,-1,11,12,13,-1,14,13,15,-1,15,13,12,-1,14,15,16,-1,16,15,17,-1,16,17,18,-1,18,17,19,-1,18,19,20,-1,20,19,21,-1,20,21,22,-1,22,21,23,-1,22,23,24,-1,24,23,25,-1,24,25,26,-1,26,25,27,-1,28,26,29,-1,29,26,27,-1,30,31,32,-1,32,31,33,-1,34,35,36,-1,36,35,37,-1,37,35,38,-1,37,38,39,-1,39,38,40,-1,39,40,41,-1,41,40,42,-1,41,42,43,-1,43,42,44,-1,43,44,45,-1,45,44,46,-1,45,46,47,-1,47,46,48,-1,47,48,49,-1,50,49,51,-1,51,49,48,-1,50,51,52,-1,52,51,53,-1,52,53,54,-1,54,53,55,-1,54,55,56,-1,56,55,57,-1,56,57,58,-1,58,57,59,-1,58,59,60,-1,60,59,61,-1,60,61,62,-1,62,61,63,-1,34,29,35,-1,35,29,27,-1,35,27,38,-1,38,27,25,-1,38,25,40,-1,40,25,23,-1,40,23,42,-1,42,23,21,-1,42,21,44,-1,44,21,19,-1,44,19,46,-1,46,19,17,-1,46,17,48,-1,48,17,15,-1,48,15,51,-1,51,15,12,-1,51,12,53,-1,53,12,10,-1,53,10,55,-1,55,10,8,-1,55,8,57,-1,57,8,6,-1,57,6,59,-1,59,6,4,-1,59,4,61,-1,61,4,2,-1,61,2,63,-1,63,2,1,-1,63,1,64,-1,64,1,65,-1,66,67,62,-1,62,67,0,-1,62,0,60,-1,60,0,3,-1,60,3,58,-1,58,3,5,-1,58,5,56,-1,56,5,7,-1,56,7,54,-1,54,7,9,-1,54,9,52,-1,52,9,11,-1,52,11,50,-1,50,11,13,-1,50,13,49,-1,49,13,14,-1,49,14,47,-1,47,14,16,-1,47,16,45,-1,45,16,18,-1,45,18,43,-1,43,18,20,-1,43,20,41,-1,41,20,22,-1,41,22,39,-1,39,22,24,-1,39,24,37,-1,37,24,26,-1,37,26,36,-1,36,26,28,-1,65,1,67,-1,67,1,0,-1,62,63,66,-1,66,63,64,-1,36,33,34,-1,34,33,31,-1,28,32,36,-1,36,32,33,-1,30,29,31,-1,31,29,34,-1,29,30,28,-1,28,30,32,-1,
        ]
    }
}
Shape{
    appearance Appearance {
        material  Material {
            diffuseColor 1.0 0.9411764705882353 0.8117647058823529
            specularColor 0.30196078431372547 0.2823529411764706 0.24313725490196078
            ambientIntensity 0.944
            transparency 0.0
            shininess 0.5
        }
    }
    geometry IndexedFaceSet {
        ccw TRUE
        solid FALSE
        coord DEF co Coordinate {
            point [
                0.1476 0.3071 0.9331, 0.1476 0.3071 1.9567, 0.1476 0.3858 1.0118, 0.1476 0.3858 1.9567, 0.6398 0.3858 1.0118, 0.6398 0.3858 1.9567, 0.6398 0.3071 0.9331, 0.6398 0.3071 1.9567, 0.4921 0.3858 1.3661, 0.2953 0.3858 1.3661, 0.2953 0.3858 1.1693, 0.4921 0.3858 1.1693
            ]
        }
        coordIndex [
            0,1,2,-1,2,1,3,-1,4,5,6,-1,6,5,7,-1,8,5,4,-1,5,8,3,-1,3,8,9,-1,3,9,2,-1,2,9,10,-1,2,10,4,-1,4,10,11,-1,4,11,8,-1,
        ]
    }
}
Shape{
    appearance Appearance {
        material  Material {
            diffuseColor 0.6666666666666666 0.6980392156862745 0.7686274509803922
            specularColor 0.3333333333333333 0.34901960784313724 0.3843137254901961
            ambientIntensity 0.6967
            transparency 0.0
            shininess 0.5
        }
    }
    geometry IndexedFaceSet {
        ccw TRUE
        solid FALSE
        coord DEF co Coordinate {
            point [
                0.3407 1.2599 1.2148, 0.3407 1.2599 1.3207, 0.4467 1.2599 1.2148, 0.4467 1.2599 1.3207, 0.2953 1.1811 1.1693, 0.4921 1.1811 1.1693, 0.4921 1.1811 1.3661, 0.2953 1.1811 1.3661, 0.2953 0.3858 1.3661, 0.2953 0.3858 1.1693, 0.4921 0.3858 1.1693, 0.4921 0.3858 1.3661
            ]
        }
        coordIndex [
            0,1,2,-1,2,1,3,-1,4,0,5,-1,5,0,2,-1,6,3,7,-1,7,3,1,-1,5,2,6,-1,6,2,3,-1,0,4,1,-1,1,4,7,-1,7,4,8,-1,8,4,9,-1,10,5,11,-1,11,5,6,-1,6,7,11,-1,11,7,8,-1,9,4,10,-1,10,4,5,-1,
        ]
    }
}
Shape{
    appearance Appearance {
        material  Material {
            diffuseColor 1.0 0.9411764705882353 0.8117647058823529
            specularColor 0.30196078431372547 0.2823529411764706 0.24313725490196078
            ambientIntensity 0.944
            transparency 0.0
            shininess 0.5
        }
    }
    geometry IndexedFaceSet {
        ccw TRUE
        solid FALSE
        coord DEF co Coordinate {
            point [
                0.1476 0.3071 0.9331, 0.1476 0.3858 1.0118, 0.6398 0.3071 0.9331, 0.6398 0.3858 1.0118, -1.2992 -0.6693 0.4409, -1.2992 -0.6693 0.0472, -1.2992 -0.5118 0.4409, -1.2992 -0.5118 0.0472, -1.063 -0.6693 1.0709, -1.063 -0.6693 1.4252, -1.063 -0.5118 1.0709, -1.063 -0.5118 1.4252, -1.2992 -0.5118 1.4252, -1.2992 -0.6693 1.4252, -0.5118 -0.5118 1.0709, -0.5118 -0.5118 1.4252, -0.5118 -0.6693 1.0709, -0.5118 -0.6693 1.4252, -0.2756 -0.5118 0.4409, -0.2756 -0.5118 0.0472, -0.2756 -0.6693 0.4409, -0.2756 -0.6693 0.0472, -0.2756 -0.5118 1.4252, -0.2756 -0.6693 1.4252, 1.063 -0.5118 1.0709, 1.063 -0.5118 1.4252, 1.063 -0.6693 1.0709, 1.063 -0.6693 1.4252, 1.2992 -0.6693 1.0709, 1.2992 -0.6693 1.4252, 1.2992 -0.5118 1.0709, 1.2992 -0.5118 1.4252
            ]
        }
        coordIndex [
            0,1,2,-1,2,1,3,-1,4,5,6,-1,6,5,7,-1,8,9,10,-1,10,9,11,-1,11,9,12,-1,12,9,13,-1,14,15,16,-1,16,15,17,-1,18,19,20,-1,20,19,21,-1,22,23,15,-1,15,23,17,-1,24,25,26,-1,26,25,27,-1,28,29,30,-1,30,29,31,-1,31,29,25,-1,25,29,27,-1,
        ]
    }
}
Shape{
    appearance Appearance {
        material  Material {
            diffuseColor 0.6666666666666666 0.6980392156862745 0.7686274509803922
            specularColor 0.3333333333333333 0.34901960784313724 0.3843137254901961
            ambientIntensity 0.6967
            transparency 0.0
            shininess 0.5
        }
    }
    geometry IndexedFaceSet {
        ccw TRUE
        solid FALSE
        coord DEF co Coordinate {
            point [
                1.2795 -0.5512 1.3661, 1.0827 -0.5512 1.3661, 1.0827 -0.6276 1.3561, 1.2795 -0.6276 1.3561, 1.0827 -0.6988 1.3266, 1.2795 -0.6988 1.3266, 1.0827 -0.76 1.2797, 1.2795 -0.76 1.2797, 1.0827 -0.8069 1.2185, 1.2795 -0.8069 1.2185, 1.0827 -0.8364 1.1473, 1.2795 -0.8364 1.1473, 1.0827 -0.8464 1.0709, 1.2795 -0.8464 1.0709, 1.2795 -0.8464 0.2244, 1.0827 -0.8464 0.2244, 1.2795 -0.8471 0.2193, 1.0827 -0.8471 0.2193, 1.2795 -0.8491 0.2146, 1.0827 -0.8491 0.2146, 1.2795 -0.8522 0.2105, 1.0827 -0.8522 0.2105, 1.2795 -0.8563 0.2074, 1.0827 -0.8563 0.2074, 1.2795 -0.861 0.2054, 1.0827 -0.861 0.2054, 1.2795 -0.8661 0.2047, 1.0827 -0.8661 0.2047, 1.2795 -1.6142 0.2047, 1.0827 -1.6142 0.2047, 1.1281 -1.6929 0.1593, 1.1281 -1.6929 0.0533, 1.2341 -1.6929 0.1593, 1.2341 -1.6929 0.0533, 1.0827 -1.6142 0.0079, 1.0827 -0.8661 0.0079, 1.2795 -1.6142 0.0079, 1.2795 -0.8661 0.0079, 1.0827 -0.8101 0.0153, 1.2795 -0.8101 0.0153, 1.0827 -0.7579 0.0369, 1.2795 -0.7579 0.0369, 1.0827 -0.713 0.0713, 1.2795 -0.713 0.0713, 1.0827 -0.6786 0.1161, 1.2795 -0.6786 0.1161, 1.0827 -0.657 0.1684, 1.2795 -0.657 0.1684, 1.0827 -0.6496 0.2244, 1.2795 -0.6496 0.2244, 1.2795 -0.6496 1.0709, 1.0827 -0.6496 1.0709, 1.2795 -0.6462 1.0963, 1.0827 -0.6462 1.0963, 1.2795 -0.6364 1.1201, 1.0827 -0.6364 1.1201, 1.2795 -0.6208 1.1405, 1.0827 -0.6208 1.1405, 1.2795 -0.6004 1.1561, 1.0827 -0.6004 1.1561, 1.2795 -0.5766 1.1659, 1.0827 -0.5766 1.1659, 1.2795 -0.5512 1.1693, 1.0827 -0.5512 1.1693, 1.0827 -0.5118 1.1693, 1.0827 -0.5118 1.3661, 1.2795 -0.5118 1.1693, 1.2795 -0.5118 1.3661, -0.2953 -0.5512 1.3661, -0.4921 -0.5512 1.3661, -0.4921 -0.6276 1.3561, -0.2953 -0.6276 1.3561, -0.4921 -0.6988 1.3266, -0.2953 -0.6988 1.3266, -0.4921 -0.76 1.2797, -0.2953 -0.76 1.2797, -0.4921 -0.8069 1.2185, -0.2953 -0.8069 1.2185, -0.4921 -0.8364 1.1473, -0.2953 -0.8364 1.1473, -0.4921 -0.8464 1.0709, -0.2953 -0.8464 1.0709, -0.2953 -0.8464 0.2244, -0.4921 -0.8464 0.2244, -0.2953 -0.8471 0.2193, -0.4921 -0.8471 0.2193, -0.2953 -0.8491 0.2146, -0.4921 -0.8491 0.2146, -0.2953 -0.8522 0.2105, -0.4921 -0.8522 0.2105, -0.2953 -0.8563 0.2074, -0.4921 -0.8563 0.2074, -0.2953 -0.861 0.2054, -0.4921 -0.861 0.2054, -0.2953 -0.8661 0.2047, -0.4921 -0.8661 0.2047, -0.2953 -1.6142 0.2047, -0.4921 -1.6142 0.2047, -0.4467 -1.6929 0.1593, -0.4467 -1.6929 0.0533, -0.3407 -1.6929 0.1593, -0.3407 -1.6929 0.0533, -0.4921 -1.6142 0.0079, -0.4921 -0.8661 0.0079, -0.2953 -1.6142 0.0079, -0.2953 -0.8661 0.0079, -0.4921 -0.8101 0.0153, -0.2953 -0.8101 0.0153, -0.4921 -0.7579 0.0369, -0.2953 -0.7579 0.0369, -0.4921 -0.713 0.0713, -0.2953 -0.713 0.0713, -0.4921 -0.6786 0.1161, -0.2953 -0.6786 0.1161, -0.4921 -0.657 0.1684, -0.2953 -0.657 0.1684, -0.4921 -0.6496 0.2244, -0.2953 -0.6496 0.2244, -0.2953 -0.6496 1.0709, -0.4921 -0.6496 1.0709, -0.2953 -0.6462 1.0963, -0.4921 -0.6462 1.0963, -0.2953 -0.6364 1.1201, -0.4921 -0.6364 1.1201, -0.2953 -0.6208 1.1405, -0.4921 -0.6208 1.1405, -0.2953 -0.6004 1.1561, -0.4921 -0.6004 1.1561, -0.2953 -0.5766 1.1659, -0.4921 -0.5766 1.1659, -0.2953 -0.5512 1.1693, -0.4921 -0.5512 1.1693, -0.4921 -0.5118 1.1693, -0.4921 -0.5118 1.3661, -0.2953 -0.5118 1.1693, -0.2953 -0.5118 1.3661, -1.0827 -0.5512 1.3661, -1.2795 -0.5512 1.3661, -1.2795 -0.6276 1.3561, -1.0827 -0.6276 1.3561, -1.2795 -0.6988 1.3266, -1.0827 -0.6988 1.3266, -1.2795 -0.76 1.2797, -1.0827 -0.76 1.2797, -1.2795 -0.8069 1.2185, -1.0827 -0.8069 1.2185, -1.2795 -0.8364 1.1473, -1.0827 -0.8364 1.1473, -1.2795 -0.8464 1.0709, -1.0827 -0.8464 1.0709, -1.0827 -0.8464 0.2244, -1.2795 -0.8464 0.2244, -1.0827 -0.8471 0.2193, -1.2795 -0.8471 0.2193, -1.0827 -0.8491 0.2146, -1.2795 -0.8491 0.2146, -1.0827 -0.8522 0.2105, -1.2795 -0.8522 0.2105, -1.0827 -0.8563 0.2074, -1.2795 -0.8563 0.2074, -1.0827 -0.861 0.2054, -1.2795 -0.861 0.2054, -1.0827 -0.8661 0.2047, -1.2795 -0.8661 0.2047, -1.0827 -1.6142 0.2047, -1.2795 -1.6142 0.2047, -1.2341 -1.6929 0.1593, -1.2341 -1.6929 0.0533, -1.1281 -1.6929 0.1593, -1.1281 -1.6929 0.0533, -1.2795 -1.6142 0.0079, -1.2795 -0.8661 0.0079, -1.0827 -1.6142 0.0079, -1.0827 -0.8661 0.0079, -1.2795 -0.8101 0.0153, -1.0827 -0.8101 0.0153, -1.2795 -0.7579 0.0369, -1.0827 -0.7579 0.0369, -1.2795 -0.713 0.0713, -1.0827 -0.713 0.0713, -1.2795 -0.6786 0.1161, -1.0827 -0.6786 0.1161, -1.2795 -0.657 0.1684, -1.0827 -0.657 0.1684, -1.2795 -0.6496 0.2244, -1.0827 -0.6496 0.2244, -1.0827 -0.6496 1.0709, -1.2795 -0.6496 1.0709, -1.0827 -0.6462 1.0963, -1.2795 -0.6462 1.0963, -1.0827 -0.6364 1.1201, -1.2795 -0.6364 1.1201, -1.0827 -0.6208 1.1405, -1.2795 -0.6208 1.1405, -1.0827 -0.6004 1.1561, -1.2795 -0.6004 1.1561, -1.0827 -0.5766 1.1659, -1.2795 -0.5766 1.1659, -1.0827 -0.5512 1.1693, -1.2795 -0.5512 1.1693, -1.2795 -0.5118 1.1693, -1.2795 -0.5118 1.3661, -1.0827 -0.5118 1.1693, -1.0827 -0.5118 1.3661
            ]
        }
        coordIndex [
            0,1,2,-1,0,2,3,-1,3,2,4,-1,3,4,5,-1,5,4,6,-1,5,6,7,-1,7,6,8,-1,7,8,9,-1,9,8,10,-1,9,10,11,-1,11,10,12,-1,11,12,13,-1,14,13,15,-1,15,13,12,-1,14,15,16,-1,16,15,17,-1,16,17,18,-1,18,17,19,-1,18,19,20,-1,20,19,21,-1,20,21,22,-1,22,21,23,-1,22,23,24,-1,24,23,25,-1,24,25,26,-1,26,25,27,-1,28,26,29,-1,29,26,27,-1,30,31,32,-1,32,31,33,-1,34,35,36,-1,36,35,37,-1,37,35,38,-1,37,38,39,-1,39,38,40,-1,39,40,41,-1,41,40,42,-1,41,42,43,-1,43,42,44,-1,43,44,45,-1,45,44,46,-1,45,46,47,-1,47,46,48,-1,47,48,49,-1,50,49,51,-1,51,49,48,-1,50,51,52,-1,52,51,53,-1,52,53,54,-1,54,53,55,-1,54,55,56,-1,56,55,57,-1,56,57,58,-1,58,57,59,-1,58,59,60,-1,60,59,61,-1,60,61,62,-1,62,61,63,-1,34,29,35,-1,35,29,27,-1,35,27,38,-1,38,27,25,-1,38,25,40,-1,40,25,23,-1,40,23,42,-1,42,23,21,-1,42,21,44,-1,44,21,19,-1,44,19,46,-1,46,19,17,-1,46,17,48,-1,48,17,15,-1,48,15,51,-1,51,15,12,-1,51,12,53,-1,53,12,10,-1,53,10,55,-1,55,10,8,-1,55,8,57,-1,57,8,6,-1,57,6,59,-1,59,6,4,-1,59,4,61,-1,61,4,2,-1,61,2,63,-1,63,2,1,-1,63,1,64,-1,64,1,65,-1,66,67,62,-1,62,67,0,-1,62,0,60,-1,60,0,3,-1,60,3,58,-1,58,3,5,-1,58,5,56,-1,56,5,7,-1,56,7,54,-1,54,7,9,-1,54,9,52,-1,52,9,11,-1,52,11,50,-1,50,11,13,-1,50,13,49,-1,49,13,14,-1,49,14,47,-1,47,14,16,-1,47,16,45,-1,45,16,18,-1,45,18,43,-1,43,18,20,-1,43,20,41,-1,41,20,22,-1,41,22,39,-1,39,22,24,-1,39,24,37,-1,37,24,26,-1,37,26,36,-1,36,26,28,-1,65,1,67,-1,67,1,0,-1,62,63,66,-1,66,63,64,-1,68,69,70,-1,68,70,71,-1,71,70,72,-1,71,72,73,-1,73,72,74,-1,73,74,75,-1,75,74,76,-1,75,76,77,-1,77,76,78,-1,77,78,79,-1,79,78,80,-1,79,80,81,-1,82,81,83,-1,83,81,80,-1,82,83,84,-1,84,83,85,-1,84,85,86,-1,86,85,87,-1,86,87,88,-1,88,87,89,-1,88,89,90,-1,90,89,91,-1,90,91,92,-1,92,91,93,-1,92,93,94,-1,94,93,95,-1,96,94,97,-1,97,94,95,-1,98,99,100,-1,100,99,101,-1,102,103,104,-1,104,103,105,-1,105,103,106,-1,105,106,107,-1,107,106,108,-1,107,108,109,-1,109,108,110,-1,109,110,111,-1,111,110,112,-1,111,112,113,-1,113,112,114,-1,113,114,115,-1,115,114,116,-1,115,116,117,-1,118,117,119,-1,119,117,116,-1,118,119,120,-1,120,119,121,-1,120,121,122,-1,122,121,123,-1,122,123,124,-1,124,123,125,-1,124,125,126,-1,126,125,127,-1,126,127,128,-1,128,127,129,-1,128,129,130,-1,130,129,131,-1,102,97,103,-1,103,97,95,-1,103,95,106,-1,106,95,93,-1,106,93,108,-1,108,93,91,-1,108,91,110,-1,110,91,89,-1,110,89,112,-1,112,89,87,-1,112,87,114,-1,114,87,85,-1,114,85,116,-1,116,85,83,-1,116,83,119,-1,119,83,80,-1,119,80,121,-1,121,80,78,-1,121,78,123,-1,123,78,76,-1,123,76,125,-1,125,76,74,-1,125,74,127,-1,127,74,72,-1,127,72,129,-1,129,72,70,-1,129,70,131,-1,131,70,69,-1,131,69,132,-1,132,69,133,-1,134,135,130,-1,130,135,68,-1,130,68,128,-1,128,68,71,-1,128,71,126,-1,126,71,73,-1,126,73,124,-1,124,73,75,-1,124,75,122,-1,122,75,77,-1,122,77,120,-1,120,77,79,-1,120,79,118,-1,118,79,81,-1,118,81,117,-1,117,81,82,-1,117,82,115,-1,115,82,84,-1,115,84,113,-1,113,84,86,-1,113,86,111,-1,111,86,88,-1,111,88,109,-1,109,88,90,-1,109,90,107,-1,107,90,92,-1,107,92,105,-1,105,92,94,-1,105,94,104,-1,104,94,96,-1,133,69,135,-1,135,69,68,-1,130,131,134,-1,134,131,132,-1,136,137,138,-1,136,138,139,-1,139,138,140,-1,139,140,141,-1,141,140,142,-1,141,142,143,-1,143,142,144,-1,143,144,145,-1,145,144,146,-1,145,146,147,-1,147,146,148,-1,147,148,149,-1,150,149,151,-1,151,149,148,-1,150,151,152,-1,152,151,153,-1,152,153,154,-1,154,153,155,-1,154,155,156,-1,156,155,157,-1,156,157,158,-1,158,157,159,-1,158,159,160,-1,160,159,161,-1,160,161,162,-1,162,161,163,-1,164,162,165,-1,165,162,163,-1,166,167,168,-1,168,167,169,-1,170,171,172,-1,172,171,173,-1,173,171,174,-1,173,174,175,-1,175,174,176,-1,175,176,177,-1,177,176,178,-1,177,178,179,-1,179,178,180,-1,179,180,181,-1,181,180,182,-1,181,182,183,-1,183,182,184,-1,183,184,185,-1,186,185,187,-1,187,185,184,-1,186,187,188,-1,188,187,189,-1,188,189,190,-1,190,189,191,-1,190,191,192,-1,192,191,193,-1,192,193,194,-1,194,193,195,-1,194,195,196,-1,196,195,197,-1,196,197,198,-1,198,197,199,-1,170,165,171,-1,171,165,163,-1,171,163,174,-1,174,163,161,-1,174,161,176,-1,176,161,159,-1,176,159,178,-1,178,159,157,-1,178,157,180,-1,180,157,155,-1,180,155,182,-1,182,155,153,-1,182,153,184,-1,184,153,151,-1,184,151,187,-1,187,151,148,-1,187,148,189,-1,189,148,146,-1,189,146,191,-1,191,146,144,-1,191,144,193,-1,193,144,142,-1,193,142,195,-1,195,142,140,-1,195,140,197,-1,197,140,138,-1,197,138,199,-1,199,138,137,-1,199,137,200,-1,200,137,201,-1,202,203,198,-1,198,203,136,-1,198,136,196,-1,196,136,139,-1,196,139,194,-1,194,139,141,-1,194,141,192,-1,192,141,143,-1,192,143,190,-1,190,143,145,-1,190,145,188,-1,188,145,147,-1,188,147,186,-1,186,147,149,-1,186,149,185,-1,185,149,150,-1,185,150,183,-1,183,150,152,-1,183,152,181,-1,181,152,154,-1,181,154,179,-1,179,154,156,-1,179,156,177,-1,177,156,158,-1,177,158,175,-1,175,158,160,-1,175,160,173,-1,173,160,162,-1,173,162,172,-1,172,162,164,-1,201,137,203,-1,203,137,136,-1,198,199,202,-1,202,199,200,-1,36,33,34,-1,34,33,31,-1,28,32,36,-1,36,32,33,-1,30,29,31,-1,31,29,34,-1,29,30,28,-1,28,30,32,-1,104,101,102,-1,102,101,99,-1,96,100,104,-1,104,100,101,-1,98,97,99,-1,99,97,102,-1,97,98,96,-1,96,98,100,-1,172,169,170,-1,170,169,167,-1,164,168,172,-1,172,168,169,-1,166,165,167,-1,167,165,170,-1,165,166,164,-1,164,166,168,-1,
        ]
    }
}
Shape{
    appearance Appearance {
        material  Material {
            diffuseColor 1.0 0.9411764705882353 0.8117647058823529
            specularColor 0.30196078431372547 0.2823529411764706 0.24313725490196078
            ambientIntensity 0.944
            transparency 0.0
            shininess 0.5
        }
    }
    geometry IndexedFaceSet {
        ccw TRUE
        solid FALSE
        coord DEF co Coordinate {
            point [
                1.4272 0.3858 1.0118, 1.4272 0.3858 1.8189, 1.4272 0.3071 0.9331, 1.4272 0.3071 1.8189, 1.122 0.3858 1.9567, 1.122 0.3858 1.8189, 0.935 0.3858 1.9567, 1.0827 0.3858 1.3661, 0.935 0.3858 1.0118, 1.0827 0.3858 1.1693, 1.2795 0.3858 1.1693, 1.2795 0.3858 1.3661, 0.935 0.3071 0.9331, 0.935 0.3071 1.9567
            ]
        }
        coordIndex [
            0,1,2,-1,2,1,3,-1,4,5,6,-1,6,5,7,-1,6,7,8,-1,8,7,9,-1,8,9,0,-1,0,9,10,-1,0,10,1,-1,1,10,11,-1,1,11,5,-1,5,11,7,-1,12,13,8,-1,8,13,6,-1,
        ]
    }
}
Shape{
    appearance Appearance {
        material  Material {
            diffuseColor 0.6666666666666666 0.6980392156862745 0.7686274509803922
            specularColor 0.3333333333333333 0.34901960784313724 0.3843137254901961
            ambientIntensity 0.6967
            transparency 0.0
            shininess 0.5
        }
    }
    geometry IndexedFaceSet {
        ccw TRUE
        solid FALSE
        coord DEF co Coordinate {
            point [
                1.1281 1.2599 1.2148, 1.1281 1.2599 1.3207, 1.2341 1.2599 1.2148, 1.2341 1.2599 1.3207, 1.0827 1.1811 1.1693, 1.2795 1.1811 1.1693, 1.2795 1.1811 1.3661, 1.0827 1.1811 1.3661, 1.0827 0.3858 1.3661, 1.0827 0.3858 1.1693, 1.2795 0.3858 1.1693, 1.2795 0.3858 1.3661
            ]
        }
        coordIndex [
            0,1,2,-1,2,1,3,-1,4,0,5,-1,5,0,2,-1,6,3,7,-1,7,3,1,-1,5,2,6,-1,6,2,3,-1,0,4,1,-1,1,4,7,-1,7,4,8,-1,8,4,9,-1,10,5,11,-1,11,5,6,-1,6,7,11,-1,11,7,8,-1,9,4,10,-1,10,4,5,-1,
        ]
    }
}
Shape{
    appearance Appearance {
        material  Material {
            diffuseColor 1.0 0.9411764705882353 0.8117647058823529
            specularColor 0.30196078431372547 0.2823529411764706 0.24313725490196078
            ambientIntensity 0.944
            transparency 0.0
            shininess 0.5
        }
    }
    geometry IndexedFaceSet {
        ccw TRUE
        solid FALSE
        coord DEF co Coordinate {
            point [
                -0.6398 0.3071 0.9331, -0.6398 0.3071 1.9567, -0.6398 0.3858 1.0118, -0.6398 0.3858 1.9567, -0.1476 0.3858 1.0118, -0.1476 0.3858 1.9567, -0.1476 0.3071 0.9331, -0.1476 0.3071 1.9567, -0.2953 0.3858 1.3661, -0.4921 0.3858 1.3661, -0.4921 0.3858 1.1693, -0.2953 0.3858 1.1693
            ]
        }
        coordIndex [
            0,1,2,-1,2,1,3,-1,4,5,6,-1,6,5,7,-1,8,5,4,-1,5,8,3,-1,3,8,9,-1,3,9,2,-1,2,9,10,-1,2,10,4,-1,4,10,11,-1,4,11,8,-1,
        ]
    }
}
Shape{
    appearance Appearance {
        material  Material {
            diffuseColor 0.6666666666666666 0.6980392156862745 0.7686274509803922
            specularColor 0.3333333333333333 0.34901960784313724 0.3843137254901961
            ambientIntensity 0.6967
            transparency 0.0
            shininess 0.5
        }
    }
    geometry IndexedFaceSet {
        ccw TRUE
        solid FALSE
        coord DEF co Coordinate {
            point [
                -0.4467 1.2599 1.2148, -0.4467 1.2599 1.3207, -0.3407 1.2599 1.2148, -0.3407 1.2599 1.3207, -0.4921 1.1811 1.1693, -0.2953 1.1811 1.1693, -0.2953 1.1811 1.3661, -0.4921 1.1811 1.3661, -0.4921 0.3858 1.3661, -0.4921 0.3858 1.1693, -0.2953 0.3858 1.1693, -0.2953 0.3858 1.3661
            ]
        }
        coordIndex [
            0,1,2,-1,2,1,3,-1,4,0,5,-1,5,0,2,-1,6,3,7,-1,7,3,1,-1,5,2,6,-1,6,2,3,-1,0,4,1,-1,1,4,7,-1,7,4,8,-1,8,4,9,-1,10,5,11,-1,11,5,6,-1,6,7,11,-1,11,7,8,-1,9,4,10,-1,10,4,5,-1,
        ]
    }
}
Shape{
    appearance Appearance {
        material  Material {
            diffuseColor 1.0 0.9411764705882353 0.8117647058823529
            specularColor 0.30196078431372547 0.2823529411764706 0.24313725490196078
            ambientIntensity 0.944
            transparency 0.0
            shininess 0.5
        }
    }
    geometry IndexedFaceSet {
        ccw TRUE
        solid FALSE
        coord DEF co Coordinate {
            point [
                -1.4272 0.3071 0.9331, -1.4272 0.3071 1.8189, -1.4272 0.3858 1.0118, -1.4272 0.3858 1.8189, -1.0827 0.3858 1.3661, -0.935 0.3858 1.9567, -0.935 0.3858 1.0118, -1.122 0.3858 1.9567, -1.122 0.3858 1.8189, -1.2795 0.3858 1.3661, -1.2795 0.3858 1.1693, -1.0827 0.3858 1.1693, -0.935 0.3071 0.9331, -0.935 0.3071 1.9567
            ]
        }
        coordIndex [
            0,1,2,-1,2,1,3,-1,4,5,6,-1,7,5,8,-1,8,5,4,-1,8,4,3,-1,3,4,9,-1,3,9,2,-1,2,9,10,-1,2,10,6,-1,6,10,11,-1,6,11,4,-1,6,5,12,-1,12,5,13,-1,
        ]
    }
}
Shape{
    appearance Appearance {
        material  Material {
            diffuseColor 0.6666666666666666 0.6980392156862745 0.7686274509803922
            specularColor 0.3333333333333333 0.34901960784313724 0.3843137254901961
            ambientIntensity 0.6967
            transparency 0.0
            shininess 0.5
        }
    }
    geometry IndexedFaceSet {
        ccw TRUE
        solid FALSE
        coord DEF co Coordinate {
            point [
                -1.2341 1.2599 1.2148, -1.2341 1.2599 1.3207, -1.1281 1.2599 1.2148, -1.1281 1.2599 1.3207, -1.2795 1.1811 1.1693, -1.0827 1.1811 1.1693, -1.0827 1.1811 1.3661, -1.2795 1.1811 1.3661, -1.2795 0.3858 1.3661, -1.2795 0.3858 1.1693, -1.0827 0.3858 1.1693, -1.0827 0.3858 1.3661
            ]
        }
        coordIndex [
            0,1,2,-1,2,1,3,-1,4,0,5,-1,5,0,2,-1,6,3,7,-1,7,3,1,-1,5,2,6,-1,6,2,3,-1,0,4,1,-1,1,4,7,-1,7,4,8,-1,8,4,9,-1,10,5,11,-1,11,5,6,-1,6,7,11,-1,11,7,8,-1,9,4,10,-1,10,4,5,-1,
        ]
    }
}
Shape{
    appearance Appearance {
        material  Material {
            diffuseColor 1.0 0.9411764705882353 0.8117647058823529
            specularColor 0.30196078431372547 0.2823529411764706 0.24313725490196078
            ambientIntensity 0.944
            transparency 0.0
            shininess 0.5
        }
    }
    geometry IndexedFaceSet {
        ccw TRUE
        solid FALSE
        coord DEF co Coordinate {
            point [
                0.935 0.3071 0.9331, 0.935 0.3858 1.0118, 1.4272 0.3071 0.9331, 1.4272 0.3858 1.0118, -0.6398 0.3071 0.9331, -0.6398 0.3858 1.0118, -0.1476 0.3071 0.9331, -0.1476 0.3858 1.0118, -1.4272 0.3071 0.9331, -1.4272 0.3858 1.0118, -0.935 0.3071 0.9331, -0.935 0.3858 1.0118
            ]
        }
        coordIndex [
            0,1,2,-1,2,1,3,-1,4,5,6,-1,6,5,7,-1,8,9,10,-1,10,9,11,-1,
        ]
    }
}
Shape{
    appearance Appearance {
        material  Material {
            diffuseColor 0.6666666666666666 0.6980392156862745 0.7686274509803922
            specularColor 0.3333333333333333 0.34901960784313724 0.3843137254901961
            ambientIntensity 0.6967
            transparency 0.0
            shininess 0.5
        }
    }
    geometry IndexedFaceSet {
        ccw TRUE
        solid FALSE
        coord DEF co Coordinate {
            point [
                2.0669 1.6063 0.0, 2.0669 1.4606 0.0, 2.0669 1.4138 0.0178, 2.0669 1.6745 0.0394, 2.0669 1.662 0.0231, 2.0669 1.6457 0.0105, 2.0669 1.3144 0.0178, 2.0669 0.5499 0.0472, 2.0669 1.3641 0.0239, 2.0669 1.6785 0.0472, 2.0669 1.6267 0.0027, 2.0669 1.2676 0.0, 2.0669 0.6221 0.0, 2.0669 0.5539 0.0394, 2.0669 0.6017 0.0027, 2.0669 0.5664 0.0231, 2.0669 0.5827 0.0105, 2.185 1.2676 0.0, 2.185 1.3144 0.0178, 2.185 1.3641 0.0239, 2.185 1.4138 0.0178, 2.185 1.4606 0.0, 2.185 1.6063 0.0, 2.185 1.6267 0.0027, 2.185 1.6457 0.0105, 2.185 1.662 0.0231, 2.185 1.6745 0.0394, 2.185 1.6824 0.0584, 2.0669 1.6824 0.0584, 2.0669 1.685 0.0787, 2.185 1.685 0.0787, 2.185 1.685 0.9064, 2.0669 1.685 0.9064, 2.0669 1.6824 0.9267, 2.185 1.6824 0.9267, 2.0669 1.6745 0.9457, 2.185 1.6745 0.9457, 2.0669 1.662 0.962, 2.185 1.662 0.962, 2.0669 1.6457 0.9745, 2.185 1.6457 0.9745, 2.0669 1.6267 0.9824, 2.185 1.6267 0.9824, 2.0669 1.6063 0.9851, 2.185 1.6063 0.9851, 2.185 1.4961 0.9851, 2.0669 1.4961 0.9851, 2.0669 0.5433 0.0787, 2.185 0.5433 0.0787, 2.0669 0.5433 0.3622, 2.185 0.5433 0.3622, 2.0669 0.546 0.0584, 2.185 0.546 0.0584, 2.185 0.5539 0.0394, 2.185 0.5664 0.0231, 2.185 0.5827 0.0105, 2.185 0.6017 0.0027, 2.185 0.6221 0.0, 2.185 1.4961 0.3622, -2.0669 1.6063 0.9851, -2.185 1.6063 0.9851, -2.0669 1.4961 0.9851, -2.185 1.4961 0.9851, -2.185 0.5433 0.0787, -2.0669 0.5433 0.0787, -2.185 0.5433 0.3622, -2.0669 0.5433 0.3622, -2.185 1.4961 0.3622, -2.185 0.546 0.0584, -2.185 0.6221 0.0, -2.185 1.685 0.9064, -2.185 1.6267 0.9824, -2.185 1.4138 0.0178, -2.185 1.3641 0.0239, -2.185 1.3144 0.0178, -2.185 1.2676 0.0, -2.185 0.5827 0.0105, -2.185 0.5664 0.0231, -2.185 0.5539 0.0394, -2.185 1.685 0.0787, -2.185 1.6824 0.0584, -2.185 0.6017 0.0027, -2.185 1.6457 0.9745, -2.185 1.662 0.962, -2.185 1.6824 0.9267, -2.185 1.6745 0.9457, -2.185 1.6745 0.0394, -2.185 1.662 0.0231, -2.185 1.6457 0.0105, -2.185 1.4606 0.0, -2.185 1.6063 0.0, -2.185 1.6267 0.0027, -2.0669 0.6221 0.0, -2.0669 0.5499 0.0472, -2.0669 0.5539 0.0394, -2.0669 1.4138 0.0178, -2.0669 1.6785 0.0472, -2.0669 1.3641 0.0239, -2.0669 1.3144 0.0178, -2.0669 1.2676 0.0, -2.0669 0.5664 0.0231, -2.0669 0.5827 0.0105, -2.0669 0.6017 0.0027, -2.0669 1.6457 0.0105, -2.0669 1.662 0.0231, -2.0669 1.6745 0.0394, -2.0669 1.4606 0.0, -2.0669 1.6063 0.0, -2.0669 1.6267 0.0027, -2.0669 0.546 0.0584, -2.0669 1.6267 0.9824, -2.0669 1.6457 0.9745, -2.0669 1.662 0.962, -2.0669 1.6745 0.9457, -2.0669 1.6824 0.9267, -2.0669 1.685 0.9064, -2.0669 1.685 0.0787, -2.0669 1.6824 0.0584
            ]
        }
        coordIndex [
            0,1,2,-1,3,4,5,-1,6,7,8,-1,8,7,9,-1,5,10,3,-1,3,10,0,-1,3,0,9,-1,9,0,2,-1,9,2,8,-1,6,11,7,-1,7,11,12,-1,7,12,13,-1,13,12,14,-1,13,14,15,-1,15,14,16,-1,17,11,18,-1,18,11,6,-1,18,6,19,-1,19,6,8,-1,19,8,20,-1,20,8,2,-1,20,2,21,-1,21,2,1,-1,22,21,0,-1,0,21,1,-1,22,0,10,-1,22,10,23,-1,23,10,5,-1,23,5,24,-1,24,5,4,-1,24,4,25,-1,25,4,3,-1,25,3,26,-1,26,3,9,-1,26,9,27,-1,9,28,27,-1,27,28,29,-1,27,29,30,-1,31,30,32,-1,32,30,29,-1,31,32,33,-1,31,33,34,-1,34,33,35,-1,34,35,36,-1,36,35,37,-1,36,37,38,-1,38,37,39,-1,38,39,40,-1,40,39,41,-1,40,41,42,-1,42,41,43,-1,42,43,44,-1,44,43,45,-1,45,43,46,-1,47,48,49,-1,49,48,50,-1,48,47,51,-1,48,51,52,-1,52,51,7,-1,52,7,53,-1,7,13,53,-1,53,13,15,-1,53,15,54,-1,54,15,16,-1,54,16,55,-1,55,16,14,-1,55,14,56,-1,56,14,12,-1,56,12,57,-1,17,57,11,-1,11,57,12,-1,27,30,58,-1,58,30,45,-1,45,30,31,-1,45,31,44,-1,19,20,58,-1,58,20,21,-1,21,22,58,-1,58,22,23,-1,58,23,24,-1,36,38,34,-1,34,38,40,-1,34,40,31,-1,31,40,42,-1,31,42,44,-1,57,17,58,-1,58,17,18,-1,58,18,19,-1,24,25,58,-1,58,25,26,-1,58,26,27,-1,58,50,57,-1,57,50,48,-1,57,48,56,-1,56,48,52,-1,52,53,56,-1,56,53,54,-1,56,54,55,-1,59,60,61,-1,61,60,62,-1,63,64,65,-1,65,64,66,-1,63,65,67,-1,68,63,69,-1,62,60,70,-1,70,60,71,-1,72,73,67,-1,67,73,74,-1,67,74,63,-1,63,74,75,-1,63,75,69,-1,76,77,78,-1,62,70,67,-1,67,70,79,-1,67,79,80,-1,68,69,78,-1,78,69,81,-1,78,81,76,-1,71,82,70,-1,70,82,83,-1,70,83,84,-1,84,83,85,-1,80,86,67,-1,67,86,87,-1,67,87,88,-1,89,72,90,-1,90,72,67,-1,90,67,91,-1,91,67,88,-1,92,93,94,-1,95,96,97,-1,97,96,93,-1,97,93,98,-1,98,93,92,-1,98,92,99,-1,100,101,94,-1,94,101,102,-1,94,102,92,-1,103,104,105,-1,95,106,96,-1,96,106,107,-1,96,107,105,-1,105,107,108,-1,105,108,103,-1,89,106,72,-1,72,106,95,-1,72,95,73,-1,73,95,97,-1,73,97,74,-1,74,97,98,-1,74,98,75,-1,75,98,99,-1,69,75,92,-1,92,75,99,-1,69,92,102,-1,69,102,81,-1,81,102,101,-1,81,101,76,-1,76,101,100,-1,76,100,77,-1,77,100,94,-1,77,94,78,-1,78,94,93,-1,78,93,68,-1,93,109,68,-1,68,109,64,-1,68,64,63,-1,60,59,110,-1,60,110,71,-1,71,110,111,-1,71,111,82,-1,82,111,112,-1,82,112,83,-1,83,112,113,-1,83,113,85,-1,85,113,114,-1,85,114,84,-1,84,114,115,-1,84,115,70,-1,79,70,116,-1,116,70,115,-1,79,116,117,-1,79,117,80,-1,80,117,96,-1,80,96,86,-1,96,105,86,-1,86,105,104,-1,86,104,87,-1,87,104,103,-1,87,103,88,-1,88,103,108,-1,88,108,91,-1,91,108,107,-1,91,107,90,-1,89,90,106,-1,106,90,107,-1,
        ]
    }
}
Shape{
    appearance Appearance {
        material  Material {
            diffuseColor 1.0 0.9411764705882353 0.8117647058823529
            specularColor 0.30196078431372547 0.2823529411764706 0.24313725490196078
            ambientIntensity 0.944
            transparency 0.0
            shininess 0.5
        }
    }
    geometry IndexedFaceSet {
        ccw TRUE
        solid FALSE
        coord DEF co Coordinate {
            point [
                -1.6535 -0.6693 1.8976, -1.3386 -0.6693 1.8976, -1.6535 1.2205 1.8976, -1.3386 1.2205 1.8976, 1.6535 1.2205 1.8976, 1.3386 1.2205 1.8976, 1.6535 -0.6693 1.8976, 1.3386 -0.6693 1.8976, 1.9685 -0.5118 0.4409, 1.2992 -0.5118 0.4409, 1.9685 -0.6693 0.4409, 1.2992 -0.6693 0.4409, 1.2992 -0.5118 1.0709, 1.9685 -0.5118 1.0709, 1.2992 -0.6693 1.0709, 1.9685 -0.6693 1.0709, 1.063 -0.5118 0.4409, 0.5118 -0.5118 0.4409, 1.063 -0.6693 0.4409, 0.5118 -0.6693 0.4409, 0.5118 -0.5118 1.0709, 1.063 -0.5118 1.0709, 0.5118 -0.6693 1.0709, 1.063 -0.6693 1.0709, -0.5118 -0.5118 0.4409, -1.063 -0.5118 0.4409, -0.5118 -0.6693 0.4409, -1.063 -0.6693 0.4409, -1.063 -0.5118 1.0709, -0.5118 -0.5118 1.0709, -1.063 -0.6693 1.0709, -0.5118 -0.6693 1.0709, -0.2756 -0.5118 1.0709, 0.2756 -0.5118 1.0709, -0.2756 -0.6693 1.0709, 0.2756 -0.6693 1.0709, 0.2756 -0.5118 0.4409, -0.2756 -0.5118 0.4409, 0.2756 -0.6693 0.4409, -0.2756 -0.6693 0.4409, -1.9685 -0.5118 1.0709, -1.2992 -0.5118 1.0709, -1.9685 -0.6693 1.0709, -1.2992 -0.6693 1.0709, -1.2992 -0.5118 0.4409, -1.9685 -0.5118 0.4409, -1.2992 -0.6693 0.4409, -1.9685 -0.6693 0.4409, 0.8661 -0.2756 2.0551, 0.8661 -0.2756 1.6614, 0.8661 -0.6693 2.0551, 0.8661 -0.6693 1.6614, -0.8661 -0.2756 1.6614, -0.8661 -0.6693 1.6614, -0.8661 -0.2756 2.0551, -0.8661 -0.6693 2.0551
            ]
        }
        coordIndex [
            0,1,2,-1,2,1,3,-1,4,5,6,-1,6,5,7,-1,8,9,10,-1,10,9,11,-1,12,13,14,-1,14,13,15,-1,16,17,18,-1,18,17,19,-1,20,21,22,-1,22,21,23,-1,24,25,26,-1,26,25,27,-1,28,29,30,-1,30,29,31,-1,32,33,34,-1,34,33,35,-1,36,37,38,-1,38,37,39,-1,40,41,42,-1,42,41,43,-1,44,45,46,-1,46,45,47,-1,48,49,50,-1,50,49,51,-1,49,52,51,-1,51,52,53,-1,52,54,53,-1,53,54,55,-1,54,48,55,-1,55,48,50,-1,54,52,48,-1,48,52,49,-1,
        ]
    }
}
Shape{
    appearance Appearance {
        material  Material {
            diffuseColor 0.25098039215686274 0.25098039215686274 0.25098039215686274
            specularColor 0.12549019607843137 0.12549019607843137 0.12549019607843137
            ambientIntensity 0.251
            transparency 0.0
            shininess 0.5
        }
    }
    geometry IndexedFaceSet {
        ccw TRUE
        solid FALSE
        coord DEF co Coordinate {
            point [
                -0.3529 -0.0749 0.0476, -0.4297 -0.2718 0.0476, -0.3529 -0.0749 0.0472, -0.4297 -0.2718 0.0472, -0.4009 -0.2718 0.0476, -0.4009 -0.2718 0.0472, -0.381 -0.2166 0.0476, -0.381 -0.2166 0.0472, -0.2997 -0.2166 0.0476, -0.2997 -0.2166 0.0472, -0.2809 -0.2718 0.0476, -0.2809 -0.2718 0.0472, -0.2521 -0.2718 0.0476, -0.2521 -0.2718 0.0472, -0.3265 -0.0749 0.0476, -0.3265 -0.0749 0.0472, -0.3063 -0.1949 0.0476, -0.3721 -0.1949 0.0476, -0.3357 -0.1127 0.0476, -0.3376 -0.1059 0.0476, -0.3388 -0.0989 0.0476, -0.3395 -0.0989 0.0476, -0.3407 -0.1059 0.0476, -0.3425 -0.1127 0.0476, -0.3063 -0.1949 0.0472, -0.3721 -0.1949 0.0472, -0.3357 -0.1127 0.0472, -0.3376 -0.1059 0.0472, -0.3388 -0.0989 0.0472, -0.3395 -0.0989 0.0472, -0.3407 -0.1059 0.0472, -0.3425 -0.1127 0.0472, -0.1327 -0.2718 0.0476, -0.0792 -0.2718 0.0476, -0.1327 -0.2718 0.0472, -0.0792 -0.2718 0.0472, -0.0792 -0.0749 0.0476, -0.0792 -0.0749 0.0472, -0.1348 -0.0749 0.0476, -0.1348 -0.0749 0.0472, -0.2377 -0.1709 0.0476, -0.2377 -0.1709 0.0472, -0.2362 -0.1523 0.0472, -0.2362 -0.1523 0.0476, -0.2309 -0.1329 0.0472, -0.2309 -0.1329 0.0476, -0.2218 -0.116 0.0472, -0.2218 -0.116 0.0476, -0.2079 -0.1006 0.0472, -0.2079 -0.1006 0.0476, -0.2077 -0.1004 0.0472, -0.2077 -0.1004 0.0476, -0.1862 -0.086 0.0472, -0.1862 -0.086 0.0476, -0.1632 -0.078 0.0472, -0.1632 -0.078 0.0476, -0.1571 -0.2696 0.0472, -0.1571 -0.2696 0.0476, -0.1798 -0.2629 0.0472, -0.1798 -0.2629 0.0476, -0.2003 -0.2509 0.0472, -0.2003 -0.2509 0.0476, -0.2165 -0.2354 0.0472, -0.2165 -0.2354 0.0476, -0.2278 -0.2178 0.0472, -0.2278 -0.2178 0.0476, -0.2349 -0.1972 0.0472, -0.2349 -0.1972 0.0476, -0.1981 -0.1241 0.0476, -0.1886 -0.114 0.0476, -0.1742 -0.1047 0.0476, -0.158 -0.099 0.0476, -0.1347 -0.0965 0.0476, -0.1056 -0.0965 0.0476, -0.1056 -0.2502 0.0476, -0.1336 -0.2502 0.0476, -0.1543 -0.2482 0.0476, -0.1709 -0.2431 0.0476, -0.1843 -0.2351 0.0476, -0.1954 -0.2242 0.0476, -0.2037 -0.2106 0.0476, -0.2094 -0.1921 0.0476, -0.2113 -0.1714 0.0476, -0.2096 -0.1518 0.0476, -0.205 -0.1363 0.0476, -0.1347 -0.0965 0.0472, -0.1056 -0.0965 0.0472, -0.158 -0.099 0.0472, -0.1742 -0.1047 0.0472, -0.1886 -0.114 0.0472, -0.1981 -0.1241 0.0472, -0.205 -0.1363 0.0472, -0.2096 -0.1518 0.0472, -0.2113 -0.1714 0.0472, -0.2094 -0.1921 0.0472, -0.2037 -0.2106 0.0472, -0.1954 -0.2242 0.0472, -0.1843 -0.2351 0.0472, -0.1709 -0.2431 0.0472, -0.1543 -0.2482 0.0472, -0.1336 -0.2502 0.0472, -0.1056 -0.2502 0.0472, -0.0408 -0.2502 0.0476, -0.0408 -0.2718 0.0476, -0.0408 -0.2502 0.0472, -0.0408 -0.2718 0.0472, 0.0648 -0.2718 0.0476, 0.0648 -0.2718 0.0472, 0.0648 -0.0749 0.0476, 0.0648 -0.0749 0.0472, -0.036 -0.0749 0.0476, -0.036 -0.0749 0.0472, -0.036 -0.0965 0.0476, -0.036 -0.0965 0.0472, 0.0384 -0.0965 0.0476, 0.0384 -0.0965 0.0472, 0.0384 -0.1613 0.0476, 0.0384 -0.1613 0.0472, -0.0312 -0.1613 0.0476, -0.0312 -0.1613 0.0472, -0.0312 -0.1829 0.0476, -0.0312 -0.1829 0.0472, 0.0384 -0.1829 0.0476, 0.0384 -0.1829 0.0472, 0.0384 -0.2502 0.0476, 0.0384 -0.2502 0.0472, 0.1032 -0.24 0.0476, 0.1032 -0.2616 0.0476, 0.1032 -0.24 0.0472, 0.1032 -0.2616 0.0472, 0.1242 -0.2702 0.0476, 0.1574 -0.2742 0.0476, 0.1574 -0.2742 0.0472, 0.152 -0.2741 0.0472, 0.152 -0.2741 0.0476, 0.1441 -0.273 0.0472, 0.1242 -0.2702 0.0472, 0.169 -0.273 0.0472, 0.1816 -0.2717 0.0476, 0.1816 -0.2717 0.0472, 0.2007 -0.2651 0.0476, 0.2007 -0.2651 0.0472, 0.2166 -0.255 0.0476, 0.2166 -0.255 0.0472, 0.2313 -0.2394 0.0476, 0.2313 -0.2394 0.0472, 0.2418 -0.2207 0.0476, 0.2418 -0.2207 0.0472, 0.2478 -0.1999 0.0476, 0.2478 -0.1999 0.0472, 0.2497 -0.1771 0.0476, 0.2497 -0.1771 0.0472, 0.1496 -0.0725 0.0476, 0.1496 -0.0725 0.0472, 0.1693 -0.0741 0.0472, 0.1693 -0.0741 0.0476, 0.1913 -0.0805 0.0472, 0.1913 -0.0805 0.0476, 0.21 -0.0913 0.0472, 0.21 -0.0913 0.0476, 0.2277 -0.1084 0.0472, 0.2277 -0.1084 0.0476, 0.2393 -0.1268 0.0472, 0.2393 -0.1268 0.0476, 0.2468 -0.1491 0.0472, 0.2468 -0.1491 0.0476, 0.1032 -0.0803 0.0476, 0.1032 -0.0803 0.0472, 0.126 -0.0741 0.0472, 0.126 -0.0741 0.0476, 0.1032 -0.1067 0.0476, 0.1032 -0.1067 0.0472, 0.1493 -0.0941 0.0476, 0.1493 -0.0941 0.0472, 0.1254 -0.0972 0.0472, 0.1254 -0.0972 0.0476, 0.2233 -0.1754 0.0476, 0.2233 -0.1754 0.0472, 0.2223 -0.1601 0.0472, 0.2223 -0.1601 0.0476, 0.2171 -0.1391 0.0472, 0.2171 -0.1391 0.0476, 0.209 -0.1239 0.0472, 0.209 -0.1239 0.0476, 0.1971 -0.1107 0.0472, 0.1971 -0.1107 0.0476, 0.1834 -0.1016 0.0472, 0.1834 -0.1016 0.0476, 0.1687 -0.0963 0.0472, 0.1687 -0.0963 0.0476, 0.1538 -0.2526 0.0476, 0.1538 -0.2526 0.0472, 0.1721 -0.2505 0.0472, 0.1721 -0.2505 0.0476, 0.1865 -0.2452 0.0472, 0.1865 -0.2452 0.0476, 0.1985 -0.2371 0.0472, 0.1985 -0.2371 0.0476, 0.2078 -0.2273 0.0472, 0.2078 -0.2273 0.0476, 0.2159 -0.2137 0.0472, 0.2159 -0.2137 0.0476, 0.2213 -0.1968 0.0472, 0.2213 -0.1968 0.0476, 0.1068 -0.2419 0.0472, 0.1068 -0.2419 0.0476, 0.1276 -0.2497 0.0472, 0.1276 -0.2497 0.0476, 0.2665 -0.2502 0.0476, 0.2665 -0.2718 0.0476, 0.2665 -0.2502 0.0472, 0.2665 -0.2718 0.0472, 0.3673 -0.2718 0.0476, 0.3673 -0.2718 0.0472, 0.3673 -0.0749 0.0476, 0.3673 -0.0749 0.0472, 0.3409 -0.0749 0.0476, 0.3409 -0.0749 0.0472, 0.3409 -0.2502 0.0476, 0.3409 -0.2502 0.0472
            ]
        }
        coordIndex [
            0,1,2,-1,2,1,3,-1,1,4,3,-1,3,4,5,-1,4,6,5,-1,5,6,7,-1,6,8,7,-1,7,8,9,-1,8,10,9,-1,9,10,11,-1,10,12,11,-1,11,12,13,-1,12,14,13,-1,13,14,15,-1,14,0,15,-1,15,0,2,-1,16,8,17,-1,17,8,6,-1,18,14,16,-1,16,14,12,-1,16,12,8,-1,8,12,10,-1,18,19,14,-1,14,19,20,-1,14,20,0,-1,0,20,21,-1,0,21,22,-1,22,23,0,-1,0,23,17,-1,0,17,1,-1,1,17,6,-1,1,6,4,-1,16,17,24,-1,24,17,25,-1,18,16,26,-1,26,16,24,-1,18,26,27,-1,18,27,19,-1,19,27,28,-1,19,28,20,-1,21,20,29,-1,29,20,28,-1,21,29,30,-1,21,30,22,-1,22,30,31,-1,22,31,23,-1,17,23,25,-1,25,23,31,-1,32,33,34,-1,34,33,35,-1,33,36,35,-1,35,36,37,-1,36,38,37,-1,37,38,39,-1,40,41,42,-1,40,42,43,-1,43,42,44,-1,43,44,45,-1,45,44,46,-1,45,46,47,-1,47,46,48,-1,47,48,49,-1,49,48,50,-1,49,50,51,-1,51,50,52,-1,51,52,53,-1,53,52,54,-1,53,54,55,-1,55,54,39,-1,55,39,38,-1,32,34,56,-1,32,56,57,-1,57,56,58,-1,57,58,59,-1,59,58,60,-1,59,60,61,-1,61,60,62,-1,61,62,63,-1,63,62,64,-1,63,64,65,-1,65,64,66,-1,65,66,67,-1,67,66,41,-1,67,41,40,-1,45,47,68,-1,68,47,49,-1,68,49,69,-1,69,49,51,-1,69,51,70,-1,70,51,53,-1,70,53,71,-1,71,53,55,-1,71,55,72,-1,72,55,38,-1,72,38,73,-1,73,38,36,-1,73,36,74,-1,74,36,33,-1,74,33,75,-1,75,33,32,-1,75,32,76,-1,76,32,57,-1,76,57,77,-1,77,57,59,-1,77,59,78,-1,78,59,61,-1,78,61,79,-1,79,61,63,-1,79,63,80,-1,80,63,65,-1,80,65,81,-1,81,65,67,-1,81,67,82,-1,82,67,40,-1,82,40,83,-1,83,40,43,-1,83,43,84,-1,84,43,45,-1,84,45,68,-1,72,73,85,-1,85,73,86,-1,72,85,87,-1,72,87,71,-1,71,87,88,-1,71,88,70,-1,70,88,89,-1,70,89,69,-1,69,89,90,-1,69,90,68,-1,68,90,91,-1,68,91,84,-1,84,91,92,-1,84,92,83,-1,83,92,93,-1,83,93,82,-1,82,93,94,-1,82,94,81,-1,81,94,95,-1,81,95,80,-1,80,95,96,-1,80,96,79,-1,79,96,97,-1,79,97,78,-1,78,97,98,-1,78,98,77,-1,77,98,99,-1,77,99,76,-1,76,99,100,-1,76,100,75,-1,74,75,101,-1,101,75,100,-1,73,74,86,-1,86,74,101,-1,102,103,104,-1,104,103,105,-1,103,106,105,-1,105,106,107,-1,106,108,107,-1,107,108,109,-1,108,110,109,-1,109,110,111,-1,110,112,111,-1,111,112,113,-1,112,114,113,-1,113,114,115,-1,114,116,115,-1,115,116,117,-1,116,118,117,-1,117,118,119,-1,118,120,119,-1,119,120,121,-1,120,122,121,-1,121,122,123,-1,122,124,123,-1,123,124,125,-1,124,102,125,-1,125,102,104,-1,106,103,102,-1,102,124,106,-1,106,124,122,-1,106,122,108,-1,112,110,114,-1,114,110,108,-1,114,108,116,-1,116,108,122,-1,116,122,118,-1,118,122,120,-1,126,127,128,-1,128,127,129,-1,129,127,130,-1,131,132,133,-1,131,133,134,-1,134,133,135,-1,134,135,130,-1,130,135,136,-1,130,136,129,-1,132,131,137,-1,137,131,138,-1,137,138,139,-1,139,138,140,-1,139,140,141,-1,141,140,142,-1,141,142,143,-1,143,142,144,-1,143,144,145,-1,145,144,146,-1,145,146,147,-1,147,146,148,-1,147,148,149,-1,149,148,150,-1,149,150,151,-1,152,153,154,-1,152,154,155,-1,155,154,156,-1,155,156,157,-1,157,156,158,-1,157,158,159,-1,159,158,160,-1,159,160,161,-1,161,160,162,-1,161,162,163,-1,163,162,164,-1,163,164,165,-1,165,164,151,-1,165,151,150,-1,166,167,168,-1,166,168,169,-1,169,168,153,-1,169,153,152,-1,166,170,167,-1,167,170,171,-1,172,173,174,-1,172,174,175,-1,175,174,171,-1,175,171,170,-1,176,177,178,-1,176,178,179,-1,179,178,180,-1,179,180,181,-1,181,180,182,-1,181,182,183,-1,183,182,184,-1,183,184,185,-1,185,184,186,-1,185,186,187,-1,187,186,188,-1,187,188,189,-1,189,188,173,-1,189,173,172,-1,190,191,192,-1,190,192,193,-1,193,192,194,-1,193,194,195,-1,195,194,196,-1,195,196,197,-1,197,196,198,-1,197,198,199,-1,199,198,200,-1,199,200,201,-1,201,200,202,-1,201,202,203,-1,203,202,177,-1,203,177,176,-1,126,128,204,-1,126,204,205,-1,205,204,206,-1,205,206,207,-1,207,206,191,-1,207,191,190,-1,193,131,190,-1,190,131,134,-1,190,134,207,-1,207,134,130,-1,207,130,205,-1,205,130,127,-1,205,127,126,-1,170,166,175,-1,175,166,169,-1,175,169,172,-1,172,169,152,-1,172,152,189,-1,189,152,155,-1,189,155,187,-1,187,155,157,-1,187,157,185,-1,185,157,159,-1,185,159,183,-1,183,159,161,-1,183,161,181,-1,181,161,163,-1,181,163,179,-1,179,163,165,-1,179,165,176,-1,176,165,150,-1,176,150,203,-1,203,150,148,-1,203,148,201,-1,201,148,146,-1,201,146,199,-1,199,146,144,-1,199,144,197,-1,197,144,142,-1,197,142,195,-1,195,142,140,-1,195,140,193,-1,193,140,138,-1,193,138,131,-1,208,209,210,-1,210,209,211,-1,209,212,211,-1,211,212,213,-1,212,214,213,-1,213,214,215,-1,214,216,215,-1,215,216,217,-1,216,218,217,-1,217,218,219,-1,218,208,219,-1,219,208,210,-1,216,214,218,-1,218,214,212,-1,218,212,208,-1,208,212,209,-1,
        ]
    }
}
Shape{
    appearance Appearance {
        material  Material {
            diffuseColor 1.0 0.9411764705882353 0.8117647058823529
            specularColor 0.30196078431372547 0.2823529411764706 0.24313725490196078
            ambientIntensity 0.944
            transparency 0.0
            shininess 0.5
        }
    }
    geometry IndexedFaceSet {
        ccw TRUE
        solid FALSE
        coord DEF co Coordinate {
            point [
                -0.3063 -0.1949 0.0472, -0.3721 -0.1949 0.0472, -0.3357 -0.1127 0.0472, -0.3425 -0.1127 0.0472, -0.3376 -0.1059 0.0472, -0.3407 -0.1059 0.0472, -0.3388 -0.0989 0.0472, -0.3395 -0.0989 0.0472, -0.1056 -0.0965 0.0472, -0.1056 -0.2502 0.0472, -0.1347 -0.0965 0.0472, -0.1336 -0.2502 0.0472, -0.1543 -0.2482 0.0472, -0.2113 -0.1714 0.0472, -0.2096 -0.1518 0.0472, -0.205 -0.1363 0.0472, -0.158 -0.099 0.0472, -0.1709 -0.2431 0.0472, -0.1843 -0.2351 0.0472, -0.1954 -0.2242 0.0472, -0.2037 -0.2106 0.0472, -0.2094 -0.1921 0.0472, -0.1981 -0.1241 0.0472, -0.1886 -0.114 0.0472, -0.1742 -0.1047 0.0472, 1.7913 1.6929 0.2047, 1.7126 1.6142 0.2835, 1.7913 1.6929 1.1102, 1.7126 1.6142 1.1102, -1.7913 1.6929 0.2047, -1.7126 1.6142 0.2835, -1.7913 1.6929 1.1102, -1.7126 1.6142 1.1102, 1.7126 1.6142 1.8189, 1.7913 1.6929 1.8976, 1.7126 1.6142 1.4252, 1.7913 1.6929 1.4252, 1.122 1.6142 1.8189, 1.2008 1.6929 1.8976, 1.122 1.6142 1.9567, 1.2008 1.6929 2.0354, -1.122 1.6142 1.9567, -1.2008 1.6929 2.0354, -1.122 1.6142 1.8189, -1.2008 1.6929 1.8976, -1.7126 1.6142 1.8189, -1.7913 1.6929 1.8976, -1.7913 1.6929 1.4252, -1.7126 1.6142 1.4252
            ]
        }
        coordIndex [
            0,1,2,-1,2,1,3,-1,2,3,4,-1,4,3,5,-1,4,5,6,-1,6,5,7,-1,8,9,10,-1,10,9,11,-1,10,11,12,-1,13,14,10,-1,10,14,15,-1,10,15,16,-1,12,17,10,-1,10,17,18,-1,10,18,19,-1,19,20,10,-1,10,20,21,-1,10,21,13,-1,22,23,15,-1,15,23,24,-1,15,24,16,-1,25,26,27,-1,27,26,28,-1,29,30,25,-1,25,30,26,-1,31,32,29,-1,29,32,30,-1,33,34,35,-1,35,34,36,-1,37,38,33,-1,33,38,34,-1,39,40,37,-1,37,40,38,-1,41,42,39,-1,39,42,40,-1,43,44,41,-1,41,44,42,-1,45,46,43,-1,43,46,44,-1,46,45,47,-1,47,45,48,-1,
        ]
    }
}