#VRML V2.0 utf8
# 3D model generated by kicad-lcsc-manager
# Based on easyeda2kicad.py v1.0.1

Shape{
    appearance Appearance {
        material  Material {
            diffuseColor 0.2235294117647059 0.2235294117647059 0.2235294117647059
            specularColor 0.11372549019607843 0.11372549019607843 0.11372549019607843
            ambientIntensity 0.2235
            transparency 0.0
            shininess 0.5
        }
    }
    geometry IndexedFaceSet {
        ccw TRUE
        solid FALSE
        coord DEF co Coordinate {
            point [
                0.1011 0.0384 0.0039, 0.1127 0.0371 0.0039, 0.0756 -0.0503 0.0039, 0.098 -0.0689 0.0039, 0.0619 -0.0689 0.0039, 0.086 -0.0673 0.0039, 0.0735 -0.0621 0.0039, 1.378 -0.0689 0.0039, 0.3937 1.1811 0.0039, 1.378 0.6299 0.0039, 0.3937 1.7717 0.0039, 1.7717 0.6299 0.0039, 1.7717 1.7717 0.0039, 0.132 -0.0642 0.0039, 0.1714 -0.0682 0.0039, 0.1205 -0.0682 0.0039, 0.1129 -0.0689 0.0039, 0.1216 0.0339 0.0039, 0.1298 0.0284 0.0039, 0.1369 0.0205 0.0039, 0.1455 -0.0104 0.0039, 0.1443 -0.0232 0.0039, 0.1411 -0.0334 0.0039, 0.1148 -0.0555 0.0039, 0.1038 -0.0567 0.0039, 0.1234 -0.0523 0.0039, 0.1306 -0.0474 0.0039, 0.1362 -0.0416 0.0039, 0.0881 -0.055 0.0039, 0.0868 0.0365 0.0039, 0.0735 -0.0491 0.0039, 0.0735 0.0308 0.0039, 0.0619 1.1811 0.0039, 0.0735 0.0466 0.0039, 0.1418 0.0114 0.0039, 0.1449 -0.0012 0.0039, 0.1551 0.0188 0.0039, 0.1482 0.0298 0.0039, 0.2161 0.0499 0.0039, 0.2319 0.0499 0.0039, 0.2319 -0.0682 0.0039, 0.1415 -0.0582 0.0039, 0.1503 -0.0488 0.0039, 0.1714 -0.0553 0.0039, 0.1566 -0.0376 0.0039, 0.2161 -0.0553 0.0039, 0.1375 0.0401 0.0039, 0.1263 0.0465 0.0039, 0.1131 0.0504 0.0039, 0.1602 -0.0251 0.0039, 0.1613 -0.0114 0.0039, 0.1596 0.0054 0.0039, 0.1013 0.0513 0.0039, 0.0871 0.0503 0.0039, 1.7717 -0.6299 0.0039, 1.7717 -1.7717 0.0039, 1.378 -0.6299 0.0039, 0.3937 -1.7717 0.0039, 0.3937 -1.1811 0.0039, 0.0619 -1.1811 0.0039, 0.1027 -0.0696 0.0039, 0.106 -0.0697 0.0039, -1.7717 -1.7717 0.0039, -1.7717 -0.6299 0.0039, -0.3937 -1.7717 0.0039, -1.378 -0.6299 0.0039, -0.3937 -1.1811 0.0039, -1.378 -0.0689 0.0039, -0.1397 -0.0682 0.0039, -0.1252 -0.0359 0.0039, -0.1184 -0.0464 0.0039, -0.013 -0.0682 0.0039, 0.0504 -0.0682 0.0039, 0.0504 0.0499 0.0039, -1.378 0.6299 0.0039, -1.7717 0.6299 0.0039, -1.7717 1.7717 0.0039, -0.3937 1.7717 0.0039, -0.3937 1.1811 0.0039, -0.0101 0.0369 0.0039, 0.0346 0.0369 0.0039, 0.0346 -0.002 0.0039, -0.1087 -0.0557 0.0039, -0.0963 -0.0629 0.0039, -0.0827 -0.067 0.0039, -0.036 0.0499 0.0039, -0.0072 -0.002 0.0039, -0.0072 -0.0149 0.0039, 0.0346 -0.0149 0.0039, 0.0346 -0.0553 0.0039, -0.013 -0.0553 0.0039, -0.036 -0.0682 0.0039, -0.0681 -0.0682 0.0039, -0.0101 0.0499 0.0039, -0.2463 -0.0682 0.0039, -0.229 -0.0682 0.0039, -0.0864 0.0481 0.0039, -0.1002 0.0432 0.0039, -0.2002 0.0499 0.0039, -0.2171 -0.0351 0.0039, -0.1683 -0.0351 0.0039, -0.157 -0.0682 0.0039, -0.0693 0.0499 0.0039, -0.1131 0.0346 0.0039, -0.1132 0.0345 0.0039, -0.1216 0.0252 0.0039, -0.1844 0.0499 0.0039, -0.127 0.0151 0.0039, -0.1302 0.0034 0.0039, -0.1311 -0.0077 0.0039, -0.1294 -0.0235 0.0039, 1.6929 0.5906 0.0827, 1.6929 0.6299 0.0827, 1.6929 0.5906 0.2756, 1.6929 0.6299 0.2795, 1.6929 -0.5906 0.2756, 1.6929 -0.6299 0.2795, 1.6929 -0.5906 0.0827, 1.6929 -0.6299 0.0827, 1.7717 0.6299 0.2795, 1.7717 1.7717 0.7126, 1.7717 -0.6299 0.2795, 1.7717 -1.7717 0.7126, -0.3937 1.7717 0.0827, -1.7717 1.7717 0.7126, 0.3937 1.7717 0.0827, -1.7717 -0.6299 0.2795, -1.7717 -1.7717 0.7126, -1.7717 0.6299 0.2795, 0.3937 -1.7717 0.0827, -0.3937 -1.7717 0.0827, 1.359 1.2175 0.7126, 1.3725 1.25 0.7126, 1.3376 1.1896 0.7126, 1.3097 1.1682 0.7126, 1.2772 1.1548 0.7126, 1.359 1.3522 0.7126, 1.3725 1.3197 0.7126, 1.3771 1.2849 0.7126, 1.1077 1.2849 0.7126, 1.1123 1.3197 0.7126, 1.1257 1.3522 0.7126, 1.1471 1.3801 0.7126, 1.175 1.4015 0.7126, 1.2075 1.415 0.7126, 1.2424 1.4196 0.7126, 1.2772 1.415 0.7126, 1.3097 1.4015 0.7126, 1.3376 1.3801 0.7126, 1.2424 1.1502 0.7126, 1.2075 1.1548 0.7126, 1.175 1.1682 0.7126, 1.1471 1.1896 0.7126, 1.1257 1.2175 0.7126, 1.1123 1.25 0.7126, 0.3937 -1.1811 0.0827, -0.3937 -1.1811 0.0827, 0.3937 1.1811 0.0827, -0.3937 1.1811 0.0827, 1.378 -0.6299 0.0827, 1.378 0.6299 0.0827, -1.6929 0.6299 0.0827, -1.378 0.6299 0.0827, -1.6929 0.5906 0.0827, -1.378 -0.6299 0.0827, -1.6929 -0.5906 0.0827, -1.6929 -0.6299 0.0827, -1.6929 -0.6299 0.2795, -1.6929 0.6299 0.2795, -1.6929 -0.5906 0.2756, -1.6929 0.5906 0.2756
            ]
        }
        coordIndex [
            0,1,2,-1,3,4,5,-1,5,4,6,-1,7,8,9,-1,9,8,10,-1,9,10,11,-1,11,10,12,-1,13,14,15,-1,15,14,16,-1,1,17,2,-1,2,17,18,-1,2,18,19,-1,20,21,2,-1,2,21,22,-1,23,24,25,-1,25,24,26,-1,22,27,2,-1,2,27,26,-1,2,26,28,-1,28,26,24,-1,0,2,29,-1,29,2,30,-1,29,30,31,-1,31,30,32,-1,31,32,33,-1,19,34,2,-1,2,34,35,-1,2,35,20,-1,36,37,38,-1,38,37,32,-1,38,32,39,-1,39,32,8,-1,39,8,40,-1,40,8,7,-1,13,41,14,-1,14,41,42,-1,14,42,43,-1,43,42,44,-1,43,44,45,-1,37,46,32,-1,32,46,47,-1,32,47,48,-1,44,49,45,-1,45,49,50,-1,45,50,38,-1,38,50,51,-1,38,51,36,-1,48,52,32,-1,32,52,53,-1,32,53,33,-1,54,55,56,-1,56,55,57,-1,56,57,7,-1,7,57,58,-1,59,60,58,-1,58,60,61,-1,58,61,7,-1,7,61,16,-1,7,16,40,-1,40,16,14,-1,62,63,64,-1,64,63,65,-1,64,65,66,-1,66,65,67,-1,66,67,59,-1,68,69,70,-1,71,72,4,-1,4,72,73,-1,74,75,76,-1,76,77,78,-1,79,80,81,-1,70,82,68,-1,68,82,83,-1,68,83,84,-1,85,86,87,-1,88,89,87,-1,87,89,90,-1,87,90,85,-1,85,90,71,-1,85,71,91,-1,91,71,4,-1,91,4,92,-1,79,76,93,-1,93,76,78,-1,93,78,73,-1,73,78,32,-1,73,32,4,-1,4,32,30,-1,4,30,6,-1,94,95,4,-1,96,97,76,-1,98,94,67,-1,67,94,4,-1,67,4,59,-1,59,4,3,-1,59,3,60,-1,99,100,95,-1,95,100,101,-1,95,101,4,-1,4,101,68,-1,4,68,92,-1,92,68,84,-1,81,86,79,-1,79,86,85,-1,79,85,76,-1,76,85,102,-1,76,102,96,-1,97,103,76,-1,76,103,104,-1,76,104,105,-1,67,74,98,-1,98,74,76,-1,98,76,106,-1,106,76,105,-1,106,105,107,-1,107,108,106,-1,106,108,109,-1,106,109,68,-1,68,109,110,-1,68,110,69,-1,111,112,113,-1,113,112,114,-1,113,114,115,-1,115,114,116,-1,115,116,117,-1,117,116,118,-1,11,12,119,-1,119,12,120,-1,119,120,121,-1,121,120,122,-1,121,122,54,-1,54,122,55,-1,77,76,123,-1,123,76,124,-1,123,124,125,-1,125,124,120,-1,125,120,10,-1,10,120,12,-1,63,62,126,-1,126,62,127,-1,126,127,128,-1,128,127,124,-1,128,124,75,-1,75,124,76,-1,57,55,129,-1,129,55,122,-1,129,122,130,-1,130,122,127,-1,130,127,64,-1,64,127,62,-1,131,122,132,-1,132,122,120,-1,131,133,122,-1,122,133,134,-1,122,134,135,-1,136,137,120,-1,120,137,138,-1,120,138,132,-1,139,140,124,-1,124,140,141,-1,124,141,142,-1,142,143,124,-1,124,143,144,-1,124,144,120,-1,120,144,145,-1,120,145,146,-1,146,147,120,-1,120,147,148,-1,120,148,136,-1,135,149,122,-1,122,149,150,-1,122,150,127,-1,127,150,151,-1,151,152,127,-1,127,152,153,-1,127,153,124,-1,124,153,154,-1,124,154,139,-1,155,129,156,-1,156,129,130,-1,156,130,66,-1,66,130,64,-1,58,57,155,-1,155,57,129,-1,58,155,59,-1,59,155,156,-1,59,156,66,-1,157,158,125,-1,125,158,123,-1,78,77,158,-1,158,77,123,-1,157,125,8,-1,8,125,10,-1,78,158,32,-1,32,158,157,-1,32,157,8,-1,118,159,117,-1,117,159,160,-1,117,160,111,-1,111,160,112,-1,116,121,118,-1,118,121,54,-1,118,54,159,-1,159,54,56,-1,160,9,112,-1,112,9,11,-1,112,11,114,-1,114,11,119,-1,9,160,7,-1,7,160,159,-1,7,159,56,-1,161,162,163,-1,163,162,164,-1,163,164,165,-1,165,164,166,-1,164,65,166,-1,166,65,63,-1,166,63,167,-1,167,63,126,-1,168,128,161,-1,161,128,75,-1,161,75,162,-1,162,75,74,-1,65,164,67,-1,67,164,162,-1,67,162,74,-1,165,166,169,-1,169,166,167,-1,169,167,170,-1,170,167,168,-1,170,168,163,-1,163,168,161,-1,168,167,128,-1,128,167,126,-1,116,114,121,-1,121,114,119,-1,
        ]
    }
}
Shape{
    appearance Appearance {
        material  Material {
            diffuseColor 0.0 0.0 0.0
            specularColor 0.0 0.0 0.0
            ambientIntensity 0.0
            transparency 0.0
            shininess 0.5
        }
    }
    geometry IndexedFaceSet {
        ccw TRUE
        solid FALSE
        coord DEF co Coordinate {
            point [
                1.3771 1.2849 0.7087, 1.3771 1.2849 0.7126, 1.3725 1.3197 0.7087, 1.3725 1.3197 0.7126, 1.359 1.3522 0.7087, 1.359 1.3522 0.7126, 1.3376 1.3801 0.7087, 1.3376 1.3801 0.7126, 1.3097 1.4015 0.7087, 1.3097 1.4015 0.7126, 1.2772 1.415 0.7087, 1.2772 1.415 0.7126, 1.2424 1.4196 0.7087, 1.2424 1.4196 0.7126, 1.2075 1.415 0.7087, 1.2075 1.415 0.7126, 1.175 1.4015 0.7087, 1.175 1.4015 0.7126, 1.1471 1.3801 0.7087, 1.1471 1.3801 0.7126, 1.1257 1.3522 0.7087, 1.1257 1.3522 0.7126, 1.1123 1.3197 0.7087, 1.1123 1.3197 0.7126, 1.1077 1.2849 0.7087, 1.1077 1.2849 0.7126, 1.1123 1.25 0.7087, 1.1123 1.25 0.7126, 1.1257 1.2175 0.7087, 1.1257 1.2175 0.7126, 1.1471 1.1896 0.7087, 1.1471 1.1896 0.7126, 1.175 1.1682 0.7087, 1.175 1.1682 0.7126, 1.2075 1.1548 0.7087, 1.2075 1.1548 0.7126, 1.2424 1.1502 0.7087, 1.2424 1.1502 0.7126, 1.2772 1.1548 0.7087, 1.2772 1.1548 0.7126, 1.3097 1.1682 0.7087, 1.3097 1.1682 0.7126, 1.3376 1.1896 0.7087, 1.3376 1.1896 0.7126, 1.359 1.2175 0.7087, 1.359 1.2175 0.7126, 1.3725 1.25 0.7087, 1.3725 1.25 0.7126, 1.2424 1.2849 0.7087
            ]
        }
        coordIndex [
            0,1,2,-1,2,1,3,-1,2,3,4,-1,4,3,5,-1,4,5,6,-1,6,5,7,-1,6,7,8,-1,8,7,9,-1,8,9,10,-1,10,9,11,-1,10,11,12,-1,12,11,13,-1,12,13,14,-1,14,13,15,-1,14,15,16,-1,16,15,17,-1,16,17,18,-1,18,17,19,-1,18,19,20,-1,20,19,21,-1,20,21,22,-1,22,21,23,-1,22,23,24,-1,24,23,25,-1,24,25,26,-1,26,25,27,-1,26,27,28,-1,28,27,29,-1,28,29,30,-1,30,29,31,-1,30,31,32,-1,32,31,33,-1,32,33,34,-1,34,33,35,-1,34,35,36,-1,36,35,37,-1,36,37,38,-1,38,37,39,-1,38,39,40,-1,40,39,41,-1,40,41,42,-1,42,41,43,-1,42,43,44,-1,44,43,45,-1,44,45,46,-1,46,45,47,-1,46,47,0,-1,0,47,1,-1,44,46,48,-1,48,46,0,-1,48,0,2,-1,38,40,48,-1,48,40,42,-1,48,42,44,-1,32,34,48,-1,48,34,36,-1,48,36,38,-1,26,28,48,-1,48,28,30,-1,48,30,32,-1,20,22,48,-1,48,22,24,-1,48,24,26,-1,14,16,48,-1,48,16,18,-1,48,18,20,-1,8,10,48,-1,48,10,12,-1,48,12,14,-1,2,4,48,-1,48,4,6,-1,48,6,8,-1,
        ]
    }
}
Shape{
    appearance Appearance {
        material  Material {
            diffuseColor 0.8274509803921568 0.6666666666666666 0.12941176470588237
            specularColor 0.4117647058823529 0.3333333333333333 0.06666666666666667
            ambientIntensity 0.6535
            transparency 0.0
            shininess 0.5
        }
    }
    geometry IndexedFaceSet {
        ccw TRUE
        solid FALSE
        coord DEF co Coordinate {
            point [
                -1.7717 0.5906 0.2756, -1.7717 -0.5906 0.2756, -1.6929 0.5906 0.2756, -1.6929 -0.5906 0.2756, -1.7717 0.5906 0.0, -1.7717 -0.5906 0.0, -1.3858 0.5906 0.0, -1.3858 -0.5906 0.0, -1.3858 0.5906 0.0787, -1.3858 -0.5906 0.0787, -1.6929 0.5906 0.0787, -1.6929 -0.5906 0.0787, -1.6929 -0.5906 0.0827, -1.6929 0.5906 0.0827, 1.6929 0.5906 0.0827, 1.6929 0.5906 0.0787, 1.6929 -0.5906 0.0827, 1.6929 -0.5906 0.0787, 1.3858 0.5906 0.0787, 1.3858 -0.5906 0.0787, 1.3858 0.5906 0.0, 1.3858 -0.5906 0.0, 1.7717 0.5906 0.0, 1.7717 -0.5906 0.0, 1.7717 0.5906 0.2756, 1.7717 -0.5906 0.2756, 1.6929 0.5906 0.2756, 1.6929 -0.5906 0.2756
            ]
        }
        coordIndex [
            0,1,2,-1,2,1,3,-1,4,5,0,-1,0,5,1,-1,6,7,4,-1,4,7,5,-1,8,9,6,-1,6,9,7,-1,10,11,8,-1,8,11,9,-1,12,11,13,-1,13,11,10,-1,5,7,9,-1,3,1,12,-1,12,1,5,-1,12,5,11,-1,11,5,9,-1,4,0,2,-1,8,6,10,-1,10,6,4,-1,10,4,13,-1,13,4,2,-1,14,15,16,-1,16,15,17,-1,18,19,15,-1,15,19,17,-1,20,21,18,-1,18,21,19,-1,22,23,20,-1,20,23,21,-1,24,25,22,-1,22,25,23,-1,26,27,24,-1,24,27,25,-1,23,25,27,-1,19,21,17,-1,17,21,23,-1,17,23,16,-1,16,23,27,-1,22,20,18,-1,26,24,14,-1,14,24,22,-1,14,22,15,-1,15,22,18,-1,
        ]
    }
}
Shape{
    appearance Appearance {
        material  Material {
            diffuseColor 0.8509803921568627 0.8509803921568627 0.8509803921568627
            specularColor 0.4235294117647059 0.4235294117647059 0.4235294117647059
            ambientIntensity 0.851
            transparency 0.0
            shininess 0.5
        }
    }
    geometry IndexedFaceSet {
        ccw TRUE
        solid FALSE
        coord DEF co Coordinate {
            point [
                -0.2002 0.0499 0.0079, -0.2463 -0.0682 0.0079, -0.2002 0.0499 0.0039, -0.2463 -0.0682 0.0039, -0.229 -0.0682 0.0079, -0.229 -0.0682 0.0039, -0.2171 -0.0351 0.0079, -0.2171 -0.0351 0.0039, -0.1683 -0.0351 0.0079, -0.1683 -0.0351 0.0039, -0.157 -0.0682 0.0079, -0.157 -0.0682 0.0039, -0.1397 -0.0682 0.0079, -0.1397 -0.0682 0.0039, -0.1844 0.0499 0.0079, -0.1844 0.0499 0.0039, -0.1723 -0.0221 0.0079, -0.2118 -0.0221 0.0079, -0.1899 0.0272 0.0079, -0.191 0.0313 0.0079, -0.1918 0.0355 0.0079, -0.1922 0.0355 0.0079, -0.1929 0.0313 0.0079, -0.194 0.0272 0.0079, -0.1723 -0.0221 0.0039, -0.2118 -0.0221 0.0039, -0.1899 0.0272 0.0039, -0.191 0.0313 0.0039, -0.1918 0.0355 0.0039, -0.1922 0.0355 0.0039, -0.1929 0.0313 0.0039, -0.194 0.0272 0.0039, -0.0681 -0.0682 0.0079, -0.036 -0.0682 0.0079, -0.0681 -0.0682 0.0039, -0.036 -0.0682 0.0039, -0.036 0.0499 0.0079, -0.036 0.0499 0.0039, -0.0693 0.0499 0.0079, -0.0693 0.0499 0.0039, -0.1311 -0.0077 0.0079, -0.1311 -0.0077 0.0039, -0.1302 0.0034 0.0039, -0.1302 0.0034 0.0079, -0.127 0.0151 0.0039, -0.127 0.0151 0.0079, -0.1216 0.0252 0.0039, -0.1216 0.0252 0.0079, -0.1132 0.0345 0.0039, -0.1132 0.0345 0.0079, -0.1131 0.0346 0.0039, -0.1131 0.0346 0.0079, -0.1002 0.0432 0.0039, -0.1002 0.0432 0.0079, -0.0864 0.0481 0.0039, -0.0864 0.0481 0.0079, -0.0827 -0.067 0.0039, -0.0827 -0.067 0.0079, -0.0963 -0.0629 0.0039, -0.0963 -0.0629 0.0079, -0.1087 -0.0557 0.0039, -0.1087 -0.0557 0.0079, -0.1184 -0.0464 0.0039, -0.1184 -0.0464 0.0079, -0.1252 -0.0359 0.0039, -0.1252 -0.0359 0.0079, -0.1294 -0.0235 0.0039, -0.1294 -0.0235 0.0079, -0.1074 0.0204 0.0079, -0.1016 0.0264 0.0079, -0.093 0.032 0.0079, -0.0833 0.0354 0.0079, -0.0693 0.0369 0.0079, -0.0519 0.0369 0.0079, -0.0519 -0.0553 0.0079, -0.0686 -0.0553 0.0079, -0.0811 -0.0541 0.0079, -0.091 -0.051 0.0079, -0.0991 -0.0462 0.0079, -0.1057 -0.0397 0.0079, -0.1107 -0.0315 0.0079, -0.1141 -0.0204 0.0079, -0.1152 -0.008 0.0079, -0.1142 0.0037 0.0079, -0.1115 0.0131 0.0079, -0.0693 0.0369 0.0039, -0.0519 0.0369 0.0039, -0.0833 0.0354 0.0039, -0.093 0.032 0.0039, -0.1016 0.0264 0.0039, -0.1074 0.0204 0.0039, -0.1115 0.0131 0.0039, -0.1142 0.0037 0.0039, -0.1152 -0.008 0.0039, -0.1141 -0.0204 0.0039, -0.1107 -0.0315 0.0039, -0.1057 -0.0397 0.0039, -0.0991 -0.0462 0.0039, -0.091 -0.051 0.0039, -0.0811 -0.0541 0.0039, -0.0686 -0.0553 0.0039, -0.0519 -0.0553 0.0039, -0.013 -0.0553 0.0079, -0.013 -0.0682 0.0079, -0.013 -0.0553 0.0039, -0.013 -0.0682 0.0039, 0.0504 -0.0682 0.0079, 0.0504 -0.0682 0.0039, 0.0504 0.0499 0.0079, 0.0504 0.0499 0.0039, -0.0101 0.0499 0.0079, -0.0101 0.0499 0.0039, -0.0101 0.0369 0.0079, -0.0101 0.0369 0.0039, 0.0346 0.0369 0.0079, 0.0346 0.0369 0.0039, 0.0346 -0.002 0.0079, 0.0346 -0.002 0.0039, -0.0072 -0.002 0.0079, -0.0072 -0.002 0.0039, -0.0072 -0.0149 0.0079, -0.0072 -0.0149 0.0039, 0.0346 -0.0149 0.0079, 0.0346 -0.0149 0.0039, 0.0346 -0.0553 0.0079, 0.0346 -0.0553 0.0039, 0.0735 -0.0491 0.0079, 0.0735 -0.0621 0.0079, 0.0735 -0.0491 0.0039, 0.0735 -0.0621 0.0039, 0.086 -0.0673 0.0079, 0.106 -0.0697 0.0079, 0.106 -0.0697 0.0039, 0.1027 -0.0696 0.0039, 0.1027 -0.0696 0.0079, 0.098 -0.0689 0.0039, 0.086 -0.0673 0.0039, 0.1613 -0.0114 0.0079, 0.1613 -0.0114 0.0039, 0.1602 -0.0251 0.0039, 0.1602 -0.0251 0.0079, 0.1566 -0.0376 0.0039, 0.1566 -0.0376 0.0079, 0.1503 -0.0488 0.0039, 0.1503 -0.0488 0.0079, 0.1415 -0.0582 0.0039, 0.1415 -0.0582 0.0079, 0.132 -0.0642 0.0039, 0.132 -0.0642 0.0079, 0.1205 -0.0682 0.0039, 0.1205 -0.0682 0.0079, 0.1129 -0.0689 0.0039, 0.1013 0.0513 0.0079, 0.1013 0.0513 0.0039, 0.1131 0.0504 0.0039, 0.1131 0.0504 0.0079, 0.1263 0.0465 0.0039, 0.1263 0.0465 0.0079, 0.1375 0.0401 0.0039, 0.1375 0.0401 0.0079, 0.1482 0.0298 0.0039, 0.1482 0.0298 0.0079, 0.1551 0.0188 0.0039, 0.1551 0.0188 0.0079, 0.1596 0.0054 0.0039, 0.1596 0.0054 0.0079, 0.0735 0.0466 0.0079, 0.0735 0.0466 0.0039, 0.0871 0.0503 0.0039, 0.0871 0.0503 0.0079, 0.0735 0.0308 0.0079, 0.0735 0.0308 0.0039, 0.1011 0.0384 0.0079, 0.1011 0.0384 0.0039, 0.0868 0.0365 0.0039, 0.0868 0.0365 0.0079, 0.1455 -0.0104 0.0079, 0.1455 -0.0104 0.0039, 0.1449 -0.0012 0.0039, 0.1449 -0.0012 0.0079, 0.1418 0.0114 0.0039, 0.1418 0.0114 0.0079, 0.1369 0.0205 0.0039, 0.1369 0.0205 0.0079, 0.1298 0.0284 0.0039, 0.1298 0.0284 0.0079, 0.1216 0.0339 0.0039, 0.1216 0.0339 0.0079, 0.1127 0.0371 0.0039, 0.1127 0.0371 0.0079, 0.1038 -0.0567 0.0079, 0.1038 -0.0567 0.0039, 0.1148 -0.0555 0.0039, 0.1148 -0.0555 0.0079, 0.1234 -0.0523 0.0039, 0.1234 -0.0523 0.0079, 0.1306 -0.0474 0.0039, 0.1306 -0.0474 0.0079, 0.1362 -0.0416 0.0039, 0.1362 -0.0416 0.0079, 0.1411 -0.0334 0.0039, 0.1411 -0.0334 0.0079, 0.1443 -0.0232 0.0039, 0.1443 -0.0232 0.0079, 0.0756 -0.0503 0.0039, 0.0756 -0.0503 0.0079, 0.0881 -0.055 0.0039, 0.0881 -0.055 0.0079, 0.1714 -0.0553 0.0079, 0.1714 -0.0682 0.0079, 0.1714 -0.0553 0.0039, 0.1714 -0.0682 0.0039, 0.2319 -0.0682 0.0079, 0.2319 -0.0682 0.0039, 0.2319 0.0499 0.0079, 0.2319 0.0499 0.0039, 0.2161 0.0499 0.0079, 0.2161 0.0499 0.0039, 0.2161 -0.0553 0.0079, 0.2161 -0.0553 0.0039
            ]
        }
        coordIndex [
            0,1,2,-1,2,1,3,-1,1,4,3,-1,3,4,5,-1,4,6,5,-1,5,6,7,-1,6,8,7,-1,7,8,9,-1,8,10,9,-1,9,10,11,-1,10,12,11,-1,11,12,13,-1,12,14,13,-1,13,14,15,-1,14,0,15,-1,15,0,2,-1,16,8,17,-1,17,8,6,-1,18,14,16,-1,16,14,12,-1,16,12,8,-1,8,12,10,-1,18,19,14,-1,14,19,20,-1,14,20,0,-1,0,20,21,-1,0,21,22,-1,22,23,0,-1,0,23,17,-1,0,17,1,-1,1,17,6,-1,1,6,4,-1,16,17,24,-1,24,17,25,-1,18,16,26,-1,26,16,24,-1,18,26,27,-1,18,27,19,-1,19,27,28,-1,19,28,20,-1,21,20,29,-1,29,20,28,-1,21,29,30,-1,21,30,22,-1,22,30,31,-1,22,31,23,-1,17,23,25,-1,25,23,31,-1,32,33,34,-1,34,33,35,-1,33,36,35,-1,35,36,37,-1,36,38,37,-1,37,38,39,-1,40,41,42,-1,40,42,43,-1,43,42,44,-1,43,44,45,-1,45,44,46,-1,45,46,47,-1,47,46,48,-1,47,48,49,-1,49,48,50,-1,49,50,51,-1,51,50,52,-1,51,52,53,-1,53,52,54,-1,53,54,55,-1,55,54,39,-1,55,39,38,-1,32,34,56,-1,32,56,57,-1,57,56,58,-1,57,58,59,-1,59,58,60,-1,59,60,61,-1,61,60,62,-1,61,62,63,-1,63,62,64,-1,63,64,65,-1,65,64,66,-1,65,66,67,-1,67,66,41,-1,67,41,40,-1,45,47,68,-1,68,47,49,-1,68,49,69,-1,69,49,51,-1,69,51,70,-1,70,51,53,-1,70,53,71,-1,71,53,55,-1,71,55,72,-1,72,55,38,-1,72,38,73,-1,73,38,36,-1,73,36,74,-1,74,36,33,-1,74,33,75,-1,75,33,32,-1,75,32,76,-1,76,32,57,-1,76,57,77,-1,77,57,59,-1,77,59,78,-1,78,59,61,-1,78,61,79,-1,79,61,63,-1,79,63,80,-1,80,63,65,-1,80,65,81,-1,81,65,67,-1,81,67,82,-1,82,67,40,-1,82,40,83,-1,83,40,43,-1,83,43,84,-1,84,43,45,-1,84,45,68,-1,72,73,85,-1,85,73,86,-1,72,85,87,-1,72,87,71,-1,71,87,88,-1,71,88,70,-1,70,88,89,-1,70,89,69,-1,69,89,90,-1,69,90,68,-1,68,90,91,-1,68,91,84,-1,84,91,92,-1,84,92,83,-1,83,92,93,-1,83,93,82,-1,82,93,94,-1,82,94,81,-1,81,94,95,-1,81,95,80,-1,80,95,96,-1,80,96,79,-1,79,96,97,-1,79,97,78,-1,78,97,98,-1,78,98,77,-1,77,98,99,-1,77,99,76,-1,76,99,100,-1,76,100,75,-1,74,75,101,-1,101,75,100,-1,73,74,86,-1,86,74,101,-1,102,103,104,-1,104,103,105,-1,103,106,105,-1,105,106,107,-1,106,108,107,-1,107,108,109,-1,108,110,109,-1,109,110,111,-1,110,112,111,-1,111,112,113,-1,112,114,113,-1,113,114,115,-1,114,116,115,-1,115,116,117,-1,116,118,117,-1,117,118,119,-1,118,120,119,-1,119,120,121,-1,120,122,121,-1,121,122,123,-1,122,124,123,-1,123,124,125,-1,124,102,125,-1,125,102,104,-1,106,103,102,-1,102,124,106,-1,106,124,122,-1,106,122,108,-1,112,110,114,-1,114,110,108,-1,114,108,116,-1,116,108,122,-1,116,122,118,-1,118,122,120,-1,126,127,128,-1,128,127,129,-1,129,127,130,-1,131,132,133,-1,131,133,134,-1,134,133,135,-1,134,135,130,-1,130,135,136,-1,130,136,129,-1,137,138,139,-1,137,139,140,-1,140,139,141,-1,140,141,142,-1,142,141,143,-1,142,143,144,-1,144,143,145,-1,144,145,146,-1,146,145,147,-1,146,147,148,-1,148,147,149,-1,148,149,150,-1,150,149,131,-1,131,149,151,-1,131,151,132,-1,152,153,154,-1,152,154,155,-1,155,154,156,-1,155,156,157,-1,157,156,158,-1,157,158,159,-1,159,158,160,-1,159,160,161,-1,161,160,162,-1,161,162,163,-1,163,162,164,-1,163,164,165,-1,165,164,138,-1,165,138,137,-1,166,167,168,-1,166,168,169,-1,169,168,153,-1,169,153,152,-1,166,170,167,-1,167,170,171,-1,172,173,174,-1,172,174,175,-1,175,174,171,-1,175,171,170,-1,176,177,178,-1,176,178,179,-1,179,178,180,-1,179,180,181,-1,181,180,182,-1,181,182,183,-1,183,182,184,-1,183,184,185,-1,185,184,186,-1,185,186,187,-1,187,186,188,-1,187,188,189,-1,189,188,173,-1,189,173,172,-1,190,191,192,-1,190,192,193,-1,193,192,194,-1,193,194,195,-1,195,194,196,-1,195,196,197,-1,197,196,198,-1,197,198,199,-1,199,198,200,-1,199,200,201,-1,201,200,202,-1,201,202,203,-1,203,202,177,-1,203,177,176,-1,126,128,204,-1,126,204,205,-1,205,204,206,-1,205,206,207,-1,207,206,191,-1,207,191,190,-1,193,131,190,-1,190,131,134,-1,190,134,207,-1,207,134,130,-1,207,130,205,-1,205,130,127,-1,205,127,126,-1,170,166,175,-1,175,166,169,-1,175,169,172,-1,172,169,152,-1,172,152,189,-1,189,152,155,-1,189,155,187,-1,187,155,157,-1,187,157,185,-1,185,157,159,-1,185,159,183,-1,183,159,161,-1,183,161,181,-1,181,161,163,-1,181,163,179,-1,179,163,165,-1,179,165,176,-1,176,165,137,-1,176,137,203,-1,203,137,140,-1,203,140,201,-1,201,140,142,-1,201,142,199,-1,199,142,144,-1,199,144,197,-1,197,144,146,-1,197,146,195,-1,195,146,148,-1,195,148,193,-1,193,148,150,-1,193,150,131,-1,208,209,210,-1,210,209,211,-1,209,212,211,-1,211,212,213,-1,212,214,213,-1,213,214,215,-1,214,216,215,-1,215,216,217,-1,216,218,217,-1,217,218,219,-1,218,208,219,-1,219,208,210,-1,216,214,218,-1,218,214,212,-1,218,212,208,-1,208,212,209,-1,
        ]
    }
}
Shape{
    appearance Appearance {
        material  Material {
            diffuseColor 0.2235294117647059 0.2235294117647059 0.2235294117647059
            specularColor 0.11372549019607843 0.11372549019607843 0.11372549019607843
            ambientIntensity 0.2235
            transparency 0.0
            shininess 0.5
        }
    }
    geometry IndexedFaceSet {
        ccw TRUE
        solid FALSE
        coord DEF co Coordinate {
            point [
                -0.1723 -0.0221 0.0039, -0.2118 -0.0221 0.0039, -0.1899 0.0272 0.0039, -0.194 0.0272 0.0039, -0.191 0.0313 0.0039, -0.1929 0.0313 0.0039, -0.1918 0.0355 0.0039, -0.1922 0.0355 0.0039, -0.0519 0.0369 0.0039, -0.0519 -0.0553 0.0039, -0.0693 0.0369 0.0039, -0.0686 -0.0553 0.0039, -0.0811 -0.0541 0.0039, -0.1152 -0.008 0.0039, -0.1142 0.0037 0.0039, -0.1115 0.0131 0.0039, -0.0833 0.0354 0.0039, -0.091 -0.051 0.0039, -0.0991 -0.0462 0.0039, -0.1057 -0.0397 0.0039, -0.1107 -0.0315 0.0039, -0.1141 -0.0204 0.0039, -0.1074 0.0204 0.0039, -0.1016 0.0264 0.0039, -0.093 0.032 0.0039
            ]
        }
        coordIndex [
            0,1,2,-1,2,1,3,-1,2,3,4,-1,4,3,5,-1,4,5,6,-1,6,5,7,-1,8,9,10,-1,10,9,11,-1,10,11,12,-1,13,14,10,-1,10,14,15,-1,10,15,16,-1,12,17,10,-1,10,17,18,-1,10,18,19,-1,19,20,10,-1,10,20,21,-1,10,21,13,-1,22,23,15,-1,15,23,24,-1,15,24,16,-1,
        ]
    }
}